<svg xmlns="http://www.w3.org/2000/svg" id="Layer_1" x="0px" y="0px" enable-background="new 308 -73.6 511.6 171" xml:space="preserve" viewBox="308 -73.6 511.6 171" className="store-icon"><g><g><g><path fill="#A7A6A6" d="M778.9-73.5H348.8c-1.6,0-3.1,0-4.7,0c-1.3,0-2.6,0-3.9,0.1c-2.9,0-5.7,0.3-8.6,0.8&#10;&#9;&#9;&#9;&#9;c-2.8,0.5-5.6,1.4-8.1,2.7c-2.6,1.3-4.9,3-6.9,5c-2,2-3.7,4.4-5,6.9c-1.3,2.6-2.2,5.3-2.7,8.1c-0.5,2.8-0.7,5.7-0.8,8.6&#10;&#9;&#9;&#9;&#9;c0,1.3,0,2.6-0.1,3.9v98.8c0,1.3,0,2.6,0.1,3.9c0,2.9,0.3,5.7,0.8,8.6c0.5,2.8,1.4,5.6,2.7,8.1c1.3,2.6,3,4.9,5,6.9&#10;&#9;&#9;&#9;&#9;s4.4,3.7,6.9,5c2.6,1.3,5.3,2.2,8.1,2.7c2.8,0.5,5.7,0.7,8.6,0.8c1.3,0,2.6,0,3.9,0c1.6,0,3.1,0,4.7,0h430.1c1.5,0,3.1,0,4.6,0&#10;&#9;&#9;&#9;&#9;c1.3,0,2.6,0,3.9,0c2.9,0,5.7-0.3,8.6-0.8c2.8-0.5,5.6-1.4,8.2-2.7c2.6-1.3,4.9-3,6.9-5s3.7-4.4,5.1-6.9c1.3-2.6,2.2-5.3,2.6-8.1&#10;&#9;&#9;&#9;&#9;c0.5-2.8,0.7-5.7,0.8-8.6c0-1.3,0-2.6,0-3.9c0-1.6,0-3.1,0-4.7v-89.4c0-1.6,0-3.1,0-4.7c0-1.3,0-2.6,0-3.9&#10;&#9;&#9;&#9;&#9;c-0.1-2.9-0.3-5.7-0.8-8.6c-0.5-2.8-1.4-5.6-2.6-8.1c-2.6-5.1-6.8-9.3-12-12c-2.6-1.3-5.3-2.2-8.2-2.7c-2.8-0.5-5.7-0.7-8.6-0.8&#10;&#9;&#9;&#9;&#9;c-1.3,0-2.6,0-3.9-0.1C782-73.5,780.5-73.5,778.9-73.5L778.9-73.5z"/><path fill="#010101" d="M344.1,93.8c-1.3,0-2.6,0-3.9,0c-2.7,0-5.3-0.3-8-0.7c-2.5-0.4-4.9-1.2-7.1-2.3c-2.2-1.1-4.2-2.6-6-4.3&#10;&#9;&#9;&#9;&#9;c-1.8-1.7-3.2-3.8-4.4-6c-1.1-2.2-1.9-4.6-2.3-7.1c-0.4-2.7-0.7-5.3-0.7-8c0-0.9-0.1-3.9-0.1-3.9v-98.9c0,0,0-3,0.1-3.8&#10;&#9;&#9;&#9;&#9;c0-2.7,0.3-5.4,0.7-8c0.4-2.5,1.2-4.9,2.3-7.1c1.1-2.2,2.6-4.2,4.3-6c1.8-1.8,3.8-3.2,6-4.4c2.2-1.1,4.6-1.9,7.1-2.3&#10;&#9;&#9;&#9;&#9;c2.7-0.4,5.3-0.7,8-0.7l3.9-0.1h439.4l3.9,0.1c2.7,0,5.3,0.3,7.9,0.7c2.5,0.4,4.9,1.2,7.1,2.3c4.4,2.3,8,5.9,10.3,10.3&#10;&#9;&#9;&#9;&#9;c1.1,2.2,1.9,4.6,2.3,7.1c0.4,2.7,0.7,5.4,0.7,8.1c0,1.2,0,2.5,0,3.8c0,1.6,0,3.1,0,4.7v89.5c0,1.6,0,3.1,0,4.6c0,1.4,0,2.7,0,4&#10;&#9;&#9;&#9;&#9;c0,2.7-0.3,5.3-0.7,7.9c-0.4,2.5-1.2,4.9-2.3,7.1c-1.1,2.2-2.6,4.2-4.3,5.9c-1.7,1.8-3.8,3.2-6,4.4c-2.2,1.1-4.7,1.9-7.1,2.4&#10;&#9;&#9;&#9;&#9;c-2.6,0.4-5.3,0.7-8,0.7c-1.3,0-2.6,0-3.8,0h-4.6L344.1,93.8z"/></g><g id="_Group_"><g id="_Group_2"><g id="_Group_3"><path id="_Path_" fill="#FFFFFF" d="M413.9,13.3C414,6,417.8-0.7,424-4.5c-3.9-5.6-10.2-9-17.1-9.2c-7.2-0.8-14.1,4.3-17.8,4.3&#10;&#9;&#9;&#9;&#9;&#9;&#9;c-3.7,0-9.4-4.2-15.4-4.1c-8,0.3-15.2,4.7-19.1,11.7c-8.3,14.3-2.1,35.4,5.8,46.9c4,5.7,8.6,12,14.7,11.8&#10;&#9;&#9;&#9;&#9;&#9;&#9;c5.9-0.2,8.1-3.8,15.3-3.8c7.1,0,9.2,3.8,15.4,3.6c6.4-0.1,10.4-5.7,14.2-11.4c2.8-4,5-8.5,6.5-13.2&#10;&#9;&#9;&#9;&#9;&#9;&#9;C418.8,28.9,413.9,21.5,413.9,13.3z"/><path id="_Path_2" fill="#FFFFFF" d="M402.2-21.3c3.5-4.2,5.2-9.5,4.8-14.9c-5.3,0.6-10.2,3.1-13.7,7.1s-5.2,9.1-4.9,14.4&#10;&#9;&#9;&#9;&#9;&#9;&#9;C393.8-14.7,398.9-17.1,402.2-21.3z"/></g></g><g><path fill="#FFFFFF" d="M488.9,42.5h-20.2l-4.9,14.4h-8.6l19.2-53.1h8.9l19.2,53.1h-8.7L488.9,42.5z M470.7,35.9h16l-7.9-23.3&#10;&#9;&#9;&#9;&#9;&#9;h-0.2L470.7,35.9z"/><path fill="#FFFFFF" d="M543.9,37.5c0,12-6.4,19.8-16.2,19.8c-5,0.3-9.8-2.4-12.2-6.8h-0.2v19.2h-7.9V18.2h7.7v6.4h0.1&#10;&#9;&#9;&#9;&#9;&#9;c2.5-4.4,7.3-7,12.3-6.8C537.4,17.8,543.9,25.5,543.9,37.5z M535.7,37.5c0-7.8-4.1-13-10.2-13s-10.2,5.3-10.2,13&#10;&#9;&#9;&#9;&#9;&#9;c0,7.8,4.1,13,10.2,13S535.7,45.4,535.7,37.5z"/><path fill="#FFFFFF" d="M586.5,37.5c0,12-6.4,19.8-16.2,19.8c-5,0.3-9.8-2.4-12.2-6.8h-0.2v19.2H550V18.2h7.7v6.4h0.1&#10;&#9;&#9;&#9;&#9;&#9;c2.5-4.4,7.3-7,12.3-6.8C580,17.8,586.5,25.5,586.5,37.5z M578.3,37.5c0-7.8-4.1-13-10.2-13c-6.1,0-10.2,5.3-10.2,13&#10;&#9;&#9;&#9;&#9;&#9;c0,7.8,4.1,13,10.2,13S578.3,45.4,578.3,37.5L578.3,37.5z"/><path fill="#FFFFFF" d="M614.6,42.1c0.6,5.3,5.7,8.7,12.7,8.7c6.7,0,11.5-3.5,11.5-8.2c0-4.1-2.9-6.6-9.8-8.3l-6.9-1.7&#10;&#9;&#9;&#9;&#9;&#9;c-9.8-2.4-14.3-6.9-14.3-14.3c0-9.2,8-15.5,19.3-15.5c11.2,0,18.9,6.3,19.2,15.5h-8c-0.5-5.3-4.9-8.5-11.3-8.5&#10;&#9;&#9;&#9;&#9;&#9;c-6.4,0-10.8,3.2-10.8,7.9c0,3.8,2.8,6,9.6,7.7l5.9,1.4c10.9,2.6,15.4,7,15.4,14.7c0,9.9-7.9,16.2-20.5,16.2&#10;&#9;&#9;&#9;&#9;&#9;c-11.8,0-19.7-6.1-20.2-15.7L614.6,42.1z"/><path fill="#FFFFFF" d="M664.4,9v9.2h7.4v6.3h-7.4v21.3c0,3.3,1.5,4.9,4.7,4.9c0.9,0,1.7-0.1,2.6-0.2v6.3&#10;&#9;&#9;&#9;&#9;&#9;c-1.5,0.3-2.9,0.4-4.4,0.4c-7.8,0-10.9-2.9-10.9-10.5V24.5h-5.6v-6.3h5.6V9H664.4z"/><path fill="#FFFFFF" d="M676,37.5c0-12.2,7.2-19.8,18.4-19.8c11.2,0,18.4,7.7,18.4,19.8c0,12.2-7.1,19.8-18.4,19.8&#10;&#9;&#9;&#9;&#9;&#9;C683.1,57.4,676,49.7,676,37.5z M704.6,37.5c0-8.4-3.8-13.3-10.3-13.3c-6.4,0-10.3,5-10.3,13.3c0,8.4,3.8,13.3,10.3,13.3&#10;&#9;&#9;&#9;&#9;&#9;S704.6,45.9,704.6,37.5L704.6,37.5z"/><path fill="#FFFFFF" d="M719.3,18.2h7.6v6.6h0.2c1.1-4.2,4.9-7.2,9.3-7c0.9,0,1.8,0.1,2.7,0.3v7.4c-1.2-0.4-2.4-0.5-3.6-0.5&#10;&#9;&#9;&#9;&#9;&#9;c-4.4-0.2-8.1,3.3-8.3,7.7c0,0.4,0,0.8,0,1.2v23h-7.9V18.2z"/><path fill="#FFFFFF" d="M775.7,45.5c-1.1,7-7.9,11.9-16.7,11.9c-11.3,0-18.3-7.5-18.3-19.7c0-12.1,7-20,17.9-20&#10;&#9;&#9;&#9;&#9;&#9;c10.7,0,17.4,7.4,17.4,19.1v2.7h-27.3V40c-0.5,5.5,3.6,10.4,9.2,10.9c0.4,0,0.8,0,1.3,0c3.9,0.4,7.5-1.9,8.9-5.4H775.7z&#10;&#9;&#9;&#9;&#9;&#9; M748.8,34h19.4c0.3-5.1-3.6-9.5-8.8-9.8c-0.2,0-0.5,0-0.7,0C753.3,24.1,748.9,28.5,748.8,34C748.8,33.9,748.8,33.9,748.8,34z"/></g></g></g><g id="_Group_4"><g><path fill="#FFFFFF" d="M469.7-36.2c6.2-0.4,11.6,4.2,12.1,10.4c0.1,0.7,0,1.5-0.1,2.2c0,8.2-4.4,12.8-12,12.8h-9.2v-25.4H469.7z&#10;&#9;&#9;&#9;&#9; M464.5-14.3h4.8c4.4,0.3,8.2-3.1,8.5-7.5c0-0.6,0-1.1-0.1-1.6c0.6-4.4-2.5-8.5-6.9-9.1c-0.5-0.1-1-0.1-1.5-0.1h-4.8V-14.3z"/><path fill="#FFFFFF" d="M486.2-20.3c-0.5-5,3.2-9.5,8.2-9.9c5-0.5,9.5,3.2,9.9,8.2c0.1,0.6,0.1,1.2,0,1.7c0.5,5-3.2,9.5-8.2,10&#10;&#9;&#9;&#9;&#9;s-9.5-3.2-10-8.2C486.2-19.1,486.2-19.7,486.2-20.3z M500.5-20.3c0-4.2-1.9-6.6-5.2-6.6c-3.3,0-5.2,2.4-5.2,6.6s1.9,6.6,5.2,6.6&#10;&#9;&#9;&#9;&#9;C498.6-13.7,500.5-16.1,500.5-20.3L500.5-20.3z"/><path fill="#FFFFFF" d="M528.5-10.7h-3.9l-4-14.2h-0.3l-4,14.2h-3.9L507.1-30h3.9l3.4,14.7h0.3l4-14.7h3.6l4,14.7h0.3L530-30h3.8&#10;&#9;&#9;&#9;&#9;L528.5-10.7z"/><path fill="#FFFFFF" d="M538.3-29.9h3.7v3.1h0.3c1-2.3,3.3-3.6,5.7-3.4c3.4-0.3,6.5,2.3,6.7,5.8c0,0.5,0,0.9,0,1.4v12.5h-3.8&#10;&#9;&#9;&#9;&#9;v-11.7c0-3.1-1.3-4.6-4.2-4.6c-2.4-0.1-4.5,1.8-4.6,4.2c0,0.2,0,0.4,0,0.7v11.3h-3.8V-29.9z"/><path fill="#FFFFFF" d="M560.7-37.4h3.8v26.8h-3.8V-37.4z"/><path fill="#FFFFFF" d="M569.8-20.3c-0.5-5,3.2-9.5,8.2-9.9c5-0.5,9.5,3.2,9.9,8.2c0.1,0.6,0.1,1.2,0,1.7c0.5,5-3.2,9.5-8.2,10&#10;&#9;&#9;&#9;&#9;s-9.5-3.2-10-8.2C569.7-19.1,569.7-19.7,569.8-20.3z M584-20.3c0-4.2-1.9-6.6-5.2-6.6s-5.2,2.4-5.2,6.6s1.9,6.6,5.2,6.6&#10;&#9;&#9;&#9;&#9;C582.1-13.7,584-16.1,584-20.3z"/><path fill="#FFFFFF" d="M591.9-16.1c0-3.5,2.6-5.5,7.2-5.7l5.2-0.3v-1.7c0-2-1.3-3.2-3.9-3.2c-2.1,0-3.6,0.8-4,2.1h-3.7&#10;&#9;&#9;&#9;&#9;c0.4-3.3,3.5-5.4,7.9-5.4c4.8,0,7.5,2.4,7.5,6.5v13.2h-3.7v-2.7h-0.3c-1.2,2-3.5,3.1-5.8,3c-3.2,0.3-6.1-2-6.4-5.2&#10;&#9;&#9;&#9;&#9;C591.9-15.7,591.9-15.9,591.9-16.1z M604.3-17.8v-1.6l-4.7,0.3c-2.7,0.2-3.9,1.1-3.9,2.8c0,1.7,1.5,2.7,3.6,2.7&#10;&#9;&#9;&#9;&#9;c2.5,0.3,4.7-1.6,5-4.1C604.3-17.7,604.3-17.7,604.3-17.8z"/><path fill="#FFFFFF" d="M613.1-20.3c0-6.1,3.1-9.9,8-9.9c2.5-0.1,4.8,1.2,5.9,3.4h0.3v-10.6h3.8v26.8h-3.6v-3h-0.3&#10;&#9;&#9;&#9;&#9;c-1.2,2.2-3.6,3.5-6,3.4C616.2-10.4,613.1-14.2,613.1-20.3z M617-20.3c0,4.1,1.9,6.5,5.1,6.5s5.2-2.5,5.2-6.5s-2-6.5-5.2-6.5&#10;&#9;&#9;&#9;&#9;S617-24.4,617-20.3L617-20.3z"/><path fill="#FFFFFF" d="M646.8-20.3c-0.5-5,3.2-9.5,8.2-9.9c5-0.5,9.5,3.2,9.9,8.2c0.1,0.6,0.1,1.2,0,1.7c0.5,5-3.2,9.5-8.2,10&#10;&#9;&#9;&#9;&#9;s-9.5-3.2-10-8.2C646.7-19.1,646.7-19.7,646.8-20.3z M661-20.3c0-4.2-1.9-6.6-5.2-6.6s-5.2,2.4-5.2,6.6s1.9,6.6,5.2,6.6&#10;&#9;&#9;&#9;&#9;C659.2-13.7,661-16.1,661-20.3z"/><path fill="#FFFFFF" d="M670-29.9h3.7v3.1h0.3c1-2.3,3.3-3.6,5.7-3.4c3.4-0.3,6.5,2.3,6.7,5.8c0,0.5,0,0.9,0,1.4v12.5h-3.8v-11.7&#10;&#9;&#9;&#9;&#9;c0-3.1-1.3-4.6-4.2-4.6c-2.4-0.1-4.5,1.8-4.6,4.2c0,0.2,0,0.4,0,0.7v11.3H670V-29.9z"/><path fill="#FFFFFF" d="M707.9-34.7v4.9h4.2v3.2h-4.2v9.9c0,2,0.8,2.9,2.7,2.9c0.5,0,1,0,1.4-0.1v3.2c-0.7,0.1-1.4,0.2-2.1,0.2&#10;&#9;&#9;&#9;&#9;c-4.2,0-5.9-1.5-5.9-5.2v-10.9h-3v-3.2h3.1v-4.9C704.1-34.7,707.9-34.7,707.9-34.7z"/><path fill="#FFFFFF" d="M717.2-37.4h3.8v10.6h0.3c1-2.3,3.4-3.7,5.9-3.4c3.5-0.2,6.5,2.5,6.7,6c0,0.4,0,0.8,0,1.2v12.4H730v-11.6&#10;&#9;&#9;&#9;&#9;c0-3.1-1.4-4.6-4.1-4.6c-2.5-0.2-4.6,1.6-4.9,4.1c0,0.3,0,0.5,0,0.8v11.2h-3.8V-37.4z"/><path fill="#FFFFFF" d="M755.9-15.9c-1.1,3.6-4.6,6-8.3,5.6c-4.8,0.1-8.8-3.7-9-8.5c0-0.5,0-1,0.1-1.4c-0.7-4.9,2.8-9.3,7.6-10&#10;&#9;&#9;&#9;&#9;c0.4-0.1,0.8-0.1,1.3-0.1c5.4,0,8.6,3.7,8.6,9.7v1.3h-13.6v0.2c-0.2,2.8,1.8,5.3,4.6,5.5c0.2,0,0.3,0,0.5,0&#10;&#9;&#9;&#9;&#9;c1.9,0.2,3.7-0.7,4.6-2.3L755.9-15.9z M742.6-22.1h9.7c0.2-2.6-1.7-4.8-4.3-5c-0.1,0-0.3,0-0.4,0C744.9-27.1,742.6-25,742.6-22.1&#10;&#9;&#9;&#9;&#9;C742.6-22.2,742.6-22.1,742.6-22.1L742.6-22.1z"/></g></g></g></svg>