<svg xmlns="http://www.w3.org/2000/svg" id="Layer_1" x="0px" y="0px" enable-background="new 308.7 -63.8 511.5 151.6" xml:space="preserve" viewBox="308.7 -63.8 511.5 151.6" className="store-icon"><g><g><path d="M801.4,87.8H327.6c-10.4,0-18.9-8.5-18.9-18.9V-44.8c0-10.4,8.5-18.9,18.9-18.9h473.7c10.4,0,18.9,8.5,18.9,18.9V68.9&#10;&#9;&#9;&#9;C820.3,79.3,811.8,87.8,801.4,87.8z"/></g><g><g><path fill="#A7A6A6" d="M801.4-60.8c8.8,0,15.9,7.1,15.9,15.9V68.8c0,8.8-7.1,15.9-15.9,15.9H327.6c-8.8,0-15.9-7.1-15.9-15.9&#10;&#9;&#9;&#9;&#9;V-44.8c0-8.8,7.1-15.9,15.9-15.9h473.8 M801.4-63.8H327.6c-10.4,0-18.9,8.5-18.9,18.9V68.8c0,10.4,8.5,18.9,18.9,18.9h473.7&#10;&#9;&#9;&#9;&#9;c10.4,0,18.9-8.5,18.9-18.9V-44.8C820.3-55.3,811.8-63.8,801.4-63.8L801.4-63.8z"/></g></g><g><path fill="#FFFFFF" stroke="#FFFFFF" stroke-width="0.2" stroke-miterlimit="10" d="M488.4-25c0,3.2-0.9,5.7-2.8,7.6&#10;&#9;&#9;&#9;c-2.1,2.2-4.9,3.4-8.4,3.4c-3.3,0-6.1-1.1-8.4-3.4c-2.3-2.3-3.4-5.1-3.4-8.5s1.1-6.2,3.4-8.5c2.3-2.3,5.1-3.4,8.4-3.4&#10;&#9;&#9;&#9;c1.6,0,3.2,0.3,4.7,1c1.5,0.6,2.7,1.5,3.6,2.5l-2,2c-1.5-1.8-3.6-2.7-6.2-2.7c-2.4,0-4.5,0.8-6.2,2.5c-1.7,1.7-2.6,3.9-2.6,6.6&#10;&#9;&#9;&#9;c0,2.7,0.9,4.9,2.6,6.6c1.7,1.7,3.8,2.5,6.2,2.5c2.5,0,4.7-0.8,6.4-2.5c1.1-1.1,1.7-2.6,1.9-4.6h-8.3v-2.7h11&#10;&#9;&#9;&#9;C488.3-26.1,488.4-25.5,488.4-25z"/><path fill="#FFFFFF" stroke="#FFFFFF" stroke-width="0.2" stroke-miterlimit="10" d="M505.9-34.5h-10.4v7.2h9.3v2.7h-9.3v7.2h10.4&#10;&#9;&#9;&#9;v2.8h-13.3v-22.7h13.3V-34.5z"/><path fill="#FFFFFF" stroke="#FFFFFF" stroke-width="0.2" stroke-miterlimit="10" d="M518.2-14.5h-2.9v-20h-6.4v-2.8h15.6v2.8&#10;&#9;&#9;&#9;h-6.4L518.2-14.5L518.2-14.5z"/><path fill="#FFFFFF" stroke="#FFFFFF" stroke-width="0.2" stroke-miterlimit="10" d="M535.8-14.5v-22.8h2.9v22.7L535.8-14.5&#10;&#9;&#9;&#9;L535.8-14.5z"/><path fill="#FFFFFF" stroke="#FFFFFF" stroke-width="0.2" stroke-miterlimit="10" d="M551.7-14.5h-2.9v-20h-6.4v-2.8H558v2.8h-6.4&#10;&#9;&#9;&#9;L551.7-14.5L551.7-14.5z"/><path fill="#FFFFFF" stroke="#FFFFFF" stroke-width="0.2" stroke-miterlimit="10" d="M587.7-17.5c-2.2,2.3-5,3.4-8.3,3.4&#10;&#9;&#9;&#9;s-6.1-1.1-8.3-3.4s-3.3-5.1-3.3-8.4s1.1-6.1,3.3-8.4c2.2-2.3,5-3.4,8.3-3.4s6.1,1.2,8.3,3.5c2.2,2.3,3.4,5.1,3.4,8.4&#10;&#9;&#9;&#9;C591-22.6,589.9-19.8,587.7-17.5z M573.1-19.4c1.7,1.7,3.7,2.6,6.2,2.6s4.5-0.9,6.2-2.6s2.5-3.9,2.5-6.5s-0.8-4.8-2.5-6.5&#10;&#9;&#9;&#9;c-1.7-1.7-3.7-2.6-6.2-2.6s-4.5,0.9-6.2,2.6s-2.5,3.9-2.5,6.5S571.5-21.1,573.1-19.4z"/><path fill="#FFFFFF" stroke="#FFFFFF" stroke-width="0.2" stroke-miterlimit="10" d="M595.1-14.5v-22.8h3.6l11.1,17.7h0.1&#10;&#9;&#9;&#9;l-0.1-4.4v-13.3h2.9v22.7h-3L598-33.1h-0.1l0.1,4.4v14.2H595.1z"/></g><path fill="#FFFFFF" d="M566.9,18.6c-8.9,0-16.2,6.8-16.2,16.1s7.3,16.1,16.2,16.1c8.9,0,16.2-6.8,16.2-16.1S575.8,18.6,566.9,18.6&#10;&#9;&#9;z M566.9,44.5c-4.9,0-9.1-4-9.1-9.8s4.2-9.8,9.1-9.8c4.9,0,9.1,4,9.1,9.8S571.8,44.5,566.9,44.5z M531.6,18.6&#10;&#9;&#9;c-8.9,0-16.2,6.8-16.2,16.1s7.3,16.1,16.2,16.1c8.9,0,16.2-6.8,16.2-16.1C547.8,25.4,540.5,18.6,531.6,18.6z M531.6,44.5&#10;&#9;&#9;c-4.9,0-9.1-4-9.1-9.8s4.2-9.8,9.1-9.8c4.9,0,9.1,4,9.1,9.8S536.5,44.5,531.6,44.5z M489.6,23.6v6.8H506c-0.5,3.8-1.8,6.7-3.7,8.6&#10;&#9;&#9;c-2.4,2.4-6.1,5-12.6,5c-10.1,0-17.9-8.1-17.9-18.2s7.9-18.2,17.9-18.2c5.4,0,9.4,2.1,12.3,4.9l4.8-4.8c-4.1-3.9-9.5-6.9-17.2-6.9&#10;&#9;&#9;c-13.8,0-25.4,11.2-25.4,25s11.6,25,25.4,25c7.4,0,13.1-2.4,17.5-7c4.5-4.5,5.9-10.9,5.9-16c0-1.6-0.1-3.1-0.4-4.3L489.6,23.6&#10;&#9;&#9;L489.6,23.6z M661.3,28.9c-1.3-3.6-5.4-10.3-13.8-10.3c-8.3,0-15.2,6.5-15.2,16.1c0,9,6.8,16.1,16,16.1c7.4,0,11.7-4.5,13.4-7.1&#10;&#9;&#9;l-5.5-3.7c-1.8,2.7-4.3,4.5-7.9,4.5c-3.6,0-6.2-1.6-7.8-4.9l21.6-8.9L661.3,28.9z M639.4,34.3c-0.2-6.2,4.8-9.4,8.4-9.4&#10;&#9;&#9;c2.8,0,5.2,1.4,6,3.4L639.4,34.3z M621.8,49.9h7.1V2.5h-7.1V49.9z M610.2,22.2H610c-1.6-1.9-4.6-3.6-8.5-3.6&#10;&#9;&#9;c-8.1,0-15.4,7.1-15.4,16.2c0,9,7.4,16.1,15.4,16.1c3.8,0,6.9-1.7,8.5-3.7h0.2v2.3c0,6.2-3.3,9.5-8.6,9.5c-4.3,0-7-3.1-8.1-5.7&#10;&#9;&#9;l-6.2,2.6c1.8,4.3,6.5,9.5,14.3,9.5c8.3,0,15.3-4.9,15.3-16.8V19.7h-6.7L610.2,22.2L610.2,22.2z M602.1,44.5c-4.9,0-9-4.1-9-9.7&#10;&#9;&#9;c0-5.7,4.1-9.8,9-9.8c4.8,0,8.6,4.2,8.6,9.8C610.7,40.4,606.9,44.5,602.1,44.5z M694.5,2.5h-16.9v47.4h7.1V32h9.9&#10;&#9;&#9;c7.8,0,15.5-5.7,15.5-14.7S702.3,2.5,694.5,2.5z M694.7,25.4h-10.1V9.2h10.1c5.3,0,8.3,4.4,8.3,8.1C703,20.9,700,25.4,694.7,25.4z&#10;&#9;&#9; M738.4,18.6c-5.1,0-10.4,2.3-12.6,7.3l6.3,2.6c1.3-2.6,3.8-3.5,6.5-3.5c3.7,0,7.4,2.2,7.4,6.1v0.5c-1.3-0.7-4-1.8-7.4-1.8&#10;&#9;&#9;c-6.8,0-13.7,3.7-13.7,10.7c0,6.3,5.5,10.4,11.8,10.4c4.8,0,7.4-2.1,9-4.6h0.2V50h6.8V31.8C752.8,23.2,746.5,18.6,738.4,18.6z&#10;&#9;&#9; M737.5,44.5c-2.3,0-5.5-1.2-5.5-4c0-3.7,4-5.1,7.5-5.1c3.1,0,4.6,0.7,6.5,1.6C745.4,41.4,741.6,44.5,737.5,44.5z M777.6,19.6&#10;&#9;&#9;l-8.1,20.5h-0.2l-8.4-20.5h-7.6l12.6,28.7l-7.2,16h7.4l19.4-44.7C785.5,19.6,777.6,19.6,777.6,19.6z M714,49.9h7.1V2.5H714V49.9z"/><g><linearGradient id="SVGID_1_" gradientUnits="userSpaceOnUse" x1="391.2986" y1="-224.7986" x2="327.6988" y2="-161.1988" gradientTransform="matrix(1 0 0 1 0 194)"><stop offset="0" style="stop-color:#4998D3"/><stop offset="6.574450e-03" style="stop-color:#4A99D3"/><stop offset="0.2601" style="stop-color:#42BAEB"/><stop offset="0.5122" style="stop-color:#41C7F2"/><stop offset="0.7604" style="stop-color:#56C9E9"/><stop offset="1" style="stop-color:#5BCAE8"/></linearGradient><path fill="url(#SVGID_1_)" d="M348.2-35.2c-1.1,1.2-1.8,3-1.8,5.3v83.8c0,2.3,0.7,4.2,1.8,5.3l0.3,0.3l47-46.9V12v-0.6l-47-47&#10;&#9;&#9;&#9;L348.2-35.2z"/><linearGradient id="SVGID_2_" gradientUnits="userSpaceOnUse" x1="436.9181" y1="-182.05" x2="345.2198" y2="-182.05" gradientTransform="matrix(1 0 0 1 0 194)"><stop offset="0" style="stop-color:#FEE000"/><stop offset="0.4087" style="stop-color:#FEBD11"/><stop offset="0.7754" style="stop-color:#FAA51A"/><stop offset="1" style="stop-color:#F99B1C"/></linearGradient><path fill="url(#SVGID_2_)" d="M411.1,28.2l-15.6-15.7V12v-0.6l15.7-15.7l0.4,0.2l18.5,10.5c5.3,3,5.3,7.9,0,10.9L411.5,28&#10;&#9;&#9;&#9;L411.1,28.2z"/><linearGradient id="SVGID_3_" gradientUnits="userSpaceOnUse" x1="402.7907" y1="-173.2907" x2="316.5443" y2="-87.0443" gradientTransform="matrix(1 0 0 1 0 194)"><stop offset="0" style="stop-color:#EF4149"/><stop offset="1" style="stop-color:#C31E63"/></linearGradient><path fill="url(#SVGID_3_)" d="M411.5,28l-16-16l-47.2,47.2c1.7,1.8,4.6,2.1,7.9,0.2L411.5,28"/><linearGradient id="SVGID_4_" gradientUnits="userSpaceOnUse" x1="336.3629" y1="-257.1372" x2="374.8755" y2="-218.6246" gradientTransform="matrix(1 0 0 1 0 194)"><stop offset="0" style="stop-color:#32A072"/><stop offset="6.850000e-02" style="stop-color:#2CA772"/><stop offset="0.4762" style="stop-color:#4BBA71"/><stop offset="0.8009" style="stop-color:#5EBD6B"/><stop offset="1" style="stop-color:#66BE69"/></linearGradient><path fill="url(#SVGID_4_)" d="M411.5-4l-55.4-31.5c-3.2-1.8-6.1-1.6-7.9,0.2l47.2,47.2L411.5-4z"/><g><path opacity="0.2" fill="#010101" enable-background="new    " d="M411.1,27.7l-55,31.3c-3.1,1.7-5.8,1.6-7.6,0l0,0l-0.3,0.3&#10;&#9;&#9;&#9;&#9;l0,0l0.3,0.3l0,0c1.8,1.6,4.5,1.7,7.6,0l55.4-31.5L411.1,27.7z"/><path opacity="0.12" fill="#010101" enable-background="new    " d="M348.2,58.7c-1.1-1.2-1.8-3-1.8-5.3V54&#10;&#9;&#9;&#9;&#9;c0,2.3,0.7,4.2,1.8,5.3l0.3-0.3L348.2,58.7z"/></g><path opacity="0.12" fill="#010101" enable-background="new    " d="M430,16.9l-18.9,10.7l0.4,0.4L430,17.5c2.6-1.5,4-3.5,4-5.5&#10;&#9;&#9;&#9;l0,0C433.8,13.8,432.4,15.6,430,16.9z"/><path opacity="0.25" fill="#FFFFFF" enable-background="new    " d="M356.1-34.9l73.9,42c2.4,1.4,3.7,3.1,4,4.9l0,0&#10;&#9;&#9;&#9;c0-2-1.3-4-4-5.5l-73.9-42c-5.3-3-9.6-0.5-9.6,5.6v0.6C346.5-35.4,350.8-37.9,356.1-34.9z"/></g></g></svg>