<svg xmlns="http://www.w3.org/2000/svg" viewBox="0 0 903.3 490.5"><g fill="#fff"><path d="M198.5 0h11.7A203.98 203.98 0 01330 43.2c25.9 20.2 46.9 46.7 60.5 76.6 11.3 24.6 17.4 51.4 18.3 78.4v12.5c-.6 16.3-2.9 32.6-7.3 48.4a203.1 203.1 0 01-38.7 74.6 205.58 205.58 0 01-62.1 51.1 202.9 202.9 0 01-87.8 23.9c-.5 0-1.1 0-1.6.1h-13.8c-15.2-.6-30.4-2.7-45.1-6.6-29.9-7.8-58-22.7-81.4-42.9a206.3 206.3 0 01-40.1-46.8 202.48 202.48 0 01-29.3-82.3C.7 223.6.3 216.9 0 210.3v-11.7c.3-8.5 1-17 2.3-25.5 3.6-23.7 11.5-46.7 23.2-67.6 12.3-22.1 28.7-42 48.1-58.2C94.2 30.1 118.3 17 144 9c17.6-5.4 36-8.4 54.5-9zM192 17.6c-20.6 1.3-40.9 6.1-59.9 14.1-23.1 9.7-44.2 24.1-61.7 42a188.8 188.8 0 00-36.7 53.8c-8.5 18.7-13.8 38.9-15.7 59.4a187.35 187.35 0 0078.9 170.7c26.2 18.5 57.4 30.1 89.4 33.2s64.8-2.1 94.1-15.2a187.3 187.3 0 0062.6-45.3c18.3-20.1 32.1-44.1 40.2-70 10-31.9 11.2-66.4 3.5-99-7.4-31.6-23.3-61-45.5-84.7A187.17 187.17 0 00282.1 34 188.87 188.87 0 00192 17.6z"/><path d="M154.9 43.2H165v25.1c5.5-3.5 12.5-4.5 18.7-2.6 4 1.2 7.2 4.3 8.9 8.1 2.4 5.4 2.7 11.5 2.5 17.3-.3 5.3-1.1 10.9-4.4 15.2-2.4 3.2-6.2 5.1-10.2 5.6-6.3.9-13-.6-18.1-4.5-.7 1.2-1.1 2.4-1.7 3.6h-5.9c.1-22.6.1-45.2.1-67.8zM165 75.9V101c3.5 2.2 7.8 3 11.9 2.5 2.5-.3 4.9-1.6 6.2-3.8 1.9-3.2 2-7.1 2.1-10.7-.1-3.9 0-8.1-2.1-11.7a8.1 8.1 0 00-5.8-3.8c-4.3-.6-8.6.3-12.3 2.4zM239.6 46.3c3.7-1.6 8.3 1.2 8.8 5.1.7 3.8-2.6 7.7-6.5 7.6-3.9.1-7.3-3.9-6.4-7.8.4-2.2 2-4.1 4.1-4.9zM208.2 65.9c3.5-1.1 7.2-1.3 10.9-1.1 3.9.1 7.9.6 11.5 2.2v8.7c-4.4-1.7-9.2-2.6-13.9-2.5-2.4 0-5.1.2-7.1 1.8-1.5 1.3-1.8 3.6-1.3 5.4.3 1.2 1.4 2.1 2.6 2.6 3 1.1 6.3.9 9.4 1.5 3.5.6 7.3 1.6 9.8 4.3 2.2 2.3 2.8 5.7 2.7 8.8.1 4.1-1.6 8.3-4.9 10.7-3.9 2.9-8.8 3.7-13.5 3.8-5.3 0-10.7-.6-15.7-2.4v-8.6c5.9 2.1 12.4 3.1 18.6 2.1 2-.4 4.2-1.1 5.2-3 .7-1.5.6-3.4 0-4.9-1.1-2.1-3.6-2.6-5.7-2.9-4.4-.5-9-.8-13-2.9a9.56 9.56 0 01-4.9-6.2c-.9-4-.6-8.5 1.7-11.9 1.6-2.7 4.5-4.5 7.6-5.5zM236.9 65.9h10c.1 11.4 0 22.8 0 34.2 0 .9.1 1.9.8 2.5.8.7 2 .8 3 .8v8.2c-3.2.4-6.7.1-9.5-1.7-3.1-1.9-4.2-5.7-4.3-9.1V65.9zM259.4 99.3c3.4-1 7.3 1.4 8 4.9.9 3.4-1.6 7.2-5.1 7.9-3.4.8-7.1-1.7-7.7-5.1-.8-3.3 1.5-6.9 4.8-7.7zM116.5 143.6c10-10.2 23.9-16.3 38.2-17 13.6-.8 27.4 3.4 38.1 11.9 4.7 3.7 8.7 8.1 12 13 3.7-5.2 8-10 13.1-13.8 10.5-8 24-11.9 37.2-11.1 13.6.7 26.9 6.6 36.6 16.2a55.68 55.68 0 0116.8 37.5H100.2c.6-13.7 6.6-27.1 16.3-36.7zM102.4 197H306c-16.8 28.8-33.8 57.4-50.7 86.1-17 28.7-34 57.5-50.9 86.2l-54-90.9c-16-27.1-32.1-54.2-48-81.4z"/><path d="M697.8 408.8H198.5v-17.2h499.3c101 0 183.1-84 183.1-187.2S798.8 17.2 697.8 17.2H198.5V0h499.3c110.4 0 200.3 91.7 200.3 204.4s-89.9 204.4-200.3 204.4z"/><path d="M432.6 207.1h5.1v34.1h-5.1zM445.2 216.8h3.6l.4 2.1c2.1-1.5 4.8-2.7 7.9-2.7 5.2 0 8 3.1 8 8.2v16.8h-4.8V225c0-3.1-1.4-4.6-4.2-4.6-2.2 0-4.5 1-6 1.9v18.9h-4.8v-24.4zM473.7 220.8h-3.6v-3.6l3.6-.2v-2.5c0-5.3 2.8-7.9 8.2-7.9 1.3 0 2.5.2 3.7.3l-.3 4.2c-1-.2-2.2-.3-3.1-.3-2.5 0-3.7.9-3.7 3.7v2.3h5.4v4h-5.4v20.5h-4.8zM486.7 229c0-7.7 3-12.8 11.1-12.8 8 0 11 5.1 11 12.8s-3 12.8-11 12.8c-8.1 0-11.1-5.1-11.1-12.8zm17.2 0c0-4.8-1.1-8.5-6.1-8.5s-6.2 3.7-6.2 8.5 1.1 8.5 6.2 8.5c5 .1 6.1-3.7 6.1-8.5zM514.6 216.8h3.6l.5 2.9c2.1-2.3 4.4-3.4 7.1-3.4 1 0 2.1.1 2.9.3l-.4 4.5c-1-.2-1.8-.2-2.5-.2a8 8 0 00-6.3 2.6v17.9h-4.8v-24.6zM532.8 216.8h3.6l.4 2.1c1.8-1.3 4.2-2.7 7.4-2.7 2.8 0 4.9 1.1 6.2 3 2.5-1.8 4.9-3 8-3 5 0 7.7 3.3 7.7 8.4v16.6h-4.8v-16.1c0-3.1-1.4-4.7-4.1-4.7-1.7 0-3.6.7-5.5 2 .1.7.2 1.4.2 2.2v16.6h-4.8v-16.1c0-3.1-1.4-4.7-4-4.7-1.8 0-3.7.7-5.4 1.9v18.9h-4.8v-24.4zM581.8 226.5c1.3 0 3 .1 4.5.3v-1.7c0-3.5-1.7-4.7-5-4.7-2.2 0-5 .5-7.1 1.1l-.8-4.1c2.3-.6 5.2-1.2 8.2-1.2 5.8 0 9.5 2.4 9.5 8.4v16.6h-3.6l-.5-2.1c-1.7 1.4-4.1 2.6-7.3 2.6-4.6 0-8.4-2.6-8.4-7.6.2-5 4.1-7.6 10.5-7.6zm-1.1 11.3c2.1 0 4.2-.8 5.6-1.9v-5.6c-1.5-.2-3.4-.3-4.5-.3-3.3 0-5.5 1.2-5.5 3.9.1 2.7 1.9 3.9 4.4 3.9zM599.3 220.8h-3.6v-3.6l3.8-.2.4-7.2h4.2v7h6.6v4h-6.6v13.6c0 2.1.6 3.1 2.5 3.1 1.1 0 2.3-.3 3.6-.8l1.2 3.8c-1.5.6-3.4 1.2-5.5 1.2-4.1 0-6.6-2.1-6.6-7.1zM616.1 207.1h4.8v5.2h-4.8zm0 9.7h4.8v24.5h-4.8zM626.7 229c0-7.7 3-12.8 11.1-12.8 8 0 11 5.1 11 12.8s-3 12.8-11 12.8-11.1-5.1-11.1-12.8zm17.2 0c0-4.8-1.1-8.5-6.1-8.5s-6.2 3.7-6.2 8.5 1.1 8.5 6.2 8.5c5 .1 6.1-3.7 6.1-8.5zM654.6 216.8h3.6l.4 2.1c2.1-1.5 4.8-2.7 7.9-2.7 5.2 0 8 3.1 8 8.2v16.8h-4.8V225c0-3.1-1.4-4.6-4.2-4.6-2.2 0-4.5 1-6 1.9v18.9h-4.8v-24.4zM693.1 236.3c2.4.5 6 1 8.7 1 5 0 7.8-1.8 7.8-5.5 0-3.6-2.7-4.4-7.8-6.2-5-1.8-9.3-3.8-9.3-9.5 0-5.8 4.2-9.5 12.3-9.5 2.8 0 5.8.4 8.7 1.1l-.7 4.5c-2.2-.5-5.6-1-8.2-1-3.7 0-6.8 1.2-6.8 4.6 0 3.8 3.6 4.6 8 6.1 4.7 1.6 9.1 3.7 9.1 9.9 0 6.3-4.5 10.1-13.1 10.1-3 0-6.6-.5-9.4-1zM728.9 216.2c6.4 0 9.6 4.3 9.6 10.9 0 1.2-.1 2.5-.3 3.6h-14.7c.3 4.3 2.1 6.8 6.4 6.8 2.4 0 4.9-.8 6.9-1.6l1.5 3.9c-2.4 1.1-5.3 2-8.6 2-7.1 0-11.1-4.1-11.1-12.6-.1-8.2 3.6-13 10.3-13zm4.7 10.8c-.1-3.6-1.3-6.5-4.8-6.5s-5.1 2.7-5.4 6.5zM742.7 228.9c0-7.7 3-12.7 11.6-12.7 2.2 0 4.4.3 6.5.8l-.6 4.1c-1.7-.3-4-.6-5.7-.6-4.9 0-6.8 2.4-6.8 8.5 0 5.1 1.3 8.5 6.3 8.5 2.1 0 4.7-.6 6.6-1.4l1.3 4c-2.3 1-5.2 1.7-8.2 1.7-7.6 0-11-4.7-11-12.9zM766.3 216.8h4.8V233c0 3.1 1.4 4.6 4.2 4.6 2.2 0 4.5-.9 5.9-1.9v-18.9h4.8v24.5h-3.6l-.4-2.1a13.5 13.5 0 01-7.8 2.6c-5.2 0-8-3.1-8-8.2v-16.8zM793.6 216.8h3.6l.5 2.9c2.1-2.3 4.4-3.4 7.1-3.4 1 0 2.1.1 2.9.3l-.4 4.5c-1-.2-1.8-.2-2.5-.2a8 8 0 00-6.3 2.6v17.9h-4.8v-24.6zM811.8 207.1h4.8v5.2h-4.8zm0 9.7h4.8v24.5h-4.8zM825 220.8h-3.6v-3.6l3.8-.2.4-7.2h4.2v7h6.6v4h-6.6v13.6c0 2.1.6 3.1 2.5 3.1 1.1 0 2.3-.3 3.6-.8l1.2 3.8c-1.5.6-3.4 1.2-5.5 1.2-4.1 0-6.6-2.1-6.6-7.1zM839.4 216.8h4.9c1.6 6.8 3.6 13.9 5.8 20.2h.2c2.4-6.7 4.6-13.7 6.4-20.2h4.7c-3 11.4-7.3 24.2-11.6 34.1H845c1.3-3 2.5-6.3 3.9-9.7h-2c-2.4-5.2-5.7-16.6-7.5-24.4z"/><g><path d="M433.6 262.7h7.1l7.9 22.1h.2l7.8-22.1h7.1c.7 7.7 1.4 22.9 1.8 34.1h-5.1c-.3-9-.6-18.2-1.1-27.3h-.3l-7.7 21.7h-5.4l-7.8-21.7h-.2c-.5 9.1-.8 18.3-1.1 27.3h-5c.3-11.2 1.1-26.4 1.8-34.1zM480.7 282.1c1.3 0 3 .1 4.5.3v-1.7c0-3.5-1.7-4.7-5-4.7-2.2 0-5 .5-7.1 1.1l-.8-4.1c2.3-.6 5.2-1.2 8.2-1.2 5.8 0 9.5 2.4 9.5 8.4v16.6h-3.6l-.5-2.1c-1.7 1.4-4.1 2.6-7.3 2.6-4.6 0-8.4-2.6-8.4-7.6.2-5 4-7.6 10.5-7.6zm-1.1 11.3c2.1 0 4.2-.8 5.6-1.9v-5.6c-1.5-.2-3.4-.3-4.5-.3-3.3 0-5.5 1.2-5.5 3.9.1 2.7 1.9 3.9 4.4 3.9zM497.3 272.4h3.6l.4 2.1c2.1-1.5 4.8-2.7 7.9-2.7 5.2 0 8 3.1 8 8.2v16.8h-4.8v-16.2c0-3.1-1.4-4.6-4.2-4.6-2.2 0-4.5 1-6 1.9v18.9h-4.8v-24.4zM532.7 282.1c1.3 0 3 .1 4.5.3v-1.7c0-3.5-1.7-4.7-5-4.7-2.2 0-5 .5-7.1 1.1l-.8-4.1c2.3-.6 5.2-1.2 8.2-1.2 5.8 0 9.5 2.4 9.5 8.4v16.6h-3.6l-.5-2.1c-1.7 1.4-4.1 2.6-7.3 2.6-4.6 0-8.4-2.6-8.4-7.6.2-5 4.1-7.6 10.5-7.6zm-1.1 11.3c2.1 0 4.2-.8 5.6-1.9v-5.6c-1.5-.2-3.4-.3-4.5-.3-3.3 0-5.5 1.2-5.5 3.9.1 2.7 1.9 3.9 4.4 3.9zM557.5 302.8c3 0 5.5-.8 5.5-4.9v-2.3c-1.6.8-3.4 1.5-5.8 1.5-6.5 0-9.6-4.3-9.6-12.4 0-8.8 3.7-12.9 11.2-12.9 3.4 0 6.6.8 9.1 1.6v24.2c0 7.2-4.1 9.4-10.4 9.4-2.5 0-5-.4-7.2-.8l.6-4.2c1.8.4 4.5.8 6.6.8zm5.6-11.2v-15.1c-1.3-.3-2.9-.5-4.2-.5-4.7 0-6.3 2.7-6.3 8.7 0 5.7 1.5 8.2 5.5 8.2 1.6 0 3.4-.4 5-1.3zM584.1 271.8c6.4 0 9.6 4.3 9.6 10.9 0 1.2-.1 2.5-.3 3.6h-14.7c.3 4.3 2.1 6.8 6.4 6.8 2.4 0 4.9-.8 6.9-1.6l1.5 3.9c-2.4 1.1-5.3 2-8.6 2-7.1 0-11.1-4.1-11.1-12.6-.1-8.2 3.6-13 10.3-13zm4.7 10.8c-.1-3.6-1.3-6.5-4.8-6.5s-5.1 2.7-5.4 6.5zM599.4 272.4h3.6l.4 2.1c1.8-1.3 4.2-2.7 7.4-2.7 2.8 0 4.9 1.1 6.2 3 2.5-1.8 4.9-3 8-3 5 0 7.7 3.3 7.7 8.4v16.6H628v-16.1c0-3.1-1.4-4.7-4.1-4.7-1.7 0-3.6.7-5.5 2 .1.7.2 1.4.2 2.2v16.6h-4.8v-16.1c0-3.1-1.4-4.7-4-4.7-1.8 0-3.7.7-5.4 1.9v18.9h-4.8v-24.4zM648.7 271.8c6.4 0 9.6 4.3 9.6 10.9 0 1.2-.1 2.5-.3 3.6h-14.7c.3 4.3 2.1 6.8 6.4 6.8 2.4 0 4.9-.8 6.9-1.6l1.5 3.9c-2.4 1.1-5.3 2-8.6 2-7.1 0-11.1-4.1-11.1-12.6-.1-8.2 3.7-13 10.3-13zm4.8 10.8c-.1-3.6-1.3-6.5-4.8-6.5s-5.1 2.7-5.4 6.5zM664.1 272.4h3.6l.4 2.1c2.1-1.5 4.8-2.7 7.9-2.7 5.2 0 8 3.1 8 8.2v16.8h-4.8v-16.2c0-3.1-1.4-4.6-4.2-4.6-2.2 0-4.5 1-6 1.9v18.9h-4.8v-24.4zM692 276.4h-3.6v-3.6l3.8-.2.4-7.2h4.2v7h6.6v4h-6.6V290c0 2.1.6 3.1 2.5 3.1 1.1 0 2.3-.3 3.6-.8l1.2 3.8c-1.5.6-3.4 1.2-5.5 1.2-4.1 0-6.6-2.1-6.6-7.1z"/></g><g><path d="M434.5 60.3h7.2v48.3h-7.2zM449.5 101.5c3.4.7 8.6 1.4 12.4 1.4 7.1 0 11-2.5 11-7.7 0-5.1-3.8-6.2-11-8.7-7.1-2.6-13.2-5.3-13.2-13.5s6-13.5 17.4-13.5c3.9 0 8.3.6 12.3 1.5l-1.1 6.3c-3.2-.7-7.9-1.4-11.6-1.4-5.3 0-9.7 1.7-9.7 6.5 0 5.4 5.1 6.5 11.3 8.6 6.6 2.3 12.9 5.3 12.9 14 0 8.9-6.4 14.3-18.6 14.3-4.3 0-9.3-.7-13.3-1.4zM484 84.4c0-16.4 6.2-24.9 20.9-24.9 14.6 0 20.9 8.6 20.9 24.9 0 16.4-6.2 24.9-20.9 24.9-14.6 0-20.9-8.5-20.9-24.9zm34.3 0c0-12.7-3.8-18.5-13.4-18.5-9.7 0-13.4 5.9-13.4 18.5s3.8 18.5 13.4 18.5c9.7.1 13.4-5.8 13.4-18.5zM548.4 58.8h5.9l-20 51.3h-5.9zM559.6 60.3h7.2v48.3h-7.2zM577 60.3h28.4v6.4h-21.2v14h17.9v6.2h-17.9v15.3h21.2v6.4H577zM610 84.4c0-14.7 5.1-24.9 21.4-24.9 4 0 8.2.6 11.7 1.4l-1.1 6.2c-3-.5-7.4-1.2-10.7-1.2-11.6 0-13.9 8-13.9 18.7 0 9.7 1.9 18.3 13.4 18.3 4.1 0 8.2-1.1 11.9-2.6l2.2 5.9c-4.6 2-9.4 3.1-14.3 3.1-15.4 0-20.6-10.1-20.6-24.9z"/></g><g><path d="M432.2 175.2c14.1-12.2 22.6-21.2 22.6-29.3 0-4.9-3.1-8-9.2-8-4 0-8.5 1.4-11.6 2.6l-2.2-5.8c3.8-1.7 9.1-3.2 14.2-3.2 9.2 0 16.1 4.9 16.1 14.2 0 10.5-8.9 19.3-19.1 28.2l.1.3h20v6.4h-31v-5.4zM490.4 138.6h-23.6v-6.4h31.5v4.3c-4.2 11.9-10.9 28.7-17.4 44h-7.5c6.2-14.2 12.1-28.6 17-41.9zM501.4 156.4c0-16.1 3.5-24.8 17.6-24.8s17.7 8.7 17.7 24.8c0 16.2-3.6 25-17.7 25-14-.1-17.6-8.8-17.6-25zm28 0c0-11.4-.7-18.5-10.3-18.5-9.7 0-10.2 7.1-10.2 18.5 0 11.5.5 18.6 10.2 18.6 9.6 0 10.3-7.2 10.3-18.6zM542.9 156.4c0-16.1 3.5-24.8 17.6-24.8s17.7 8.7 17.7 24.8c0 16.2-3.6 25-17.7 25-14-.1-17.6-8.8-17.6-25zm27.9 0c0-11.4-.7-18.5-10.3-18.5-9.7 0-10.2 7.1-10.2 18.5 0 11.5.5 18.6 10.2 18.6s10.3-7.2 10.3-18.6zM594.2 139.8l-9.9 3.8-2.4-5.1 13.3-6.3h6.2v48.3h-7.2z"/></g><g><path d="M432.2 475.3v-36h6.3v36zM443.8 470.2l3.5-4.9c2.5 2.6 6.4 5 11.4 5 5.2 0 7.2-2.5 7.2-4.9 0-7.6-21-2.9-21-16.1 0-5.9 5.2-10.5 13.1-10.5 5.6 0 10.2 1.8 13.5 5l-3.6 4.7c-2.8-2.8-6.6-4.1-10.4-4.1-3.7 0-6.1 1.8-6.1 4.5 0 6.7 21 2.5 21 16 0 6-4.2 11.1-13.9 11.1-6.7-.1-11.5-2.4-14.7-5.8zM490.5 457.4c0-10.4 5.5-18.6 15.9-18.6 4.5 0 7.9 1.6 10.4 4l-3 4.8a9.2 9.2 0 00-7.4-3.2c-6 0-9.5 5.6-9.5 11.9 0 .4 0 .7.1 1 1.6-2.4 5.4-5 9.7-5 6.5 0 12 3.9 12 11.6 0 6.7-5.2 12.1-13.3 12.1-10.7-.1-14.9-8.6-14.9-18.6zm21.7 6.7c0-4.4-3.5-6.4-7.4-6.4-3.1 0-6 1.7-7.9 4.3.4 3.9 2.5 8.4 8 8.4 4.9-.1 7.3-3.4 7.3-6.3zM539.4 475.3v-8.2h-17.2V462l14.8-22.8h8.7v22.3h4.8v5.6h-4.8v8.2zm0-30.4l-11 16.6h11zM554.7 475.3v-5c14-10.6 19.4-15.3 19.4-20.5 0-3.8-3.2-5.5-6.5-5.5-4.2 0-7.5 1.7-9.7 4.3l-3.7-4.2c3.2-3.8 8.3-5.8 13.3-5.8 7 0 13.1 3.9 13.1 11.1 0 6.6-6.1 12.6-15.8 19.9h16v5.6h-26.1zM586.4 466.1c0-4.6 3.7-7.9 8.1-9.3-4-1.3-7.5-3.9-7.5-8.5 0-6.6 6.8-9.5 13.2-9.5 6.3 0 13.2 2.8 13.2 9.5 0 4.6-3.5 7.2-7.6 8.5 4.4 1.5 8.1 4.8 8.1 9.3 0 6.4-6.4 9.9-13.8 9.9-7.2-.1-13.7-3.5-13.7-9.9zm21.3-.9c0-3.7-5.2-5.4-7.4-5.7-2.3.3-7.5 1.9-7.5 5.7 0 3.1 3.3 5.1 7.5 5.1 3.9 0 7.4-1.9 7.4-5.1zm-.6-16c0-3-3-4.8-6.8-4.8-3.9 0-6.9 1.8-6.9 4.8 0 3.4 4.6 4.7 6.9 5.1 2.2-.4 6.8-1.7 6.8-5.1zM626.7 475.3v-27.8l-5.9 6.1-3.7-3.8 10.4-10.5h5.5v36zM640.8 471.9l2.9-4.8c1.9 1.9 4 3.1 7.4 3.1 6.5 0 9.5-5.9 9.5-11.8v-1.1c-1.7 2.4-5.5 5.1-9.7 5.1-6.5 0-12.1-4-12.1-11.7 0-6.6 5.2-12.1 13.3-12.1 10.6 0 14.8 8.6 14.8 18.6 0 10.4-5.5 18.6-15.9 18.6-4.3.1-7.8-1.5-10.2-3.9zm19.7-19.1c-.3-3.9-2.5-8.5-8-8.5-4.7 0-7.2 3.4-7.2 6.3 0 4.4 3.5 6.4 7.3 6.4 3.1 0 6.1-1.6 7.9-4.2z"/></g></g></svg>
