<svg xmlns="http://www.w3.org/2000/svg" viewBox="295.4 -85 537.2 194"><path d="M296.8-83.6h534.4v191.2H296.8z"/><path fill="#D2D2D2" d="M298.2-82.2h531.6v188.4H298.2V-82.2zM295.4 109h537.2V-85H295.4v194z"/><g><path fill="#F25022" d="M337.2-42h52.1v52.1h-52.1z"/><path fill="#7FBA00" d="M394.8-42h52.1v52.1h-52.1z"/><path fill="#00A4EF" d="M337.2 15.4h52.1v52.1h-52.1z"/><path fill="#FFB900" d="M394.8 15.4h52.1v52.1h-52.1z"/><path fill="#FFF" d="M547.3 16.7c0-1.6.6-2.8 1.7-3.9s2.4-1.6 4-1.6 3 .6 4 1.6c1.1 1.1 1.6 2.4 1.6 3.8 0 1.5-.6 2.8-1.7 3.8-1.1 1.1-2.4 1.6-4 1.6s-2.9-.5-4-1.6c-1.1-1-1.6-2.3-1.6-3.7m10.2 50.7h-9.3V28h9.3v39.4zM585.8 60.7c1.4 0 2.9-.3 4.6-.9 1.7-.6 3.2-1.5 4.6-2.5v8.6c-1.5.9-3.2 1.5-5 1.9-1.9.4-4 .7-6.2.7-5.8 0-10.5-1.9-14.2-5.5-3.7-3.7-5.5-8.4-5.5-14.1 0-6.3 1.9-11.6 5.6-15.7 3.7-4.1 9-6.2 15.8-6.2 1.7 0 3.5.2 5.3.7 1.8.4 3.2 1 4.2 1.6v8.9c-1.4-1.1-2.9-1.9-4.4-2.4s-3-.9-4.6-.9c-3.7 0-6.6 1.2-8.9 3.5-2.2 2.4-3.4 5.6-3.4 9.6s1.1 7.1 3.2 9.3c2.2 2.4 5.1 3.4 8.9 3.4M621.5 27.4c.7 0 1.4.1 2 .1.6.1 1.1.2 1.5.4v9.4c-.5-.4-1.2-.7-2.1-1-.9-.3-2.1-.5-3.4-.5-2.3 0-4.2.9-5.8 2.9s-2.4 4.9-2.4 8.9v20H602V28.1h9.3v6.2h.1c.9-2.2 2.1-3.9 3.9-5 1.7-1.3 3.7-1.9 6.2-1.9M625.5 48.3c0-6.5 1.9-11.7 5.5-15.5 3.7-3.8 8.8-5.7 15.4-5.7 6.2 0 11 1.9 14.5 5.5 3.5 3.7 5.2 8.6 5.2 14.9 0 6.4-1.9 11.5-5.5 15.3-3.7 3.8-8.7 5.7-15 5.7-6.1 0-11-1.8-14.5-5.4-3.9-3.6-5.6-8.5-5.6-14.8m9.6-.2c0 4.1.9 7.3 2.8 9.5s4.5 3.2 8 3.2c3.4 0 6-1.1 7.7-3.2 1.7-2.2 2.7-5.4 2.7-9.7 0-4.2-.9-7.5-2.7-9.6-1.8-2.2-4.4-3.2-7.7-3.2-3.4 0-6 1.1-8 3.4-1.9 2.2-2.8 5.3-2.8 9.6M679.8 38.3c0 1.3.4 2.4 1.2 3.1.9.7 2.7 1.7 5.6 2.9 3.7 1.5 6.3 3.2 7.8 5 1.5 1.9 2.2 4.1 2.2 6.7 0 3.7-1.4 6.7-4.3 9-2.9 2.2-6.7 3.4-11.6 3.4-1.6 0-3.4-.2-5.4-.6s-3.7-.9-5-1.5v-9.1c1.7 1.2 3.5 2.1 5.5 2.8 1.9.7 3.7 1.1 5.3 1.1 2.1 0 3.7-.3 4.7-.9s1.5-1.6 1.5-3c0-1.3-.5-2.4-1.6-3.2-1.1-.9-3-1.9-5.9-3-3.4-1.4-5.8-3-7.3-4.9s-2.2-4.1-2.2-6.8c0-3.5 1.4-6.5 4.2-8.8s6.5-3.4 11-3.4c1.4 0 2.9.1 4.7.4 1.7.3 3.2.7 4.3 1.2v8.8c-1.2-.8-2.7-1.5-4.3-2.1s-3.3-.9-4.8-.9c-1.7 0-3.2.4-4.1 1.1-1 .6-1.5 1.6-1.5 2.7M700.8 48.3c0-6.5 1.9-11.7 5.5-15.5 3.7-3.8 8.8-5.7 15.4-5.7 6.2 0 11 1.9 14.5 5.5 3.5 3.7 5.2 8.6 5.2 14.9 0 6.4-1.9 11.5-5.5 15.3-3.7 3.8-8.7 5.7-15 5.7-6.1 0-11-1.8-14.5-5.4-3.8-3.6-5.6-8.5-5.6-14.8m9.7-.2c0 4.1.9 7.3 2.8 9.5s4.5 3.2 8 3.2c3.4 0 6-1.1 7.7-3.2 1.7-2.2 2.7-5.4 2.7-9.7 0-4.2-.9-7.5-2.7-9.6-1.8-2.2-4.4-3.2-7.7-3.2-3.4 0-6 1.1-8 3.4-1.8 2.2-2.8 5.3-2.8 9.6M772 35.7V56c0 4.2 1 7.3 2.9 9.5s4.9 3.1 8.8 3.1c1.3 0 2.7-.1 4-.4 1.4-.3 2.4-.6 2.9-.9v-7.7c-.6.4-1.2.7-2 .9-.8.2-1.4.4-1.9.4-1.9 0-3.3-.5-4.2-1.5s-1.3-2.7-1.3-5.2V35.7h9.5v-7.6h-9.4V16.3l-9.3 2.9v8.9h-13.9v-4.8c0-2.4.5-4.2 1.6-5.4s2.5-1.8 4.5-1.8c1 0 1.9.1 2.7.4.7.2 1.3.5 1.6.7v-8c-.7-.2-1.4-.4-2.3-.5-.9-.1-1.9-.2-3-.2-4.2 0-7.7 1.3-10.4 4s-4 6-4 10.2v5.5h-6.6v7.6h6.6v31.9h9.4V35.8l13.8-.1zM539.3 12.4v55h-9.5v-43h-.2l-17.1 43h-6.3l-17.5-43h-.2v43h-8.7v-55h13.7l15.7 40.8h.3l16.7-40.8zM504.8-11.4c-3.3 1.9-7 2.8-11.2 2.8-3.2 0-6-.7-8.5-2.1-2.4-1.4-4.4-3.4-5.7-5.9-1.3-2.5-2-5.4-2-8.6 0-3.4.7-6.4 2.2-9 1.5-2.6 3.5-4.7 6.2-6.2s5.7-2.2 9-2.2c1.7 0 3.4.2 5 .5 1.7.3 3 .7 4.1 1.2v5c-2.5-1.7-5.7-2.5-9.5-2.5-2.3 0-4.4.6-6.2 1.7-1.9 1.1-3.3 2.7-4.3 4.6-1 2-1.5 4.2-1.5 6.7 0 3.9 1.1 7 3.1 9.3s4.9 3.4 8.5 3.4c2.3 0 4.4-.4 6.1-1.4v-8.5h-7v-4.1h11.6l.1 15.3zM531.6-19.7h-16.3c.1 2.4.8 4.2 2.1 5.5 1.3 1.2 3 1.9 5.1 1.9 2.8 0 5.2-.8 7.3-2.4v4c-.9.6-2.1 1.2-3.5 1.6s-2.9.6-4.4.6c-3.5 0-6.3-1.1-8.3-3.2s-2.9-5.1-2.9-9c0-2.4.5-4.5 1.4-6.4s2.3-3.4 4-4.5c1.7-1.1 3.6-1.6 5.7-1.6 3 0 5.5 1 7.2 3s2.6 4.7 2.6 8.3v2.2zm-4.5-3.5c0-2.1-.5-3.6-1.4-4.7s-2.2-1.6-4-1.6c-1.6 0-2.9.6-4.1 1.7-1.2 1.1-1.9 2.7-2.2 4.6h11.7zM549.3-9.4c-.4.2-1 .4-1.8.6-.7.1-1.4.2-2.1.2-4.4 0-6.5-2.4-6.5-7.2v-13.1h-4v-3.8h4v-5.6l4.5-1.4v7h5.8v3.7h-5.8v12.3c0 1.6.2 2.7.7 3.3s1.4.9 2.7.9c.9 0 1.7-.2 2.4-.7l.1 3.8zM571.8-41c0 .7-.2 1.4-.8 1.9s-1.2.8-2.1.8c-.8 0-1.5-.2-2.1-.8-.6-.5-.8-1.2-.8-2s.3-1.5.9-2c.6-.5 1.2-.8 2-.8s1.4.2 2 .8c.6.7.9 1.3.9 2.1m-.7 31.8h-4.5v-23.5h4.5v23.5zM591-9.4c-.4.2-1 .4-1.8.6-.7.1-1.4.2-2.1.2-4.4 0-6.5-2.4-6.5-7.2v-13.1h-4v-3.8h4v-5.6l4.4-1.4v7h5.8v3.7H585v12.3c0 1.6.2 2.7.7 3.3s1.4.9 2.7.9c.9 0 1.7-.2 2.4-.7l.2 3.8zM620.6-40.2c-.7-.4-1.6-.6-2.5-.6-2.5 0-3.8 1.6-3.8 4.7v3.3h5.3v3.7h-5.3v19.8h-4.5V-29h-4v-3.8h4v-3.6c0-2.5.7-4.5 2.1-6s3.4-2.2 5.8-2.2c1.2 0 2.2.1 2.9.4v4zM637.3-28.1c-.2-.2-.7-.4-1.4-.6-.6-.1-1.2-.2-1.6-.2-1.6 0-2.9.7-3.9 2.2-1 1.4-1.5 3.3-1.5 5.6v12h-4.5v-23.6h4.5v4.7h.1c.5-1.6 1.3-2.9 2.4-3.8 1.1-.9 2.3-1.4 3.7-1.4.9 0 1.7.1 2.2.3v4.8zM663.2-21c0 3.8-1.1 6.8-3.3 9.1s-5.1 3.4-8.7 3.4c-3.5 0-6.4-1.1-8.5-3.3s-3.2-5.1-3.2-8.8c0-3.9 1.1-7 3.3-9.2s5.2-3.4 9-3.4c3.5 0 6.3 1.1 8.3 3.2 2.1 2.2 3.1 5.2 3.1 9m-4.6.1c0-2.8-.6-4.9-1.8-6.3s-2.9-2.2-5.2-2.2c-2.2 0-4 .7-5.3 2.3-1.3 1.5-1.9 3.7-1.9 6.4s.6 4.7 1.9 6.2c1.3 1.5 3 2.2 5.3 2.2s4-.7 5.2-2.2c1.2-1.5 1.8-3.6 1.8-6.4M703.8-9.2h-4.5v-13.3c0-2.4-.4-4.2-1.1-5.3s-2.1-1.6-3.9-1.6c-1.5 0-2.8.7-3.8 2.1-1.1 1.4-1.6 3-1.6 4.9v13.3h-4.5V-23c0-4.3-1.7-6.5-5-6.5-1.6 0-2.9.7-3.9 2s-1.5 3-1.5 5v13.3h-4.5v-23.5h4.5v3.7h.1c1.7-2.9 4.2-4.2 7.3-4.2 1.5 0 2.9.4 4.1 1.2 1.2.8 2.1 2 2.6 3.5.9-1.6 2-2.8 3.3-3.6 1.3-.7 2.8-1.2 4.5-1.2 5.2 0 7.7 3.2 7.7 9.6l.2 14.5z"/></g></svg>