<svg xmlns="http://www.w3.org/2000/svg" viewBox="0 0 1444.9 490.5"><g fill="#fff"><path d="M198.5 0h11.7A203.98 203.98 0 01330 43.2c25.9 20.2 46.9 46.7 60.5 76.6 11.3 24.6 17.4 51.4 18.3 78.4v12.5c-.6 16.3-2.9 32.6-7.3 48.4a203.1 203.1 0 01-38.7 74.6 205.58 205.58 0 01-62.1 51.1 202.9 202.9 0 01-87.8 23.9c-.5 0-1.1 0-1.6.1h-13.8c-15.2-.6-30.4-2.7-45.1-6.6-29.9-7.8-58-22.7-81.4-42.9a206.3 206.3 0 01-40.1-46.8 202.48 202.48 0 01-29.3-82.3C.7 223.6.3 216.9 0 210.3v-11.7c.3-8.5 1-17 2.3-25.5 3.6-23.7 11.5-46.7 23.2-67.6 12.3-22.1 28.7-42 48.1-58.2C94.2 30.1 118.3 17 144 9c17.6-5.4 36-8.4 54.5-9zM192 17.6c-20.6 1.3-40.9 6.1-59.9 14.1-23.1 9.7-44.2 24.1-61.7 42a188.8 188.8 0 00-36.7 53.8c-8.5 18.7-13.8 38.9-15.7 59.4a187.35 187.35 0 0078.9 170.7c26.2 18.5 57.4 30.1 89.4 33.2s64.8-2.1 94.1-15.2a187.3 187.3 0 0062.6-45.3c18.3-20.1 32.1-44.1 40.2-70 10-31.9 11.2-66.4 3.5-99-7.4-31.6-23.3-61-45.5-84.7A187.17 187.17 0 00282.1 34 188.87 188.87 0 00192 17.6z"/><path d="M154.9 43.2H165v25.1c5.5-3.5 12.5-4.5 18.7-2.6 4 1.2 7.2 4.3 8.9 8.1 2.4 5.4 2.7 11.5 2.5 17.3-.3 5.3-1.1 10.9-4.4 15.2-2.4 3.2-6.2 5.1-10.2 5.6-6.3.9-13-.6-18.1-4.5-.7 1.2-1.1 2.4-1.7 3.6h-5.9c.1-22.6.1-45.2.1-67.8zM165 75.9V101c3.5 2.2 7.8 3 11.9 2.5 2.5-.3 4.9-1.6 6.2-3.8 1.9-3.2 2-7.1 2.1-10.7-.1-3.9 0-8.1-2.1-11.7a8.1 8.1 0 00-5.8-3.8c-4.3-.6-8.6.3-12.3 2.4zM239.6 46.3c3.7-1.6 8.3 1.2 8.8 5.1.7 3.8-2.6 7.7-6.5 7.6-3.9.1-7.3-3.9-6.4-7.8.4-2.2 2-4.1 4.1-4.9zM208.2 65.9c3.5-1.1 7.2-1.3 10.9-1.1 3.9.1 7.9.6 11.5 2.2v8.7c-4.4-1.7-9.2-2.6-13.9-2.5-2.4 0-5.1.2-7.1 1.8-1.5 1.3-1.8 3.6-1.3 5.4.3 1.2 1.4 2.1 2.6 2.6 3 1.1 6.3.9 9.4 1.5 3.5.6 7.3 1.6 9.8 4.3 2.2 2.3 2.8 5.7 2.7 8.8.1 4.1-1.6 8.3-4.9 10.7-3.9 2.9-8.8 3.7-13.5 3.8-5.3 0-10.7-.6-15.7-2.4v-8.6c5.9 2.1 12.4 3.1 18.6 2.1 2-.4 4.2-1.1 5.2-3 .7-1.5.6-3.4 0-4.9-1.1-2.1-3.6-2.6-5.7-2.9-4.4-.5-9-.8-13-2.9a9.56 9.56 0 01-4.9-6.2c-.9-4-.6-8.5 1.7-11.9 1.6-2.7 4.5-4.5 7.6-5.5zM236.9 65.9h10c.1 11.4 0 22.8 0 34.2 0 .9.1 1.9.8 2.5.8.7 2 .8 3 .8v8.2c-3.2.4-6.7.1-9.5-1.7-3.1-1.9-4.2-5.7-4.3-9.1V65.9zM259.4 99.3c3.4-1 7.3 1.4 8 4.9.9 3.4-1.6 7.2-5.1 7.9-3.4.8-7.1-1.7-7.7-5.1-.8-3.3 1.5-6.9 4.8-7.7zM116.5 143.6c10-10.2 23.9-16.3 38.2-17 13.6-.8 27.4 3.4 38.1 11.9 4.7 3.7 8.7 8.1 12 13 3.7-5.2 8-10 13.1-13.8 10.5-8 24-11.9 37.2-11.1 13.6.7 26.9 6.6 36.6 16.2a55.68 55.68 0 0116.8 37.5H100.2c.6-13.7 6.6-27.1 16.3-36.7zM102.4 197H306c-16.8 28.8-33.8 57.4-50.7 86.1-17 28.7-34 57.5-50.9 86.2l-54-90.9c-16-27.1-32.1-54.2-48-81.4z"/><path d="M677.8 408.8H198.5v-17.2h479.3c101 0 183.1-84 183.1-187.2S778.8 17.2 677.8 17.2H198.5V0h479.3c110.4 0 200.3 91.7 200.3 204.4s-89.9 204.4-200.3 204.4z"/><path d="M1240.8 408.8H701.5v-17.2h539.3c101 0 183.1-84 183.1-187.2s-82.1-187.2-183.1-187.2H701.5V0h539.3c110.4 0 200.3 91.7 200.3 204.4s-89.9 204.4-200.3 204.4zM430.9 236.3c2.4.5 6 1 8.7 1 5 0 7.8-1.8 7.8-5.5 0-3.6-2.7-4.4-7.8-6.2-5-1.8-9.3-3.8-9.3-9.5 0-5.8 4.2-9.5 12.3-9.5 2.8 0 5.8.4 8.7 1.1l-.7 4.5c-2.2-.5-5.6-1-8.2-1-3.7 0-6.8 1.2-6.8 4.6 0 3.8 3.6 4.6 8 6.1 4.7 1.6 9.1 3.7 9.1 9.9 0 6.3-4.5 10.1-13.1 10.1-3 0-6.6-.5-9.4-1zM466.7 216.2c6.4 0 9.6 4.3 9.6 10.9 0 1.2-.1 2.5-.3 3.6h-14.7c.3 4.3 2.1 6.8 6.4 6.8 2.4 0 4.9-.8 6.9-1.6l1.5 3.9c-2.4 1.1-5.3 2-8.6 2-7.1 0-11.1-4.1-11.1-12.6-.1-8.2 3.7-13 10.3-13zm4.8 10.8c-.1-3.6-1.3-6.5-4.8-6.5s-5.1 2.7-5.4 6.5zM480.5 228.9c0-7.7 3-12.7 11.6-12.7 2.2 0 4.4.3 6.5.8l-.6 4.1c-1.7-.3-4-.6-5.7-.6-4.9 0-6.8 2.4-6.8 8.5 0 5.1 1.3 8.5 6.3 8.5 2.1 0 4.7-.6 6.6-1.4l1.3 4c-2.3 1-5.2 1.7-8.2 1.7-7.6 0-11-4.7-11-12.9zM504.1 216.8h4.8V233c0 3.1 1.4 4.6 4.2 4.6 2.2 0 4.5-.9 5.9-1.9v-18.9h4.8v24.5h-3.6l-.4-2.1a13.5 13.5 0 01-7.8 2.6c-5.2 0-8-3.1-8-8.2v-16.8zM531.4 216.8h3.6l.5 2.9c2.1-2.3 4.4-3.4 7.1-3.4 1 0 2.1.1 2.9.3l-.4 4.5c-1-.2-1.8-.2-2.5-.2a8 8 0 00-6.3 2.6v17.9h-4.8v-24.6zM549.6 207.1h4.8v5.2h-4.8zm0 9.7h4.8v24.5h-4.8zM562.8 220.8h-3.6v-3.6l3.8-.2.4-7.2h4.2v7h6.6v4h-6.6v13.6c0 2.1.6 3.1 2.5 3.1 1.1 0 2.3-.3 3.6-.8l1.2 3.8c-1.5.6-3.4 1.2-5.5 1.2-4.1 0-6.6-2.1-6.6-7.1zM577.2 216.8h4.9c1.6 6.8 3.6 13.9 5.8 20.2h.2c2.4-6.7 4.6-13.7 6.4-20.2h4.7c-3 11.4-7.3 24.2-11.6 34.1h-4.8c1.3-3 2.5-6.3 3.9-9.7h-2c-2.3-5.2-5.7-16.6-7.5-24.4zM615.4 224.2c0-10.4 3.6-17.6 15.1-17.6 2.8 0 5.8.4 8.3 1l-.7 4.4c-2.1-.4-5.2-.8-7.6-.8-8.2 0-9.8 5.7-9.8 13.2 0 6.8 1.3 12.9 9.5 12.9 2.9 0 5.8-.7 8.4-1.8l1.5 4.2c-3.2 1.4-6.6 2.2-10.1 2.2-10.9-.1-14.6-7.3-14.6-17.7zM643.3 229c0-7.7 3-12.8 11.1-12.8 8 0 11 5.1 11 12.8s-3 12.8-11 12.8c-8.1 0-11.1-5.1-11.1-12.8zm17.2 0c0-4.8-1.1-8.5-6.1-8.5s-6.2 3.7-6.2 8.5 1.1 8.5 6.2 8.5c5 .1 6.1-3.7 6.1-8.5zM671.2 216.8h3.6l.4 2.1c2.1-1.5 4.8-2.7 7.9-2.7 5.2 0 8 3.1 8 8.2v16.8h-4.8V225c0-3.1-1.4-4.6-4.2-4.6-2.2 0-4.5 1-6 1.9v18.9h-4.8v-24.4z"/><path d="M699.1 220.8h-3.6v-3.6l3.8-.2.4-7.2h4.2v7h6.6v4h-6.6v13.6c0 2.1.6 3.1 2.5 3.1 1.1 0 2.3-.3 3.6-.8l1.2 3.8c-1.5.6-3.4 1.2-5.5 1.2-4.1 0-6.6-2.1-6.6-7.1zM715.9 216.8h3.6l.5 2.9c2.1-2.3 4.4-3.4 7.1-3.4 1 0 2.1.1 2.9.3l-.4 4.5c-1-.2-1.8-.2-2.5-.2a8 8 0 00-6.3 2.6v17.9H716v-24.6zM731.8 229c0-7.7 3-12.8 11.1-12.8 8 0 11 5.1 11 12.8s-3 12.8-11 12.8c-8.1 0-11.1-5.1-11.1-12.8zm17.2 0c0-4.8-1.1-8.5-6.1-8.5s-6.2 3.7-6.2 8.5 1.1 8.5 6.2 8.5c5 .1 6.1-3.7 6.1-8.5zM759.7 207.1h4.8v34.1h-4.8zM770.7 236.7c2 .4 4.9.9 7.2.9 3 0 5.2-.8 5.2-3 0-2.1-2-2.6-5.6-3.8-4-1.3-7.5-2.9-7.5-7.3 0-4.6 3.7-7.3 9.8-7.3 2.2 0 4.9.3 6.9.8l-.6 4.2c-1.8-.4-4.4-.7-6.4-.7-3.2 0-4.8 1-4.8 2.7 0 2.1 2.4 2.5 6 3.7 4.3 1.5 7.1 3 7.1 7.3 0 4.8-3.4 7.6-10.4 7.6-2.5 0-5.4-.4-7.7-.9z"/><g><path d="M433.5 276.4h-3.6v-3.6l3.6-.2v-2.5c0-5.3 2.8-7.9 8.2-7.9 1.3 0 2.5.2 3.7.3l-.3 4.2c-1-.2-2.2-.3-3.1-.3-2.5 0-3.7.9-3.7 3.7v2.3h5.4v4h-5.4v20.5h-4.8zM446.6 284.6c0-7.7 3-12.8 11.1-12.8 8 0 11 5.1 11 12.8s-3 12.8-11 12.8c-8.1 0-11.1-5.1-11.1-12.8zm17.1 0c0-4.8-1.1-8.5-6.1-8.5s-6.2 3.7-6.2 8.5 1.1 8.5 6.2 8.5c5 .1 6.1-3.7 6.1-8.5zM474.5 272.4h3.6l.5 2.9c2.1-2.3 4.4-3.4 7.1-3.4 1 0 2.1.1 2.9.3l-.4 4.5c-1-.2-1.8-.2-2.5-.2a8 8 0 00-6.3 2.6V297h-4.8v-24.6zM504 279.8c0-10.4 3.6-17.6 15.1-17.6 2.8 0 5.8.4 8.3 1l-.7 4.4c-2.1-.4-5.2-.8-7.6-.8-8.2 0-9.8 5.7-9.8 13.2 0 6.8 1.3 12.9 9.5 12.9 2.9 0 5.8-.7 8.4-1.8l1.5 4.2c-3.2 1.4-6.6 2.2-10.1 2.2-11-.1-14.6-7.3-14.6-17.7zM533.5 262.7h4.8v34.1h-4.8zM544.1 284.6c0-7.7 3-12.8 11.1-12.8 8 0 11 5.1 11 12.8s-3 12.8-11 12.8c-8.1 0-11.1-5.1-11.1-12.8zm17.2 0c0-4.8-1.1-8.5-6.1-8.5s-6.2 3.7-6.2 8.5 1.1 8.5 6.2 8.5c4.9.1 6.1-3.7 6.1-8.5zM571.7 272.4h4.8v16.2c0 3.1 1.4 4.6 4.2 4.6 2.2 0 4.5-.9 5.9-1.9v-18.9h4.8v24.5h-3.6l-.4-2.1a13.5 13.5 0 01-7.8 2.6c-5.2 0-8-3.1-8-8.2v-16.8zM597.6 284.8c0-8.6 3.5-12.9 10.6-12.9 1.8 0 3.4.3 5 .5v-9.7h4.8v34.1h-3.6l-.5-1.9c-1.8 1.4-3.8 2.4-6.8 2.4-6 .1-9.5-3.8-9.5-12.5zm15.5 6.7v-15c-1.4-.3-3.1-.5-4.4-.5-4.7 0-6.2 2.8-6.2 8.7s1.5 8.4 5.3 8.4c1.9.1 3.8-.6 5.3-1.6zM636.8 291.9c2.4.5 6 1 8.7 1 5 0 7.8-1.8 7.8-5.5 0-3.6-2.7-4.4-7.8-6.2-5-1.8-9.3-3.8-9.3-9.5 0-5.8 4.2-9.5 12.3-9.5 2.8 0 5.8.4 8.7 1.1l-.7 4.5c-2.2-.5-5.6-1-8.2-1-3.7 0-6.8 1.2-6.8 4.6 0 3.8 3.6 4.6 8 6.1 4.7 1.6 9.1 3.7 9.1 9.9 0 6.3-4.5 10.1-13.1 10.1-3 0-6.6-.5-9.4-1zM672.6 271.8c6.4 0 9.6 4.3 9.6 10.9 0 1.2-.1 2.5-.3 3.6h-14.7c.3 4.3 2.1 6.8 6.4 6.8 2.4 0 4.9-.8 6.9-1.6l1.5 3.9c-2.4 1.1-5.3 2-8.6 2-7.1 0-11.1-4.1-11.1-12.6-.1-8.2 3.7-13 10.3-13zm4.8 10.8c-.1-3.6-1.3-6.5-4.8-6.5s-5.1 2.7-5.4 6.5zM688 272.4h3.6l.5 2.9c2.1-2.3 4.4-3.4 7.1-3.4 1 0 2.1.1 2.9.3l-.4 4.5c-1-.2-1.8-.2-2.5-.2a8 8 0 00-6.3 2.6V297H688zM703.8 272.4h4.8c1.8 6.9 3.8 14 6.1 20.3h.2c2.3-6.3 4.3-13.4 6-20.3h4.8c-2 8.2-5.4 19.1-7.8 24.5h-6.4c-2.3-5.4-5.7-16.4-7.7-24.5zM730.7 262.7h4.8v5.2h-4.8zm0 9.7h4.8v24.5h-4.8zM741.4 284.5c0-7.7 3-12.7 11.6-12.7 2.2 0 4.4.3 6.5.8l-.6 4.1c-1.7-.3-4-.6-5.7-.6-4.9 0-6.8 2.4-6.8 8.5 0 5.1 1.3 8.5 6.3 8.5 2.1 0 4.7-.6 6.6-1.4l1.3 4c-2.3 1-5.2 1.7-8.2 1.7-7.6 0-11-4.7-11-12.9zM774.1 271.8c6.4 0 9.6 4.3 9.6 10.9 0 1.2-.1 2.5-.3 3.6h-14.7c.3 4.3 2.1 6.8 6.4 6.8 2.4 0 4.9-.8 6.9-1.6l1.5 3.9c-2.4 1.1-5.3 2-8.6 2-7.1 0-11.1-4.1-11.1-12.6-.1-8.2 3.7-13 10.3-13zm4.8 10.8c-.1-3.6-1.3-6.5-4.8-6.5s-5.1 2.7-5.4 6.5zM788.3 292.3c2 .4 4.9.9 7.2.9 3 0 5.2-.8 5.2-3 0-2.1-2-2.6-5.6-3.8-4-1.3-7.5-2.9-7.5-7.3 0-4.6 3.7-7.3 9.8-7.3 2.2 0 4.9.3 6.9.8l-.6 4.2c-1.8-.4-4.4-.7-6.4-.7-3.2 0-4.8 1-4.8 2.7 0 2.1 2.4 2.5 6 3.7 4.3 1.5 7.1 3 7.1 7.3 0 4.8-3.4 7.6-10.4 7.6-2.5 0-5.4-.4-7.7-.9z"/></g><g><path d="M434.5 60.3h7.2v48.3h-7.2zM449.5 101.5c3.4.7 8.6 1.4 12.4 1.4 7.1 0 11-2.5 11-7.7 0-5.1-3.8-6.2-11-8.7-7.1-2.6-13.2-5.3-13.2-13.5s6-13.5 17.4-13.5c3.9 0 8.3.6 12.3 1.5l-1.1 6.3c-3.2-.7-7.9-1.4-11.6-1.4-5.3 0-9.7 1.7-9.7 6.5 0 5.4 5.1 6.5 11.3 8.6 6.6 2.3 12.9 5.3 12.9 14 0 8.9-6.4 14.3-18.6 14.3-4.3 0-9.3-.7-13.3-1.4zM484 84.4c0-16.4 6.2-24.9 20.9-24.9 14.6 0 20.9 8.6 20.9 24.9 0 16.4-6.2 24.9-20.9 24.9-14.6 0-20.9-8.5-20.9-24.9zm34.3 0c0-12.7-3.8-18.5-13.4-18.5-9.7 0-13.4 5.9-13.4 18.5s3.8 18.5 13.4 18.5c9.7.1 13.4-5.8 13.4-18.5zM548.4 58.8h5.9l-20 51.3h-5.9zM559.6 60.3h7.2v48.3h-7.2zM577 60.3h28.4v6.4h-21.2v14h17.9v6.2h-17.9v15.3h21.2v6.4H577zM610 84.4c0-14.7 5.1-24.9 21.4-24.9 4 0 8.2.6 11.7 1.4l-1.1 6.2c-3-.5-7.4-1.2-10.7-1.2-11.6 0-13.9 8-13.9 18.7 0 9.7 1.9 18.3 13.4 18.3 4.1 0 8.2-1.1 11.9-2.6l2.2 5.9c-4.6 2-9.4 3.1-14.3 3.1-15.4 0-20.6-10.1-20.6-24.9z"/></g><g><path d="M432.2 175.2c14.1-12.2 22.6-21.2 22.6-29.3 0-4.9-3.1-8-9.2-8-4 0-8.5 1.4-11.6 2.6l-2.2-5.8c3.8-1.7 9.1-3.2 14.2-3.2 9.2 0 16.1 4.9 16.1 14.2 0 10.5-8.9 19.3-19.1 28.2l.1.3h20v6.4h-31v-5.4zM490.4 138.6h-23.6v-6.4h31.5v4.3c-4.2 11.9-10.9 28.7-17.4 44h-7.5c6.2-14.2 12.1-28.6 17-41.9zM501.4 156.4c0-16.1 3.5-24.8 17.6-24.8s17.7 8.7 17.7 24.8c0 16.2-3.6 25-17.7 25-14-.1-17.6-8.8-17.6-25zm28 0c0-11.4-.7-18.5-10.3-18.5-9.7 0-10.2 7.1-10.2 18.5 0 11.5.5 18.6 10.2 18.6 9.6 0 10.3-7.2 10.3-18.6zM552.7 139.8l-9.9 3.8-2.4-5.1 13.3-6.3h6.2v48.3h-7.2zM591.3 138.6h-23.6v-6.4h31.5v4.3c-4.2 11.9-10.9 28.7-17.4 44h-7.5c6.1-14.2 12.1-28.6 17-41.9z"/></g><g><path d="M911.4 207.4c3.3-.5 7.3-.8 10.1-.8 7.7 0 13.7 2.4 13.7 11s-6.1 11.1-13.7 11.1c-1.3 0-3.1-.1-4.9-.3v12.8h-5.1v-33.8zm10 16.9c5.2 0 8.5-1.3 8.5-6.6 0-5.2-3.2-6.6-8.4-6.6-1.5 0-3.4.1-5 .3V224c1.6.3 3.6.3 4.9.3zM940 216.8h3.6l.5 2.9c2.1-2.3 4.4-3.4 7.1-3.4 1 0 2.1.1 2.9.3l-.4 4.5c-1-.2-1.8-.2-2.5-.2a8 8 0 00-6.3 2.6v17.9H940zM955.9 229c0-7.7 3-12.8 11.1-12.8 8 0 11 5.1 11 12.8s-3 12.8-11 12.8c-8.1 0-11.1-5.1-11.1-12.8zm17.2 0c0-4.8-1.1-8.5-6.1-8.5s-6.2 3.7-6.2 8.5 1.1 8.5 6.2 8.5c4.9.1 6.1-3.7 6.1-8.5zM984.7 220.8h-3.6v-3.6l3.8-.2.4-7.2h4.2v7h6.6v4h-6.6v13.6c0 2.1.6 3.1 2.5 3.1 1.1 0 2.3-.3 3.6-.8l1.2 3.8c-1.5.6-3.4 1.2-5.5 1.2-4.1 0-6.6-2.1-6.6-7.1zM1010.3 216.2c6.4 0 9.6 4.3 9.6 10.9 0 1.2-.1 2.5-.3 3.6h-14.7c.3 4.3 2.1 6.8 6.4 6.8 2.4 0 4.9-.8 6.9-1.6l1.5 3.9c-2.4 1.1-5.3 2-8.6 2-7.1 0-11.1-4.1-11.1-12.6-.1-8.2 3.6-13 10.3-13zm4.7 10.8c-.1-3.6-1.3-6.5-4.8-6.5s-5.1 2.7-5.4 6.5zM1024.1 228.9c0-7.7 3-12.7 11.6-12.7 2.2 0 4.4.3 6.5.8l-.6 4.1c-1.7-.3-4-.6-5.7-.6-4.9 0-6.8 2.4-6.8 8.5 0 5.1 1.3 8.5 6.3 8.5 2.1 0 4.7-.6 6.6-1.4l1.3 4c-2.3 1-5.2 1.7-8.2 1.7-7.6 0-11-4.7-11-12.9zM1048.9 220.8h-3.6v-3.6l3.8-.2.4-7.2h4.2v7h6.6v4h-6.6v13.6c0 2.1.6 3.1 2.5 3.1 1.1 0 2.3-.3 3.6-.8l1.2 3.8c-1.5.6-3.4 1.2-5.5 1.2-4.1 0-6.6-2.1-6.6-7.1zM1065.8 207.1h4.8v5.2h-4.8zm0 9.7h4.8v24.5h-4.8zM1076.4 229c0-7.7 3-12.8 11.1-12.8 8 0 11 5.1 11 12.8s-3 12.8-11 12.8c-8.1 0-11.1-5.1-11.1-12.8zm17.2 0c0-4.8-1.1-8.5-6.1-8.5s-6.2 3.7-6.2 8.5 1.1 8.5 6.2 8.5c5 .1 6.1-3.7 6.1-8.5zM1104.3 216.8h3.6l.4 2.1c2.1-1.5 4.8-2.7 7.9-2.7 5.2 0 8 3.1 8 8.2v16.8h-4.8V225c0-3.1-1.4-4.6-4.2-4.6-2.2 0-4.5 1-6 1.9v18.9h-4.8v-24.4zM1142.2 229c0-7.7 3-12.8 11.1-12.8 8 0 11 5.1 11 12.8s-3 12.8-11 12.8c-8.1 0-11.1-5.1-11.1-12.8zm17.2 0c0-4.8-1.1-8.5-6.1-8.5s-6.2 3.7-6.2 8.5 1.1 8.5 6.2 8.5c5 .1 6.1-3.7 6.1-8.5zM1171.6 220.8h-3.6v-3.6l3.6-.2v-2.5c0-5.3 2.8-7.9 8.2-7.9 1.3 0 2.5.2 3.7.3l-.3 4.2c-1-.2-2.2-.3-3.1-.3-2.5 0-3.7.9-3.7 3.7v2.3h5.4v4h-5.4v20.5h-4.8z"/></g><g><path d="M911.4 263c3.3-.5 7.3-.8 10.1-.8 7.7 0 13.7 2.4 13.7 11s-6.1 11.1-13.7 11.1c-1.3 0-3.1-.1-4.9-.3v12.8h-5.1V263zm10 16.9c5.2 0 8.5-1.3 8.5-6.6 0-5.2-3.2-6.6-8.4-6.6-1.5 0-3.4.1-5 .3v12.7c1.6.2 3.6.2 4.9.2zM947.9 271.8c6.4 0 9.6 4.3 9.6 10.9 0 1.2-.1 2.5-.3 3.6h-14.7c.3 4.3 2.1 6.8 6.4 6.8 2.4 0 4.9-.8 6.9-1.6l1.5 3.9c-2.4 1.1-5.3 2-8.6 2-7.1 0-11.1-4.1-11.1-12.6-.1-8.2 3.6-13 10.3-13zm4.7 10.8c-.1-3.6-1.3-6.5-4.8-6.5s-5.1 2.7-5.4 6.5zM963.2 272.4h3.6l.5 2.9c2.1-2.3 4.4-3.4 7.1-3.4 1 0 2.1.1 2.9.3l-.4 4.5c-1-.2-1.8-.2-2.5-.2a8 8 0 00-6.3 2.6V297h-4.8v-24.6zM980.3 292.3c2 .4 4.9.9 7.2.9 3 0 5.2-.8 5.2-3 0-2.1-2-2.6-5.6-3.8-4-1.3-7.5-2.9-7.5-7.3 0-4.6 3.7-7.3 9.8-7.3 2.2 0 4.9.3 6.9.8l-.6 4.2c-1.8-.4-4.4-.7-6.4-.7-3.2 0-4.8 1-4.8 2.7 0 2.1 2.4 2.5 6 3.7 4.3 1.5 7.1 3 7.1 7.3 0 4.8-3.4 7.6-10.4 7.6-2.5 0-5.4-.4-7.7-.9zM1001.3 284.6c0-7.7 3-12.8 11.1-12.8 8 0 11 5.1 11 12.8s-3 12.8-11 12.8c-8.1 0-11.1-5.1-11.1-12.8zm17.2 0c0-4.8-1.1-8.5-6.1-8.5s-6.2 3.7-6.2 8.5 1.1 8.5 6.2 8.5c5 .1 6.1-3.7 6.1-8.5zM1029.2 272.4h3.6l.4 2.1c2.1-1.5 4.8-2.7 7.9-2.7 5.2 0 8 3.1 8 8.2v16.8h-4.8v-16.2c0-3.1-1.4-4.6-4.2-4.6-2.2 0-4.5 1-6 1.9v18.9h-4.8v-24.4zM1064.7 282.1c1.3 0 3 .1 4.5.3v-1.7c0-3.5-1.7-4.7-5-4.7-2.2 0-5 .5-7.1 1.1l-.8-4.1c2.3-.6 5.2-1.2 8.2-1.2 5.8 0 9.5 2.4 9.5 8.4v16.6h-3.6l-.5-2.1c-1.7 1.4-4.1 2.6-7.3 2.6-4.6 0-8.4-2.6-8.4-7.6.1-5 4-7.6 10.5-7.6zm-1.1 11.3c2.1 0 4.2-.8 5.6-1.9v-5.6c-1.5-.2-3.4-.3-4.5-.3-3.3 0-5.5 1.2-5.5 3.9.1 2.7 1.8 3.9 4.4 3.9zM1081.2 262.7h4.8v34.1h-4.8zM1093.5 262.7h4.8v34.1h-4.8zM1103.3 272.4h4.9c1.6 6.8 3.6 13.9 5.8 20.2h.2c2.4-6.7 4.6-13.7 6.4-20.2h4.7c-3 11.4-7.3 24.2-11.6 34.1h-4.8c1.3-3 2.5-6.3 3.9-9.7h-2c-2.4-5.2-5.7-16.6-7.5-24.4zM1142.8 262.7h4.8v5.2h-4.8zm0 9.7h4.8v24.5h-4.8zM1153.7 284.8c0-8.6 3.5-12.9 10.6-12.9 1.7 0 3.4.3 5 .5v-9.7h4.8v34.1h-3.6l-.5-1.9c-1.8 1.4-3.8 2.4-6.8 2.4-5.9.1-9.5-3.8-9.5-12.5zm15.5 6.7v-15c-1.4-.3-3.1-.5-4.4-.5-4.7 0-6.2 2.8-6.2 8.7s1.5 8.4 5.3 8.4c2 .1 3.8-.6 5.3-1.6zM1190.2 271.8c6.4 0 9.6 4.3 9.6 10.9 0 1.2-.1 2.5-.3 3.6h-14.7c.3 4.3 2.1 6.8 6.4 6.8 2.4 0 4.9-.8 6.9-1.6l1.5 3.9c-2.4 1.1-5.3 2-8.6 2-7.1 0-11.1-4.1-11.1-12.6 0-8.2 3.7-13 10.3-13zm4.8 10.8c-.1-3.6-1.3-6.5-4.8-6.5s-5.1 2.7-5.4 6.5zM1205.6 272.4h3.6l.4 2.1c2.1-1.5 4.8-2.7 7.9-2.7 5.2 0 8 3.1 8 8.2v16.8h-4.8v-16.2c0-3.1-1.4-4.6-4.2-4.6-2.2 0-4.5 1-6 1.9v18.9h-4.8v-24.4zM1233.5 276.4h-3.6v-3.6l3.8-.2.4-7.2h4.2v7h6.6v4h-6.6V290c0 2.1.6 3.1 2.5 3.1 1.1 0 2.3-.3 3.6-.8l1.2 3.8c-1.5.6-3.4 1.2-5.5 1.2-4.1 0-6.6-2.1-6.6-7.1zM1250.4 262.7h4.8v5.2h-4.8zm0 9.7h4.8v24.5h-4.8zM1264.1 276.4h-3.6v-3.6l3.6-.2v-2.5c0-5.3 2.8-7.9 8.2-7.9 1.2 0 2.4.2 3.5.3l-.4 4.2c-1-.2-2.1-.3-2.9-.3-2.5 0-3.7.9-3.7 3.7v2.3h14.6v24.5h-4.8v-20.5h-9.8v20.5h-4.8v-20.5zm14.6-13.7h4.8v5.2h-4.8zM1299.5 282.1c1.3 0 3 .1 4.5.3v-1.7c0-3.5-1.7-4.7-5-4.7-2.2 0-5 .5-7.1 1.1l-.8-4.1c2.3-.6 5.2-1.2 8.2-1.2 5.8 0 9.5 2.4 9.5 8.4v16.6h-3.6l-.5-2.1c-1.7 1.4-4.1 2.6-7.3 2.6-4.6 0-8.4-2.6-8.4-7.6.2-5 4.1-7.6 10.5-7.6zm-1.1 11.3c2.1 0 4.2-.8 5.6-1.9v-5.6c-1.5-.2-3.4-.3-4.5-.3-3.3 0-5.5 1.2-5.5 3.9.1 2.7 1.9 3.9 4.4 3.9zM1316.1 262.7h4.8v10.7c1.7-1 3.7-1.6 6.2-1.6 6.3 0 9.4 4.3 9.4 12.9 0 8.7-3.2 12.7-10.9 12.7-3.4 0-6.8-.8-9.4-1.7v-33zm9.4 30.6c4.7 0 6-2.8 6-8.5 0-6.2-1.5-8.6-5.5-8.6-1.7 0-3.4.4-5.1 1.3v15.3c1.4.2 3.1.5 4.6.5zM1342.6 262.7h4.8v34.1h-4.8zM1363.6 271.8c6.4 0 9.6 4.3 9.6 10.9 0 1.2-.1 2.5-.3 3.6h-14.7c.3 4.3 2.1 6.8 6.4 6.8 2.4 0 4.9-.8 6.9-1.6l1.5 3.9c-2.4 1.1-5.3 2-8.6 2-7.1 0-11.1-4.1-11.1-12.6-.1-8.2 3.7-13 10.3-13zm4.8 10.8c-.1-3.6-1.3-6.5-4.8-6.5s-5.1 2.7-5.4 6.5zM910.8 322.4h4.8v5.2h-4.8zm0 9.6h4.8v24.5h-4.8zM923 332h3.6l.4 2.1c2.1-1.5 4.8-2.7 7.9-2.7 5.2 0 8 3.1 8 8.2v16.8h-4.8v-16.2c0-3.1-1.4-4.6-4.2-4.6-2.2 0-4.5 1-6 1.9v18.9H923zM951.5 336h-3.6v-3.6l3.6-.2v-2.5c0-5.3 2.8-7.9 8.2-7.9 1.3 0 2.5.2 3.7.3l-.3 4.2c-1-.2-2.2-.3-3.1-.3-2.5 0-3.7.9-3.7 3.7v2.3h5.4v4h-5.4v20.5h-4.8zM964.6 344.3c0-7.7 3-12.8 11.1-12.8 8 0 11 5.1 11 12.8s-3 12.8-11 12.8c-8.1-.1-11.1-5.2-11.1-12.8zm17.1 0c0-4.8-1.1-8.5-6.1-8.5s-6.2 3.7-6.2 8.5 1.1 8.5 6.2 8.5c5 0 6.1-3.7 6.1-8.5zM992.5 332h3.6l.5 2.9c2.1-2.3 4.4-3.4 7.1-3.4 1 0 2.1.1 2.9.3l-.4 4.5c-1-.2-1.8-.2-2.5-.2a8 8 0 00-6.3 2.6v17.9h-4.8V332zM1010.7 332h3.6l.4 2.1c1.8-1.3 4.2-2.7 7.4-2.7 2.8 0 4.9 1.1 6.2 3 2.5-1.8 4.9-3 8-3 5 0 7.7 3.3 7.7 8.4v16.6h-4.8v-16.1c0-3.1-1.4-4.7-4.1-4.7-1.7 0-3.6.7-5.5 2 .1.7.2 1.4.2 2.2v16.6h-4.8v-16.1c0-3.1-1.4-4.7-4-4.7-1.7 0-3.7.7-5.4 1.9v18.9h-4.8V332zM1059.7 341.8c1.3 0 3 .1 4.5.3v-1.7c0-3.5-1.7-4.7-5-4.7-2.2 0-5 .5-7.1 1.1l-.8-4.1c2.3-.6 5.2-1.2 8.2-1.2 5.8 0 9.5 2.4 9.5 8.4v16.6h-3.6l-.5-2.1c-1.7 1.4-4.1 2.6-7.3 2.6-4.6 0-8.4-2.6-8.4-7.6.2-5.1 4-7.6 10.5-7.6zm-1.1 11.3c2.1 0 4.2-.8 5.6-1.9v-5.6c-1.5-.2-3.4-.3-4.5-.3-3.3 0-5.5 1.2-5.5 3.9.1 2.6 1.8 3.9 4.4 3.9zM1077.1 336h-3.6v-3.6l3.8-.2.4-7.2h4.2v7h6.6v4h-6.6v13.6c0 2.1.6 3.1 2.5 3.1 1.1 0 2.3-.3 3.6-.8l1.2 3.8c-1.5.6-3.4 1.2-5.5 1.2-4.1 0-6.6-2.1-6.6-7.1zM1094 322.4h4.8v5.2h-4.8zm0 9.6h4.8v24.5h-4.8zM1104.6 344.3c0-7.7 3-12.8 11.1-12.8 8 0 11 5.1 11 12.8s-3 12.8-11 12.8c-8.1-.1-11.1-5.2-11.1-12.8zm17.2 0c0-4.8-1.1-8.5-6.1-8.5s-6.2 3.7-6.2 8.5 1.1 8.5 6.2 8.5c5 0 6.1-3.7 6.1-8.5zM1132.5 332h3.6l.4 2.1c2.1-1.5 4.8-2.7 7.9-2.7 5.2 0 8 3.1 8 8.2v16.8h-4.8v-16.2c0-3.1-1.4-4.6-4.2-4.6-2.2 0-4.5 1-6 1.9v18.9h-4.8V332z"/></g><g><path d="M913.3 60.3h7.2v48.3h-7.2zM928.3 101.5c3.4.7 8.6 1.4 12.4 1.4 7.1 0 11-2.5 11-7.7 0-5.1-3.8-6.2-11-8.7-7.1-2.6-13.2-5.3-13.2-13.5s6-13.5 17.4-13.5c3.9 0 8.3.6 12.3 1.5l-1 6.3c-3.2-.7-7.9-1.4-11.6-1.4-5.3 0-9.7 1.7-9.7 6.5 0 5.4 5.1 6.5 11.3 8.6 6.6 2.3 12.9 5.3 12.9 14 0 8.9-6.4 14.3-18.6 14.3-4.3 0-9.3-.7-13.3-1.4zM962.8 84.4c0-16.4 6.2-24.9 20.9-24.9 14.6 0 20.9 8.6 20.9 24.9 0 16.4-6.2 24.9-20.9 24.9s-20.9-8.5-20.9-24.9zm34.3 0c0-12.7-3.8-18.5-13.4-18.5-9.7 0-13.4 5.9-13.4 18.5S974 103 983.7 103c9.6 0 13.4-5.9 13.4-18.6zM1027.2 58.8h5.9l-20 51.3h-5.9zM1038.4 60.3h7.2v48.3h-7.2zM1055.8 60.3h28.4v6.4H1063v14h17.9v6.2H1063v15.3h21.2v6.4h-28.4zM1088.8 84.4c0-14.7 5.1-24.9 21.4-24.9 4 0 8.2.6 11.7 1.4l-1.1 6.2c-3-.5-7.4-1.2-10.7-1.2-11.6 0-13.9 8-13.9 18.7 0 9.7 1.9 18.3 13.4 18.3 4.1 0 8.2-1.1 11.9-2.6l2.2 5.9c-4.6 2-9.4 3.1-14.3 3.1-15.4 0-20.6-10.1-20.6-24.9z"/></g><g><path d="M911 175.2c14.1-12.2 22.6-21.2 22.6-29.3 0-4.9-3.1-8-9.2-8-4 0-8.5 1.4-11.6 2.6l-2.2-5.8c3.8-1.7 9.1-3.2 14.2-3.2 9.2 0 16.1 4.9 16.1 14.2 0 10.5-8.9 19.3-19.1 28.2l.1.3h20v6.4h-31v-5.4zM969.2 138.6h-23.6v-6.4h31.5v4.3c-4.2 11.9-10.9 28.7-17.4 44h-7.5c6.2-14.2 12.1-28.6 17-41.9zM980.2 156.4c0-16.1 3.5-24.8 17.6-24.8s17.7 8.7 17.7 24.8c0 16.2-3.6 25-17.7 25s-17.6-8.8-17.6-25zm27.9 0c0-11.4-.7-18.5-10.3-18.5-9.7 0-10.2 7.1-10.2 18.5 0 11.5.5 18.6 10.2 18.6 9.6 0 10.3-7.2 10.3-18.6zM1031.5 139.8l-9.9 3.8-2.4-5.1 13.3-6.3h6.2v48.3h-7.2zM1056.7 155.5v-.3c-3.8-1-7.4-4.4-7.4-10.7 0-7.4 5.2-13.1 16.1-13.1 11 0 16.1 5.6 16.1 13.1 0 6.3-3.7 9.7-7.4 10.7v.3c4.4 1.2 8.4 4.7 8.4 12 0 8.6-5.6 13.8-17.1 13.8s-17.1-5.3-17.1-13.8c0-7.2 4-10.8 8.4-12zm8.7 19.5c6.1 0 9.7-2.3 9.7-8 0-6-4-8.3-9.7-8.3-5.9 0-9.7 2.3-9.7 8.3 0 5.6 3.6 8 9.7 8zm8.7-29.9c0-5-3-7.2-8.7-7.2s-8.7 2.2-8.7 7.2c0 5.5 3.6 7.4 8.7 7.4s8.7-1.9 8.7-7.4z"/></g><g><path d="M430.5 457.3c0-11.1 8.3-18.6 18.9-18.6 7.3 0 11.8 3.8 14.5 8.1l-5.4 2.8c-1.7-3-5.2-5.2-9.1-5.2-7.1 0-12.4 5.5-12.4 13 0 7.6 5.3 13 12.4 13 3.9 0 7.3-2.2 9.1-5.2l5.4 2.8c-2.8 4.3-7.2 8.1-14.5 8.1-10.6-.2-18.9-7.7-18.9-18.8zM469 475.3v-36h6.3v30.5h15.9v5.6H469zM493.7 457.3c0-10.7 7.6-18.6 18.4-18.6s18.4 7.9 18.4 18.6-7.6 18.6-18.4 18.6-18.4-7.8-18.4-18.6zm30.3 0c0-7.5-4.7-13-11.9-13-7.3 0-11.9 5.6-11.9 13s4.6 13 11.9 13c7.2 0 11.9-5.6 11.9-13zM536.6 461.1v-21.8h6.4v21.6c0 5.7 3.2 9.5 9.2 9.5s9.2-3.7 9.2-9.5v-21.6h6.4V461c0 9-5.1 14.9-15.6 14.9s-15.6-6-15.6-14.8zM575.4 475.3v-36h13.4c11.2 0 18.8 7.5 18.8 18s-7.6 18-18.8 18zm25.8-18c0-7-4.3-12.5-12.4-12.5h-7.1v24.9h7.1c7.8 0 12.4-5.6 12.4-12.4zM630.3 475.3l13.6-30.5h-18.7v-5.6h26v4.4l-14 31.6h-6.9zM662.9 475.3v-27.8l-5.9 6.1-3.7-3.8 10.4-10.5h5.5v36zM691.7 475.3v-8.2h-17.2V462l14.8-22.8h8.7v22.3h4.8v5.6H698v8.2zm0-30.4l-11 16.6h11zM714.7 475.3v-27.8l-5.9 6.1-3.7-3.8 10.4-10.5h5.5v36zM726.2 470.1l3.4-4.2c2.3 2.7 6.2 4.4 10 4.4 4.8 0 7.5-2.2 7.5-5.5 0-3.6-2.9-5.1-8-5.1-1.5 0-3.6 0-4.2.1v-5.7c.6.1 2.8.1 4.2.1 4.2 0 7.4-1.5 7.4-4.8s-3.2-5.1-7.3-5.1c-3.7 0-6.7 1.4-9.3 4l-3.2-3.9c2.8-3.2 7.1-5.7 13.1-5.7 7.8 0 13 3.7 13 9.7 0 4.8-4.1 7.6-7.8 8.3 3.5.3 8.4 3.2 8.4 8.7 0 6.1-5.2 10.5-13.6 10.5-6.4 0-11.2-2.6-13.6-5.8zM758.6 475.3v-5c14-10.6 19.4-15.3 19.4-20.5 0-3.8-3.2-5.5-6.5-5.5-4.2 0-7.5 1.7-9.7 4.3l-3.7-4.2c3.2-3.8 8.3-5.8 13.3-5.8 7 0 13.1 3.9 13.1 11.1 0 6.6-6.1 12.6-15.8 19.9h16v5.6h-26.1z"/></g><g><path d="M911 475.3v-36h15.8c7.6 0 11.8 5.2 11.8 11.3s-4.3 11.3-11.8 11.3h-9.5v13.4zm21.2-24.7c0-3.5-2.6-5.7-6.2-5.7h-8.6v11.4h8.6c3.6 0 6.2-2.3 6.2-5.7zM943.9 475.3v-36h6.3v36zM957.9 475.3v-36h6.3v36zM988.4 475.3l13.6-30.5h-18.7v-5.6h26v4.4l-14 31.6h-6.9zM1021 475.3v-27.8l-5.9 6.1-3.7-3.8 10.4-10.5h5.5v36zM1049.8 475.3v-8.2h-17.2V462l14.8-22.8h8.7v22.3h4.8v5.6h-4.8v8.2zm0-30.4l-11 16.6h11zM1072.8 475.3v-27.8l-5.9 6.1-3.7-3.8 10.4-10.5h5.5v36zM1084.3 470.1l3.4-4.2c2.3 2.7 6.2 4.4 10 4.4 4.8 0 7.5-2.2 7.5-5.5 0-3.6-2.9-5.1-8-5.1-1.5 0-3.6 0-4.2.1v-5.7c.6.1 2.8.1 4.2.1 4.2 0 7.4-1.5 7.4-4.8s-3.2-5.1-7.3-5.1c-3.7 0-6.7 1.4-9.3 4l-3.2-3.9c2.8-3.2 7.1-5.7 13.1-5.7 7.8 0 13 3.7 13 9.7 0 4.8-4.1 7.6-7.8 8.3 3.5.3 8.4 3.2 8.4 8.7 0 6.1-5.2 10.5-13.6 10.5-6.4 0-11.2-2.6-13.6-5.8zM1115.3 470.1l3.4-4.2c2.3 2.7 6.2 4.4 10 4.4 4.8 0 7.5-2.2 7.5-5.5 0-3.6-2.9-5.1-8-5.1-1.5 0-3.6 0-4.2.1v-5.7c.6.1 2.8.1 4.2.1 4.2 0 7.4-1.5 7.4-4.8s-3.2-5.1-7.3-5.1c-3.7 0-6.7 1.4-9.3 4l-3.2-3.9c2.8-3.2 7.1-5.7 13.1-5.7 7.8 0 13 3.7 13 9.7 0 4.8-4.1 7.6-7.8 8.3 3.5.3 8.4 3.2 8.4 8.7 0 6.1-5.2 10.5-13.6 10.5-6.4 0-11.2-2.6-13.6-5.8z"/></g></g></svg>
