<svg xmlns="http://www.w3.org/2000/svg" viewBox="0 0 262 162" className="icon icon-xlg align-bottom"><ellipse fill="#FF5F00" cx="130.4" cy="81.2" rx="30.1" ry="62.3"></ellipse><path fill="#EB001B" d="M100.3 81.2c0-25.3 11.9-47.7 30.1-62.3C117 8.4 100 2 81.6 2 37.8 2 2.4 37.4 2.4 81.2c0 43.8 35.4 79.2 79.2 79.2 18.5 0 35.4-6.4 48.8-16.9-18.5-14.6-30.1-37.2-30.1-62.3z"></path><path fill="#F79E1B" d="M179.2 2c-18.5 0-35.4 6.4-48.8 16.9 18.3 14.5 30.1 37 30.1 62.3 0 25.3-11.7 47.7-30.1 62.3 13.4 10.6 30.4 16.9 48.8 16.9 43.8 0 79.2-35.4 79.2-79.2C258.4 37.4 223 2 179.2 2z"></path></svg> 
