<svg xmlns="http://www.w3.org/2000/svg" viewBox="0 0 512 170" className="icon icon-xlg align-bottom"><linearGradient id="payment-option-visa-1" gradientUnits="userSpaceOnUse" x1="1.735" y1="1.521" x2="2.751" y2="1.521" gradientTransform="rotate(-20.218 -987.747 2450.033) scale(447.2655)"><stop offset="0" stop-color="#222357"></stop><stop offset="1" stop-color="#254aa5"></stop></linearGradient><path fill="url(#payment-option-visa-1)" d="M307.2 49.6c.1-5.7 5.5-11.7 17.4-13.2 5.9-.8 22-1.3 40.3 7.1l7.2-33.5c-9.9-3.6-22.5-7-38.3-7-40.4 0-68.9 21.4-69.1 52.2-.3 22.8 20.3 35.5 35.8 43 16 7.7 21.2 12.7 21.2 19.6-.1 10.6-12.7 15.2-24.5 15.4-20.5.3-32.5-5.6-42-10l-7.4 34.6c9.6 4.4 27.1 8.2 45.4 8.4 43 0 71-21.2 71.2-54.1.2-41.5-57.6-43.9-57.2-62.5z"></path><linearGradient id="payment-option-visa-2" gradientUnits="userSpaceOnUse" x1="1.735" y1="1.33" x2="2.751" y2="1.33" gradientTransform="rotate(-20.218 -987.747 2450.033) scale(447.2655)"><stop offset="0" stop-color="#222357"></stop><stop offset="1" stop-color="#254aa5"></stop></linearGradient><path fill="url(#payment-option-visa-2)" d="M152.4 6l-42.7 107.5L92.4 22c-2-10.2-10-16-18.9-16H4l-1 4.5c14.3 3.1 30.5 8 40.3 13.4 6 3.3 7.7 5.9 9.8 13.7l32.6 125.9h43.2L195.1 6h-42.7z"></path><linearGradient id="payment-option-visa-3" gradientUnits="userSpaceOnUse" x1="1.736" y1="1.446" x2="2.75" y2="1.446" gradientTransform="rotate(-20.218 -987.747 2450.033) scale(447.2655)"><stop offset="0" stop-color="#222357"></stop><stop offset="1" stop-color="#254aa5"></stop></linearGradient><path fill="url(#payment-option-visa-3)" d="M212.7 6l-33.8 157.4h40.8L253.6 6z"></path><linearGradient id="payment-option-visa-4" gradientUnits="userSpaceOnUse" x1="1.736" y1="1.644" x2="2.751" y2="1.644" gradientTransform="rotate(-20.218 -987.747 2450.033) scale(447.2655)"><stop offset="0" stop-color="#222357"></stop><stop offset="1" stop-color="#254aa5"></stop></linearGradient><path fill="url(#payment-option-visa-4)" d="M476 6h-35.1c-8.1 0-14.3 4.4-17.3 11.4l-61.3 146.2h42.9l8.5-23.4h52.4l5 23.4H509L476 6zm-50.4 101.6l21.5-59.3 12.4 59.3h-33.9z"></path></svg> 
