
<svg version="1.1" id="Layer_1" xmlns="http://www.w3.org/2000/svg" x="0" y="0" viewBox="0 0 512 512" xml:space="preserve"><style>.st0{fill:#bcbcce}.st1{fill:#fff}.st10{fill:#dbdaed}</style><path class="st0" d="M181.6 203.4c.2-.1.4-.3.7-.5l-.7.5zM180.2 204.4l1.4-.9c-1.4.9-1.6.5-3.6 2.2l2.2-1.3zM180.2 203.1c.7-.6 1.5-1.2 2.2-1.8-.7.5-1.5.9-2.3 1.3l.1.5zM12.9 84.7V84c-.8 1.3-.5 1.1 0 .7zM58.8 63.2l-.8.6h.6c.2-.2.3-.4.2-.6zM5.3 103c.3-.7.7-1.4 1-2.2-.2-.4-.7.4-1 2.2zM71.9 60.3c.9-.1 1.7-.3 2.5-.4-.6 0-1.5.1-2.5.4zM186.6 196.7c-.1.1-.2.2-.3.4.1-.1.2-.3.3-.4zM40.6 228.2c.1.1.3.3.4.5-.1-.1-.2-.3-.4-.5z"/><path class="st0" d="M194 181.5c-.1-1.4.1-2.7.1-4.1 0-.7.1-1.4.1-2v-2c.1-1.4-.1-2.7-.2-4-.1-1.3-.3-2.4-.6-3.5.5 1.2 1 1.3 1 .7-3.1-9.5-4.7-19.3-7.8-30.3l.3-3.6h-.8c-1.6-5.3.8-1.4-.1-4.9.3 1.3.1 1.1 0 1.4-.6-6.5-1.6-3.3-2.1-6.9-.5 1.9 1.3 6.9-.2 5.6-.6-6.5-3.4-16.2-1.7-17.5-3.5-11.5-5.7-26.2-7.9-36.2-.8-1.4 0 1-.4.5 0-1.1-.3-2.6-.9-4.2-.6-1.5-1.3-3.1-2.2-4.5-.8-1.4-1.7-2.5-2.3-3.4-.3-.4-.5-.8-.7-1.1-.1-.3-.2-.4-.1-.5-1.6-1.5-2.7-1.7-3.3-1.9-1.5-2.4-4-4.8-6.9-6.9l2 1.7-.3-.1c-.9-.8-1.9-1.7-2.9-2.3h.2c-3.8-2.4-8.5-4.1-13.2-4.8-4.7-.8-9.5-.6-13.7-.2 4.2-.2.4 1 .8 1.3-1-.1-2.1-.1-3.3 0-1.5.1-3.2.4-5 .7-3.6.6-7.5 1.6-11 2.5.1.3-.4.7.5.8l-4.2.3.6.3c-7.3 2-15.7 2.1-20.3 4 3-.5 3.1-.2 3.6.3-5.3 1.2-10.2 2.3-16.5 3.3.4 0 .6.1.6.2-1.6.5-3.6.6-5.3.8v.8c-3.2.4-7.2 1.7-11.1 2-1.3 1.2-9.2 1.3-13.5 2.7-1.7.2 3.8.1-.8 1.1-1.1-1.6-6 1.4-6.8-.4l-2 .8-2.2 1-1.5-.6c-1.6 1.6-3.1 1.9-4.9 2.5-1.8.5-3.9 1.2-6.2 3.3.4 0 .9-.4.8-.1-.8.5-2.2 1.5-3 2.1-.8.6-1.1.6.1-.8-.6.5-1.6 1.5-2.7 2.5-1 1-2 2.3-2.9 3.3-1.5 2.2-2.2 3.5-.4 1.7-.3 0 .2-.9 1.1-2 1-1 2.1-2.2 2.9-2.8.3.7-3.1 4.2-2.9 5.8-.2.1-.6.5-1 .8 0 .3 0 .6.1.8-1.9 2.3-3.3 5.1-4.2 7.8-.2.7-.5 1.3-.7 2-.2.7-.4 1.3-.6 1.9-.4 1.2-.7 2.4-1.1 3.5.2.3.2 1.4.2 3.5l-1 .1v1.7l.1 1.7c.1 1.1.1 2.2.4 3.3.3-1.1.7-2.2 1.1-3.2.1.9.1 1.7.3 2.5l.3 2.4c.1.7.1 1.4.2 2.1.1.6.1 1.3.1 1.9.2 2.5.2 4.9.7 7.4 1.9.9 1.6 9.7 4.1 13.6l-.5-3.9c1.6 8.3 2.9 9.3 4.1 17.1-2.1-6.4-1.7-6.5-5.3-15.6 2.9 9.3 2.9 16.6 5.9 25 .3-.7 0-2.9.9-.9-.5 1.9 1.9 8.2.7 7.1 1 2.6 2 2.9 2.5 4.5l.9 9.3.1-.3c2.9 7.4 4.2 14.7 5.4 22 .3 1.9.5 3.6.9 5.5.2 1.1.5 2.2.7 3.3.3 1.1.7 2.1 1.1 3.2 1.6 4.2 4.2 8.3 7.7 11.5l.1-.6 1.4 2c.3.5.7.9 1.1 1.4-1.5-1.9 2.1 1 2.6.8 3 2.7 6.4 5 10.1 6.7.4-.4.1-1.5-2.7-2.5 2.2.7 4.3 1.6 6.4 2.3 1.1.3 2.1.7 3.2 1 1.1.2 2.1.4 3.1.6l-1.3-.6c.7.1 1.3.3 2 .4l2 .2v-.7c1.6.2 3.4 0 5.1-.2.9-.1 1.7-.3 2.5-.4.8-.2 1.7-.3 2.3-.5 2.6-.6 4.8-1 6-.8l-.9-.9 6-.5-3.5.1c6.4-1.7 16.5-3.2 17.9-3.6l-.7-.3c1-.4 1.9-.4 3.1-.5l-1-.4c9.8-2.1 12.2-4.1 23.2-6 2.9-.8-1.7.2-1.8-.1 1.5-.8 5.4-1.3 6.3-1.2-1.1-.7-5.6.6-2.3-.9 2.6-.1-1.9-.5 2.5-1.3l2 .8c2.4-.8.3-1 4.1-1.8 4.5-.5-5.1 2.6 2 1.1 3.5-.9 6.8-4.5 13.8-5.4 5.8-2-3.5-1.1 4.7-2.7l-2.8.2 5.9-1.4c.3 0 .5-.1.8-.1h-.4l6.3-1.5c.5-.1.9-.2 1.4-.4 1.2-.1 2.8-.6 4.4-1.3.7-.2 1.3-.7 1.9-1 .6-.4 1.3-.7 1.8-1.1.4-.3.9-.6 1.3-.9.8-.5 1.5-1.1 2.3-1.7l.1-.1c2-1.7 3.9-3.6 5.4-5.6.1.2.1.3.2.5.2-.4.4-1 .8-1.6.3-.6.8-1.3 1.2-2 .4-.7.8-1.3 1.1-1.8.3-.5.6-.9.8-1.1.2.2.1.7 0 1.2-.2.6-.6 1.2-1 2-.4.7-.9 1.4-1.4 2.1-.4.5-.7 1-1 1.3.7-.8 1.2-1.6 1.8-2.3.6-.8 1.1-1.5 1.5-2.2.5-.6.9-1.2 1.2-1.8.4-.6.7-1.1 1-1.6.6-1.1 1.1-2.1 1.6-3.5.4-1.4.8-3 .8-5.2l-.3 1.4zM6.6 104.6c.1-.9.1-1.9.2-2.8 0-.6.1-1.1.3-1.7l-.3 1.7c0 1.5.5 2.5-.2 2.8zm182.9 48.9c1.3 2.5.6 6.6 1.2 7.2 0-1.4-.6-4.2 0-4.4 1.6 3.3 1 5.5 1.4 8l-.6-1.3c.3 2.9.3 4.3.1 5.4l-.6-2.4.1.1c-.9-4.1-2-10.2-1.6-12.6zm-1.7-9.4l-.5 1.9-.7-3.3 1.2 1.4zm.1 8.8l-3.2-13.6c-.1-1.7 0-3.4-.8-5.6-.1.4-.1.7-.2 1.1l-.8-3.5V129c2.1 7.5 3.6 15.7 5 23.9zm-9.6-44.4l.4 1.9-1-2.6.6.7zM175 97.6l-2.1-8.9v-1.4c1.5 2.3 1.8 6.3 2.1 10.3zm-5.3-25.5c-.1-.5-.2-1-.2-1.3.2.4.3.9.2 1.3.2 1.5 1 3.6 1.4 4.5.3-.6-.4-2.9-.4-3.8.5.8.8 1.9 1 3 .2 1.1.3 2.3.4 3.3.2 2 .5 3.3 1.6 2 0 1.4.4 6.3-.5 4.8-.4-1.9-1-4.5-1.7-7.1-.4-1.3-.7-2.5-1.1-3.6-.4-1.1-.8-2-1.1-2.7-.2-.1-.4-.4-.7-1 .2.1.4.5.7 1 .1.1.3-.1.4-.4zm-4.8-8.2c.1.4.2.7.4 1.1-1.1-1.6-2.3-3.2-3.7-4.6.2.1.5.4.9.7.8.9 2 2.2 2.4 2.8zm-27.1-17.4c.3.1.3.2.2.3l1.7.4c-4.4.3-2.1 0-1.7-.4-.7-.2-1.4-.3-2.1-.3 1.1-.2 1.6 0 1.9 0zm-8.7 2.5c.1-.2.5-.4 1.1-.6.6-.2 1.4-.4 2.3-.5.8-.2 1.7-.2 2.5-.2s1.4 0 1.8.1c-1.2.2-3.4.3-5.1.7-1.8.3-3 .7-2.6.5zm-3.4 2.4c2.7-.3 1.4.3 1.8.5h-.1c-1.1.1-1.9-.1-1.7-.5zm-12.2 3v-.2.2zm-11.2 2.4c3.1-.2 2.4-.8 4-1.3l-.8 1.1c-4.5.5-4.9.1-8.5-.2 4.1-1.5 5.7-.3 5.3.4zm-3.9-1.7c.4-.2 1-.4 1.8-.6l-1.8.6c-2 1-2.1 2.3-5.4 1.8l5.4-1.8zm-75 25c-1 .8-1.9 1.7-2.8 2.7-.1-.3-.3-.4-.3-1 1-.5 2-1.1 3.1-1.7zM9.6 117.4c-.1-1.1-.2-1.7-.5-2.5-.3.7-.3 3-.8 1.4.1-.6-.1-1.8-.1-3.1-.1-1.3-.1-2.4.3-2.5 0 1 .1 1.8.3 2.6.2.7.5 1.3.7 1.8.5 1.1.8 1.8.1 2.3zm1.9-19.9c.4-1.8.5-2.3 1-1.9.5-.7.6-2.2 1.2-2.9-.6 3.4-1.5 2.9-2.2 4.8-.1.5-.2 1-.4 1.6.1-.7.2-1.2.4-1.6zm-.1 11.4c.3-.3.4-.9.5-1.6v-1.1c0 .9.1 1.8.2 2.8-.1.3-.3.3-.7-.1zm5.5 33.6l.4-1 .3.8-.4-3.4c1.8 4.1 1 7.6 1.3 9.8-.4-1.8-.2-7.4-1.6-6.2zm5.2 10.7c0-.4-.1-.8-.1-1.2l.2 1-.1.2zm2.1 28.2c-1.6-2.3-.9-4.2-.9-5.8v-.7.7c.2 2.7 1.6 3.5.9 5.8zm2.9 5l-.5-1.6c-1-1.1.1 2.6-.3 3-.7-1.8-1.2-6.3-.7-4.8 1.3 4 .6-2.2 1.6.4l-.6-2.1c1.5 3.3-.2 2.7.5 5.1zm17.1 36.2c-.5-.3-1.2-1-2.2-1.5.5.3.4-.1 0-.8-.1-.2-.2-.4-.4-.7 1 1.2 2.1 2.2 3.2 3.2-.1 0-.3-.1-.6-.2zm48.2 6.9c-.5.4-2.6 1-4.3 1.2 2.3-1.1 2.7-1 4.3-1.2zm-.3.7c3.9-1.6 3.5-.1 6-.5-3.1 1.4-3 0-6 .5zm46.2-14.7l-1.7.2c-.3 0-.5-.1-.5-.2l2.8-.7c.3.2.2.4-.6.7zm50.3-23.6c.4-.7.8-1.5 1.1-2.3.2-.1.3-.3.5-.7-.4 1-1 2-1.6 3zm4.5-10.9c0 1.1-.3 2.1-.6 3-.1.5-.3.9-.4 1.2-.2.3-.4.6-.6.8.3-.8.5-1.6.6-2.5.2-.8.4-1.7.4-2.5-.5 2.2-1.1 4.3-1.9 6.1 1.2-3.3 1.8-6.9 1.9-10.5.2-.4.4-.9.8-.9-.2 1 0 3.2-.2 5.3z"/><path class="st0" d="M156.3 51.5h-.2c.4.2.7.4 1.1.7-.3-.2-.6-.4-.9-.7z"/><path class="st1" d="M81.9 177c-.6 0-1.3-.2-1.9-.5-1.7-1-2.2-3.2-1.2-4.9l40.5-65.4c1-1.7 3.2-2.2 4.9-1.2 1.7 1 2.2 3.2 1.2 4.9L85 175.3c-.7 1.1-1.9 1.7-3.1 1.7z"/><circle class="st1" cx="86.3" cy="117.3" r="7.8"/><circle class="st1" cx="118" cy="164" r="7.8"/><linearGradient id="SVGID_1_" gradientUnits="userSpaceOnUse" x1="192.007" y1="140.051" x2="281.912" y2="140.051"><stop offset="0" stop-color="#4ad0ff"/><stop offset="1" stop-color="#4aabff"/></linearGradient><path d="M279.8 159.6c-7.3-14-21-25.5-37.6-31.4-14.7-5.3-31.4-6.6-49.8-3.9l-.3-2.4c18.8-2.7 35.9-1.4 51 4 17.2 6.2 31.4 18 38.9 32.6l-2.2 1.1z" fill="url(#SVGID_1_)"/><linearGradient id="SVGID_2_" gradientUnits="userSpaceOnUse" x1="275.202" y1="156.707" x2="275.334" y2="156.707"><stop offset="0" stop-color="#4ad0ff"/><stop offset="1" stop-color="#4aabff"/></linearGradient><path d="M275.3 156.9v-.3c-.2.1-.1.2 0 .3z" fill="url(#SVGID_2_)"/><linearGradient id="SVGID_3_" gradientUnits="userSpaceOnUse" x1="283.99" y1="154.575" x2="284.115" y2="154.575"><stop offset="0" stop-color="#4ad0ff"/><stop offset="1" stop-color="#4aabff"/></linearGradient><path d="M284 154.7h.1c0-.1 0-.2-.1-.4v.4z" fill="url(#SVGID_3_)"/><linearGradient id="SVGID_4_" gradientUnits="userSpaceOnUse" x1="271.163" y1="156.937" x2="272.066" y2="156.937"><stop offset="0" stop-color="#4ad0ff"/><stop offset="1" stop-color="#4aabff"/></linearGradient><path d="M271.2 156.7c.3.2.6.3.9.4 0-.2-.4-.4-.9-.4z" fill="url(#SVGID_4_)"/><linearGradient id="SVGID_5_" gradientUnits="userSpaceOnUse" x1="286.664" y1="153.712" x2="287.426" y2="153.712"><stop offset="0" stop-color="#4ad0ff"/><stop offset="1" stop-color="#4aabff"/></linearGradient><path d="M286.7 153.8c.3 0 .5-.1.8-.1-.3-.1-.5-.1-.8.1z" fill="url(#SVGID_5_)"/><linearGradient id="SVGID_6_" gradientUnits="userSpaceOnUse" x1="294.123" y1="172.674" x2="294.175" y2="172.674"><stop offset="0" stop-color="#4ad0ff"/><stop offset="1" stop-color="#4aabff"/></linearGradient><path d="M294.2 172.6c0 .1 0 .1-.1.1 0 0 .1 0 .1-.1z" fill="url(#SVGID_6_)"/><linearGradient id="SVGID_7_" gradientUnits="userSpaceOnUse" x1="251.463" y1="168.701" x2="304.673" y2="168.701"><stop offset="0" stop-color="#4ad0ff"/><stop offset="1" stop-color="#4aabff"/></linearGradient><path d="M299.9 156.2l1-1.2h.1c1.2-2 2.1-3.9 3.8-6.2-.1-.2 0-.5-.3-.5.3.4-1.3 1.2-1.8 1.7.9-1.4-1.9-.6-4.1.2-.3.3-.7.7-.6.9-.2-.1-.4-.2-.7-.3l-.1.4c-1.2.5-2 .4-2.9.5-.9 0-1.9.1-2.7.7.9-.1.8.2.7.6-1.5.4-2.8.8-4.7 1 .1 0 .2.1.2.2-.2.1-.5.1-.8.1-.3 0-.6 0-.8-.1l.1.6c-.7-.1-1.3.4-2.1.2-.1.7-1.8-.1-2.5.4-.3-.1.9.5 0 .7-.5-1.2-1.1.3-1.6-1l-.6.7-.4-.6c-.2 1.5-1.1-.3-1.9.4.1.1.2.1.2.3-.3-.1-1.1.1-.6-.4-.5.2-2.3.4-1.3.8-.2-.4.6-.3 1-.2.1.6-.7.6-.7 1.3 0-.1-.2-.1-.3-.2v.4c-.6-.2-1.1-.1-1.5 0-.2 0-.5.1-.7 0-.2 0-.7 0-1.1-.1 0 .2-.2.4-.8.5l-.4-.7-1.9.6c.5.2 1.1.5 1.5.7-.9.4-1.8.4-2.9.4-1 0-2.2 0-3.2.2.5.5-.4.7-1.6.9-1.1.2-2.5.4-2.3 1l1.8-.2c-1.5.3-2.1.6-2.6.9-.5.3-1 .5-2.7.8.6-.4 1.1-.6 1.5-.8.5-.3.8-.6 1.7-1.4-1.3.7-3 1-4.7 1.3-.9.2-1.7.4-2.5.6-.7.2-1.4.5-1.7.8.9 0 2-.1 2.1.2-.5 0-.9 0-1.3.1.5.4 2.1 1.1.5.8 1.6.6 3.3.8 4.1 1.2.3.5.6 1.1 1.1 1.7l.2-.1c2.2.8 3.6 1.4 4.7 2.1.6.4 1.1.7 1.5 1.1.5.4.9.8 1.3 1.2.9.8 1.7 1.8 2.8 2.7l.8.7c.1.1.2.2.4.3.3.2.5.4.9.5l.2-.3.2.9c-.2-.7.5-.2.8-.5.3.6.5 1.2.8 1.8.3-.2.7-.9.3-1.1.8.1.8 1.2 1.2 1.7l.1-.4.2.6.3-.4c.6.8 1.8 1.3 1.5 2.1l.5-.7.3 1.2v-.8c1 .7 1.7 2.5 1.9 2.6l.1-.3c.2 0 .2.3.3.5l.2-.4c1.1 1.4 2.2 1.1 3.1 3 .4.4-.1-.3.1-.5.5 0 .6.8.6 1 .5-.6-.3-1.1.6-.9 0 .6.3-.7.7.1l-.5.8c.4.3.6-.4 1 .3.2.9-1.4-.2-.7 1 .4.5 2.5-.2 2.9 1.2 1 .6.8-1.3 1.5.1v-.6c.2.3.5.7.7 1v0c.1.1.2.3.3.4v.6c.1 0 .2-.1.3-.2l.1.1v-.3c.2-.3.2-.7.1-1.2.4.1.8.2.8-.6l.3.5c0-.1.1-.1.1-.1l.4.5c-.1-.5-.6-1.4.2-1.3l.7.8c.3-.5.6-.3 1-.6-.3-1-.6-2.1-.9-3.1-.2.3-.1.7-.4.8-.7-.5.1-.9-.7-1.2l-.1.5c.1-.1.1-.3.2-.1.4.1.2.3 0 .5-.2 0-.4-.1-.5-.3.4-.7 1-1 .7-2.1l-.3.2c-.6-1 .6-1.9.6-2.7.1.2.4.3.6.2-.4-1.9.3-3.6.3-5.7l.9-.5-.6-.2c0-.9.7-.2.9-.5-.1.1-.1 0-.2.1.9-1-.4-.8-.1-1.4-.7.2-.5 1.2-1.3.7.9-1 1-2.9 2.5-2.6 0-1.1.4-2.3.9-3.3.1-.3.3-.5.4-.8.1-.2.3-.4.5-.9.4-.8.8-1.6 1.1-2.3-.1-.4-.3.2-.5.1.7-.5.9-1.5 1.1-2.3.2-.7.3-1.3.8-1.5 0-.5-.7-.4-.9-.4.8-.9 1.5-1.8 2.2-2.9l-.7.8-.3-.1zm3.3-5.9l.9-1c-.3.6-.6.9-.9 1l-.7.8c-.1-.5.2-.4.7-.8zm-2.2.8c.3-.3.8-.5 1.1-.6.2 0 .2.1.2.3-.1.2-.3.4-.4.6 0-.1.1-.2.1-.3-.1 0-.1 0-.2-.1h-.2c-.5.1-.7.2-.6.1zm-2.8 2.1c.2.2-.5.6-.7.9 0-.2.2-.5.7-.9zm-2.7 6.8c-.1.1-.3.2-.4.3.1-.4.3-.7.4-1.1.3.1.1.6 0 .8zm-31.5 4h.5c-.1 0-.1 0-.2.1l-.3-.1zm8-2.9c.3.3.6.4.8.3-.2 0-.3.1-.5.1-.1 0-.2-.2-.3-.4zm22.6-7.2l-.8.9c-.5-.3-.3-.7-.6-1.5 1.4-.8.8.5.3 1.2.3.3.6-.4 1.1-.6zm1.2-.2zm-5.4 29.1s-.1 0-.1.1v-.9c-.2.4-.2.8-.3 1.2 0-.6.1-1.3.1-2 .1-.1.3-.2.6-.1-.3.2.3 1.3-.3 1.7zm.6-8.8c.3-.3.7-.5.5-1-.1 0-.2.1-.4.1 0-.2.1-.4.1-.7.1 0 .2-.1.5-.3 0 1.5-.6 2.9-1.2 4.4.2-.8.4-1.6.5-2.5zm3.1-21.7c.2-.1.4-.3.6-.3l-.6.3c-.8.6-1.4 1.8-1.7.9l1.7-.9zm-15.9 7.5c-.2.1-.5.1-.7.2 0-.2-.1-.4-.1-.7.2.4.5.5.8.5zm-4.1.3c.3-.1.4-.2.5.3.2.1.4-.2.6 0-.5.5-.7-.2-1.1-.3-.1 0-.2 0-.3.1.1-.1.2-.1.3-.1zm-2.1-2.5c.1-.1.3-.1.5-.1l-.5.1c-.3.2-.5.6-.8.2l.8-.2zm-4 1.3c.7.2 1.9-.1 2.2.3-.7-.1-.9.2-1.1.4-.2.2-.3.3-.9 0 .4 0 .6 0 .8-.1-.4-.3-1.5-.4-1-.6zm-5.5 3.4l1 .2-.1.1 1.3-.1c0 .3-.6.4-1.4.4-.8 0-1.8-.1-2.3 0 .7-.2 3.9 0 1.5-.6zm-1.5 4.5c-2.2-.4-1.3-.8-1-1 0 .5 2 .6 1 1zm3.6.7l-.6-.2c-1.2-.1.1.5-.4.6-.9-.3-1.5-1.1-.8-.8.8.3 1 .2 1.1.1.2-.1.3-.3.9-.1l-.6-.3c1.7.4-.5.4.4.7zm8.7 4.2c.2 0 .2-.3.1-.6.2.2.4.4.7.5-.2.2-.3 0-.8.1zm5.6 8.1c-.2.1-.5-.2-.6-.5.6 0 .5.1.6.5zm-.1 1.4c-.7-.1 0-.7-.3-1.2.9.2 0 .8.3 1.2zm7.6 3.7l-.1-.3c0-.1.1-.1.1-.2.1.1.2.3.3.4 0 .1-.1.1-.3.1zm5-6l-.2-.3c-.3.5-.6.7-.9.9v-.5h.1c.1-.8.5-1.9 1.3-2.2.4.6-.8 1.1-.6 1.3.3-.2.3-.7.8-.7.5.8-.4 1.1-.5 1.5zm.1-3.5l.1-.6.6.4-.7.2zm1.3-6.6l-.1-.6.3.2-.2.4zm.2-2.5c.2-.6.4-1.1.5-1.6.1-.1.2-.1.3-.2.5.7-.2 1.2-.8 1.8zm2.1-3.2c-.3.4-.5.7.6.7-.2.1-.5.4-.8.6-.3.1-.5.2-.7 0 .4-.7.7-2.2.5-2.7-.1 0-.2-.1-.2-.2.1 0 .1.1.2.2.1 0 .3 0 .5-.1.1-.1.2-.2.4-.3 0 .1-.2.2-.4.3-.3.3-.3.7-.2.9.4-.1.5-.6.8-.8.3.4-.3 1-.7 1.4z" fill="url(#SVGID_7_)"/><linearGradient id="SVGID_8_" gradientUnits="userSpaceOnUse" x1="300.66" y1="155.119" x2="300.945" y2="155.119"><stop offset="0" stop-color="#4ad0ff"/><stop offset="1" stop-color="#4aabff"/></linearGradient><path d="M300.7 155.3l.3-.4h-.1c-.1.2-.2.3-.2.4z" fill="url(#SVGID_8_)"/><path transform="rotate(-14.638 339.365 329.33)" class="st10" d="M267.4 235.6h144v187.3h-144z"/><linearGradient id="SVGID_9_" gradientUnits="userSpaceOnUse" x1="457.497" y1="242.872" x2="457.572" y2="242.872"><stop offset="0" stop-color="#4ad0ff"/><stop offset="1" stop-color="#4aabff"/></linearGradient><path d="M457.6 242.7c0 .1 0 .3-.1.4.1-.2.1-.3.1-.4z" fill="url(#SVGID_9_)"/><linearGradient id="SVGID_10_" gradientUnits="userSpaceOnUse" x1="457.832" y1="289.534" x2="457.985" y2="289.534"><stop offset="0" stop-color="#4ad0ff"/><stop offset="1" stop-color="#4aabff"/></linearGradient><path d="M457.9 288.6c-.1.6-.1 1.3-.1 1.9.1-.2.1-.4.2-.7l-.1-1.2z" fill="url(#SVGID_10_)"/><linearGradient id="SVGID_11_" gradientUnits="userSpaceOnUse" x1="447.224" y1="219.039" x2="449.038" y2="219.039"><stop offset="0" stop-color="#4ad0ff"/><stop offset="1" stop-color="#4aabff"/></linearGradient><path d="M447.2 219c.3.1.9.1 1.8.1-.6-.1-1.2-.1-1.8-.1z" fill="url(#SVGID_11_)"/><linearGradient id="SVGID_12_" gradientUnits="userSpaceOnUse" x1="458.822" y1="341.051" x2="458.883" y2="341.051"><stop offset="0" stop-color="#4ad0ff"/><stop offset="1" stop-color="#4aabff"/></linearGradient><path d="M458.8 340c0 .7 0 1.4.1 2.1 0-1.2 0-1.8-.1-2.1z" fill="url(#SVGID_12_)"/><linearGradient id="SVGID_13_" gradientUnits="userSpaceOnUse" x1="458.64" y1="274.433" x2="458.708" y2="274.433"><stop offset="0" stop-color="#4ad0ff"/><stop offset="1" stop-color="#4aabff"/></linearGradient><path d="M458.7 273.6c0 .6-.1 1.2-.1 1.7.1-.6.1-1.2.1-1.7z" fill="url(#SVGID_13_)"/><linearGradient id="SVGID_14_" gradientUnits="userSpaceOnUse" x1="457.406" y1="242.202" x2="457.488" y2="242.202"><stop offset="0" stop-color="#4ad0ff"/><stop offset="1" stop-color="#4aabff"/></linearGradient><path d="M457.4 242.5c.2-.2.1-1.3 0 0z" fill="url(#SVGID_14_)"/><linearGradient id="SVGID_15_" gradientUnits="userSpaceOnUse" x1="456.793" y1="229.044" x2="456.831" y2="229.044"><stop offset="0" stop-color="#4ad0ff"/><stop offset="1" stop-color="#4aabff"/></linearGradient><path d="M456.8 228.3v0z" fill="url(#SVGID_15_)"/><linearGradient id="SVGID_16_" gradientUnits="userSpaceOnUse" x1="410.112" y1="218.58" x2="410.382" y2="218.58"><stop offset="0" stop-color="#4ad0ff"/><stop offset="1" stop-color="#4aabff"/></linearGradient><path d="M410.1 218.6h.3c0-.1-.2-.1-.3 0z" fill="url(#SVGID_16_)"/><linearGradient id="SVGID_17_" gradientUnits="userSpaceOnUse" x1="456.762" y1="230.382" x2="456.793" y2="230.382"><stop offset="0" stop-color="#4ad0ff"/><stop offset="1" stop-color="#4aabff"/></linearGradient><path d="M456.8 231v-1.3c0 .4-.1.8 0 1.3z" fill="url(#SVGID_17_)"/><linearGradient id="SVGID_18_" gradientUnits="userSpaceOnUse" x1="317.132" y1="464.96" x2="321.904" y2="464.96"><stop offset="0" stop-color="#4ad0ff"/><stop offset="1" stop-color="#4aabff"/></linearGradient><path d="M317.1 464.6c1.6.4 3.2.5 4.5.7.5-.3.3-.2-.2-.3-.5 0-1.5-.1-2.4-.4-.6 0-1.3.1-1.9 0z" fill="url(#SVGID_18_)"/><linearGradient id="SVGID_19_" gradientUnits="userSpaceOnUse" x1="284.199" y1="431.093" x2="284.26" y2="431.093"><stop offset="0" stop-color="#4ad0ff"/><stop offset="1" stop-color="#4aabff"/></linearGradient><path d="M284.2 430.7c0 .2 0 .5.1.9-.1-.4-.1-.7-.1-.9z" fill="url(#SVGID_19_)"/><linearGradient id="SVGID_20_" gradientUnits="userSpaceOnUse" x1="283.464" y1="341.684" x2="459.159" y2="341.684"><stop offset="0" stop-color="#4ad0ff"/><stop offset="1" stop-color="#4aabff"/></linearGradient><path d="M459 346.3c-.2-3.3-.7-1.3-1-4.1 0-1.2 0-4 .3-4 .2 2.4.4 1 .5 1.8 0-3.9.3-9-.1-12.5l-.4 2.9c-.2-1.4-.1-3.5 0-4.7.2.5.6-1.3.7-.2-.9-7.4.4-5.8 0-12-.8-1.2-1.5-9-2-14.1l.2-2.7c0 3.6.6-.1.5 4.4.2-3.7-.1-7.1 0-10.6-.2.7-.5.5-.6-.9.1-2.2.5-2.3.6-4.8l.3 2.4c.3-1.6-.1-3-.1-4.6.3-.5.4-4.2.8-3.5-.5-3.3-.2-4.5-.5-8-.4 3.7-.4-1-.7-.5l.1 4.2c.2-5.9.1 1.9.6 1.5-.3 2.8-.9-3.8-.9.8-.3-5.5 0-6.7-.5-12.4.1 3.4-.4-.7-.5 1.2 0-4.3.2-1.1.6-2.4 0-2.4.3-3.2-.1-5.4.2-3.8.4.6.7-1.4.4 1.4-.5 10.6.8 9.6 0 2 .5 4.4.5 7.3.2-2.5.6-6.1.3-9.2l-.7-.2c0-2.4-.5-2.8-.4-4.5.2.9.5-.7.4-2.6-.1.5-.1 1.3-.2 1.1-.1-3.5-.5-4-.7-8.2-.2 3.4-.4 4.2-.7 7.4-.5-.9-.1-2.3-.1-4.2.1.3.1.7.2.1l-.2-2c.2-4.3.7.5 1-3 .4-2.4-.2-3.4 0-5.2 0 .1-.1.3-.1.4v-.9c-.1-2.3 0-4.7-.4-5.4.2-.2 0-2-.2-2.7-.1-1.3-.6-4.3 0-6.2v.1c0-1.4.1-2.7.2-3.5 0-.4.1-.7.1-1 0-.2.1-.3.1-.1l.1-5.6h-1.4l1.2-.5c-1.7 0-3 .1-4 .1-.5 0-.9.1-1.3.1h-.5c-.1 0-.2 0-.3.1-.8.1-1.4.3-2.8.6-3-.3-8.2-.1-10.2.1h-1.7l1.7.2c-3.3 0-2.9.2-5 .2.4 0 .5.1-.7 0h.7c-.2 0-.5 0-.9-.1l.1.1h-1.2c.1-.1.6 0 1.1 0l-.4-.2c-2.6-.5-4 .3-6.8.1.3 0 .7-.1 1 0-1.6-.1-3.8-.8-4.5-.4-.4-.1-.9 0-1.5.1l-1.2-.1c.5 0 .8.1 1.1.1-.7.1-1.4.3-1.5.2l-4-.1c-.8-.1-1.8 0-2.6.1l-.7-.2c-1.5 0-1.5-.1-1.3-.1-5.1-.7-7.8.4-13.3-.2-1 .3 1.2.5 1.4.7-.9.3-4 .5-5.5.7-2.4-.5-9.9-.9-8.7-1.5-4.5-.1 1.4.4-.9.6h-.5c1.6.1 2.8.3 3.7.6.3.4-3.6.5-4.9.4l.9-.5c-3.2.1-3.4.6-4.6 1.1h-3.3c-.2-.2.3-.5-.1-.8l-3.5.1v-.4c-2.3.1-2.8.5-5.9.3 2.3-.4-4.7-.4-1.6-.8-1.7-.1-2.2.6-3.1.1-1.2.4 1.6.2 2.4.3.7.6-3.8.3-5.9.4-.2-.3 1.4-.4-1.1-.6-.5.2-2.1.4-3.5.1 0 .4-2.8.1-4.2.1 1.6.1 3.8.4 2.8.7-1.2.2-2.3.2-5 .2l1.9.2h-3.5c-1.1-.1-2.2-.3-3.8-.2 1.4-.2 2.3-.2 3.5-.5-1.6.2-4.5.5-7 .6l-2.8-.6c-.3.3-3.1 0-3.1.4-3.5-.3 2.8-.5 3.1-.7-4.3-.3-3.5.6-7.7.1l1.4-.4c-1.4 0-4.2.2-4.3 0 0 .1.7.1 1.6.1-.8.7-6.1.6-5.9 1.3h-4.5c.5-.1 1.1-.2 1.4-.2-1 0-1.5.1-2 .2h-16.6l1.6-.1-2.7.1h-9.4v.3c-.6.2-.5.2 0 .2v10c-.1.5-.3.7-.4.4l.2.5c-.9 6.5-1 14.8-1.4 23.1.6 5.2-.3 8.8.2 14.4.7.9.1 1 .3 5.8-.1-2.5-.6-.3-.7 1.3.2.9.3 2.1.3 3.2-.3 1-.8 7-.3 9.2-.2 2.9-.2-.7-.4-1.3-.4 1.2.3 2.4 0 3.3 0 0-.1 0-.1-.4 0 4.4-.2 7.1-.3 11.7.7.4.3 4.6.5 6.6-.2-.7-.3 2.6-.4 3.9l.5 2.5c.5 2.5-.3 3.4-.1 6.6l.1-.8c.2 2.3-.2 8.4-.6 10.7 1.4 21.4-.8 33.1-.4 55.7.2 1.5.4-1.1.7.1.1 2.3.1 2.8.1 4.9.2-1.8 0-1.5.2-1.3l-.2-3.2c.1-.2.1.2.2-.1-.1-1.1-.2-2.3-.2-3.7.2 2 .7 2.5.5 5.2-.1-.2-.1-.6-.1-1.3 0 2.2.2 2.3.1 4-.1 2.1 0 1.5-.2 1.8l-.3 6.4c.6 3.2 0 7.1 0 8.1-.5-.7-.1-4.2-.6-5.8l-.4 2.3.4.1-.1 3.3-.1-.2c.2.4.3.8.2 1.6-.1.1-.2.5-.2.1l.2 2.3c-.4-1.4-.1 2.1-.6 1.7-.1 3.8 0 6.2.1 8.5v.9c0 .3 0 .6.1.9 0 .6.1 1.3.1 1.9 0 1.4.2 2.8.3 4.7 0-.6.3-.1.6.9.4.9.8 2.3 1.1 3.4.2 1.3.3 1.6-.2.9l1.2 2.7c.7 3.6 2.7 6.8 5.8 11.1l-.3-.1c.7.8 1.5 1.4 2.3 2.2l1.3 1.3c.5.4 1 .9 1.5 1.4l-.7-.1c2.5 2.7 2.6 1.2 5.7 3.8.2-.4-1.7-2-1.7-2.6.2.4 1.2 1.3 2 2 .9.6 1.6.9 1.3.6 3.4 1.9 2.3 1.4 2.6 1.6l2.2.8c2.5 1.2.6.9-.5.7 1.3.4 2.6.8 3.9 1.3 1.3.6 2.7.9 4.1 1.4l-1.2-.1c1.3.4 2.5.7 3.8.9 1.3 0 2.8.2 4.4.2.8 0 1.6.1 2.5.1h2.5l-2.3.7c2.3.2 1.2-.3 1.8-.4.9-.1 1.6-.2 2.3-.2.6-.1 1.1-.1 1.6-.1h2.6c1.4-.5 2.8-.9 4.3-1.2 1.4-.5 2.8-.8 4.2-1.3 1.3-.5 2.6-1 3.9-1.7 1.2-.7 2.3-1.4 3.3-2.3l.7-.1c1.3-1.2 2.7-2.3 4-3.6.6-.6 1.4-1.2 2-1.9.6-.7 1.2-1.3 1.8-2 .6-.6 1.1-1.4 1.7-2l1.5-2.1c.8-1.4 1.5-2.8 1.9-4.1 2.4-3.5 2.5-5 2.7-6.3.1-.6.1-1.3.3-2.2.1-.5.2-1 .4-1.6.1-.3.2-.7.4-1 .1-.4.2-.8.4-1.3l-.2.2.4-2.3.1-.6v-.7l.1-.6c0-.2.1-.1.2-.1h3c1.5 0 3 0 4.5.1 5.9.1 11.9.1 17.8.2 11.8.1 23.5.1 34.4-.2v.2c4.6 0 9.2.1 13.7.1H459c0-14.1 0-28.1-.1-42.1.1-12.6 0-25.4.1-38.2zM447.2 219c-.5-.1-.6-.3-.8-.4 1.2 0 2.5.2 2.9.4-1.5.6-9.6-.4-8.1 0-3.6.2-2.5 0-2.7-.2 3.6.2 5.6 0 8.7.2zm-35.8-.1l.5.1c-1.1 0-1.8.1-.5-.1zm-60.1 1.1l5-.4c.8.2-.1.4-1 .6h-2.9c-.1 0-.5-.1-1.1-.2zm-22.2 0c1.7.5 4.5-.2 6.4.1v.1h-7c.2 0 .5-.1.6-.2zm39.3 203.2c-.2 0-.5 0-.7-.1h6.4c-1.5.1-4.2.1-5.7.1z" fill="url(#SVGID_20_)"/><linearGradient id="SVGID_21_" gradientUnits="userSpaceOnUse" x1="310.459" y1="219.428" x2="319.488" y2="219.428"><stop offset="0" stop-color="#4ad0ff"/><stop offset="1" stop-color="#4aabff"/></linearGradient><path d="M316 219.2l1-.1-2.1-.2c-3.5.3-3.7.6-4.5 1 3.1-.4 5-.2 9-.3l-3.4-.4z" fill="url(#SVGID_21_)"/><linearGradient id="SVGID_22_" gradientUnits="userSpaceOnUse" x1="342.593" y1="219.078" x2="346.587" y2="219.078"><stop offset="0" stop-color="#4ad0ff"/><stop offset="1" stop-color="#4aabff"/></linearGradient><path d="M346.6 219c-2.1.2-.5-.2-2.3-.2l-1.7.3c1.6.2 3.6.2 4-.1z" fill="url(#SVGID_22_)"/><linearGradient id="SVGID_23_" gradientUnits="userSpaceOnUse" x1="360.662" y1="218.543" x2="365.537" y2="218.543"><stop offset="0" stop-color="#4ad0ff"/><stop offset="1" stop-color="#4aabff"/></linearGradient><path d="M365.5 218.6c-1-.4-2.8-.1-4.9-.2 1.8 0 4.2.5 4.9.2z" fill="url(#SVGID_23_)"/><linearGradient id="SVGID_24_" gradientUnits="userSpaceOnUse" x1="365.695" y1="218.613" x2="370.565" y2="218.613"><stop offset="0" stop-color="#4ad0ff"/><stop offset="1" stop-color="#4aabff"/></linearGradient><path d="M369.2 218.6l-.9.4c2.3.3-.9-.5 2.2-.5-1.7-.1-2.8-.4-4.9-.4.5.3 1.2.6 3.6.5z" fill="url(#SVGID_24_)"/><linearGradient id="SVGID_25_" gradientUnits="userSpaceOnUse" x1="376.491" y1="219.002" x2="379.432" y2="219.002"><stop offset="0" stop-color="#4ad0ff"/><stop offset="1" stop-color="#4aabff"/></linearGradient><path d="M379.1 219.3l.3-.5c-2.4-.1.2.2-.7.3-.7-.1-1.7-.1-2.2 0 2.8-.2.2.3 2.6.2z" fill="url(#SVGID_25_)"/><linearGradient id="SVGID_26_" gradientUnits="userSpaceOnUse" x1="386.077" y1="218.257" x2="390.202" y2="218.257"><stop offset="0" stop-color="#4ad0ff"/><stop offset="1" stop-color="#4aabff"/></linearGradient><path d="M387.1 218.7l3.1-.2-2.4-.6c-3.7.2-.2.3-.7.8z" fill="url(#SVGID_26_)"/><linearGradient id="SVGID_27_" gradientUnits="userSpaceOnUse" x1="390.918" y1="218.731" x2="395.942" y2="218.731"><stop offset="0" stop-color="#4ad0ff"/><stop offset="1" stop-color="#4aabff"/></linearGradient><path d="M395.9 218.3c-2.8.3-3 .3-5 .7l.3.1 4.7-.8z" fill="url(#SVGID_27_)"/><linearGradient id="SVGID_28_" gradientUnits="userSpaceOnUse" x1="436.41" y1="218.081" x2="444.026" y2="218.081"><stop offset="0" stop-color="#4ad0ff"/><stop offset="1" stop-color="#4aabff"/></linearGradient><path d="M444 217.9c-2.3.1-7.9 0-7.6.3 1.4.2 5.7-.1 7.6-.3z" fill="url(#SVGID_28_)"/><linearGradient id="SVGID_29_" gradientUnits="userSpaceOnUse" x1="444.026" y1="217.869" x2="444.805" y2="217.869"><stop offset="0" stop-color="#4ad0ff"/><stop offset="1" stop-color="#4aabff"/></linearGradient><path d="M444 217.9c.3 0 .6 0 .8-.1-.1 0-.4.1-.8.1z" fill="url(#SVGID_29_)"/><linearGradient id="SVGID_30_" gradientUnits="userSpaceOnUse" x1="458.501" y1="286.918" x2="458.976" y2="286.918"><stop offset="0" stop-color="#4ad0ff"/><stop offset="1" stop-color="#4aabff"/></linearGradient><path d="M458.8 288.1c.1-1.3-.1-3.9-.3-4.3.1 2 .2 3.8.4 6.2 0-.9.2-2-.1-1.9z" fill="url(#SVGID_30_)"/><linearGradient id="SVGID_31_" gradientUnits="userSpaceOnUse" x1="458.374" y1="305.632" x2="458.693" y2="305.632"><stop offset="0" stop-color="#4ad0ff"/><stop offset="1" stop-color="#4aabff"/></linearGradient><path d="M458.4 304.6c-.1.5.1 2.6.3 1.9-.2-.9-.1-2.2-.3-1.9z" fill="url(#SVGID_31_)"/><linearGradient id="SVGID_32_" gradientUnits="userSpaceOnUse" x1="310.421" y1="463.163" x2="312.301" y2="463.163"><stop offset="0" stop-color="#4ad0ff"/><stop offset="1" stop-color="#4aabff"/></linearGradient><path d="M311.8 462.9h-1.4c.4.1 1.1.3 1.4.5.9.1.4-.2 0-.5z" fill="url(#SVGID_32_)"/><linearGradient id="SVGID_33_" gradientUnits="userSpaceOnUse" x1="303.789" y1="460.922" x2="311.034" y2="460.922"><stop offset="0" stop-color="#4ad0ff"/><stop offset="1" stop-color="#4aabff"/></linearGradient><path d="M306.2 460.4l.8.2c-1.1-.3-2.1-.8-3.2-1.2.8.5 1.5.9 2.1 1.2.6.3 1.1.5 1.6.6 1 .4 1.9.7 3.5 1.2-1.3-.5-3.2-1.1-4.8-2z" fill="url(#SVGID_33_)"/><linearGradient id="SVGID_34_" gradientUnits="userSpaceOnUse" x1="284.078" y1="399.763" x2="284.83" y2="399.763"><stop offset="0" stop-color="#4ad0ff"/><stop offset="1" stop-color="#4aabff"/></linearGradient><path d="M284.3 403.2c.3.3.3-.4.5 1.9-.2-3.2-.1-6-.2-9.6-.2.6-.6-2.1-.5-.7l.2 4.1-.2-.6c-.2 2.9.4 1.9.2 4.9z" fill="url(#SVGID_34_)"/><path class="st10" d="M428.4 426.7h-64.8c0 21.6-17.5 39.1-39.1 39.1h143.1c21.6 0 39.1-17.5 39.1-39.1h-78.3z"/><path class="st1" d="M385.4 276.2H317c-2 0-3.6-1.6-3.6-3.6s1.6-3.6 3.6-3.6h68.4c2 0 3.6 1.6 3.6 3.6s-1.6 3.6-3.6 3.6zM426.5 276.2h-12.9c-2 0-3.6-1.6-3.6-3.6s1.6-3.6 3.6-3.6h12.9c2 0 3.6 1.6 3.6 3.6s-1.6 3.6-3.6 3.6zM385.4 310.1H317c-2 0-3.6-1.6-3.6-3.6s1.6-3.6 3.6-3.6h68.4c2 0 3.6 1.6 3.6 3.6s-1.6 3.6-3.6 3.6zM426.5 310.1h-12.9c-2 0-3.6-1.6-3.6-3.6s1.6-3.6 3.6-3.6h12.9c2 0 3.6 1.6 3.6 3.6s-1.6 3.6-3.6 3.6zM385.4 344H317c-2 0-3.6-1.6-3.6-3.6s1.6-3.6 3.6-3.6h68.4c2 0 3.6 1.6 3.6 3.6s-1.6 3.6-3.6 3.6zM426.5 344h-12.9c-2 0-3.6-1.6-3.6-3.6s1.6-3.6 3.6-3.6h12.9c2 0 3.6 1.6 3.6 3.6s-1.6 3.6-3.6 3.6z"/></svg>