<svg xmlns="http://www.w3.org/2000/svg" viewBox="0 0 50 50"><path d="M43.12 24.49l-12.26-7.2V6.3a1.52 1.52 0 00-1.52-1.52H7.65A1.52 1.52 0 006.13 6.3v37.4a1.52 1.52 0 001.52 1.52h34.7a1.52 1.52 0 001.52-1.52V25.79a1.5 1.5 0 00-.75-1.3zm-15.3 17.7H9.16V7.81h18.66zm13 0h-10V20.81l10 5.85z" fill="#628eb5"></path><path d="M14.22 23.41h8.54a1.52 1.52 0 100-3h-8.54a1.52 1.52 0 000 3zM14.22 17.62h8.54a1.52 1.52 0 100-3h-8.54a1.52 1.52 0 000 3zM33.71 33.37H38a1.52 1.52 0 100-3h-4.29a1.52 1.52 0 000 3zM14.22 37.9h8.54a1.51 1.51 0 001.52-1.51v-8.54a1.51 1.51 0 00-1.52-1.51h-8.54a1.51 1.51 0 00-1.51 1.51v8.54a1.51 1.51 0 001.51 1.51zm1.52-8.53h5.5v5.5h-5.5z" fill="#628eb5"></path></svg>