
<svg version="1.1" id="Layer_1" xmlns="http://www.w3.org/2000/svg" x="0" y="0" viewBox="0 0 512 512" xml:space="preserve"><style>.st0{fill:#bcbcce}.st1{fill:#fff}.st10{fill:#dbdaed}</style><path class="st0" d="M190.2 207.1c.2-.1.5-.3.7-.5l-.7.5zM188.8 208.1l1.4-1c-1.5 1-1.6.6-3.6 2.3l2.2-1.3zM188.7 206.9c.7-.6 1.5-1.2 2.2-1.9-.8.5-1.6.9-2.3 1.4l.1.5zM15.3 88.2v-.7c-.8 1.3-.5 1.1 0 .7zM62 65.3l-.8.7c.2 0 .4 0 .6-.1.2-.2.3-.3.2-.6zM7.8 107c.3-.7.7-1.5 1-2.3-.2-.3-.8.5-1 2.3zM77.9 61.8c-.6 0-1.5.1-2.6.4 1-.1 1.8-.3 2.6-.4zM195.1 200.2c-.1.1-.2.3-.3.4.1-.2.2-.3.3-.4z"/><path class="st0" d="M202.5 184.5c-.1-1.4.1-2.8 0-4.2 0-.7 0-1.4.1-2.1v-2.1c0-1.4-.1-2.7-.3-4.1-.1-1.4-.4-2.5-.7-3.6.5 1.2 1 1.4 1 .7-3.3-9.7-5.2-19.7-8.5-30.9l.2-3.7h-.9c-1.7-5.5.8-1.5-.1-5 .3 1.4.1 1.1 0 1.5-.7-6.7-1.6-3.4-2.3-7.1-.4 1.9 1.4 7-.1 5.7-.7-6.7-3.7-16.5-2-17.9-3.8-11.8-6.2-26.8-8.7-36.9-.8-1.4 0 1-.4.5-.1-1.2-.4-2.7-1-4.3-.6-1.5-1.4-3.2-2.3-4.5-.8-1.4-1.8-2.6-2.4-3.5-.3-.4-.6-.8-.7-1.1-.2-.3-.2-.5-.1-.5-1.7-1.5-2.8-1.7-3.4-1.9-1.6-2.4-4.1-4.9-7.2-6.9l2.1 1.7h-.3c-1-.8-1.9-1.7-3-2.4h.2c-4-2.4-8.8-4-13.6-4.7-4.9-.7-9.7-.5-14 0 4.3-.3.5 1 .9 1.3-1-.1-2.1-.1-3.4 0-1.5.1-3.2.4-5.1.8-3.9.7-7.9 1.7-11.5 2.7.1.3-.4.7.5.8l-4.3.4.7.3c-7.4 2.2-16 2.4-20.8 4.4 3.1-.6 3.2-.2 3.6.2-5.4 1.3-10.4 2.6-16.8 3.7.4 0 .6.1.6.2-1.6.6-3.7.7-5.4.9v.9c-3.3.4-7.3 1.9-11.3 2.2-1.3 1.3-9.4 1.5-13.7 3-1.7.2 3.9 0-.8 1.1-1.1-1.6-6.1 1.5-7-.3l-2 .9-2.3 1-1.4-.6c-1.6 1.7-3.2 2-5 2.6-1.8.5-4 1.3-6.3 3.5.4-.1 1-.4.8-.1-.8.6-2.2 1.6-3 2.2-.8.6-1.1.7.1-.8-.6.6-1.6 1.6-2.7 2.6-1 1.1-2 2.4-2.9 3.4-1.5 2.3-2.2 3.7-.4 1.8-.3 0 .2-1 1.1-2 1-1 2.1-2.3 2.9-2.9.3.7-3.1 4.4-2.9 6-.2.1-.6.5-1 .9 0 .3 0 .6.1.9-1.9 2.4-3.3 5.3-4.2 8-.2.7-.5 1.4-.7 2-.2.7-.4 1.3-.6 2-.4 1.3-.7 2.5-1.1 3.6.2.3.3 1.4.2 3.6l-1 .1v1.7l.2 1.7c.1 1.1.2 2.3.4 3.4.3-1.1.7-2.2 1.1-3.3.1.9.2 1.8.3 2.6.1.8.3 1.6.4 2.4l.3 2.1c.1.7.1 1.3.2 1.9.2 2.6.3 5 .8 7.5 2 .9 1.8 9.9 4.4 13.9l-.5-4c1.8 8.4 3.1 9.5 4.5 17.5-2.2-6.5-1.9-6.6-5.7-15.9 3.1 9.5 3.3 17 6.5 25.6.3-.7 0-3 .9-.9-.4 1.9 2.1 8.3.8 7.3 1 2.7 2.1 2.9 2.7 4.6l1.1 9.5.1-.3c3.1 7.6 4.6 15 5.9 22.5.3 1.9.6 3.7 1 5.7.3 1.1.5 2.2.8 3.3.3 1.1.8 2.2 1.2 3.3 1.8 4.3 4.4 8.4 8.1 11.7l.1-.7 1.5 2c.4.5.8.9 1.2 1.4-1.6-1.9 2.2 1 2.7.8 3.1 2.7 6.6 5 10.5 6.7.4-.4 0-1.5-2.8-2.5 2.2.7 4.4 1.5 6.6 2.3 1.1.3 2.2.7 3.3 1 1.1.2 2.1.4 3.2.5L68 243c.7.1 1.3.3 2 .4l2.1.2v-.7c1.7.2 3.5-.1 5.2-.2.9-.1 1.7-.3 2.6-.5.8-.2 1.7-.3 2.4-.5 2.7-.7 4.9-1.1 6.1-.9l-.9-.9 6.1-.6-3.6.1c6.6-1.9 16.9-3.6 18.3-3.9l-.7-.2c1-.5 2-.4 3.1-.6l-1-.4c10-2.3 12.4-4.4 23.7-6.6 3-.9-1.7.2-1.9-.1 1.5-.9 5.6-1.4 6.5-1.4-1.1-.7-5.7.8-2.4-.9 2.7-.2-1.9-.4 2.6-1.4l2.1.8c2.4-.8.3-1.1 4.2-1.9 4.6-.6-5.1 2.7 2.1 1.1 3.6-1 6.9-4.7 14.1-5.8 5.9-2.1-3.7-1.1 4.8-2.9l-2.8.3 6.1-1.5c.3 0 .5-.1.8-.1-.2 0-.3 0-.4.1l6.5-1.6c.5-.1.9-.2 1.4-.4 1.2-.1 2.9-.6 4.5-1.4.7-.3 1.3-.7 2-1.1.6-.4 1.3-.7 1.8-1.2.5-.4.9-.7 1.3-1 .8-.6 1.6-1.1 2.3-1.7l.1-.1c2.1-1.7 3.9-3.7 5.5-5.9.1.2.1.3.2.5.2-.4.4-1 .8-1.7.3-.7.8-1.3 1.2-2.1.4-.7.8-1.4 1.1-1.9.3-.5.6-1 .8-1.1.2.2.1.7 0 1.3-.2.6-.6 1.3-1 2-.4.8-.9 1.5-1.4 2.2-.4.5-.7 1-1 1.4.7-.9 1.2-1.7 1.8-2.3.6-.8 1.1-1.6 1.5-2.3.5-.7.9-1.3 1.2-1.9.4-.6.7-1.1 1-1.7.6-1.1 1.1-2.2 1.5-3.6.3-1.4.8-3.1.7-5.4l-.5 1.5zM9.2 108.6c0-1 0-1.9.1-2.9 0-.6.1-1.2.2-1.8l-.2 1.8c.1 1.6.6 2.6-.1 2.9zm188.2 47.2c1.4 2.6.7 6.7 1.3 7.4 0-1.5-.7-4.3-.1-4.5 1.6 3.4 1.1 5.6 1.6 8.2l-.7-1.3c.4 3 .3 4.4.2 5.5l-.6-2.5.1.1c-1-4.1-2.1-10.3-1.8-12.9zm-1.9-9.6l-.4 1.9-.8-3.4 1.2 1.5zm.3 9l-3.5-13.9c-.1-1.7 0-3.5-1-5.7-.1.4-.1.8-.2 1.2l-.9-3.5c0-.2 0-.9-.1-2.4 2.4 7.6 4.1 16 5.7 24.3zm-10.6-45.3l.4 2-1-2.7.6.7zm-3.6-11.1l-2.3-9.1v-1.4c1.6 2.3 2 6.4 2.3 10.5zm-5.8-26.1c-.2-.6-.3-1.1-.2-1.4.2.5.3 1 .2 1.4.3 1.5 1.1 3.7 1.5 4.6.3-.7-.5-2.9-.5-3.9.5.8.9 1.9 1.1 3.1.2 1.1.3 2.4.4 3.4.2 2.1.6 3.4 1.7 2 0 1.5.5 6.4-.4 4.9-.4-1.9-1.1-4.6-1.9-7.2-.4-1.3-.8-2.6-1.2-3.7-.4-1.1-.9-2.1-1.2-2.7-.2-.1-.4-.4-.7-1 .2.1.5.5.7 1 .2 0 .4-.1.5-.5zm-5.1-8.3c.1.4.2.7.4 1.1-1.1-1.7-2.4-3.2-3.8-4.6.2.1.6.4.9.7.9.9 2.1 2.2 2.5 2.8zm-28-17.4c.3.1.3.2.2.3l1.7.4c-4.5.4-2.2 0-1.7-.4-.7-.2-1.4-.3-2.1-.3 1-.2 1.6-.1 1.9 0zm-8.9 2.7c.1-.2.5-.4 1.1-.6.6-.2 1.5-.4 2.3-.6.9-.2 1.8-.2 2.6-.3h1.9c-1.2.2-3.5.3-5.2.8-1.9.5-3.1.9-2.7.7zm-3.4 2.5c2.8-.4 1.4.3 1.8.4h-.1c-1.1.2-1.9.1-1.7-.4zm-12.5 3.2c0-.1 0-.1-.1-.2.1.1.2.2.1.2zm-11.4 2.7c3.2-.2 2.4-.8 4.1-1.4l-.8 1.1c-4.6.6-5.1.1-8.7-.1 4.2-1.5 5.8-.3 5.4.4zm-4-1.6c.5-.2 1-.4 1.8-.6l-1.8.6c-2 1-2.2 2.4-5.5 1.9l5.5-1.9zM25.9 83.2c-1 .9-1.9 1.8-2.8 2.8-.1-.3-.3-.4-.3-1 1.1-.5 2.1-1.1 3.1-1.8zm-13.4 38.5c-.2-1.2-.2-1.7-.5-2.5-.3.7-.3 3.1-.8 1.5.1-.7-.1-1.9-.2-3.1-.1-1.3-.1-2.5.2-2.6 0 1 .2 1.9.4 2.7.2.7.5 1.3.8 1.8.4.9.7 1.7.1 2.2zm1.1-18.7c.1-.7.3-1.2.4-1.7.4-1.8.5-2.3 1-2 .5-.8.6-2.3 1.2-3-.6 3.5-1.5 3-2.2 5-.1.5-.2 1-.4 1.7zm.5 10c.3-.3.4-.9.5-1.7v-1.1c0 .9.1 1.9.3 2.8-.1.4-.4.4-.8 0zm6.2 34.4l.4-1 .3.8-.5-3.4c1.9 4.2 1.2 7.7 1.5 10-.4-2-.3-7.8-1.7-6.4zm5.4 9.6l.3 1-.1.2c-.1-.4-.1-.8-.2-1.2zm2.7 30.1c-1.7-2.4-1-4.3-1-5.9v-.7.7c.2 2.8 1.7 3.5 1 5.9zm3.1 5l-.6-1.6c-1-1.1.2 2.7-.3 3.1-.8-1.9-1.4-6.5-.8-4.9 1.4 4.1.6-2.3 1.6.4l-.6-2.2c1.7 3.4-.1 2.8.7 5.2zM49.6 229c-.5-.3-1.3-1-2.2-1.5.5.3.4-.1 0-.8-.1-.2-.2-.4-.4-.7 1 1.2 2.2 2.3 3.3 3.3-.2-.1-.4-.1-.7-.3zm49.5 6.3c-.5.4-2.7 1-4.4 1.3 2.4-1.2 2.7-1.1 4.4-1.3zm-.3.8c4-1.7 3.6-.1 6.1-.6-3.2 1.4-3 0-6.1.6zm47.2-15.9l-1.7.2c-.3 0-.5-.1-.5-.2l2.9-.7c.2.2.1.4-.7.7zm51.1-25c.4-.8.8-1.6 1.1-2.3.2-.1.3-.3.5-.7-.4 1-1 2-1.6 3zm4.4-11.2c0 1.1-.3 2.2-.5 3.1-.1.5-.3.9-.4 1.3-.2.4-.4.7-.6.9.3-.8.4-1.7.6-2.6.2-.9.4-1.7.4-2.6-.5 2.3-1.1 4.4-1.8 6.3 1.1-3.4 1.8-7.1 1.7-10.8.2-.4.4-.9.8-1-.2 1 0 3.2-.2 5.4zM46 234.8c.1.1.3.3.4.5-.1-.1-.3-.3-.4-.5z"/><path class="st0" d="M161.7 51.9h-.2c.4.2.8.4 1.1.7-.2-.3-.6-.5-.9-.7z"/><path class="st1" d="M87.5 181.6c-.6 0-1.3-.2-1.9-.5-1.7-1-2.3-3.3-1.3-5l40.5-67.7c1-1.7 3.3-2.3 5-1.3 1.7 1 2.3 3.3 1.3 5l-40.5 67.7c-.7 1.2-1.9 1.8-3.1 1.8z"/><circle class="st1" cx="91.1" cy="120.4" r="8"/><circle class="st1" cx="124.3" cy="167.8" r="8"/><linearGradient id="SVGID_1_" gradientUnits="userSpaceOnUse" x1="202.045" y1="143.456" x2="294.219" y2="143.456"><stop offset="0" stop-color="#f5a54b"/><stop offset=".293" stop-color="#f5a84d"/><stop offset=".496" stop-color="#f6b154"/><stop offset=".672" stop-color="#f8c060"/><stop offset=".833" stop-color="#fad671"/><stop offset=".982" stop-color="#fdf287"/><stop offset="1" stop-color="#fdf68a"/></linearGradient><path d="M292 163.5c-7.4-14.4-21.5-26.1-38.6-32.2-15-5.4-32.2-6.7-51.1-4l-.4-2.4c19.3-2.8 36.9-1.4 52.3 4.1 17.6 6.3 32.2 18.5 39.9 33.4l-2.1 1.1z" fill="url(#SVGID_1_)"/><linearGradient id="SVGID_2_" gradientUnits="userSpaceOnUse" x1="287.34" y1="160.532" x2="287.475" y2="160.532"><stop offset="0" stop-color="#f5a54b"/><stop offset=".293" stop-color="#f5a84d"/><stop offset=".496" stop-color="#f6b154"/><stop offset=".672" stop-color="#f8c060"/><stop offset=".833" stop-color="#fad671"/><stop offset=".982" stop-color="#fdf287"/><stop offset="1" stop-color="#fdf68a"/></linearGradient><path d="M287.5 160.7v-.3c-.2.1-.2.2 0 .3z" fill="url(#SVGID_2_)"/><linearGradient id="SVGID_3_" gradientUnits="userSpaceOnUse" x1="296.349" y1="158.346" x2="296.478" y2="158.346"><stop offset="0" stop-color="#f5a54b"/><stop offset=".293" stop-color="#f5a84d"/><stop offset=".496" stop-color="#f6b154"/><stop offset=".672" stop-color="#f8c060"/><stop offset=".833" stop-color="#fad671"/><stop offset=".982" stop-color="#fdf287"/><stop offset="1" stop-color="#fdf68a"/></linearGradient><path d="M296.3 158.5h.1c0-.1 0-.2-.1-.4v.4z" fill="url(#SVGID_3_)"/><linearGradient id="SVGID_4_" gradientUnits="userSpaceOnUse" x1="283.199" y1="160.768" x2="284.125" y2="160.768"><stop offset="0" stop-color="#f5a54b"/><stop offset=".293" stop-color="#f5a84d"/><stop offset=".496" stop-color="#f6b154"/><stop offset=".672" stop-color="#f8c060"/><stop offset=".833" stop-color="#fad671"/><stop offset=".982" stop-color="#fdf287"/><stop offset="1" stop-color="#fdf68a"/></linearGradient><path d="M283.2 160.6c.3.2.6.3.9.4 0-.3-.3-.5-.9-.4z" fill="url(#SVGID_4_)"/><linearGradient id="SVGID_5_" gradientUnits="userSpaceOnUse" x1="299.091" y1="157.461" x2="299.872" y2="157.461"><stop offset="0" stop-color="#f5a54b"/><stop offset=".293" stop-color="#f5a84d"/><stop offset=".496" stop-color="#f6b154"/><stop offset=".672" stop-color="#f8c060"/><stop offset=".833" stop-color="#fad671"/><stop offset=".982" stop-color="#fdf287"/><stop offset="1" stop-color="#fdf68a"/></linearGradient><path d="M299.1 157.5c.3 0 .5-.1.8-.1-.2 0-.5 0-.8.1z" fill="url(#SVGID_5_)"/><linearGradient id="SVGID_6_" gradientUnits="userSpaceOnUse" x1="306.738" y1="176.903" x2="306.791" y2="176.903"><stop offset="0" stop-color="#f5a54b"/><stop offset=".293" stop-color="#f5a84d"/><stop offset=".496" stop-color="#f6b154"/><stop offset=".672" stop-color="#f8c060"/><stop offset=".833" stop-color="#fad671"/><stop offset=".982" stop-color="#fdf287"/><stop offset="1" stop-color="#fdf68a"/></linearGradient><path d="M306.8 176.8c0 .1 0 .1-.1.1.1 0 .1 0 .1-.1z" fill="url(#SVGID_6_)"/><linearGradient id="SVGID_7_" gradientUnits="userSpaceOnUse" x1="263.002" y1="172.829" x2="317.555" y2="172.829"><stop offset="0" stop-color="#f5a54b"/><stop offset=".293" stop-color="#f5a84d"/><stop offset=".496" stop-color="#f6b154"/><stop offset=".672" stop-color="#f8c060"/><stop offset=".833" stop-color="#fad671"/><stop offset=".982" stop-color="#fdf287"/><stop offset="1" stop-color="#fdf68a"/></linearGradient><path d="M312.6 160l1-1.2h.1c1.3-2 2.2-4 3.9-6.4-.1-.2 0-.5-.3-.6.3.4-1.4 1.3-1.8 1.7.9-1.4-1.9-.6-4.2.2-.3.4-.7.7-.7.9-.2-.1-.4-.2-.7-.3l-.1.4c-1.2.5-2.1.4-3 .5-.9 0-1.9.1-2.8.7.9-.1.8.2.7.6-1.5.4-2.9.8-4.8 1 .1 0 .2.1.2.2-.2.1-.5.2-.8.2-.3 0-.6 0-.8-.1l.1.6c-.7-.1-1.3.4-2.2.2-.1.7-1.9-.1-2.6.4-.4-.1.9.5 0 .7-.5-1.3-1.1.3-1.6-1.1l-.6.7-.4-.6c-.3 1.5-1.2-.3-2 .4.1.1.2.2.2.3-.4-.1-1.1.1-.6-.4-.5.2-2.4.4-1.3.9-.2-.4.6-.3 1-.2.1.6-.7.6-.7 1.3 0-.1-.2-.1-.3-.2v.4c-.6-.2-1.1-.1-1.6 0-.2 0-.5.1-.7 0-.2 0-.7 0-1.1-.1 0 .2-.2.4-.8.6l-.4-.7-1.9.6c.6.2 1.1.5 1.6.7-.9.4-1.8.4-2.9.4-1.1 0-2.3 0-3.3.2.5.5-.4.7-1.6.9-1.1.2-2.5.5-2.4 1l1.8-.2c-1.5.3-2.1.6-2.6.9-.6.3-1.1.5-2.8.8.6-.4 1.1-.6 1.5-.9.5-.3.9-.6 1.8-1.4-1.3.7-3 1-4.8 1.4-.9.2-1.8.4-2.5.6-.7.2-1.5.5-1.7.8.9 0 2-.1 2.2.2-.5 0-1 0-1.3.1.6.4 2.2 1.2.5.8 1.6.6 3.4.9 4.2 1.2.3.5.7 1.1 1.2 1.8l.2-.1c2.2.8 3.6 1.5 4.8 2.2.6.4 1.1.7 1.6 1.1.5.4.9.8 1.4 1.2.9.8 1.8 1.8 2.8 2.8l.8.7c.1.1.2.2.4.3l.9.6.2-.4.2.9c-.2-.7.5-.2.8-.5.3.6.5 1.2.8 1.9.3-.2.7-.9.3-1.1.8.1.8 1.3 1.2 1.7l.1-.4.2.6.3-.4c.6.9 1.9 1.3 1.5 2.2l.5-.7.3 1.2v-.8c1 .7 1.8 2.5 2 2.7l.2-.3c.2 0 .2.3.3.5l.2-.4c1.1 1.4 2.3 1.1 3.2 3 .4.4-.1-.3.1-.5.5 0 .7.8.6 1 .5-.6-.3-1.1.6-1 0 .6.3-.7.7.1l-.5.8c.4.3.6-.4 1 .3.2.9-1.5-.2-.7 1 .4.5 2.6-.2 2.9 1.2 1.1.7.8-1.3 1.6.1v-.6c.2.3.5.7.7 1v0c.1.1.2.3.3.4v.6c.1 0 .2-.1.3-.2l.1.1v-.3c.2-.3.2-.8.1-1.2.4.1.8.2.8-.6l.3.5c0-.1.1-.1.1-.1l.4.6c-.1-.5-.6-1.4.3-1.4l.7.8c.3-.5.7-.3 1-.6-.3-1.1-.6-2.1-1-3.2-.2.3-.1.8-.4.8-.7-.5.1-.9-.7-1.3l-.1.5c.1-.1.1-.3.2-.2.4.1.2.3 0 .5-.2 0-.4-.1-.5-.3.5-.7 1-1 .7-2.1l-.3.2c-.6-1 .6-1.9.6-2.8.1.3.4.3.6.2-.4-1.9.3-3.7.3-5.8l.9-.5-.6-.2c0-1 .7-.2.9-.6-.1.1-.1 0-.3.1.9-1-.4-.8-.1-1.4-.7.2-.5 1.2-1.3.7.9-1 1-2.9 2.5-2.7 0-1.1.4-2.3 1-3.4.1-.3.3-.5.4-.8.1-.3.3-.5.5-.9l1.2-2.4c-.1-.4-.3.2-.5.1.7-.6 1-1.6 1.1-2.3.2-.8.3-1.3.8-1.5 0-.5-.7-.4-.9-.4.9-.9 1.6-1.9 2.2-2.9l-.7.9-.4.3zm3.5-6l.9-1c-.4.5-.7.8-.9 1l-.7.8c-.2-.5.2-.5.7-.8zm-2.3.8c.4-.3.8-.6 1.1-.7.2 0 .2.1.2.3-.2.2-.3.4-.5.6 0-.1.1-.2.1-.3-.1 0-.1 0-.2-.1h-.2c-.4.2-.6.3-.5.2zm-2.9 2.1c.2.2-.5.6-.7.9 0-.2.2-.5.7-.9zm-2.7 7c-.1.1-.3.2-.4.3.2-.4.3-.7.5-1.1.2.1 0 .6-.1.8zm-32.4 4.1h.5c-.1 0-.1 0-.2.1l-.3-.1zm8.3-3c.3.3.6.4.9.3-.2.1-.3.1-.5.2-.2-.1-.3-.2-.4-.5zm23.1-7.3l-.8 1c-.5-.3-.3-.8-.6-1.5 1.4-.8.8.5.3 1.2.3.2.6-.5 1.1-.7zm1.3-.2c0 .1-.1.2-.2.2l.2-.2zm-5.6 29.7s-.1 0-.1.1v-.9c-.2.4-.2.8-.4 1.2 0-.7.1-1.3.1-2 .1-.1.3-.2.6-.1-.2.2.4 1.3-.2 1.7zm.7-8.9c.3-.3.7-.5.6-1-.1 0-.2.1-.4.1 0-.2.1-.5.1-.7.1 0 .2-.1.5-.3 0 1.5-.6 3-1.2 4.5 0-.9.2-1.8.4-2.6zm3.1-22.2c.2-.1.4-.3.6-.3l-.6.3c-.9.6-1.5 1.9-1.7.9l1.7-.9zm-16.3 7.6c-.3.1-.5.2-.8.2 0-.2-.1-.4-.1-.7.3.4.6.5.9.5zm-4.2.3c.3-.1.4-.2.5.3.2.2.4-.2.6 0-.5.5-.7-.2-1.1-.3-.1 0-.2 0-.3.1.1-.1.2-.1.3-.1zm-2.2-2.5c.1-.1.3-.1.5-.1l-.5.1c-.4.2-.5.6-.8.2l.8-.2zm-4.1 1.2c.7.2 1.9-.1 2.3.3-.7-.1-.9.2-1.1.4-.2.2-.3.4-.9 0 .4 0 .6 0 .8-.1-.4-.2-1.5-.3-1.1-.6zm-5.5 3.6l1 .2-.1.1 1.3-.1c0 .3-.6.4-1.4.4-.8 0-1.8-.1-2.3 0 .6-.3 3.9-.1 1.5-.6zm-1.6 4.6c-2.2-.4-1.3-.8-1-1 0 .5 2 .6 1 1zm3.7.7l-.6-.2c-1.2-.1.1.5-.5.6-.9-.3-1.5-1.1-.8-.9.8.3 1 .2 1.2.1.2-.1.3-.3.9-.1l-.6-.3c1.7.5-.5.5.4.8zm8.9 4.3c.2 0 .2-.3.1-.6.2.2.5.4.7.6-.2.1-.3-.1-.8 0zm5.7 8.3c-.2.1-.5-.2-.7-.5.7 0 .6.1.7.5zm-.1 1.5c-.8-.1 0-.7-.3-1.2 1 .1.1.8.3 1.2zm7.8 3.7l-.1-.3c0-.1.1-.1.1-.2.1.1.2.3.3.4 0 .1-.1.2-.3.1zm5.1-6.1l-.2-.3c-.3.5-.7.7-1 .9v-.5h.1c.1-.8.5-1.9 1.3-2.3.5.6-.9 1.1-.6 1.3.3-.2.4-.8.9-.7.5.9-.3 1.2-.5 1.6zm.2-3.6l.2-.6.6.4-.8.2zm1.3-6.8l-.1-.6.3.2-.2.4zm.1-2.6c.2-.6.4-1.1.6-1.7.1-.1.2-.1.3-.2.6.8-.2 1.4-.9 1.9zm2.3-3.2c-.4.4-.5.7.7.7-.2.1-.5.5-.8.7-.3.1-.5.2-.7 0 .4-.7.7-2.3.5-2.8-.1 0-.2-.1-.2-.2.1 0 .1.1.2.2.1 0 .3 0 .5-.1.1-.1.2-.2.4-.3 0 .1-.2.2-.4.3-.3.3-.4.7-.2.9.4-.1.5-.6.8-.8.2.4-.5 1-.8 1.4z" fill="url(#SVGID_7_)"/><linearGradient id="SVGID_8_" gradientUnits="userSpaceOnUse" x1="313.44" y1="158.905" x2="313.733" y2="158.905"><stop offset="0" stop-color="#f5a54b"/><stop offset=".293" stop-color="#f5a84d"/><stop offset=".496" stop-color="#f6b154"/><stop offset=".672" stop-color="#f8c060"/><stop offset=".833" stop-color="#fad671"/><stop offset=".982" stop-color="#fdf287"/><stop offset="1" stop-color="#fdf68a"/></linearGradient><path d="M313.4 159.1l.3-.4h-.1c0 .2-.1.3-.2.4z" fill="url(#SVGID_8_)"/><path transform="rotate(-9.633 319.097 314.303)" class="st10" d="M240.7 218.9h156.6v190.8H240.7z"/><linearGradient id="SVGID_9_" gradientUnits="userSpaceOnUse" x1="244.004" y1="325.887" x2="504.177" y2="325.887"><stop offset="0" stop-color="#f5a54b"/><stop offset=".293" stop-color="#f5a84d"/><stop offset=".496" stop-color="#f6b154"/><stop offset=".672" stop-color="#f8c060"/><stop offset=".833" stop-color="#fad671"/><stop offset=".982" stop-color="#fdf287"/><stop offset="1" stop-color="#fdf68a"/></linearGradient><path d="M504.1 397.7c0-.2 0-.4.1-.6 0-.3 0-.6-.1-.9v-60.1c0-17.8-14.4-32.2-32.2-32.2h-7.7c-1.4-.5-2.9-1-2.7-1.5-3.7 1-9.8-1.5-15.8-.1-1.3-.2 1.1-.4.4-.6-1.5.5-3.4.6-6.8.4l.4-.1c-9.7.1-13.8-.4-24.7-.7l.8.6c-2.3-.1-2.8-.3-3.9-.4-2.7.9 6.6 0 4.1 1-.8-.3-2.4-.5-4.3-.5-.7 0-1.6 0-2.4-.1h-1.8v-1.5-.7-.8c.1-1.4.3-2.5.6-3 0-3.6-.7 1.1-.7-2.5l.4-1-.5-.9c.1-2.4.5-3.5.8-3.6 0 .6.1 1.6.1 2.2.4-2.8-.1-7.9 0-9.4l-.2 3.2c-.3-9.8.1-21.8-.6-31.3l-.3.7c-.3-3.6-.2-5.1-.1-6.6 0-.4.1-.8.1-1.2 0-.4.1-.9 0-1.5 0-1.2-.2-2.9-1-5l.2.3c-.9-1.6-2.1-3.7-3.8-5.4.9.7.3-.2-.3-1s-1.2-1.5 0-.6c-1.8-1.4-3.2-2-4.1-2.4-.9-.4-1.4-.4-1.7-.5-.4 0-.7-.1-1.2-.1h-1.1c-.5 0-1 0-1.7.1l-1.3-.5c-1.8.4-1.9.6-5.9.7 3.3-.4-2.5-.7 1.1-1.2-8.3-1-12.4 1-16.2-.4-3.8 1.3 7.2.7 5.1 1 1.8.4-3.2.9-5.8.8-2.7 0-4.5-1.6-11.2-1.6.7 0 .7-.1 1.4-.1-2.5-.3-4.9.4-8-.1-1.7.8-4 0-4.5.9l6.1-.2c-3.5.3-6.7 1.4-12.5.8.4-.2 2.2-.5 3.3-.6-1.7-.3-3.2.2-5-.1.5-1 7.5-.2 11.2-.9-1.8-.4-7.1.7-5.2-.3-2.7 1.3-6.6-.2-11.1.9l.3-.6c-.7.1-2.2.4-3.5.4l2.4-.8c-3.7.6-7.1-.6-10.6-.2 7.4 0 1.7.7 4.8 1.1-9 .8-5.3-1.4-15-1.2 1.6 0 4.6.4 2.6.6-1.9-.1-4.5-.3-5.7-.6-6.7.1 1 .6-1.8 1-2.3-.7-3.3.3-6.3.5v-.6c-7.7-.4-2 1.2-9 .8l2.9-.8-3.6.2.7-.7c-3.9.5-5.1.4-9 .2.9.4-.5 1.1-3.9 1.1-2.3-.4 1.3-.6-3.5-.5 1.1-.4 2.3-.8 4.4-.3.2-.2 1.1-.4 1.3-.6-2.5-.4-6.3-.1-8-.1.7 0 1.5.1 1.9.1l-7 .8c-1.1-.2-.2-.4.6-.6-1.4.1-2.4.3-4.5.4.5-.5.4-1 3.4-1.2l-3.3.3-1.7.1c-.6.1-1.3.1-2 .2-.3 0-1.3-.1-2.2 0-.9.1-1.6.1-1.1-.1-2.3.5-4.9 2.1-7 4.3-2.1 2.2-3.6 5-4.7 7.9 0 .3-.1 1-.3 2.2-.1.7-.3 1.4-.3 2.1l-.1 1v.8c-.1 1.1-.1 2.2-.2 3.4-.1 2.3-.1 4.7.3 7.4l-.9 3.1c.2 4.3 1.1-4.2 1.4 2.9.3 5-.7 1.9-1 3.6.4 2.5 1.3 6.9.6 11.5-.2-1.5 0-2.7-.1-4.2l-.5 3.5c-.8-4.3-.5-7.3-1.2-4 1.7.5.2 13.7 1.8 14.2l-.3 2.3c0-.7-.1-.8-.1-1.4-.8 4.5 1.2 3.4 1 9.2-.1 2-.4 3.4-.6 2.1l.4 4.5c0 1.1-.2 1-.3.2l.1 6.3v-.1c.3 1 .7 3.2.8 4.3-.2 1.8-.2-.9-.4-.4l.4 3.8c-.4 1.6-.8-1.6-.8-4.2-1.7 3.6.4 3.2-.6 10.9l-.2-3.6c-.9 2.3-.6 5.1-1.2 9.2.3-1 1.5-8.2 1.9-4-.1 1.2-.2 2.7.1 4.9-.6 0-.4 2.2-.4 4.9l-.8-.2c.2 3 .6 2.7 1 4.5-.1 3.3-.7 4-1.2 4.8-.1 5.3 1-3.6 1.1 2.6-.3 4.4 0 7.5.5 12.7-.3 3.1-.5-.5-.7.6l.6 2.7c0 .7-.2.5-.3.3.2 2.3.8.2 1 3.8.9 1-1.3 7.4-.3 11.9-.2 1.1-.5-.5-.8-.2.6 6.1.5 5.2 1.3 10.3l-.5 4.3c.6-3.1 1.3.9 1.9 4.4 0-.2.1-.3.1-.5v1.2c0-.2-.1-.5-.1-.7-.1.2-.1.4-.2.6.1.3.2.6.3.8v2.8c-.2 0-.5-.7-.8-1.6.2-.7.3-1.4.5-2-.5-1.4-1-2.7-1.5-2.4.1.4.2 1.1.2 1.8-.1-.4-.2-.6-.3-.4-.1.2.1.8.3 1.7l-.9 1.3.3.3-.3 3.7-.1 1.8v2.1c.8 3 2.4 5.6 4.7 7.7 2.3 2.1 5.3 3.9 9.5 4.5-2.2.2-.7.9-.9 1.7-1.2-.7-2.9-1.1-4.8-2.1-1.9-.9-3.9-2.4-5.3-4.5.7 1.1 1 1.5 1 1.7 0 .1-.3 0-.6-.2 2.1 2.2 4.8 3.8 7.6 4.6-.4.5 1.6 1.2 4 1.6-.4-.3-.2-.5.4-.6.3-.1.7-.1 1.1-.1.4 0 .9-.1 1.4-.1 2-.1 4.6-.1 6.2-.3.2.4-.6.8-4.4.7 4.2.9 5.5-1.4 9.6-.7-.9 0-1.4-.1-1.8.2 2.2-.4 7.5-.1 6.3.3h-.9c6.2.1 18.9 0 19.8-1 .1.1-.8 1.3-1.2 1.5l7.6-2.4h3.5c.4 1 1.2 2.1-2.4 2.4 1.5.1 3.3.3 6.4 0-1-.1-2.5-1.3-1.1-1.4 3.8 1 2.6.5 7.3 1.4-1.5-.2.2-1.6 2.6-1.5-.4.2.2 1.4-.7 1.5l5.9-1.4c-1.5.2-.3 1.2 1.1 1.6-.6-.3 5.1 0 6.7-.1l-2.5-.3c6.7.2 6.6-1.9 13.3-1.9-.8.3-2 1.7 1.4 1.9.8-.4 2.7-1.3 5.2-2.2h7.5c-3.2.9-6.9 1.9-9.3 2.4 2.5.3.7.5 4.5.4 1.3.4-2.1.6-3.2.6l8.8.2c-.4-.8 6.7-.8 6.4-1.5l-9.5.9c-.4-.8 5.5-2.3 11.7-2.2 1.6.3-1.2 1.5-1.1 1.7.8-.3 5.9-.5 6.5-.3l-2.6.4c3.5.3 5.6-1.1 9.8-.3 1.4.1 4.3 1.1 4.5.6-1.4-.6-2.1-1.8-2.1-2.9h4.9l-.2.3h.9v-.3h5c.5.7-3.8 1.5-2.1 2.1.1-.2 1.4-.5 1.9-.6 1.5.2-.6.7 2.6.6.5-.8 6.7.1 1.5-.7 3.2-.2 3.4.2 7.2.1-.8-.4.9-1 3.1-1.5h4.1c.1 0 .1.1.2.1 6.6.1 10.1.5 16.2.5.6.2 3.5.4 2.3.8.9-.1 1.7-.4 3.6-.5 3.6.7-4.2.1-1.4 1 .2-.5 4.9-.7 7.6-1-.8-.7-6.2-.1-8.9.2 0-.4.6-.7 1.6-1.1H453c4.4.3 15.6 0 22.1.5.9-.2 2.3-.3 2.7-.5h3.8c7.5 0 14.2-3.8 18.1-9.5 0 .1.1.2.2.1.5-.9.9-1.8 1.3-2.8.1-.2.2-.3.3-.5.1.2-.2 1.2.3.4-.1-.1 0-.6.1-1.3.7-1.6 1.1-3.4 1.4-5.2 0-.1.1-.2.1-.3v-.2c.1-.9.2-1.8.2-2.7v-1.8zM246 326.1c-.1-1-.5-3.1-.2-3.8.8 1.1.4 2 .2 3.8zm1.5 80.1c-.2-.8-.1-1.9.1-3.3 0 1 0 2.1-.1 3.3z" fill="url(#SVGID_9_)"/><linearGradient id="SVGID_10_" gradientUnits="userSpaceOnUse" x1="245.681" y1="298.462" x2="245.818" y2="298.462"><stop offset="0" stop-color="#f5a54b"/><stop offset=".293" stop-color="#f5a84d"/><stop offset=".496" stop-color="#f6b154"/><stop offset=".672" stop-color="#f8c060"/><stop offset=".833" stop-color="#fad671"/><stop offset=".982" stop-color="#fdf287"/><stop offset="1" stop-color="#fdf68a"/></linearGradient><path d="M245.8 299.2l-.1-1.5c0 .7.1 1.2.1 1.5z" fill="url(#SVGID_10_)"/><linearGradient id="SVGID_11_" gradientUnits="userSpaceOnUse" x1="245.785" y1="310.009" x2="246.023" y2="310.009"><stop offset="0" stop-color="#f5a54b"/><stop offset=".293" stop-color="#f5a84d"/><stop offset=".496" stop-color="#f6b154"/><stop offset=".672" stop-color="#f8c060"/><stop offset=".833" stop-color="#fad671"/><stop offset=".982" stop-color="#fdf287"/><stop offset="1" stop-color="#fdf68a"/></linearGradient><path d="M245.8 310l.2.3c-.1-.5-.2-.7-.2-.3z" fill="url(#SVGID_11_)"/><linearGradient id="SVGID_12_" gradientUnits="userSpaceOnUse" x1="246.405" y1="395.448" x2="246.747" y2="395.448"><stop offset="0" stop-color="#f5a54b"/><stop offset=".293" stop-color="#f5a84d"/><stop offset=".496" stop-color="#f6b154"/><stop offset=".672" stop-color="#f8c060"/><stop offset=".833" stop-color="#fad671"/><stop offset=".982" stop-color="#fdf287"/><stop offset="1" stop-color="#fdf68a"/></linearGradient><path d="M246.7 394c-.1.6-.2 1.6-.3 2.9l.3-2.9z" fill="url(#SVGID_12_)"/><linearGradient id="SVGID_13_" gradientUnits="userSpaceOnUse" x1="245.718" y1="238.167" x2="246.422" y2="238.167"><stop offset="0" stop-color="#f5a54b"/><stop offset=".293" stop-color="#f5a84d"/><stop offset=".496" stop-color="#f6b154"/><stop offset=".672" stop-color="#f8c060"/><stop offset=".833" stop-color="#fad671"/><stop offset=".982" stop-color="#fdf287"/><stop offset="1" stop-color="#fdf68a"/></linearGradient><path d="M245.7 239.3c.1.1.3-.1.4 0 .1-.7.1-1.5.3-2.2-.7 1.5-.7 2.1-.7 2.2z" fill="url(#SVGID_13_)"/><linearGradient id="SVGID_14_" gradientUnits="userSpaceOnUse" x1="408.27" y1="290.327" x2="408.339" y2="290.327"><stop offset="0" stop-color="#f5a54b"/><stop offset=".293" stop-color="#f5a84d"/><stop offset=".496" stop-color="#f6b154"/><stop offset=".672" stop-color="#f8c060"/><stop offset=".833" stop-color="#fad671"/><stop offset=".982" stop-color="#fdf287"/><stop offset="1" stop-color="#fdf68a"/></linearGradient><path d="M408.3 290.1c0 .2 0 .3-.1.5.1 0 .1-.2.1-.5z" fill="url(#SVGID_14_)"/><linearGradient id="SVGID_15_" gradientUnits="userSpaceOnUse" x1="413.021" y1="421.427" x2="413.321" y2="421.427"><stop offset="0" stop-color="#f5a54b"/><stop offset=".293" stop-color="#f5a84d"/><stop offset=".496" stop-color="#f6b154"/><stop offset=".672" stop-color="#f8c060"/><stop offset=".833" stop-color="#fad671"/><stop offset=".982" stop-color="#fdf287"/><stop offset="1" stop-color="#fdf68a"/></linearGradient><path d="M413.1 421.4h-.1c.4.1.4.1.1 0z" fill="url(#SVGID_15_)"/><linearGradient id="SVGID_16_" gradientUnits="userSpaceOnUse" x1="344.263" y1="228.881" x2="345.381" y2="228.881"><stop offset="0" stop-color="#f5a54b"/><stop offset=".293" stop-color="#f5a84d"/><stop offset=".496" stop-color="#f6b154"/><stop offset=".672" stop-color="#f8c060"/><stop offset=".833" stop-color="#fad671"/><stop offset=".982" stop-color="#fdf287"/><stop offset="1" stop-color="#fdf68a"/></linearGradient><path d="M344.3 228.9c.1 0 .2 0 .3.1 1.4-.3.8-.2-.3-.1z" fill="url(#SVGID_16_)"/><linearGradient id="SVGID_17_" gradientUnits="userSpaceOnUse" x1="306.35" y1="423.756" x2="306.557" y2="423.756"><stop offset="0" stop-color="#f5a54b"/><stop offset=".293" stop-color="#f5a84d"/><stop offset=".496" stop-color="#f6b154"/><stop offset=".672" stop-color="#f8c060"/><stop offset=".833" stop-color="#fad671"/><stop offset=".982" stop-color="#fdf287"/><stop offset="1" stop-color="#fdf68a"/></linearGradient><path d="M306.4 423.8h.2c-.1-.1-.2-.1-.2 0z" fill="url(#SVGID_17_)"/><linearGradient id="SVGID_18_" gradientUnits="userSpaceOnUse" x1="301.377" y1="423.189" x2="306.35" y2="423.189"><stop offset="0" stop-color="#f5a54b"/><stop offset=".293" stop-color="#f5a84d"/><stop offset=".496" stop-color="#f6b154"/><stop offset=".672" stop-color="#f8c060"/><stop offset=".833" stop-color="#fad671"/><stop offset=".982" stop-color="#fdf287"/><stop offset="1" stop-color="#fdf68a"/></linearGradient><path d="M301.4 424.2c2.1-.7 3.4-.6 5-.4l-1.7-1.5-3.3 1.9z" fill="url(#SVGID_18_)"/><linearGradient id="SVGID_19_" gradientUnits="userSpaceOnUse" x1="312.115" y1="227.044" x2="312.544" y2="227.044"><stop offset="0" stop-color="#f5a54b"/><stop offset=".293" stop-color="#f5a84d"/><stop offset=".496" stop-color="#f6b154"/><stop offset=".672" stop-color="#f8c060"/><stop offset=".833" stop-color="#fad671"/><stop offset=".982" stop-color="#fdf287"/><stop offset="1" stop-color="#fdf68a"/></linearGradient><path d="M312.1 227h.4-.4z" fill="url(#SVGID_19_)"/><linearGradient id="SVGID_20_" gradientUnits="userSpaceOnUse" x1="245.938" y1="303.697" x2="245.95" y2="303.697"><stop offset="0" stop-color="#f5a54b"/><stop offset=".293" stop-color="#f5a84d"/><stop offset=".496" stop-color="#f6b154"/><stop offset=".672" stop-color="#f8c060"/><stop offset=".833" stop-color="#fad671"/><stop offset=".982" stop-color="#fdf287"/><stop offset="1" stop-color="#fdf68a"/></linearGradient><path d="M246 304v-.6c-.1.2-.1.4 0 .6z" fill="url(#SVGID_20_)"/><linearGradient id="SVGID_21_" gradientUnits="userSpaceOnUse" x1="408.308" y1="280.557" x2="408.327" y2="280.557"><stop offset="0" stop-color="#f5a54b"/><stop offset=".293" stop-color="#f5a84d"/><stop offset=".496" stop-color="#f6b154"/><stop offset=".672" stop-color="#f8c060"/><stop offset=".833" stop-color="#fad671"/><stop offset=".982" stop-color="#fdf287"/><stop offset="1" stop-color="#fdf68a"/></linearGradient><path d="M408.3 280.7v-.3.3z" fill="url(#SVGID_21_)"/><linearGradient id="SVGID_22_" gradientUnits="userSpaceOnUse" x1="246.659" y1="396.735" x2="246.98" y2="396.735"><stop offset="0" stop-color="#f5a54b"/><stop offset=".293" stop-color="#f5a84d"/><stop offset=".496" stop-color="#f6b154"/><stop offset=".672" stop-color="#f8c060"/><stop offset=".833" stop-color="#fad671"/><stop offset=".982" stop-color="#fdf287"/><stop offset="1" stop-color="#fdf68a"/></linearGradient><path d="M246.7 397.1c.1-.3.2-.4.3-.4-.1-.5-.2-.5-.3.4z" fill="url(#SVGID_22_)"/><linearGradient id="SVGID_23_" gradientUnits="userSpaceOnUse" x1="246.091" y1="239.493" x2="246.148" y2="239.493"><stop offset="0" stop-color="#f5a54b"/><stop offset=".293" stop-color="#f5a84d"/><stop offset=".496" stop-color="#f6b154"/><stop offset=".672" stop-color="#f8c060"/><stop offset=".833" stop-color="#fad671"/><stop offset=".982" stop-color="#fdf287"/><stop offset="1" stop-color="#fdf68a"/></linearGradient><path d="M246.1 239.7l.1-.2v-.2c-.1.1-.1.3-.1.4z" fill="url(#SVGID_23_)"/><linearGradient id="SVGID_24_" gradientUnits="userSpaceOnUse" x1="392.401" y1="423.568" x2="394.282" y2="423.568"><stop offset="0" stop-color="#f5a54b"/><stop offset=".293" stop-color="#f5a84d"/><stop offset=".496" stop-color="#f6b154"/><stop offset=".672" stop-color="#f8c060"/><stop offset=".833" stop-color="#fad671"/><stop offset=".982" stop-color="#fdf287"/><stop offset="1" stop-color="#fdf68a"/></linearGradient><path d="M394.3 423.7c-1-.1-1.5-.2-1.9-.3 0 .2.4.3 1.9.3z" fill="url(#SVGID_24_)"/><linearGradient id="SVGID_25_" gradientUnits="userSpaceOnUse" x1="488.981" y1="419.635" x2="492.19" y2="419.635"><stop offset="0" stop-color="#f5a54b"/><stop offset=".293" stop-color="#f5a84d"/><stop offset=".496" stop-color="#f6b154"/><stop offset=".672" stop-color="#f8c060"/><stop offset=".833" stop-color="#fad671"/><stop offset=".982" stop-color="#fdf287"/><stop offset="1" stop-color="#fdf68a"/></linearGradient><path d="M489 420.2l1.6-.5c.5-.2 1.1-.4 1.6-.7l-1 .3c-.7.4-1.5.6-2.2.9z" fill="url(#SVGID_25_)"/><linearGradient id="SVGID_26_" gradientUnits="userSpaceOnUse" x1="453.368" y1="422.335" x2="455.113" y2="422.335"><stop offset="0" stop-color="#f5a54b"/><stop offset=".293" stop-color="#f5a84d"/><stop offset=".496" stop-color="#f6b154"/><stop offset=".672" stop-color="#f8c060"/><stop offset=".833" stop-color="#fad671"/><stop offset=".982" stop-color="#fdf287"/><stop offset="1" stop-color="#fdf68a"/></linearGradient><path d="M453.4 422.7l1.7-.3c-1-.1-1.1-.3-1.6-.5l-.1.8z" fill="url(#SVGID_26_)"/><linearGradient id="SVGID_27_" gradientUnits="userSpaceOnUse" x1="441.646" y1="422.879" x2="445.747" y2="422.879"><stop offset="0" stop-color="#f5a54b"/><stop offset=".293" stop-color="#f5a84d"/><stop offset=".496" stop-color="#f6b154"/><stop offset=".672" stop-color="#f8c060"/><stop offset=".833" stop-color="#fad671"/><stop offset=".982" stop-color="#fdf287"/><stop offset="1" stop-color="#fdf68a"/></linearGradient><path d="M443.6 423.2c.4-.2 4.1-.4.7-.6-.3.2-5.3.6-.7.6z" fill="url(#SVGID_27_)"/><linearGradient id="SVGID_28_" gradientUnits="userSpaceOnUse" x1="338.97" y1="424.167" x2="344.58" y2="424.167"><stop offset="0" stop-color="#f5a54b"/><stop offset=".293" stop-color="#f5a84d"/><stop offset=".496" stop-color="#f6b154"/><stop offset=".672" stop-color="#f8c060"/><stop offset=".833" stop-color="#fad671"/><stop offset=".982" stop-color="#fdf287"/><stop offset="1" stop-color="#fdf68a"/></linearGradient><path d="M342.2 423.7c-2.6.3-4 .1-2.8 1 4.4.3 1-.8 5-.4 1-.4-3.2-.4-2.2-.6z" fill="url(#SVGID_28_)"/><linearGradient id="SVGID_29_" gradientUnits="userSpaceOnUse" x1="342.235" y1="423.569" x2="343.586" y2="423.569"><stop offset="0" stop-color="#f5a54b"/><stop offset=".293" stop-color="#f5a84d"/><stop offset=".496" stop-color="#f6b154"/><stop offset=".672" stop-color="#f8c060"/><stop offset=".833" stop-color="#fad671"/><stop offset=".982" stop-color="#fdf287"/><stop offset="1" stop-color="#fdf68a"/></linearGradient><path d="M342.2 423.7c.4 0 .9-.1 1.4-.2-.8.1-1.1.1-1.4.2z" fill="url(#SVGID_29_)"/><linearGradient id="SVGID_30_" gradientUnits="userSpaceOnUse" x1="244.447" y1="332.905" x2="244.893" y2="332.905"><stop offset="0" stop-color="#f5a54b"/><stop offset=".293" stop-color="#f5a84d"/><stop offset=".496" stop-color="#f6b154"/><stop offset=".672" stop-color="#f8c060"/><stop offset=".833" stop-color="#fad671"/><stop offset=".982" stop-color="#fdf287"/><stop offset="1" stop-color="#fdf68a"/></linearGradient><path d="M244.4 333.9l.2.2c.2-.4.2-1.1.3-2.4l-.5 2.2z" fill="url(#SVGID_30_)"/><linearGradient id="SVGID_31_" gradientUnits="userSpaceOnUse" x1="245.025" y1="295.698" x2="245.743" y2="295.698"><stop offset="0" stop-color="#f5a54b"/><stop offset=".293" stop-color="#f5a84d"/><stop offset=".496" stop-color="#f6b154"/><stop offset=".672" stop-color="#f8c060"/><stop offset=".833" stop-color="#fad671"/><stop offset=".982" stop-color="#fdf287"/><stop offset="1" stop-color="#fdf68a"/></linearGradient><path fill="url(#SVGID_31_)" d="M245 295.7v.6l.7-1.2z"/><linearGradient id="SVGID_32_" gradientUnits="userSpaceOnUse" x1="244.122" y1="265.616" x2="244.521" y2="265.616"><stop offset="0" stop-color="#f5a54b"/><stop offset=".293" stop-color="#f5a84d"/><stop offset=".496" stop-color="#f6b154"/><stop offset=".672" stop-color="#f8c060"/><stop offset=".833" stop-color="#fad671"/><stop offset=".982" stop-color="#fdf287"/><stop offset="1" stop-color="#fdf68a"/></linearGradient><path d="M244.1 263.6c0 1.3.1 2.9.1 4.2-.1-2.9.8-4.6-.1-4.2z" fill="url(#SVGID_32_)"/><path class="st1" d="M403.5 394.7c-2 0-3.7-1.6-3.7-3.7v-64.9c0-2 1.6-3.7 3.7-3.7s3.7 1.6 3.7 3.7V391c0 2.1-1.6 3.7-3.7 3.7zM477.8 360.8h-39.4c-3.6 0-6.5-2.9-6.5-6.5v-26.9c0-3.6 2.9-6.5 6.5-6.5h32.7c7.3 0 13.2 5.9 13.2 13.2v20.2c0 3.6-2.9 6.5-6.5 6.5zM348 278.8h-46.3c-2 0-3.7-1.6-3.7-3.7s1.6-3.7 3.7-3.7H348c2 0 3.7 1.6 3.7 3.7s-1.6 3.7-3.7 3.7zM348 309.3h-46.3c-2 0-3.7-1.6-3.7-3.7 0-2 1.6-3.7 3.7-3.7H348c2 0 3.7 1.6 3.7 3.7s-1.6 3.7-3.7 3.7zM348 339.8h-46.3c-2 0-3.7-1.6-3.7-3.7 0-2 1.6-3.7 3.7-3.7H348c2 0 3.7 1.6 3.7 3.7s-1.6 3.7-3.7 3.7z"/><circle class="st10" cx="302.1" cy="445.4" r="19.9"/><circle class="st10" cx="447.1" cy="445.4" r="19.9"/></svg>