<svg xmlns="http://www.w3.org/2000/svg" viewBox="0 0 50 50"><path d="M43.52 17L38.67 5.49a1.69 1.69 0 00-1.52-.91H12.57a1.69 1.69 0 00-1.52.91L5.89 17v26.4a1.43 1.43 0 001.52 1.51h34.9a1.43 1.43 0 001.52-1.51V17.63a.92.92 0 00-.31-.63zm-2.73 3a4.25 4.25 0 11-8.49 0v-.91h8.49zM29 20.06a4.25 4.25 0 01-8.5 0v-.91H29zm-20-.91h8.5v.91a4.15 4.15 0 01-4.25 4.25A4.15 4.15 0 019 20.06zm20-3h-8.2L22 7.62h6.07zm10.92 0H32l-.91-8.49h5.46zM13.78 7.62h5.16l-1.21 8.49H9.54zm5.16 34.29v-7h11.53v7zm14.57 0v-8.5A1.44 1.44 0 0032 31.89H17.43a1.44 1.44 0 00-1.52 1.52v8.5h-7V26.13a7 7 0 004.25 1.21 6.9 6.9 0 005.76-3 7 7 0 0011.53 0 6.92 6.92 0 005.77 3 7.26 7.26 0 004.25-1.51v15.78h-7z" fill="#d88f76"></path></svg>