<svg xmlns="http://www.w3.org/2000/svg" xmlns:xlink="http://www.w3.org/1999/xlink" viewBox="0 0 502.34 503.16"><defs><linearGradient id="A" x1="506.36" x2="507.17" y1="255.5" y2="255.5" gradientUnits="userSpaceOnUse"><stop stop-color="#f5a54b" offset="0"/><stop stop-color="#f59e52" offset=".49"/><stop stop-color="#f5905e" offset="1"/></linearGradient><linearGradient id="B" x1="495.6" x2="497.25" y1="210.19" y2="210.19" xlink:href="#A" /><linearGradient id="C" x1="493.53" x2="499.84" y1="193.07" y2="193.07" xlink:href="#A" /><linearGradient id="D" x1="488.85" x2="490.89" y1="164.87" y2="164.87" xlink:href="#A" /><linearGradient id="E" x1="490.59" x2="491.22" y1="166.66" y2="166.66" xlink:href="#A" /><linearGradient id="F" x1="483.04" x2="486.03" y1="151.28" y2="151.28" xlink:href="#A" /><linearGradient id="G" x1="480.83" x2="482.11" y1="147.5" y2="147.5" xlink:href="#A" /><linearGradient id="H" x1="482.11" x2="484.7" y1="151.05" y2="151.05" xlink:href="#A" /><linearGradient id="I" x1="485.67" x2="488.57" y1="160.12" y2="160.12" xlink:href="#A" /><linearGradient id="J" x1="491.82" x2="493.86" y1="183.77" y2="183.77" xlink:href="#A" /><linearGradient id="K" x1="469.1" x2="471.64" y1="125.2" y2="125.2" xlink:href="#A" /><linearGradient id="L" x1="466.16" x2="469.5" y1="122.64" y2="122.64" xlink:href="#A" /><linearGradient id="M" x1="478.49" x2="483.91" y1="149.27" y2="149.27" xlink:href="#A" /><linearGradient id="N" x1="455.52" x2="459.56" y1="105.27" y2="105.27" xlink:href="#A" /><linearGradient id="O" x1="441.52" x2="449.01" y1="90.13" y2="90.13" xlink:href="#A" /><linearGradient id="P" x1="437.73" x2="441.52" y1="84.25" y2="84.25" xlink:href="#A" /><linearGradient id="Q" x1="459.06" x2="461.02" y1="110.52" y2="110.52" xlink:href="#A" /><linearGradient id="R" x1="457.07" x2="459.79" y1="108.83" y2="108.83" xlink:href="#A" /><linearGradient id="S" x1="461.02" x2="461.33" y1="112.72" y2="112.72" xlink:href="#A" /><linearGradient id="T" x1="469.18" x2="473.07" y1="130.65" y2="130.65" xlink:href="#A" /><linearGradient id="U" x1="462.19" x2="466.02" y1="118.13" y2="118.13" xlink:href="#A" /><linearGradient id="V" x1="455.52" x2="457.36" y1="110.11" y2="110.11" xlink:href="#A" /><linearGradient id="W" x1="438.11" x2="445.47" y1="88.48" y2="88.48" xlink:href="#A" /><linearGradient id="X" x1="451.54" x2="451.92" y1="100.01" y2="100.01" xlink:href="#A" /><linearGradient id="Y" x1="415.73" x2="416.18" y1="63.55" y2="63.55" xlink:href="#A" /><linearGradient id="Z" x1="444.58" x2="448.77" y1="94.37" y2="94.37" xlink:href="#A" /><linearGradient id="a" x1="431.47" x2="434.31" y1="78.38" y2="78.38" xlink:href="#A" /><linearGradient id="b" x1="451.08" x2="451.42" y1="99" y2="99" xlink:href="#A" /><linearGradient id="c" x1="448.77" x2="451.54" y1="98.21" y2="98.21" xlink:href="#A" /><linearGradient id="d" x1="416.18" x2="426.08" y1="68.2" y2="68.2" xlink:href="#A" /><linearGradient id="e" x1="426.08" x2="438.11" y1="78.58" y2="78.58" xlink:href="#A" /><linearGradient id="f" x1="465.36" x2="465.83" y1="126.04" y2="126.04" xlink:href="#A" /><linearGradient id="g" x1="462.08" x2="462.19" y1="116.99" y2="116.99" xlink:href="#A" /><linearGradient id="h" x1="462.19" x2="467.81" y1="122.78" y2="122.78" xlink:href="#A" /><linearGradient id="i" x1="443.28" x2="449.54" y1="96.9" y2="96.9" xlink:href="#A" /><linearGradient id="j" x1="411.65" x2="416.54" y1="61.32" y2="61.32" xlink:href="#A" /><linearGradient id="k" x1="403.32" x2="406.18" y1="53.95" y2="53.95" xlink:href="#A" /><linearGradient id="l" x1="114.94" x2="122.26" y1="44.41" y2="44.41" xlink:href="#A" /><linearGradient id="m" x1="281.99" x2="290.56" y1="6.95" y2="6.95" xlink:href="#A" /><linearGradient id="n" x1="34.52" x2="36.07" y1="378.8" y2="378.8" xlink:href="#A" /><linearGradient id="o" x1="271.95" x2="281.99" y1="5.7" y2="5.7" xlink:href="#A" /><linearGradient id="p" x1="502.75" x2="503.3" y1="292.46" y2="292.46" xlink:href="#A" /><linearGradient id="q" x1="363.43" x2="364.58" y1="29.35" y2="29.35" xlink:href="#A" /><linearGradient id="r" x1="372.33" x2="373.4" y1="37.14" y2="37.14" xlink:href="#A" /><linearGradient id="s" x1="363.92" x2="366.79" y1="30.28" y2="30.28" xlink:href="#A" /><linearGradient id="t" x1="366.47" x2="368.59" y1="31.15" y2="31.15" xlink:href="#A" /><linearGradient id="u" x1="360.11" x2="363.92" y1="28.53" y2="28.53" xlink:href="#A" /><linearGradient id="v" x1="4.83" x2="504.75" y1="256" y2="256" xlink:href="#A" /><linearGradient id="w" x1="386.6" x2="387.24" y1="41.54" y2="41.54" xlink:href="#A" /><linearGradient id="x" x1="382.29" x2="386.6" y1="40.41" y2="40.41" xlink:href="#A" /><linearGradient id="y" x1="390.25" x2="396.62" y1="49.01" y2="49.01" xlink:href="#A" /><linearGradient id="z" x1="397.37" x2="400.45" y1="52.87" y2="52.87" xlink:href="#A" /><linearGradient id="AA" x1="352.06" x2="357.93" y1="25.48" y2="25.48" xlink:href="#A" /><linearGradient id="AB" x1="365.47" x2="372.51" y1="36.1" y2="36.1" xlink:href="#A" /><linearGradient id="AC" x1="372.51" x2="376.93" y1="39.06" y2="39.06" xlink:href="#A" /><linearGradient id="AD" x1="295.49" x2="302.6" y1="12.37" y2="12.37" xlink:href="#A" /><linearGradient id="AE" x1="505.93" x2="506.57" y1="268.5" y2="268.5" xlink:href="#A" /><linearGradient id="AF" x1="505.14" x2="506.21" y1="258.86" y2="258.86" xlink:href="#A" /></defs><path transform="translate(-4.83 -4.42)" d="M506.4 254.83c0 2.34.65 1.5.78 1.85-.25-3.92-.95-1.75-.78-1.85z" fill="url(#A)"/><path d="M497.25 212.9l-1.65-5.45 1.26 4.83z" fill="url(#B)"/><g transform="translate(-4.83 -4.42)"><path d="M498.3 201.68l1.55 2.6-1.56-5.95-1.74-6.13c-1.27-4-2.37-7.7-3-10.36-.18 3.58 3.9 12.38 4.78 18.75z" fill="url(#C)"/><path d="M490.7 166.4l-1.32-3.43c0 1.27-1.9-3.74 1.52 4.23l-.2-.8z" fill="url(#D)"/><path d="M490.7 166.4c1.43 3.54-.56-2.45 0 0z" fill="url(#E)"/><path d="M486 154.7c-.2-1.06-2-5.17-1.12-3.73-2.33-4.6-2.12-3.52-1.3-.68z" fill="url(#F)"/><path d="M480.83 146.37l1.28 2.25a4.75 4.75 0 0 0-1.28-2.25z" fill="url(#G)"/><path d="M484.7 153.5l-2.6-4.87c.14.74-.17 1 1.16 2.25-.5-.27.25.58 1.43 2.62z" fill="url(#H)"/><path d="M487 159.87c.1.64-.1.34-1.28-1.87l2.9 5.8a8.73 8.73 0 0 0-.61-2.21 43 43 0 0 0-2.13-5.18 28.33 28.33 0 0 1 1.12 3.47z" fill="url(#I)"/><path d="M493.86 187.1a39.23 39.23 0 0 1-1.09-4c-.4-1.5-.83-2.76-.95-2.6l.8 3.63z" fill="url(#J)"/><path d="M469.2 122.57c-.37-.14.36 1.76.3 2.24l2.14 3c-.75-1.74-2.64-4.8-2.44-5.24z" fill="url(#K)"/><path d="m469.5 124.81-3.34-4.43c2.63 4.18 3.28 4.83 3.34 4.43z" fill="url(#L)"/><path d="M480.52,148.05l1.13,2,2.26,3.94c-1.76-3.16-3.46-6.33-5.42-9.36l.8,1.54Z" fill="url(#M)"/><path d="M459.56 107.26l-2-2-2.07-2 1.75 1.76 2.32 2.24z" fill="url(#N)"/><path d="M448.76 92.86a80.86 80.86 0 0 0-7.24-7 61.6 61.6 0 0 1 6.9 8.26c1.88 1.45-1.5-2.94.34-1.26z" fill="url(#O)"/><path d="M437.73 82.64l3.8 3.2-3.8-3.2z" fill="url(#P)"/><path d="M459.76 110.72l1.26 1.78a13 13 0 0 0-2-4z" fill="url(#Q)"/><path d="M459.8 110.8v-.08l-2.7-3.85z" fill="url(#R)"/><path d="M461.33 113l-.3-.45a.66.66 0 0 0 .31.45z" fill="url(#S)"/><path d="M470.16 130.82c1.56 1.77 0-1.64 2.9 2.3-1.95-2.62-5.65-8.23-2.9-2.3z" fill="url(#T)"/><path d="M466 120.63l-3.83-5 3.06 5c.1-.2-.23-1.24.77 0z" fill="url(#U)"/></g><path d="M455.52 109l1.84 2.2-1.2-1.8z" fill="url(#V)"/><g transform="translate(-4.83 -4.42)"><path d="M444.73 92.16c.47.2 1.7 1-.67-1.66l-2.82-2.83-3.13-3.17 3.36 3.82 3.26 3.84z" fill="url(#W)"/><path d="M451.92 100.2l-.38-.42c.17.3.33.54.38.42z" fill="url(#X)"/><path d="M415.73 63.34l.3.42h.16z" fill="url(#Y)"/><path d="M445 92.66a25.3 25.3 0 0 0 3.77 4l-4-4.48c-.25-.12-.32-.1.23.48z" fill="url(#Z)"/><path d="M431.47 76.7l2.84 3.35a15.09 15.09 0 0 0-2.84-3.35z" fill="url(#a)"/><path d="M451.16 99l.26.28c-.42-.75-.42-.62-.26-.28z" fill="url(#b)"/><path d="M451.16 99c-.88-1-1.64-1.66-2.4-2.36l2.77 3.15-.38-.8z" fill="url(#c)"/><path d="M424.3 71.07l1.78 1.58-5.57-6.15c-3.2-2.38-4-2.73-4.33-2.75 2.92 2.6 5.93 5.12 8.77 7.8z" fill="url(#d)"/><path d="M433.77 80.1c-1.73-.92-6.14-4.56-4.1-1.64a44.94 44.94 0 0 0 4.16 3.7 17.84 17.84 0 0 1 2.78 2.15c-7.9-8 2.52 2.07-2.83-4.1l4.34 4.28-3.8-4.45.15.22c.27.4.35.56 0 .13l-.17-.16a1.29 1.29 0 0 1-.54-.19c-2.15-2.46-.23-.5.54.2h.17l-4.16-3.85-4.22-3.77c1.64 1.78 3.92 3.75 7.7 7.48z" fill="url(#e)"/><path d="M465.83 126.45c-.13-.32-.08-.33-.06-.38-.46-.56-.65-.76.06.38z" fill="url(#f)"/><path d="M462.2 117.2c0-.12 0-.24-.05-.36s-.07.02.05.36z" fill="url(#g)"/><path d="M466.8 126.12l-.5-.62a81 81 0 0 1-4.1-8.31 22.51 22.51 0 0 0 1.51 5.17 17.63 17.63 0 0 1 2.49 3.32c1.06 2-.3.17-.42.4 1.03 1.23 3.37 4.47 1.02.05z" fill="url(#h)"/><path d="M445.93 97.4l.12-.4c3.28 4.17 2.84 3 3.5 3.38l-6.26-6.95z" fill="url(#i)"/><path d="M416.54 62.63c-1.57-1-3.27-1.75-4.9-2.62l3.48 2.36z" fill="url(#j)"/><path d="M406.18 54.63l-2.86-1.6 2.12 1.82z" fill="url(#k)"/><path d="M115 46.25l1.43-.1a53.54 53.54 0 0 1 5.79-3.6c-3.66 1.67-8 3.36-7.22 3.7z" fill="url(#l)"/><path d="M290.56 7.65L282 6.14c4.12.93 7.4 1.95 8.57 1.5z" fill="url(#m)"/><path d="M34.52 377.92c.95 1.4 1.43 2 1.55 1.84-.98-1.45-1.58-2.24-1.55-1.84z" fill="url(#n)"/><path d="M272 5.3l1.83.3a79.31 79.31 0 0 1 8.21.53A37.76 37.76 0 0 0 272 5.3z" fill="url(#o)"/><path d="M502.75 294.8c.16-.83.34-2.25.55-4.7l-.55 4.7z" fill="url(#p)"/><path d="M363.43 29.1c2.36 1.1.4.1 0 0z" fill="url(#q)"/><path d="M372.33 37.08a2.3 2.3 0 0 1 1.07.17c-.52-.18-.94-.25-1.07-.17z" fill="url(#r)"/><path d="M366.8 31.13l-2.87-1.7 2.87 1.7z" fill="url(#s)"/><path d="M366.47 30.6l2 1.1c.34.05.1-.15-2-1.1z" fill="url(#t)"/><path d="M363.43 29.1l-3.32-1.46 3.8 1.8c-.45-.25-.63-.37-.5-.34z" fill="url(#u)"/><path d="M504.36 263.67l.06 4.6c-.53-3.08-1.2-1-2 1.76l-.25.76c.26-4.67.4-9.37.4-14.1a247.1 247.1 0 0 0-77.73-180.17l.08-.4c-2.12-2-3.82-3.33-2.83-2.17l-5.45-4.86c3.5 2.2 2.15-1.48-.63-5.33-.33.13-.4.2-5.2-3 1.48 1.4 9.28 8.84 5.24 6.1-3-2.4-4.17-3.37-4.93-4.14s-1.07-1.3-2.42-2.58c1 1.3-1.1 0-3.34-1.32a13.78 13.78 0 0 0-4.19-2q-4.65-3.4-9.45-6.6l-.72-1.43-2.2-.64 2.44 1.72a247 247 0 0 0-29.41-16.7c.28 0 .28-.08-.2-.4l-3.94-1.65c-3.3-2.26 7.74 2.44 2.94-.08 2.76.9 5.56 2.13 8.65 3.44 1.54.68 3.13 1.4 4.78 2.23s3.27 1.88 5 3l.83 1.6c0-.33-4.3-3.16-6.43-4a52.27 52.27 0 0 1 6.72 4.25c1.3.88 2.63 1.73 3.86 2.44a12.42 12.42 0 0 0 3.28 1.54c-1.48-1.2-2.92-2.47-4.47-3.58 2.65 1.2 5.52 2.74 8.58 4.32 1.5.82 3.1 1.62 4.57 2.6s3 2 4.4 3.14c-2.14-2.7-1.4-.9-5-4.78 3 3.57-15.6-10-10.33-4.93a33.8 33.8 0 0 0-5.95-4.49C377 36.44 374.76 35 371.92 33c0 .38 1.9 1.66-3.46-1.26a12.6 12.6 0 0 1-1.32-.35l-.35-.2.28.2c-.26-.08-.28-.08.1.07a15.59 15.59 0 0 1 2.54 1.85 68.06 68.06 0 0 1-7.33-2.92c-3-1.2-5.93-2.44-7.5-2.93-3.2-1.62 1.5.28-.13-.85-1.55-.5-3.1-1-4.7-1.37-.16-.84-8.46-4.62-.4-1.9l-7.12-2.84a71.18 71.18 0 0 0-7-2.85 57.86 57.86 0 0 0-6.71-2.08c-3.44-1.14-9-1.73-5.82-1.4-1.95-.46-3.9-1-5.84-1.4l-5.9-1.13-.07-.2c-5.73-1.5-11.83-2.13-18-3.12-6.27-.63-12.7-1.62-19.4-2.64l-6.38-.23c-2.36 0-5-.07-8.4-.26l-1.3-.65h-9.9c-3.48 0-6.6 0-7.7.45a29.33 29.33 0 0 0-6.41-.28c-1.37 0-2.86.13-4.43.24s-3.2.4-4.84.6c-3.3.5-6.73.9-9.85 1.5l-8.22 1.48-.18.86-2.3.4-2.25.54-4.6 1.16-4.84 1.3c-1.66.5-3.38 1.1-5.2 1.7l.65.56c-3.1 1.2-7.25 2.12-11.76 3.54l-7.1 2.1c-2.4.8-4.85 1.75-7.3 2.72a19.79 19.79 0 0 1 4.87-2 71.57 71.57 0 0 0-9.11 3c-3 1.3-5.88 2.83-8.75 4.3s-5.6 3.14-8.34 4.6-5.42 2.76-8 4a35.91 35.91 0 0 1-6 3.42 6.45 6.45 0 0 0 .58-.39l-1 .58c-1.15.5-2.32 1.06-3.55 1.72l3-1.4c-1.88 1.1-4.58 3-7.22 4.9l-1.58.1-.63.42c-2.84 1.5-1.94 1.7-.2 1.25a31.79 31.79 0 0 0-3.26 2.81c-1.4.23-3.08 1.55-4.85 2.93-.88.68-1.8 1.4-2.7 2a10.25 10.25 0 0 1-2.64 1.37c-.67.94-3.8 3.55-6.8 6.2a41.36 41.36 0 0 0-5.61 6.06 46.43 46.43 0 0 0-7.54 7l-1.78.35-2.4 3.2-2.24 3.3c-3.7 3-5.34 4.24-2.6.28l-4 5.06-2.27 3c-1.28 1.68-2.5 3.15-5.16 7.23l-.2-.77c-2.14 2.75-4.9 7.63-6.6 9a75.34 75.34 0 0 0-6 7.49l-2 2.74c-.68.98-1.32 2-2 3.07l-4.36 6.73c-5.73 9.58-11.65 20.8-16.08 29.8 1.67-1.4.47.62-.9 3.2s-2.88 5.75-2.35 6.38c-.84.92-2.1 3.44-1.27.27-.42 1.22-.83 2.34-1.23 3.4l-3 8.27a36.52 36.52 0 0 0-2.39 9.75c-.75 1 0-2.3-.56-1.36a17.3 17.3 0 0 1-1.07 4.2c-.54.94.05-1.54.3-3.16-.7 2.53-1.16 4.5-1.43 6.08a18.5 18.5 0 0 0-.19 3.62 3.68 3.68 0 0 0 1.19 2.85 45.41 45.41 0 0 0-1.81 6.16 27.54 27.54 0 0 0-.24 5.35c-.73 1.72-1.7 4.67-.7-1.73l-1 4.92-.7 3.58c-.24 1.25-.35 2.57-.53 3.84-.66 5.12-1.17 9.84-.6 10.08a32.13 32.13 0 0 0-.41 6l-.43 4.93c-.12 1.33-.1 2.44-.15 3.54l-.18 8.4.22-2.22c1.08 3.17.27 6.64.58 13.1L5.5 266a61 61 0 0 0 .07 7.47 37.16 37.16 0 0 0 .31 3.09c.1.78.2 1.55.3 3 0 .75.06 1.68.1 2.88s.17 2.66.3 4.48l.66-.88c.9.58 1.07 3.8 1.22 7.93a79 79 0 0 0 1.78 13.24l-.12-3.1a39.22 39.22 0 0 1 .92 8.78c.1 3.3 0 6.7.64 8.95.15 1-.7-1.48-1.13-2.84 2.35 12.08 1.4 1.28 4.1 10 0 1.77-2-1.67-.25 4.24.3 1.52 2.12 5.63 4.14 10.34 1.1 2.33 2.26 4.8 3.27 7.2.5 1.2 1 2.4 1.38 3.53s.85 2.2 1.16 3.2c-.38-1.86-.74-3.68 1.3 0 2.66 5.86 6.08 16.56 10.16 21 .3.77.37 1.1.3 1.17.67 1 1.55 2.4 2.53 3.9s2 3.17 3.1 4.7a65.7 65.7 0 0 0 5.39 7c0 1.36 1.33 3.5 3.07 6.06a82.28 82.28 0 0 0 6.39 8.14l6.16 7.18c1.64 1.9 2.52 3.27 2 3.65 1.7 1.9 3.32 3.84 5.08 5.68l5.3 5.47-.45-.12a54.06 54.06 0 0 0 4.38 4.42c1.3 1.18 2.4 2.13 3.37 2.92a45.51 45.51 0 0 0 4.85 3.48c1.6 1.6.2.7 0 .66 5.22 4.83 8.06 7.54 11 9.62a93.47 93.47 0 0 0 10.91 6.95l.55 1.36c2.74 1.64 16.32 12.7 29.23 18.3a3.36 3.36 0 0 1-1.53-.39c7.16 3.26 15.42 7.8 22.9 11.1l5.4 2.3 2.48 1c.8.32 1.6.52 2.35.74 3 .88 5.43 1.34 7 1.1 3.32 1 6.75 1.52 10.1 2.27-12.77-3.86 2.26-.66-2.88-2.62a54.94 54.94 0 0 1 7.5 2.54c1.8.68 2.17 1.14-1 .38l-.93-.42c-2.72 1 16 4.43 15.45 5.2a294.87 294.87 0 0 0 38.66 4.9l9.57.4 9.5-.06c1.57 0 3.15 0 4.72-.1l4.68-.3c3.12-.25 6.23-.33 9.3-.75-1-.28-2-.52-2.95-.85 2.86-.25 5.7-.66 8.55-1 2.27 0 3.13.53-3 1.26a23.75 23.75 0 0 0 6.34-.87 14.69 14.69 0 0 0 3.93-1.38c11.92-1.64-4.4 2.18-.78 1.56l4.94-1-1.14.06c2-.6 3-1 4.47-1.47.73-.23 1.57-.44 2.68-.7s2.46-.64 4.26-1c4.6-.82 2.5.16 4.3-.2 0 .1.63 0 2.77-.6 3.5-.88 7-1.9 10.5-2.84l-4.43.3c2.25-.88 4.7-1.56 5.95-2s1.3-.57-1.25-.4c3.73-.3 13.42-3.27 22.44-7 2.3-.85 4.46-1.9 6.55-2.85l5.8-2.64c3.47-1.67 6-3 7.12-3.42a124.52 124.52 0 0 1 4.32-2.65c1.47-.86 2.88-1.82 4.4-2.73 3-1.83 6.28-3.58 9.72-5.83-1.82.94-3.4.7 2.62-3-.25.8.33.8 1.45.35a28.19 28.19 0 0 0 4.54-2.58l5.7-3.7a63.63 63.63 0 0 1 2.73-1.61 18.86 18.86 0 0 1 2.3-1.22c-2.33 1.18 1.6-2 5.22-5a40.9 40.9 0 0 0 4.23-3.9c.78-.87.7-1.1-1.06-.06 4.58-3.73.8.38 4.52-2.18 10-9.9 22.94-21.14 33.43-35.2-.06-.4-2.2 1.64-.22-1.55 2.3-2.08 4.4-4.37 6.58-6.6a15.37 15.37 0 0 0 1.52-3.42 9.75 9.75 0 0 1 1-1.89 23.89 23.89 0 0 1 2.25-2.89c-.68.62-1.7 1.54-.52-.45 9.9-13.92 17.75-29.7 23.95-46S499 313.88 503 296.9c-1.37 4.55-.87 1.44-.27-2.1-.53 2.3-.67-.15-1.13.24l2.82-14.28c-.42-1.37-.15-5.24.13-9a45.2 45.2 0 0 0 .16-5.18 8 8 0 0 0-.35-2.92zM409.63 63.1a38.78 38.78 0 0 1 3.15 2.42c.8.72 1.6 1.5 2.36 2.3-2.2-1.88-4.44-3.73-6.72-5.53.38.24.78.5 1.2.8zM336.8 18.9h-.2c-3.9-1.67-2.53-1.07.2 0zm-43.15-8.4c2.46.2 5.2.48 8.13.84 4.66.62 5.57 1.2 5.58 1.4s-.95.3-.14.37c4.26 1 7.33 1.64 9.77 2l5.9.92c1.7.22 3.3.45 5.34.92a54.54 54.54 0 0 1 7.87 2.78c5.22 2.67-.32 1.7.7 2.7a91.88 91.88 0 0 1-8.78-3.1c-2.46-.88-4.62-1.7-7.1-2.4l6 2.12a65.46 65.46 0 0 1-9.92-2.55c.45.2 1.1.46 1.92.74a246.23 246.23 0 0 0-34.44-6.62c.78-.08 1.67-.15 2.7-.2 1.83-.05 4.03-.12 6.5.05zm-49.1-2.1c-.26.22.45.46 1.1.63q-3.57.12-7.1.35a34.41 34.41 0 0 1 6-.98zm-50.2 5.68l7.62-1 2.78-.34 2.65-.2c1.66-.1 3-.16 3.8-.14a2.42 2.42 0 0 1 .89.15q-4.46.78-8.87 1.7l-.42-1.14-.8 1.4-8.76 2a2.08 2.08 0 0 1 1.1-2.45zm-43.7 15.2l2.12-.38c2.45-1.32 4.9-2.7 7.42-3.85-1.82 1.25-4.9 3.6-8.4 6.14-4.2 1.92-8.35 4-12.43 6.1a56.63 56.63 0 0 1 11.28-8.02zM89.7 69.24a2 2 0 0 0-.26.58c-.2-.06-.92.46.26-.58zm-13.4 15.48q-2.13 2.22-4.22 4.5c1-1.82 2.1-3.62 3.2-5.4-.1.6.4.8 1.02.9zM10.84 207.55c.2-1.7.57-3.4.84-5.1.45-1.18.55-.1.6 1.64l.2-1.9c.42-1.23.7-1.77.9-1.85l-1.08 4.88v-1.14c-.06.72-.16 1.5-.24 2.33s-.32 1.67-.48 2.5c-.57 1.5-1.05 2.82-1.35 3.75zm304 292.73l-1.7.18c3.7-1.08 2.7-.64 1.7-.18z" fill="url(#v)"/><path d="M386.6 41.36l.64.36-.64-.36z" fill="url(#w)"/><path d="M386.53 41.8c0-.18-.48-.7.07-.45L382.3 39a25.45 25.45 0 0 1 4.24 2.81z" fill="url(#x)"/><path d="M395.1 49.5c-1.17-.8-3-1.78-4.85-2.8 0 .4.78 1 2 1.8l2 1.27 2.35 1.56-.56-.4c.74-.04.22-.6-.94-1.43z" fill="url(#y)"/><path d="M397.37 51.82l3 2.1c.55-.03-1.2-.9-3-2.1z" fill="url(#z)"/><path d="M357.68 26.46c1.13.05-1.83-1-3.86-1.6-1-.3-1.82-.43-1.76-.3a20.36 20.36 0 0 0 3.36 1.51c1.63.94 1.4-.28 2.26.4z" fill="url(#AA)"/><path d="M365.47 34.34l5.43 3c0-.16.72.13 1.6.5l-7.04-3.5z" fill="url(#AB)"/><path d="M372.5 37.88l4.42 2.35-4.42-2.35z" fill="url(#AC)"/><path d="M299.23 12.75c1.63.1 4.13.44 3.15 0l-6.72-1c-.73.17 1.06.66 3.57 1z" fill="url(#AD)"/><path d="M506 271.1c.3-1.73.37-3.48.55-5.22l-.64 3.36c.1.62.1 1.24.1 1.86z" fill="url(#AE)"/><path d="M506.2 259.82l-.86-3.14a21.64 21.64 0 0 1-.21 4.36z" fill="url(#AF)"/></g><path d="M186.38 243.68c26.322 0 47.66-21.338 47.66-47.66s-21.338-47.66-47.66-47.66-47.66 21.338-47.66 47.66c.028 26.3 21.35 47.632 47.66 47.66zm0-80.32c18.038 0 32.66 14.622 32.66 32.66s-14.622 32.66-32.66 32.66-32.66-14.622-32.66-32.66c.022-18.028 14.632-32.638 32.66-32.66zm127.05 111.1c-26.322 0-47.66 21.338-47.66 47.66s21.338 47.66 47.66 47.66 47.66-21.338 47.66-47.66c-.028-26.3-21.35-47.632-47.66-47.66zm0 80.32c-18.038 0-32.66-14.622-32.66-32.66s14.622-32.66 32.66-32.66 32.66 14.622 32.66 32.66c-.022 18.028-14.632 32.638-32.66 32.66zm39.9-186.46a7.5 7.5 0 1 0-10.54-10.67l-196 193.58c-2.95 2.9-2.98 7.66-.07 10.6s7.66 2.98 10.6.07l195.2-192.78z" fill="#fff"/></svg>