<svg xmlns="http://www.w3.org/2000/svg" viewBox="0 0 512 420.6"><path fill="#AECBFF" d="M335.7 182.5c-1.2-14.1-4.4-26.8-9-36.5-5.8-12.4-13.9-20-22.8-20H159.6c20.6 0 37.3 30.6 37.3 68.4v111.5c0 11.5 2.5 22 6.7 29.5 4.1 7.6 9.8 12.2 16.1 12.2 12.6 0 22.8-18.7 22.8-41.7V181"/><path fill="#AECBFF" d="M42.4.5v214.1c0 20.3 4.5 38.6 11.7 51.9S71.3 288 82.4 288c22.1 0 40-32.8 40-73.4v-20.3c0-18.9 4.2-36 10.9-48.3 6.7-12.4 16.1-20 26.3-20h42.7V.5H42.4z"/><g fill="#FFF"><path d="M77.2 111.3h83.6v2H77.2zM77.2 141.3h83.6v2H77.2zM77.2 171.3h83.6v2H77.2zM77.2 201.4h83.6v2H77.2zM77.2 231.4h83.6v2H77.2z"/></g><path fill="#798BCD" d="M82.4 287.9h114.5v-93.7c0-37.8-16.7-68.4-37.3-68.4-10.3 0-19.6 7.7-26.3 20-6.7 12.4-10.9 29.5-10.9 48.3v20.3c0 40.7-18 73.5-40 73.5zM375.6 314.2c0 14.2-5.5 33.2-19.7 33.2H219.6c11 0 20.1-14.3 22.3-33.2h133.7z"/><path fill="#E6EEFA" d="M428.8 158v143.1c0 7.4-6 13.4-13.4 13.4H198.6c-7.4 0-13.4-6-13.4-13.4V158c0-7.4 6-13.4 13.4-13.4h216.9c7.3 0 13.3 6 13.3 13.4z"/><path fill="#FFF" d="M415.4 316.5H198.6c-8.5 0-15.4-6.9-15.4-15.4V158c0-8.5 6.9-15.4 15.4-15.4h216.9c8.5 0 15.4 6.9 15.4 15.4v143.1c-.1 8.5-7 15.4-15.5 15.4zM198.6 146.6c-6.3 0-11.4 5.1-11.4 11.4v143.1c0 6.3 5.1 11.4 11.4 11.4h216.9c6.3 0 11.4-5.1 11.4-11.4V158c0-6.3-5.1-11.4-11.4-11.4H198.6z"/><path fill="#FFF" d="M242.4 183.7h133.2v128.2H242.4z"/><path fill="#BFCFE7" d="M187.8 170.1h238.4v1H187.8z"/><circle fill="#FFF" cx="204.6" cy="156.7" r="3.1"/><circle fill="#FFF" cx="214.8" cy="156.7" r="3.1"/><circle fill="#FFF" cx="224.9" cy="156.7" r="3.1"/><path fill="#AA99C7" d="M483.3 420.4H426l-11.5-17.5c-16.5-6.8-33.4-17.6-40.2-34.1-4.9-11.9-6.7-18.7-12.4-32.9 4.6-.9 9.5-2.1 13.2.8 3.6 2.9 7.3 9.3 10 13.1-10.4-25.6-20.2-38.3-19.3-65.9.1-2.6 1.1-6.1 3.7-6 2 .1 3.1 2.4 3.7 4.3 6.9 21.2 12.8 26.2 21.1 41.8 6.6-3.8 11.8-3.6 14.7-1.3 1.6 1.3 3.7 1.8 5.7 1.2 3.5-1 8.2-1.1 11.9 2.3 1.6 1.6 3.9 2.3 6.1 2.1 3.3-.4 7.1-.2 9.4 1.3 5.5 3.6 12.2 15.5 13.7 19 4.8 11.2 11.7 41.6 27.5 71.8z"/><path fill="#2744A3" d="M400.9 336.1c-1.8-4.2-3.8-8.3-6-12.4-.2-.3-.6-.4-.9-.2h-.1c-.7.4-.1 1.5.6 1.1h.1c-.3-.1-.6-.1-.9-.2 2.1 4.1 4.1 8.2 6 12.4.5.7 1.5.1 1.2-.7z"/><path fill="#BFCFE7" d="M241 183.7h1.4v128.2H241z"/><g fill="#4676E0"><path d="M329.6 222.1v-12.6h3.2v12.6h-3.2zM343.7 222.1l-5.3-7.3v7.3h-3.2v-12.6h3.3l5.1 6.9v-6.9h3.3v12.6h-3.2zM352.4 222.1l-4.7-12.6h3.7l3.1 9.1 3.1-9.1h3.7l-4.8 12.6h-4.1z"/></g><g fill="#4676E0"><path d="M257.1 278.4h104.5v2.3H257.1z"/><path d="M362.7 311.9h-2.3v-41.5H258.2v41.5h-2.3V268h106.8z"/><path d="M272.9 291.1h38.3v2.3h-38.3zM272.9 301.2h38.3v2.3h-38.3zM331.6 291.1h16.2v2.3h-16.2zM345.6 230.4h16.2v2.3h-16.2zM331.6 301.2h16.2v2.3h-16.2z"/></g><g><path fill="#FFF" d="M318.8 258.5h-61.7v-61.7h61.7v61.7zM297.6 220h2.1v-2.1h-2.1v-4.2h-2.2c0-.8 0-1.5.1-2.3h2.1v-2h-2v2.1h-2.1v2.2h-2.1v2h2v-2.1c.7 0 1.4 0 2.1.1 0 1.4 0 2.9.1 4.3H287v2.1h-2.2V218h-10.7v2.1H272c-.1-.8-.1-1.5-.2-2.1h-10.6v6.2h2c.1-.7.1-1.4.2-2h2.1v4.4h4.3c.1.8.1 1.4.2 2.1h2.1v2.2h2.2v2.2h-6.5v-4.2h-6.3v8.4h2.1V231h2.2v6.3h2c.1-.7.1-1.3.2-2.1h6.4v2.1h2v-2h-2.1v-2.2h2.2v-2.2h2.2v10.8h4.2v6.3h-2.1v-4.1h-2v10.6h2.1v-4.1h2.1c0 .7.1 1.3.1 2h4.2v-2 .1c2.2-.1 4.4-.1 6.6-.2v2.2h-4.2v2h4.2v-2.1h4.2c.1.9.1 1.5.2 2.1h2v-4.3H294v-2.1h2.1c.1-.9.1-1.5.2-2.1h2c0 .7.1 1.3.1 2.1h4.2c0 .8.1 1.4.1 2h2.2V246h6.3c0 .7.1 1.3.1 2 .7.1 1.4.1 2 .2v4.1h-4.1c-.1-.7-.1-1.4-.2-2h-2v4.1h8.4V246c-.7 0-1.3-.1-2.1-.1v-2 .1c.7-.1 1.4-.1 2.1-.2v-4.1c-.7-.1-1.4-.1-2.1-.2v-2.1h2.1v-2.1h-2.1v-2.1c.8-.1 1.5-.1 2.1-.2v-1.9h-4.2v4.2h-10.8v-2.2h4.2v-6.4c-.7 0-1.3-.1-2.1-.1v-4.1h-2.2v4.1c-.7.1-1.4.1-2 .2v2.1h4.1v2c-.7.1-1.4.1-2 .2v2.1h-2.1c-.1-.8-.1-1.5-.2-2.2h-6.4v-4.3h2.1c.1.8.1 1.5.2 2.1h2v-6.4h2.2c-.6-1-.6-1.7-.6-2.4zm13 .1c.7 0 1.4-.1 2-.1v-2h-1.9c-.1.8-.1 1.4-.1 2.1-.7 0-1.4 0-2.2-.1 0-.7-.1-1.4-.1-2h-2v1.9h2.1v2.2h2.1c0 1.5 0 2.9.1 4.4h-2.2v2.1h-2.1v4.2h2v-4.2h2.2v-2.1h2.1c0 .8.1 1.4.1 2h2v-6.3h-4.2c0-.7 0-1.4.1-2.1zm-17.4-17.2v-2.1h-2.1v2.1h-6.4c-.1.8-.1 1.4-.2 2.1h-2.1v-4.1h-2.1c-.1.7-.1 1.4-.2 2-.7 0-1.3.1-2 .1v2c.7.1 1.4.1 2 .2v2c-.7 0-1.3.1-2 .1v2.1h4.2v6.4h2.1v-6.4h2.1c.1.8.1 1.5.2 2.1h2c0-.7.1-1.3.1-2 .7-.1 1.4-.1 2-.2v-2.1h-4.1v-2.1h4.2V203c1-.1 1.7-.1 2.3-.1.1.6.1 1.3.1 2 .7 0 1.3.1 2 .1 0 .7.1 1.4.1 2h2v-6.2h-2c0 .7-.1 1.3-.1 2-.7 0-1.4.1-2.1.1zm-32 36.6v14.9h14.9v-14.9h-14.9zm38.6-23.8h14.9v-14.9h-14.9v14.9zm-38.7 0H276v-14.9h-14.9v14.9zm19.2 0v-4.1h-2v4.1h2zM304 220v-2h-2v2h2zm-17.1-4.3h2v-2h-2v2zm17.2 8.5h2v-1.9h-2v1.9z"/><path fill="#3F6FCC" d="M286.8 250.2v2h-4.2c0-.7-.1-1.3-.1-2h-2.1v4.1h-2.1v-10.6h2v4.1h2.1v-6.3h-4.2v-10.8h2.2v8.5h2c0-.7.1-1.3.1-2 .7-.1 1.4-.1 2.1-.2v-2.1h2.1c.1-.8.1-1.4.2-2.1h2c0 .7.1 1.3.1 2h2.1v-4.2h6.4c.1.7.1 1.3.2 2.2h2.1v2.2h10.8v2.2h2.2v2.1c.7.1 1.4.1 2.1.2v4.1c-.7.1-1.4.1-2.1.2v-2.2c-.7 0-1.3-.1-2-.1-.1-.7-.1-1.4-.2-2.1h-2.1v-2.1h-2v2h2.1v2.1c-.8.1-1.5.1-2.1.2v2.1h6.3v2c.7 0 1.3.1 2.1.1v8.4h-8.4v-4.1h2c.1.6.1 1.3.2 2h4.1V248c-.6-.1-1.2-.1-2-.2 0-.7-.1-1.3-.1-2h-6.3v4.1h-2.2c0-.6-.1-1.2-.1-2h-4.2c-.1-.8-.1-1.4-.1-2.1h-2c-.1.6-.1 1.2-.2 2.1h-2.1v-2.1h-2v2h2.1v2.1c-2.4.2-4.6.3-6.8.3V248h2.1v-2h-2v2.1h-2.1v2.2c.7-.1 1.4-.1 2-.1zm.1-12.9c0 .7-.1 1.3-.1 2-.7.1-1.4.1-2 .2v2c.7 0 1.3.1 2 .1 0 .7.1 1.4.1 2h4.2c.1-.7.1-1.4.2-2h2c.1.7.1 1.4.2 1.9h2v-4.1c-.7-.1-1.3-.1-2-.1-.1-.7-.1-1.4-.2-2h-2c0 .7-.1 1.3-.1 1.9h-2c-.1-.7-.1-1.4-.2-2-.8.1-1.4.1-2.1.1zm17 6.4v-6.3h-6.2v6.3h6.2zM261.2 239.5h14.9v14.9h-14.9v-14.9zm2.1 2.1v10.6h10.6v-10.6h-10.6zM299.8 215.7v-14.9h14.9v14.9h-14.9zm12.8-12.7H302v10.5h10.6V203zM261.1 215.7v-14.9H276v14.9h-14.9zm12.8-12.7h-10.6v10.6h10.6V203zM265.4 222.2h-2.1c-.1.7-.1 1.3-.2 2h-2V218h10.6c.1.6.1 1.2.2 2.1h2.1v2.2h2.2v2.1c-.8.1-1.4.1-2.2.2v2.1h-2.2v2.2h-2.1c-.1-.7-.1-1.3-.2-2.1h-4.3c.1-1.8.1-3.2.2-4.6 1.4 0 2.9 0 4.3-.1v2.1h2v-2h-2.1v-2.1h-4.3c.1.8.1 1.5.1 2.1z"/><path fill="#3F6FCC" d="M274 220.1V218h10.7v2.1h-2.1v4.4h6.2c.1.7.1 1.4.2 2.1h2.1v4.3H289c-.1-.8-.1-1.4-.2-2.1h-2.1v-2.1h-4.3v2.1h-2.1c-.1-.8-.1-1.5-.2-2.2H278v-4.3h2.1v-2h-2v2.1h-2.2v-2.2c-.6-.2-1.3-.2-1.9-.1zM291.1 202.8v2.1h-4.2v2.1h4.1v2.1c-.6.1-1.2.1-2 .2 0 .7-.1 1.3-.1 2h-2c-.1-.6-.1-1.3-.2-2.1h-2.1v-2.1h-2.2v2.1h-4.2v-2.1c.6 0 1.3-.1 2-.1v-2c-.6-.1-1.3-.1-2-.2v-2c.6 0 1.2-.1 2-.1.1-.6.1-1.3.2-2h2.1v4.1h2.1c.1-.6.1-1.3.2-2.1 2.1.2 4.3.2 6.3.1zM273.9 232.9v2.2h-6.4c-.1.8-.1 1.4-.2 2.1h-2v-6.3h-2.2v6.3H261v-8.4h6.3v4.2c2.4 0 4.6 0 6.6-.1zM299.8 233v-2.1c.7-.1 1.3-.1 2-.2v-2h-4.1v-2.1c.6 0 1.3-.1 2-.2v-4.1h2.2v4.1c.8 0 1.4.1 2.1.1v6.4c-1.4 0-2.9 0-4.2.1-.1-.1 0 0 0 0zM310.5 222.2h4.2v6.3h-2c0-.6-.1-1.2-.1-2h-2.1c.1-1.4.1-2.8 0-4.3zM295.4 222.2v6.4h-2c-.1-.6-.1-1.3-.2-2.1h-2.1v-4.3h4.3zM293.3 252.3V250h6.3v4.3h-2c-.1-.6-.1-1.3-.2-2.1-1.3.1-2.7.1-4.1.1zM293.2 203c.7-.1 1.4-.1 2.2-.2 0-.7.1-1.2.1-2h2v6.2h-2c0-.6-.1-1.3-.1-2-.7 0-1.3-.1-2-.1 0-.6-.1-1.3-.2-1.9.1-.1 0 0 0 0zM286.9 220.1V218h8.6v2.2c-2.9-.2-5.8-.2-8.6-.1z"/><path fill="#3F6FCC" d="M284.7 209.3v6.4h-2.1v-6.4h2.1zM310.5 235.1v-4.2h4.2v1.9c-.6.1-1.2.1-2.1.2v2.1h-2.1zM278.3 230.8h-2.2v-2.2h-2.2v-2.2h4.3c0 1.5 0 3 .1 4.4zM293.3 252.3v2.1h-4.2v-2c1.4-.1 2.8-.1 4.2-.1zM280.3 215.7h-2v-4.1h2v4.1zM308.3 228.6v4.2h-2v-4.2c.7.1 1.4.1 2 0zM295.4 213.7h2.2v4.2h-2.2c.1-1.4 0-2.8 0-4.2zM308.4 220h-2.1v-1.9h2c0 .6.1 1.2.1 1.9zM310.6 220.1V218h1.9v2c-.6 0-1.3.1-1.9.1-.1 0 0 0 0 0zM291.2 202.9v-2.1h2.1v2.1h-2.1c-.1-.1 0 0 0 0zM295.5 211.5v-2.1h2v2c-.7 0-1.4 0-2 .1zM284.7 220.1h2.2v2.1h-2.1c-.1-.8-.1-1.5-.1-2.1zM295.4 211.4c0 .8 0 1.5-.1 2.3-.7 0-1.4 0-2.1-.1v-2.1c.9 0 1.6 0 2.2-.1.1.1 0 0 0 0zM312.6 235.1h2.1v2.1h-2.1c.1-.6.1-1.4 0-2.1zM273.9 235.1h2.1v2h-2c0-.6 0-1.3-.1-2 .1 0 0 0 0 0zM304 220h-2v-2h2v2z"/><path fill="#3F6FCC" d="M274 233v-2.2h2.2v2.2c-.9-.1-1.6-.1-2.2 0-.1-.1 0 0 0 0zM297.6 220v2.2h-2.2V220c.8.1 1.5.1 2.2 0zM286.9 215.7v-2h2v2h-2zM310.5 222.2h-2.1V220c.7 0 1.5.1 2.2.1-.1.7-.1 1.4-.1 2.1zM274 230.8h-2.2v-2.2h2.2c-.1.8-.1 1.5 0 2.2zM293.3 213.6v2.1h-2v-2c.7-.1 1.3-.1 2-.1zM308.4 228.7v-2.1h2.2v2.1c-.9-.1-1.6-.1-2.2 0-.1-.1 0 0 0 0zM297.6 217.9h2.1v2.1h-2.1v-2.1zM304.1 224.2v-1.9h2v1.9h-2z"/><path fill="#FFF" d="M286.9 237.3h2c.1.6.1 1.3.2 2h2c0-.6.1-1.2.1-1.9h2c0 .6.1 1.2.2 2 .7 0 1.3.1 2 .1v4.1h-2c-.1-.6-.1-1.2-.2-1.9h-2c0 .6-.1 1.2-.2 2h-4.2c0-.6-.1-1.3-.1-2-.7 0-1.3-.1-2-.1v-2c.6-.1 1.2-.1 2-.2.1-.7.2-1.4.2-2.1zM303.9 243.7h-6.2v-6.3h6.2v6.3zm-4-4.2v2h1.9v-2h-1.9zM278.2 230.8v-4.3h2.1c.1.7.1 1.4.2 2.2h2.1v6.5h2.2v2.1c-.7.1-1.3.1-2.1.2 0 .7-.1 1.3-.1 2h-2V231c-1-.2-1.7-.2-2.4-.2z"/><path fill="#FFF" d="M286.8 228.7h2.1c.1.7.1 1.3.2 2.1h2.1v4.2h-2.1c0-.6-.1-1.3-.1-2h-2c-.1.6-.1 1.3-.2 2.1h-2.1v-4.2c.8-.1 1.4-.1 2.2-.2 0-.7 0-1.4-.1-2zM308.3 239.4h2.1c.1.7.1 1.3.2 2.1.7 0 1.3.1 2 .1v2.2h-6.3v-2.1c.6-.1 1.2-.1 2.1-.2 0-.7 0-1.4-.1-2.1zM286.8 248v2.3h-2v-2.2c.7-.1 1.4-.1 2-.1zM293.3 248h-2.1v-2h2c.1.7.1 1.4.1 2zM286.9 248v-2.1h2v2c-.7.1-1.4.1-2 .1-.1 0 0 0 0 0zM308.4 239.4h-2.1v-2h2c0 .7 0 1.4.1 2-.1 0 0 0 0 0zM312.7 235.1v2.2h-2.2v-2.2h2.2zM263.3 241.6h10.6v10.6h-10.6v-10.6zm2.2 2.2v6.3h6.2v-6.3h-6.2zM312.6 203v10.5H302V203h10.6zm-8.4 2.1v6.3h6.3v-6.3h-6.3zM273.9 203v10.6h-10.6V203h10.6zm-2.1 2.1h-6.3v6.2h6.3v-6.2zM278.3 226.5H274v-2.1c.7-.1 1.4-.1 2.2-.2v-2.1h2.2c-.1 1.5-.1 3-.1 4.4zM265.4 222.2v-2.1h4.3v2.1h-4.3c-.1 0 0 0 0 0zM273.9 220h2.2v2.2h-2.2V220zM269.6 222.2h2.1v2h-2c0-.6 0-1.3-.1-2 .1 0 0 0 0 0zM274 228.7h-2.2v-2.2h2.2v2.2zM295.5 220v2.2h-4.3v4.3h-2.1c-.1-.7-.1-1.4-.2-2.1h-6.2V220h2.1v2.1h2.1V220h8.6zM282.6 228.7v-2.1h4.3v2.1c-1.5-.1-2.9-.1-4.3 0z"/><path fill="#FFF" d="M278.3 222.2v-2.1h2v2c-.7.1-1.4.1-2 .1-.1 0 0 0 0 0zM284.7 209.3h-2.2v-2.1h2.2v2.1z"/><circle fill="#FFF" cx="296.5" cy="219" r="1.6"/><path fill="#FFF" d="M273.9 230.8v-2.2h2.2v2.2h-2.2z"/><path fill="#3F6FCC" d="M299.9 239.5h1.9v2h-1.9v-2zM282.5 228.6h4.3v2.1c-.7.1-1.4.1-2.2.2v4.2h-2.2c.1-2.2.1-4.3.1-6.5zM265.5 243.8h6.2v6.3h-6.2v-6.3zM304.2 205.1h6.3v6.3h-6.3v-6.3zM271.8 205.1v6.2h-6.3v-6.2h6.3z"/></g></svg>