
<svg version="1.1" id="Layer_1" xmlns="http://www.w3.org/2000/svg" x="0" y="0" viewBox="0 0 512 512" xml:space="preserve"><style>.st0{fill:#bcbcce}.st1{fill:#fff}.st3{fill:#dbdaed}</style><path class="st0" d="M201.7 185l1.5-1c-1.5 1-1.7.6-3.8 2.4l2.3-1.4zM203.2 184c.2-.1.5-.3.8-.5l-.8.5zM201.6 183.7c.8-.7 1.6-1.3 2.3-2-.8.5-1.6 1-2.4 1.4l.1.6zM20.2 59.4v-.7c-.9 1.3-.5 1.2 0 .7zM69 35.5l-.8.6c.2 0 .4 0 .6-.1.2-.1.3-.2.2-.5zM12.4 79.2c.4-.7.7-1.6 1.1-2.4-.3-.4-.9.4-1.1 2.4zM85.7 31.8c-.6 0-1.6.1-2.7.5 1-.2 1.8-.3 2.7-.5zM208.4 176.7c-.1.1-.2.3-.3.4.1-.2.2-.3.3-.4zM52.3 213l.5.5c-.2-.2-.3-.4-.5-.5z"/><path class="st0" d="M216.1 160.2c-.1-1.5.1-2.9 0-4.4 0-.7 0-1.5.1-2.2v-2.2c0-1.5-.1-2.9-.3-4.3-.1-1.4-.4-2.6-.7-3.8.6 1.3 1 1.4 1.1.8-3.5-10.2-5.4-20.6-8.9-32.3l.2-3.9h-.9c-1.8-5.7.9-1.6-.1-5.3.4 1.4.2 1.2 0 1.5-.7-7-1.7-3.5-2.4-7.4-.5 2 1.5 7.4-.1 6-.7-7-3.9-17.3-2.1-18.8-4-12.3-6.5-28-9.1-38.7-.8-1.5 0 1.1-.4.5-.1-1.2-.4-2.8-1-4.4-.7-1.6-1.5-3.3-2.5-4.7-.9-1.5-1.9-2.7-2.5-3.6-.3-.5-.6-.9-.7-1.2-.2-.3-.2-.5-.1-.6-1.7-1.6-2.9-1.8-3.6-2-1.7-2.5-4.3-5.1-7.5-7.3l2.2 1.8h-.3c-1-.8-2-1.7-3.2-2.5h.2c-4.1-2.5-9.2-4.2-14.3-4.9-5.1-.8-10.2-.5-14.7 0 4.5-.3.5 1.1.9 1.4-1.1-.1-2.2-.1-3.6 0-1.6.2-3.4.4-5.3.8-3.8.7-8 1.8-11.8 2.9.1.3-.4.8.6.8l-4.6.4.7.3c-7.8 2.3-16.8 2.6-21.7 4.7 3.3-.6 3.4-.3 3.8.2-5.6 1.4-10.9 2.7-17.6 3.8.4 0 .6.1.7.2-1.7.6-3.9.7-5.7.9v.9c-3.5.5-7.7 2-11.8 2.3-1.3 1.3-9.9 1.6-14.4 3.1-1.8.2 4.1 0-.9 1.2-1.2-1.6-6.4 1.6-7.3-.3l-2.1.9-2.4 1.1-1.4-.6c-1.7 1.8-3.3 2.1-5.2 2.8-1.9.6-4.2 1.3-6.6 3.6.4-.1 1-.5.8-.1-.9.6-2.3 1.7-3.2 2.3-.8.6-1.2.7.1-.8-.7.6-1.7 1.6-2.8 2.7-1.1 1.1-2.1 2.5-3 3.6-1.6 2.4-2.4 3.8-.4 1.9-.3 0 .2-1 1.2-2.1s2.2-2.4 3.1-3.1c.4.7-3.2 4.6-3 6.2-.2.1-.7.6-1.1.9 0 .3 0 .6.1.9-2 2.6-3.5 5.5-4.4 8.4-.2.7-.5 1.4-.7 2.1l-.6 2.1c-.4 1.3-.7 2.6-1.2 3.8.2.3.3 1.5.2 3.7l-1.1.1v1.8l.2 1.8c.1 1.2.2 2.4.5 3.6.3-1.2.7-2.4 1.1-3.5.1.9.2 1.9.3 2.7.1.9.3 1.7.4 2.5.1.8.2 1.5.3 2.2.1.7.1 1.4.2 2 .2 2.7.3 5.2.9 7.9 2.1.9 1.9 10.4 4.6 14.5l-.6-4.2c1.9 8.8 3.3 10 4.7 18.3-2.3-6.8-2-6.9-6-16.6 3.3 9.9 3.4 17.7 6.8 26.8.3-.7-.1-3.1.9-1-.5 2 2.2 8.7.8 7.6 1.1 2.8 2.2 3 2.8 4.8l1.1 10 .1-.3c3.3 7.9 4.8 15.7 6.1 23.5.4 2 .6 3.9 1 5.9.3 1.2.6 2.3.8 3.5.3 1.2.8 2.3 1.2 3.4 1.8 4.5 4.6 8.8 8.4 12.3l.1-.7 1.5 2.1c.4.5.8 1 1.2 1.4-1.7-2 2.3 1.1 2.8.8 3.2 2.9 6.9 5.2 11 7 .4-.4 0-1.6-2.9-2.7 2.3.7 4.6 1.6 6.9 2.4 1.1.4 2.3.8 3.4 1l3.3.6-1.4-.7c.7.1 1.4.3 2.1.4l2.2.2v-.7c1.8.2 3.6-.1 5.5-.2.9-.1 1.8-.3 2.7-.5.8-.2 1.8-.4 2.5-.5 2.8-.7 5.2-1.2 6.4-.9l-1-1 6.4-.7-3.7.1c6.9-2 17.6-3.8 19.1-4.1l-.7-.3c1.1-.5 2-.4 3.3-.6l-1.1-.4c10.5-2.5 13-4.6 24.8-6.9 3.1-.9-1.8.2-2-.1 1.6-.9 5.8-1.5 6.8-1.4-1.2-.7-6 .8-2.5-.9 2.8-.2-2-.5 2.7-1.4l2.1.8c2.5-.9.3-1.1 4.4-2 4.8-.6-5.4 2.9 2.2 1.2 3.8-1 7.2-4.9 14.7-6.1 6.2-2.2-3.8-1.1 5-3l-3 .3 6.4-1.6c.3 0 .6-.1.8-.2-.2 0-.3 0-.5.1l6.8-1.7c.5-.1 1-.3 1.4-.4 1.2-.2 3-.7 4.7-1.5.7-.3 1.4-.7 2.1-1.1.7-.4 1.4-.8 1.9-1.2.5-.4.9-.7 1.4-1l2.4-1.8.1-.1v-.1c2.2-1.8 4.1-3.9 5.7-6.1.1.2.1.4.2.5.2-.4.5-1.1.8-1.8.4-.7.9-1.4 1.2-2.2.4-.7.8-1.4 1.2-2 .4-.6.6-1 .9-1.1.2.2.2.7 0 1.3-.2.6-.6 1.3-1 2.1s-1 1.6-1.5 2.3c-.4.5-.7 1-1 1.5.7-.9 1.3-1.7 1.9-2.5.6-.9 1.1-1.7 1.6-2.4s.9-1.3 1.3-2c.4-.6.7-1.2 1.1-1.8.6-1.2 1.1-2.3 1.6-3.8.4-1.5.8-3.2.8-5.6l-.4 2.1zM13.8 80.9c0-1 0-2 .1-3 0-.6.1-1.2.2-1.9l-.2 1.9c.1 1.5.6 2.6-.1 3zm197 49.3c1.4 2.7.7 7 1.4 7.7 0-1.6-.8-4.5-.1-4.7 1.7 3.5 1.1 5.9 1.7 8.6l-.7-1.3c.4 3.1.3 4.6.2 5.7l-.7-2.6c.1 0 .1.1.2.1-1.1-4.3-2.4-10.8-2-13.5zm-2-10l-.5 2-.8-3.5 1.3 1.5zm.3 9.4l-3.7-14.6c-.1-1.8 0-3.7-1-6-.1.4-.1.8-.2 1.2l-.9-3.7c0-.2 0-1-.1-2.5 2.5 8.1 4.3 16.9 5.9 25.6zM198 82.2l.4 2-1.1-2.8.7.8zm-3.7-11.6l-2.4-9.5v-1.5c1.7 2.4 2 6.6 2.4 11zm-6.1-27.4c-.2-.6-.3-1.1-.2-1.4.2.5.3 1.1.2 1.4.3 1.6 1.1 3.8 1.6 4.8.3-.7-.5-3.1-.5-4.1.5.8.9 2 1.1 3.2.2 1.2.3 2.5.4 3.6.3 2.2.6 3.6 1.7 2.1 0 1.5.5 6.7-.4 5.1-.4-2-1.2-4.9-2-7.6-.4-1.4-.8-2.7-1.2-3.8-.5-1.2-.9-2.2-1.3-2.9-.2-.1-.4-.4-.7-1 .2.2.5.5.7 1 .3.2.5 0 .6-.4zm-5.3-8.6c.1.4.3.8.4 1.2-1.2-1.8-2.6-3.4-4-4.9.3.1.6.4 1 .7.9.9 2.1 2.3 2.6 3zm-29.3-18.3c.3.1.3.2.2.3l1.8.4c-4.7.4-2.3 0-1.8-.4-.7-.2-1.5-.3-2.2-.3 1-.1 1.7 0 2 0zm-9.4 2.9c.1-.2.5-.4 1.2-.6.7-.2 1.5-.4 2.4-.6.9-.2 1.9-.2 2.7-.3h1.9c-1.3.2-3.6.4-5.5.9-1.8.4-3.1.7-2.7.6zm-3.5 2.6c2.9-.4 1.5.3 1.9.5h-.1c-1.2.1-2.1 0-1.8-.5zm-13.1 3.4c0-.1 0-.1-.1-.2.1 0 .1.1.1.2zm-12 2.8c3.4-.3 2.6-.9 4.2-1.5l-.9 1.2c-4.8.6-5.3.2-9.1-.1 4.6-1.6 6.2-.4 5.8.4zm-4.2-1.8c.5-.2 1.1-.5 1.9-.6l-1.9.6c-2.1 1.1-2.3 2.5-5.8 2l5.8-2zM31.3 54.3c-1 .9-2 1.9-2.9 2.9-.1-.3-.3-.5-.3-1.1 1-.5 2.1-1.1 3.2-1.8zM17.2 94.5c-.2-1.2-.2-1.8-.5-2.7-.3.7-.3 3.3-.9 1.5.1-.7-.1-2-.2-3.3-.1-1.4-.1-2.6.2-2.7 0 1 .2 2 .4 2.8.2.7.5 1.4.8 1.9.5 1.2.9 2 .2 2.5zm1.2-19.6c.1-.8.3-1.3.4-1.8.4-1.9.5-2.5 1.1-2.1.6-.8.6-2.4 1.2-3.1-.6 3.7-1.6 3.1-2.3 5.2 0 .6-.2 1.1-.4 1.8zm.6 10.5c.3-.3.5-.9.5-1.7v-1.2c.1 1 .1 2 .3 3-.2.3-.4.4-.8-.1zm6.4 36l.4-1.1.3.8-.5-3.6c2 4.4 1.2 8.1 1.6 10.5-.5-2-.3-8-1.8-6.6zm5.7 10.1l.3 1.1-.1.2c-.1-.5-.2-.9-.2-1.3zm2.8 31.5c-1.7-2.5-1.1-4.5-1-6.2v-.7.7c.2 2.9 1.7 3.7 1 6.2zm3.3 5.3l-.6-1.7c-1.1-1.2.2 2.8-.3 3.3-.8-2-1.4-6.8-.9-5.1 1.5 4.3.6-2.4 1.7.4l-.7-2.3c1.8 3.5-.1 2.8.8 5.4zm18.9 38.5c-.6-.4-1.3-1.1-2.3-1.6.5.4.4-.1 0-.9-.1-.2-.3-.5-.4-.7 1.1 1.2 2.3 2.4 3.5 3.4-.2.1-.5 0-.8-.2zm51.8 6.6c-.5.4-2.8 1.1-4.6 1.3 2.5-1.2 2.8-1 4.6-1.3zm-.4.8c4.1-1.8 3.7-.1 6.4-.7-3.2 1.6-3.1.1-6.4.7zm49.4-16.5l-1.8.2c-.3 0-.5-.1-.6-.2l3-.8c.4.2.3.4-.6.8zm53.6-26.2c.4-.8.8-1.6 1.2-2.5.2-.1.4-.3.6-.7-.6 1-1.2 2.1-1.8 3.2zm4.6-11.8c0 1.2-.3 2.3-.5 3.3-.1.5-.3.9-.4 1.3-.2.4-.4.7-.6.9.3-.9.5-1.8.6-2.7.2-.9.4-1.8.4-2.7-.5 2.4-1.1 4.7-1.9 6.6 1.2-3.6 1.8-7.4 1.8-11.3.2-.4.4-1 .9-1-.3 1-.1 3.3-.3 5.6z"/><path class="st0" d="M173.4 21.4h-.2c.4.2.8.4 1.2.7-.3-.2-.6-.4-1-.7z"/><path class="st1" d="M95.7 157.2c-.7 0-1.4-.2-2-.5-1.8-1.1-2.4-3.4-1.3-5.3l42.4-70.8c1.1-1.8 3.4-2.4 5.3-1.3 1.8 1.1 2.4 3.4 1.3 5.3L99 155.4c-.7 1.2-2 1.8-3.3 1.8z"/><circle class="st1" cx="99.5" cy="93.1" r="8.4"/><circle class="st1" cx="134.3" cy="142.8" r="8.4"/><linearGradient id="SVGID_1_" gradientUnits="userSpaceOnUse" x1="215.642" y1="117.296" x2="312.121" y2="117.296"><stop offset="0" stop-color="#96a5ed"/><stop offset="1" stop-color="#9675ed"/></linearGradient><path d="M309.8 138.3c-7.8-15-22.5-27.3-40.4-33.7-15.7-5.6-33.7-7-53.5-4.2l-.4-2.5c20.2-2.9 38.6-1.5 54.7 4.3 18.5 6.6 33.7 19.4 41.8 35l-2.2 1.1z" fill="url(#SVGID_1_)"/><path class="st3" d="M301.3 234.6h198.4v257.9H301.3z"/><linearGradient id="SVGID_2_" gradientUnits="userSpaceOnUse" x1="477.148" y1="453.458" x2="477.755" y2="453.458"><stop offset="0" stop-color="#96a5ed"/><stop offset="1" stop-color="#9675ed"/></linearGradient><path d="M477.2 453.1c0 1.3.5.8.6 1-.2-2.1-.8-1-.6-1z" fill="url(#SVGID_2_)"/><linearGradient id="SVGID_3_" gradientUnits="userSpaceOnUse" x1="475.634" y1="430.705" x2="476.17" y2="430.705"><stop offset="0" stop-color="#96a5ed"/><stop offset="1" stop-color="#9675ed"/></linearGradient><path fill="url(#SVGID_3_)" d="M476 431.9l.2.4-.6-3.2z"/><linearGradient id="SVGID_4_" gradientUnits="userSpaceOnUse" x1="475.576" y1="418.515" x2="476.311" y2="418.515"><stop offset="0" stop-color="#96a5ed"/><stop offset="1" stop-color="#9675ed"/></linearGradient><path d="M476 412.1c-.9 1.9.1 7.2-.2 10.7l-.2.6.7 1.6c-.1-4.3-.6-9.9-.3-12.9z" fill="url(#SVGID_4_)"/><linearGradient id="SVGID_5_" gradientUnits="userSpaceOnUse" x1="477.675" y1="402.579" x2="477.938" y2="402.579"><stop offset="0" stop-color="#96a5ed"/><stop offset="1" stop-color="#9675ed"/></linearGradient><path d="M477.9 401.5c-.4.7-.3-2.3-.1 2.5 0-.2.1-.3.1-.4v-2.1z" fill="url(#SVGID_5_)"/><linearGradient id="SVGID_6_" gradientUnits="userSpaceOnUse" x1="477.916" y1="403.699" x2="478.055" y2="403.699"><stop offset="0" stop-color="#96a5ed"/><stop offset="1" stop-color="#9675ed"/></linearGradient><path d="M477.9 403.5c0 2.1.3-1.3 0 0z" fill="url(#SVGID_6_)"/><linearGradient id="SVGID_7_" gradientUnits="userSpaceOnUse" x1="477.713" y1="394.584" x2="478.44" y2="394.584"><stop offset="0" stop-color="#96a5ed"/><stop offset="1" stop-color="#9675ed"/></linearGradient><path d="M477.7 393.9l.3 2.7c.2-.6.3-3 .4-2.1-.1-2.8-.3-2.2-.7-.6z" fill="url(#SVGID_7_)"/><linearGradient id="SVGID_8_" gradientUnits="userSpaceOnUse" x1="477.046" y1="391.985" x2="477.244" y2="391.985"><stop offset="0" stop-color="#96a5ed"/><stop offset="1" stop-color="#9675ed"/></linearGradient><path d="M477 391.3l.1 1.4c.2-.3.2-.6-.1-1.4z" fill="url(#SVGID_8_)"/><linearGradient id="SVGID_9_" gradientUnits="userSpaceOnUse" x1="476.966" y1="394.208" x2="477.464" y2="394.208"><stop offset="0" stop-color="#96a5ed"/><stop offset="1" stop-color="#9675ed"/></linearGradient><path d="M477.5 395.7l-.3-3c-.1.4-.4.4.1 1.4-.3-.3 0 .3.2 1.6z" fill="url(#SVGID_9_)"/><linearGradient id="SVGID_10_" gradientUnits="userSpaceOnUse" x1="476.685" y1="399.607" x2="477.341" y2="399.607"><stop offset="0" stop-color="#96a5ed"/><stop offset="1" stop-color="#9675ed"/></linearGradient><path d="M477.3 397.4c-.2 1.5-.3 3.5-.6.8.1 5.3.8 4.5.6-.8z" fill="url(#SVGID_10_)"/><linearGradient id="SVGID_11_" gradientUnits="userSpaceOnUse" x1="474.749" y1="412.979" x2="475.123" y2="412.979"><stop offset="0" stop-color="#96a5ed"/><stop offset="1" stop-color="#9675ed"/></linearGradient><path d="M475 411.1l-.3 2.1.3 1.8c-.1-1 .3-4.1 0-3.9z" fill="url(#SVGID_11_)"/><linearGradient id="SVGID_12_" gradientUnits="userSpaceOnUse" x1="477.419" y1="378.322" x2="478.186" y2="378.322"><stop offset="0" stop-color="#96a5ed"/><stop offset="1" stop-color="#9675ed"/></linearGradient><path d="M478.2 376.8c-.2-.2-.5.9-.8 1.1l.2 2c.2-1 .3-3 .6-3.1z" fill="url(#SVGID_12_)"/><linearGradient id="SVGID_13_" gradientUnits="userSpaceOnUse" x1="477.079" y1="376.376" x2="477.419" y2="376.376"><stop offset="0" stop-color="#96a5ed"/><stop offset="1" stop-color="#9675ed"/></linearGradient><path d="M477.4 377.9l-.3-3c-.1 2.7.1 3.2.3 3z" fill="url(#SVGID_13_)"/><linearGradient id="SVGID_14_" gradientUnits="userSpaceOnUse" x1="476.022" y1="392.797" x2="476.733" y2="392.797"><stop offset="0" stop-color="#96a5ed"/><stop offset="1" stop-color="#9675ed"/></linearGradient><path fill="url(#SVGID_14_)" d="M476 390.8l.7 5-.7-6z"/><linearGradient id="SVGID_15_" gradientUnits="userSpaceOnUse" x1="477.98" y1="365.333" x2="478.66" y2="365.333"><stop offset="0" stop-color="#96a5ed"/><stop offset="1" stop-color="#9675ed"/></linearGradient><path fill="url(#SVGID_15_)" d="M478.2 365.1l.5 1.8-.7-3.1z"/><linearGradient id="SVGID_16_" gradientUnits="userSpaceOnUse" x1="478.131" y1="354.664" x2="478.991" y2="354.664"><stop offset="0" stop-color="#96a5ed"/><stop offset="1" stop-color="#9675ed"/></linearGradient><path d="M478.3 351.6c.2 1.7.1 3.5-.2 5.9.4 1.3.6-1.7.9-.4-.1-2.1-.4-3.9-.7-5.5z" fill="url(#SVGID_16_)"/><linearGradient id="SVGID_17_" gradientUnits="userSpaceOnUse" x1="477.898" y1="350.212" x2="478.317" y2="350.212"><stop offset="0" stop-color="#96a5ed"/><stop offset="1" stop-color="#9675ed"/></linearGradient><path d="M478.3 351.6c-.1-.9-.2-1.8-.4-2.7.1.8.2 1.7.4 2.7z" fill="url(#SVGID_17_)"/><linearGradient id="SVGID_18_" gradientUnits="userSpaceOnUse" x1="477.181" y1="368.469" x2="477.736" y2="368.469"><stop offset="0" stop-color="#96a5ed"/><stop offset="1" stop-color="#9675ed"/></linearGradient><path d="M477.2 369.7c.1-.2.4-.7.6-2.4l-.5 1.2c-.1.3-.1.7-.1 1.2z" fill="url(#SVGID_18_)"/><linearGradient id="SVGID_19_" gradientUnits="userSpaceOnUse" x1="477.172" y1="367.198" x2="477.22" y2="367.198"><stop offset="0" stop-color="#96a5ed"/><stop offset="1" stop-color="#9675ed"/></linearGradient><path d="M477.2 368.5v-2.6 2.6z" fill="url(#SVGID_19_)"/><linearGradient id="SVGID_20_" gradientUnits="userSpaceOnUse" x1="477.134" y1="369.815" x2="477.181" y2="369.815"><stop offset="0" stop-color="#96a5ed"/><stop offset="1" stop-color="#9675ed"/></linearGradient><path d="M477.2 370v-.3c-.1.1-.1.1 0 .3z" fill="url(#SVGID_20_)"/><linearGradient id="SVGID_21_" gradientUnits="userSpaceOnUse" x1="475.426" y1="381.106" x2="476.526" y2="381.106"><stop offset="0" stop-color="#96a5ed"/><stop offset="1" stop-color="#9675ed"/></linearGradient><path d="M476.5 382.8c-.3-1.8-.6-5.5-1.1-1.9.4 1.3.7-.8 1.1 1.9z" fill="url(#SVGID_21_)"/><linearGradient id="SVGID_22_" gradientUnits="userSpaceOnUse" x1="476.37" y1="373.183" x2="476.877" y2="373.183"><stop offset="0" stop-color="#96a5ed"/><stop offset="1" stop-color="#9675ed"/></linearGradient><path d="M476.9 374.9l-.4-3.5-.1 3.2c.1 0 .3-.6.5.3z" fill="url(#SVGID_22_)"/><linearGradient id="SVGID_23_" gradientUnits="userSpaceOnUse" x1="476.322" y1="370.66" x2="476.541" y2="370.66"><stop offset="0" stop-color="#96a5ed"/><stop offset="1" stop-color="#9675ed"/></linearGradient><path fill="url(#SVGID_23_)" d="M476.3 369.9l.2 1.6v-1.2z"/><linearGradient id="SVGID_24_" gradientUnits="userSpaceOnUse" x1="476.925" y1="352.721" x2="477.387" y2="352.721"><stop offset="0" stop-color="#96a5ed"/><stop offset="1" stop-color="#9675ed"/></linearGradient><path d="M477.4 354.4c-.2-1.4-.3-2.9-.3-4.6-.1 1.8-.2 3.8-.2 5.6.2.2.5 1 .5-1z" fill="url(#SVGID_24_)"/><linearGradient id="SVGID_25_" gradientUnits="userSpaceOnUse" x1="477.166" y1="361.1" x2="477.234" y2="361.1"><stop offset="0" stop-color="#96a5ed"/><stop offset="1" stop-color="#9675ed"/></linearGradient><path d="M477.2 361.3v-.3c0 .1-.1.3 0 .3z" fill="url(#SVGID_25_)"/><linearGradient id="SVGID_26_" gradientUnits="userSpaceOnUse" x1="476.994" y1="332.955" x2="477.093" y2="332.955"><stop offset="0" stop-color="#96a5ed"/><stop offset="1" stop-color="#9675ed"/></linearGradient><path d="M477.1 332.8c0 .1-.1.2-.1.3 0 0 .1 0 .1.1v-.4z" fill="url(#SVGID_26_)"/><linearGradient id="SVGID_27_" gradientUnits="userSpaceOnUse" x1="476.786" y1="356.941" x2="477.02" y2="356.941"><stop offset="0" stop-color="#96a5ed"/><stop offset="1" stop-color="#9675ed"/></linearGradient><path d="M476.8 355.6c-.1 1.4 0 2.2.2 3-.1-1-.1-2.1-.1-3.3-.1-.1-.1-.1-.1.3z" fill="url(#SVGID_27_)"/><linearGradient id="SVGID_28_" gradientUnits="userSpaceOnUse" x1="477.341" y1="345.332" x2="477.682" y2="345.332"><stop offset="0" stop-color="#96a5ed"/><stop offset="1" stop-color="#9675ed"/></linearGradient><path d="M477.6 344.1c-.1.7-.2 1.5-.3 2.4.2-.7.5-2.1.3-2.4z" fill="url(#SVGID_28_)"/><linearGradient id="SVGID_29_" gradientUnits="userSpaceOnUse" x1="477.354" y1="360.508" x2="477.445" y2="360.508"><stop offset="0" stop-color="#96a5ed"/><stop offset="1" stop-color="#9675ed"/></linearGradient><path d="M477.4 360.5v.2c.1-.5 0-.4 0-.2z" fill="url(#SVGID_29_)"/><linearGradient id="SVGID_30_" gradientUnits="userSpaceOnUse" x1="477.02" y1="359.789" x2="477.354" y2="359.789"><stop offset="0" stop-color="#96a5ed"/><stop offset="1" stop-color="#9675ed"/></linearGradient><path d="M477.4 360.5c-.1-.7-.2-1.3-.3-1.8 0 .8.1 1.6.2 2.3-.1-.2 0-.4.1-.5z" fill="url(#SVGID_30_)"/><linearGradient id="SVGID_31_" gradientUnits="userSpaceOnUse" x1="476.942" y1="336.787" x2="477.692" y2="336.787"><stop offset="0" stop-color="#96a5ed"/><stop offset="1" stop-color="#9675ed"/></linearGradient><path d="M476.9 339.1l.1 1.3c.1-1.5.3-2.6.7-4.5-.2-2.2-.4-2.6-.6-2.8l-.1 6.5-.1-.5z" fill="url(#SVGID_31_)"/><linearGradient id="SVGID_32_" gradientUnits="userSpaceOnUse" x1="475.624" y1="345.099" x2="477.341" y2="345.099"><stop offset="0" stop-color="#96a5ed"/><stop offset="1" stop-color="#9675ed"/></linearGradient><path d="M477 346.3c-.6-1-.8-4.2-1.4-2.2 0 3.9.5 2.7.7 5-.1-6.2.3 1.8.7-2.8 0 1.3.1 2.4.1 3.4.1-1.1.1-2.2.3-3.2v.1c-.1.3-.1.4-.1.1v-.1c-.2 0-.2-.1-.3-.3.1-1.8.1-.3.2.3l.1.1-.3-6.2c-.1 1.3-.1 2.9 0 5.8z" fill="url(#SVGID_32_)"/><linearGradient id="SVGID_33_" gradientUnits="userSpaceOnUse" x1="474.24" y1="377.322" x2="474.369" y2="377.322"><stop offset="0" stop-color="#96a5ed"/><stop offset="1" stop-color="#9675ed"/></linearGradient><path d="M474.2 377.6c0-.2.1-.2.1-.2 0-.4 0-.6-.1.2z" fill="url(#SVGID_33_)"/><linearGradient id="SVGID_34_" gradientUnits="userSpaceOnUse" x1="474.369" y1="375.618" x2="475.788" y2="375.618"><stop offset="0" stop-color="#96a5ed"/><stop offset="1" stop-color="#9675ed"/></linearGradient><path d="M475 377.7l-.1-.4c.1-2 .6-4.4.8-5.1-.4.7-.8 1.3-1.2 2.9.1.5.3.8.2 2.3-.2 1.3-.3 0-.4.1.2.8.5 3 .7.2z" fill="url(#SVGID_34_)"/><linearGradient id="SVGID_35_" gradientUnits="userSpaceOnUse" x1="475.788" y1="372.056" x2="475.91" y2="372.056"><stop offset="0" stop-color="#96a5ed"/><stop offset="1" stop-color="#9675ed"/></linearGradient><path d="M475.8 372.2c0-.1.1-.1.1-.2s-.1 0-.1.2z" fill="url(#SVGID_35_)"/><linearGradient id="SVGID_36_" gradientUnits="userSpaceOnUse" x1="474.902" y1="357.914" x2="475.65" y2="357.914"><stop offset="0" stop-color="#96a5ed"/><stop offset="1" stop-color="#9675ed"/></linearGradient><path d="M475.6 360.5l-.3-5.2-.5 2.6.3-.1c0 3 .3 2.3.5 2.7z" fill="url(#SVGID_36_)"/><linearGradient id="SVGID_37_" gradientUnits="userSpaceOnUse" x1="477.127" y1="331.384" x2="477.95" y2="331.384"><stop offset="0" stop-color="#96a5ed"/><stop offset="1" stop-color="#9675ed"/></linearGradient><path fill="url(#SVGID_37_)" d="M477.4 332.2l.6.7-.9-3z"/><linearGradient id="SVGID_38_" gradientUnits="userSpaceOnUse" x1="477.298" y1="324.816" x2="477.805" y2="324.816"><stop offset="0" stop-color="#96a5ed"/><stop offset="1" stop-color="#9675ed"/></linearGradient><path fill="url(#SVGID_38_)" d="M477.3 325.5l.5.2-.3-1.8z"/><linearGradient id="SVGID_39_" gradientUnits="userSpaceOnUse" x1="433.475" y1="201.333" x2="437.976" y2="201.333"><stop offset="0" stop-color="#96a5ed"/><stop offset="1" stop-color="#9675ed"/></linearGradient><path d="M433.5 201.3l.8.4c1.5-.4 2.7-.6 3.7-.7-2.3 0-4.9-.2-4.5.3z" fill="url(#SVGID_39_)"/><linearGradient id="SVGID_40_" gradientUnits="userSpaceOnUse" x1="476.901" y1="254.058" x2="477.428" y2="254.058"><stop offset="0" stop-color="#96a5ed"/><stop offset="1" stop-color="#9675ed"/></linearGradient><path d="M477.1 256.4c.2-1.9.3-3.4.3-4.8-.3 2.4-.8 4.2-.3 4.8z" fill="url(#SVGID_40_)"/><linearGradient id="SVGID_41_" gradientUnits="userSpaceOnUse" x1="298.426" y1="304.914" x2="298.764" y2="304.914"><stop offset="0" stop-color="#96a5ed"/><stop offset="1" stop-color="#9675ed"/></linearGradient><path d="M298.4 304.3c.1.9.2 1.3.3 1.3 0-1-.1-1.5-.3-1.3z" fill="url(#SVGID_41_)"/><linearGradient id="SVGID_42_" gradientUnits="userSpaceOnUse" x1="477.296" y1="248.904" x2="477.664" y2="248.904"><stop offset="0" stop-color="#96a5ed"/><stop offset="1" stop-color="#9675ed"/></linearGradient><path d="M477.4 251.7c.2-1.7.4-3.7 0-5.5 0 .3-.1.7-.1 1 .1 1.4.2 2.8.1 4.5z" fill="url(#SVGID_42_)"/><linearGradient id="SVGID_43_" gradientUnits="userSpaceOnUse" x1="453.974" y1="460.801" x2="456.516" y2="460.801"><stop offset="0" stop-color="#96a5ed"/><stop offset="1" stop-color="#9675ed"/></linearGradient><path d="M454 461.1c.5-.1 1.2-.2 2.5-.6-.6.2-1.6.4-2.5.6z" fill="url(#SVGID_43_)"/><linearGradient id="SVGID_44_" gradientUnits="userSpaceOnUse" x1="477.54" y1="298.69" x2="477.577" y2="298.69"><stop offset="0" stop-color="#96a5ed"/><stop offset="1" stop-color="#9675ed"/></linearGradient><path d="M477.5 298.3c.1 1.5.1.3 0 0z" fill="url(#SVGID_44_)"/><linearGradient id="SVGID_45_" gradientUnits="userSpaceOnUse" x1="475.074" y1="305.01" x2="475.344" y2="305.01"><stop offset="0" stop-color="#96a5ed"/><stop offset="1" stop-color="#9675ed"/></linearGradient><path d="M475.1 304.7c.1.1.2.3.3.6-.1-.3-.2-.5-.3-.6z" fill="url(#SVGID_45_)"/><linearGradient id="SVGID_46_" gradientUnits="userSpaceOnUse" x1="477.288" y1="299.583" x2="477.452" y2="299.583"><stop offset="0" stop-color="#96a5ed"/><stop offset="1" stop-color="#9675ed"/></linearGradient><path d="M477.3 300.5c.1-.5.1-1.2.2-1.8-.1.3-.1.8-.2 1.8z" fill="url(#SVGID_46_)"/><linearGradient id="SVGID_47_" gradientUnits="userSpaceOnUse" x1="477.496" y1="300.862" x2="477.6" y2="300.862"><stop offset="0" stop-color="#96a5ed"/><stop offset="1" stop-color="#9675ed"/></linearGradient><path d="M477.6 300.2c0 .5 0 .9-.1 1.2.1.2.1.1.1-1.2z" fill="url(#SVGID_47_)"/><linearGradient id="SVGID_48_" gradientUnits="userSpaceOnUse" x1="477.452" y1="297.512" x2="477.54" y2="297.512"><stop offset="0" stop-color="#96a5ed"/><stop offset="1" stop-color="#9675ed"/></linearGradient><path d="M477.5 298.3v-2c0 .8 0 1.6-.1 2.3.1-.2.1-.3.1-.3z" fill="url(#SVGID_48_)"/><linearGradient id="SVGID_49_" gradientUnits="userSpaceOnUse" x1="297.693" y1="344.665" x2="478.309" y2="344.665"><stop offset="0" stop-color="#96a5ed"/><stop offset="1" stop-color="#9675ed"/></linearGradient><path d="M466.3 455.8l7.7-1.7V340.9v.5l.3-.1c0-1.7-.2-2.9-.3-1.9v-4.5c.4 2.7 2 .8 2.9-1.9-.2-.1-.4-.1-.7-3.3-.3 1.1-.6 7.1-1.1 4.4-.3-4.2.2-3.5.4-5.5-.6 1.5-.9-3.9-1.6-4.5v-25.7c.1.2.2.1.2-.2l-.1-2.4c.6-2.2.8 4.5 1 1.5.4 3.2 1 6.8.7 11.3l-.8.8c.2-.1.5-2.9.2-4.2.3 1.9-1.1 6.9 0 8.9l.5-3.2c.4 3.2 1.2 7.2 1 11.2.8-1.8-.1-.9.8-3.7-1.1 2.5 0-10.2-1.1-6.2 1.1-2.9.4-5 1.3-8.8-.3.1-.5 1.3-.4-2-.1-.2-.2-.5-.2-.7v-.2V300.8c-.1.8-.2 1.4-.4 1.7-.6-1.7-.6-7-.9-8.8.1-2 .3.8.6-.3l-.5-2.7c.6-.3 1-5.3 1.3-.6v-4.2c.3-2.5.5-5.9.2-8 .1-2-.6-5-.2-3.3l-.4-6.6.1-.1c.1-6.5-1-13.4.1-20.8-.1-2.2-.3-4.5-.2-8.1l.5-.7c-.2-2.8.5-8.5 0-9.7 1.3-3 .3-13.7.5-18.6l-.6-.2c0-1.7 0-3.4-.1-5.1-.1-2.4-.2-5-.3-7.9l-.6.8c-.1-1.2-.1-2.7-.1-4.3-2.4.5-5.2 1-8.3 1.6l-3.3.6c-1.1.2-2.1.4-3.2.7.3-.3 1.8-.6 2.8-.7-7 .2-14 4.1-20.3 4.5-1.5.5-2.6.7-3.7.8.1 0 .3-.1.4-.1-.2 0-.4.1-.6.1-.7.1-1.4.1-2.2.2.7 0 1.3 0 1.8-.1-1.2.3-2.9.7-4.6 1.3l-.9-.4c-.1 0-.3.1-.4.1-1.8.2-1.3.6-.3.8-.9.3-1.6.6-2.2.9-1.6-.7-4.5 1.3-6.6.7-1 .7-7.6 2.1-9.1 3.3-2 .3-3.9.6-5.6 1.3l-1-.6-4 2c-2.7.1-3.8.1-1.4-1.1-6 2.3-4.9 1.5-10 3.5l.1-.6c-1.9.4-4.7 1.8-6 1.6-4.4 0-20.8 4.5-31.8 6 2.4 1-5.2.5-5.3 1.7-.7-.2-2.3-.1-.6-.8-5.4 1.6-8.4 1.3-12 3.1-.7-.2 1.1-.8.5-.8-.4.2-1.7.7-2.3.6-.6-.1.7-.5 1.6-.8-5.6 1.3-5.9 2.5-6.1 3.6-3 .2-4.4.5-6.3 1.7-1.1-.1-2.8-.1.7-1-2 .4-12.1 2.2-12.1 3-.7-.1-2.8.6-3.3.8-2.2.5-3.4.7-4.6 1-.6.1-1.3.3-2.1.5-1 .2-2.1.5-3.5.8l1.7-.2c-.6.5-1.2.8-2.1 1 0 .8 0 1.7-.1 2.7 0 .5 0 1.1-.1 1.7v1.7l-.1-.1c-.7 8.2.3 3.5-.5 11.6l.6-.4c1.3.8-.8 7.2-.3 11.9l.4-1.7c.5 2.6-1.8 7.2-2 9.7-.1.6-.2-.9-.3-1.7-.8 6.7.8.9 1 5.9-.4.9-1.1-1.2-1.2 2.2-.4 1.7 1.4 9.8.6 14.4.3-1 .7-2 .9.3.1 3.6-1.3 9.7-.2 12.9-.1.5-.2.6-.3.6.3 2.7.5 8.9 1 10.5-2.1 2.5 1 17-.9 16.9l.1 8.4-.2-.2c-.1 5.4.3 7.3.8 9.2-.1 1.2-.3.3-.4.2-.4 7.9-.3 8.6.7 15.2l-.6.7c.4 1.8-1 11.4-.3 19.1-.1-.1-.2-.2-.3-.8.7 8.7-1.8 20.8.6 23.9l.6 5.7c.2-7.4 1 1.1 1.4-1.9.1 2.9-.7 7.5-.8 3.9l.1-.6c-1.2-1.3-.4 9.2-1.2 9 .1 14.6-.6 28.8-.7 42.4l.9-1.6-.1 4.8c-.2 1.2-.7 1.7-.7-1.7-.5 1.8.4 5.7.6 5.8-.4 6.6-1.1-2.6-1.1-.6l.1 2.8.1-.6c.4 2.2.8 2.4.7 6.5-.2 2.6-.6 1.3-.6 2.3 0 0-.1.1-.1.3v1.4l-.1 9.3h.1-.1c.2-1.5.5-2.9.7-4.2.1 1.1.2 2.2.2 3.1 1.1-.3 1.9-.5 2.2-.6.3-.1 0-.2-.9-.3.9.1 3.4-.2 6.5-.8.6-.1 1.3-.2 1.9-.4.6-.1 1.2-.2 1.9-.4 1.3-.3 2.6-.6 3.9-.8 5.3-1.2 10.3-2.4 11.6-2.5 3.5-1.3 7.1-2.1 11.6-3-1.1.1-2-.6 1.9-1.3-1 2 7.2-.8 10.5-.3-2.9-.2 10.9-2.6 6.3-2.8 3.2-.6.3.6 2.8.4 7.5-2.3 16.9-3.3 26.2-5.6.1-.3-1.6-.2.4-1h5.2c1.8-.5 1.4-1.6 5-1.6-.5-.1-1.3-.2-.1-.5 18.7-3 37.5-9.2 56.6-11.4-2.6.1-.9-.3 1-.7-1.3.2-.1-.5-.4-.8l8-.9c1.2-1.1 8.4-1.9 9-2.9l-2.4.7c2.5-1 .8-1.2-1.1-1.5zM477 282.7v-.1c.2-2.4.2-1.5 0 .1zM298.8 485.5l.2-.9c.1 2.1 0 1.5-.2.9zm175.3-258c.3 1.1.5 2.4.6 3.5-.2-.2-.4.3-.6.7v-4.2zm0 106.9V329c.2 1.3.3 3.4 0 5.4zm0-6.5v-.4.4zm2.1-45.4c-.7 3.2-1.4.1-1.9.9-.3-4.2.4-6.5.4-9.4l-.3 3.5c-.2-1.3-.4-4.2-.2-5.7-.1.3-.1.8-.2 1.4v-20c.7 1.9 1.3 5.4 1.6 9.7.3 5.2-.7 2.3-.5 3.2-.2 9.7 1.9 8.3 1.1 16.4zm-1.3-80.4c.2.1.4.2.5.4.2.1.3.3.4.5-.1.5-.9 7.7-1.4 9.4-.1.3-.2.5-.3.5v-5.1l1-.1-1-.6v-5c.2-.1.5-.1.8 0zm-18.5-3.4l4.4-1.5c-1.1.7-3.1 1.9-5.3 3.1L448 202c2-1.3 4.4-2.6 7.1-3.4l1.3.1zm-40.8 8.9l-.3.3c0-.2-.5-.1.3-.3zm-11 2.9c-.2.3 0 .7.3 1.1l-3.5.8 3.2-1.9zm-73.9 16.6c.7 0 .2.4-.6.9.4-.2.7-.3 1-.4.8-.1 1.2 0 1.2.2l-2.8.6c.2-.1.4-.3.6-.4-.4.2-.8.3-1.3.5l-1.2.3c-1 0-1.8-.1-2.3 0l5.4-1.7z" fill="url(#SVGID_49_)"/><linearGradient id="SVGID_50_" gradientUnits="userSpaceOnUse" x1="477.456" y1="311.435" x2="477.803" y2="311.435"><stop offset="0" stop-color="#96a5ed"/><stop offset="1" stop-color="#9675ed"/></linearGradient><path d="M477.8 312.8l-.1-2.8c0 1.5-.1 2-.2 2.8.1 0 .2-.5.3 0z" fill="url(#SVGID_50_)"/><linearGradient id="SVGID_51_" gradientUnits="userSpaceOnUse" x1="477.803" y1="312.978" x2="477.819" y2="312.978"><stop offset="0" stop-color="#96a5ed"/><stop offset="1" stop-color="#9675ed"/></linearGradient><path d="M477.8 312.8v0z" fill="url(#SVGID_51_)"/><linearGradient id="SVGID_52_" gradientUnits="userSpaceOnUse" x1="475.412" y1="318.183" x2="476.006" y2="318.183"><stop offset="0" stop-color="#96a5ed"/><stop offset="1" stop-color="#9675ed"/></linearGradient><path d="M475.8 316c-.5.2-.3 2.2-.2 4.4v-.4c.6.6.4-1.7.2-4z" fill="url(#SVGID_52_)"/><linearGradient id="SVGID_53_" gradientUnits="userSpaceOnUse" x1="475.538" y1="321.886" x2="475.694" y2="321.886"><stop offset="0" stop-color="#96a5ed"/><stop offset="1" stop-color="#9675ed"/></linearGradient><path d="M475.5 320.9v2c.3.2.1-.8 0-2z" fill="url(#SVGID_53_)"/><linearGradient id="SVGID_54_" gradientUnits="userSpaceOnUse" x1="477.06" y1="293.307" x2="477.74" y2="293.307"><stop offset="0" stop-color="#96a5ed"/><stop offset="1" stop-color="#9675ed"/></linearGradient><path d="M477.1 293.6c-.1 1 .7.6.5 1.2.6 1.2-.8-6.8-.5-1.2z" fill="url(#SVGID_54_)"/><linearGradient id="SVGID_55_" gradientUnits="userSpaceOnUse" x1="474.056" y1="316.764" x2="474.697" y2="316.764"><stop offset="0" stop-color="#96a5ed"/><stop offset="1" stop-color="#9675ed"/></linearGradient><path fill="url(#SVGID_55_)" d="M474.1 317.8l.6-.8-.5-1.2z"/><linearGradient id="SVGID_56_" gradientUnits="userSpaceOnUse" x1="474.349" y1="302.829" x2="474.63" y2="302.829"><stop offset="0" stop-color="#96a5ed"/><stop offset="1" stop-color="#9675ed"/></linearGradient><path d="M474.5 300.6l-.2 3.5c.1-.1.2.4.2.9.1-2.1.2-4.4 0-4.4z" fill="url(#SVGID_56_)"/><linearGradient id="SVGID_57_" gradientUnits="userSpaceOnUse" x1="474.564" y1="306.422" x2="474.674" y2="306.422"><stop offset="0" stop-color="#96a5ed"/><stop offset="1" stop-color="#9675ed"/></linearGradient><path d="M474.7 307.8c0-.6 0-1.9-.1-2.8 0 1.1 0 2.2.1 2.8z" fill="url(#SVGID_57_)"/><linearGradient id="SVGID_58_" gradientUnits="userSpaceOnUse" x1="474.173" y1="261.505" x2="474.651" y2="261.505"><stop offset="0" stop-color="#96a5ed"/><stop offset="1" stop-color="#9675ed"/></linearGradient><path d="M474.2 261.6c.2.9.2 2.3.5 1.7l-.2-3.8c-.3-.3-.4.7-.3 2.1z" fill="url(#SVGID_58_)"/><linearGradient id="SVGID_59_" gradientUnits="userSpaceOnUse" x1="466.978" y1="458.697" x2="469.851" y2="458.697"><stop offset="0" stop-color="#96a5ed"/><stop offset="1" stop-color="#9675ed"/></linearGradient><path fill="url(#SVGID_59_)" d="M467 458.9l2.9-.4h-2z"/><linearGradient id="SVGID_60_" gradientUnits="userSpaceOnUse" x1="472.17" y1="456.853" x2="474.54" y2="456.853"><stop offset="0" stop-color="#96a5ed"/><stop offset="1" stop-color="#9675ed"/></linearGradient><path d="M473 457.4l1.5-1.1c-.6.2-1.8.5-2.4.4l.9.7z" fill="url(#SVGID_60_)"/><path class="st3" d="M314.1 230c-.7-.1-2.8.6-3.3.8-2.2.5-3.4.7-4.6 1-.6.1-1.3.3-2.1.5-1 .2-2.1.5-3.5.8l1.7-.2c-.6.5-1.2.8-2.1 1 0 .8 0 1.7-.1 2.7 0 .5 0 1.1-.1 1.7v1.7l-.1-.1c-.7 8.2.3 3.5-.5 11.6l.6-.4c1.3.8-.8 7.2-.3 11.9l.4-1.7c.5 2.6-1.8 7.2-2 9.7-.1.6-.2-.9-.3-1.7-.8 6.7.8.9 1 5.9-.4.9-1.1-1.2-1.2 2.2-.4 1.7 1.4 9.8.6 14.4.3-1 .7-2 .9.3.1 3.6-1.3 9.7-.2 12.9-.1.5-.2.6-.3.6.3 2.7.5 8.9 1 10.5-2.1 2.5 1 17-.9 16.9l.1 8.4-.2-.2c-.1 5.4.3 7.3.8 9.2-.1 1.2-.3.3-.4.2-.4 7.9-.3 8.6.7 15.2l-.6.7c.4 1.8-1 11.4-.3 19.1-.1-.1-.2-.2-.3-.8.7 8.7-1.8 20.8.6 23.9l.6 5.7c.2-7.4 1 1.1 1.4-1.9.1 2.9-.7 7.5-.8 3.9l.1-.6c-1.2-1.3-.4 9.2-1.2 9 .1 14.6-.6 28.8-.7 42.4l.9-1.6-.1 4.8c-.2 1.2-.7 1.7-.7-1.7-.5 1.8.4 5.7.6 5.8-.4 6.6-1.1-2.6-1.1-.6l.1 2.8.1-.6c.4 2.2.8 2.4.7 6.5-.2 2.6-.6 1.3-.6 2.3 0 0-.1.1-.1.3v1.4l-.1 9.3h.1-.1c.2-1.5.5-2.9.7-4.2.1 1.1.2 2.2.2 3.1 1.1-.3 1.9-.5 2.2-.6.3-.1 0-.2-.9-.3.9.1 3.4-.2 6.5-.8.6-.1 1.3-.2 1.9-.4.6-.1 1.2-.2 1.9-.4 1.3-.3 2.6-.6 3.9-.8 2.8-.6 5.6-1.3 7.7-1.7V227.7c-3.3.7-8.2 1.8-8.2 2.3zm-15.3 255.5l.2-.9c.1 2.1 0 1.5-.2.9z"/><linearGradient id="SVGID_61_" gradientUnits="userSpaceOnUse" x1="304.921" y1="135.17" x2="305.062" y2="135.17"><stop offset="0" stop-color="#96a5ed"/><stop offset="1" stop-color="#9675ed"/></linearGradient><path d="M305.1 135.3v-.3c-.3.1-.2.2 0 .3z" fill="url(#SVGID_61_)"/><linearGradient id="SVGID_62_" gradientUnits="userSpaceOnUse" x1="314.351" y1="132.882" x2="314.485" y2="132.882"><stop offset="0" stop-color="#96a5ed"/><stop offset="1" stop-color="#9675ed"/></linearGradient><path d="M314.4 133h.1c0-.1 0-.2-.1-.4v.4z" fill="url(#SVGID_62_)"/><linearGradient id="SVGID_63_" gradientUnits="userSpaceOnUse" x1="300.586" y1="135.417" x2="301.555" y2="135.417"><stop offset="0" stop-color="#96a5ed"/><stop offset="1" stop-color="#9675ed"/></linearGradient><path d="M300.6 135.2c.3.2.7.3 1 .4 0-.2-.4-.4-1-.4z" fill="url(#SVGID_63_)"/><linearGradient id="SVGID_64_" gradientUnits="userSpaceOnUse" x1="317.22" y1="131.956" x2="318.038" y2="131.956"><stop offset="0" stop-color="#96a5ed"/><stop offset="1" stop-color="#9675ed"/></linearGradient><path d="M317.2 132c.3 0 .5-.1.8-.1-.2 0-.5 0-.8.1z" fill="url(#SVGID_64_)"/><linearGradient id="SVGID_65_" gradientUnits="userSpaceOnUse" x1="279.445" y1="148.041" x2="336.546" y2="148.041"><stop offset="0" stop-color="#96a5ed"/><stop offset="1" stop-color="#9675ed"/></linearGradient><path d="M331.4 134.6l1-1.3h.1c1.3-2.1 2.3-4.1 4.1-6.7-.1-.2 0-.5-.3-.6.3.4-1.4 1.3-1.9 1.8.9-1.5-2-.6-4.4.2-.3.4-.7.7-.7.9-.2-.1-.5-.2-.7-.3l-.1.4c-1.2.5-2.2.5-3.2.5s-2 .1-2.9.7c.9-.1.8.2.7.7-1.6.4-3 .9-5 1 .1 0 .2.1.2.2-.2.1-.5.2-.8.2-.3 0-.7 0-.8-.1l.1.6c-.7-.1-1.4.5-2.3.2-.1.8-2-.1-2.7.4-.4-.1.9.5 0 .7-.5-1.3-1.2.3-1.7-1.1l-.6.8-.4-.7c-.3 1.6-1.2-.3-2.1.4.1.1.2.2.2.3-.4-.1-1.1.1-.7-.5-.5.2-2.5.4-1.4.9-.2-.4.7-.3 1-.2.1.6-.7.6-.7 1.4 0-.1-.2-.1-.3-.2v.4c-.6-.2-1.1-.1-1.6 0-.2 0-.5.1-.7 0-.3 0-.8 0-1.1-.1 0 .2-.3.4-.9.6l-.4-.7-2 .6c.6.2 1.1.5 1.6.7-.9.4-1.9.4-3.1.4-1.1 0-2.4 0-3.4.2.5.6-.5.7-1.7.9-1.2.2-2.7.5-2.5 1l1.9-.2c-1.6.3-2.2.7-2.8 1-.6.3-1.1.6-2.9.8.6-.4 1.1-.6 1.6-.9.5-.3.9-.6 1.9-1.5-1.4.7-3.2 1.1-5.1 1.4-.9.2-1.9.4-2.7.6-.8.2-1.5.5-1.8.8 1 0 2.1-.1 2.3.2-.6 0-1 0-1.4.1.6.5 2.3 1.2.5.9 1.7.7 3.6.9 4.4 1.2.3.6.7 1.2 1.2 1.9l.2-.1c2.3.8 3.8 1.5 5 2.3.6.4 1.1.8 1.6 1.2.5.4 1 .8 1.4 1.3.9.9 1.9 1.9 3 2.9l.8.7c.1.1.3.2.4.4l.9.6.2-.4.2 1c-.2-.7.5-.3.8-.5.3.6.6 1.3.8 2 .3-.3.8-1 .3-1.2.8.1.8 1.3 1.2 1.8l.1-.4.3.7.4-.4c.6.9 1.9 1.4 1.6 2.3l.5-.7.3 1.3v-.9c1 .8 1.9 2.6 2 2.8l.2-.3c.3 0 .2.3.3.5l.2-.4c1.2 1.5 2.4 1.2 3.3 3.2.5.4-.1-.4.1-.5.5 0 .7.8.6 1.1.5-.6-.3-1.2.6-1 0 .6.3-.7.8.1l-.5.9c.4.3.7-.4 1.1.3.2.9-1.5-.2-.8 1 .5.5 2.7-.2 3.1 1.3 1.1.7.9-1.4 1.6.1v-.6c.2.4.5.7.7 1v0c.1.1.2.3.3.4v.6c.1 0 .2-.1.3-.2l.1.1v-.3c.2-.3.2-.8.1-1.3.4.1.8.2.8-.7l.3.5c0-.1.1-.1.1-.2l.5.6c-.1-.5-.6-1.5.3-1.4l.8.8c.3-.5.7-.3 1-.6-.3-1.1-.6-2.2-1-3.3-.2.3-.1.8-.5.8-.7-.5.1-.9-.8-1.3l-.1.5c.1-.1.1-.3.2-.2.4.1.2.4 0 .5-.3 0-.4-.1-.5-.3.5-.8 1-1.1.7-2.2l-.3.3c-.6-1.1.6-2 .7-2.9.2.3.5.3.6.2-.5-2 .3-3.8.3-6.1l1-.5-.6-.2c0-1 .8-.2 1-.6-.1.1-.1 0-.3.1 1-1.1-.4-.8-.1-1.5-.8.2-.5 1.3-1.4.8 1-1.1 1.1-3.1 2.7-2.8 0-1.2.4-2.4 1-3.5.1-.3.3-.6.4-.8.2-.3.3-.5.5-1 .4-.9.8-1.7 1.2-2.5-.1-.4-.3.3-.5.1.7-.6 1-1.6 1.2-2.4.2-.8.3-1.4.8-1.6 0-.5-.7-.4-1-.4.9-.9 1.7-2 2.3-3.1l-.7.9.3.4zm3.6-6.3l.9-1.1c-.3.7-.7 1-.9 1.1l-.8.9c-.1-.5.3-.5.8-.9zm-2.4.9c.4-.3.8-.6 1.2-.7.2 0 .2.1.2.3-.2.2-.3.4-.5.6 0-.1.1-.2.1-.3-.1 0-.2 0-.2-.1h-.2c-.5.2-.7.2-.6.2zm-3 2.2c.2.2-.5.7-.8.9.1-.2.3-.5.8-.9zm-2.8 7.3c-.2.1-.3.2-.4.4.2-.4.3-.8.5-1.1.1-.1-.1.5-.1.7zm-33.9 4.3h.5c-.1 0-.1 0-.2.1l-.3-.1zm8.6-3.1c.3.3.6.4.9.4-.2.1-.4.1-.5.2-.2-.2-.3-.4-.4-.6zm24.2-7.7l-.9 1c-.6-.3-.3-.8-.6-1.6 1.5-.9.9.6.3 1.2.3.4.7-.4 1.2-.6zm1.4-.2c0 .1-.1.2-.2.3 0-.2.1-.2.2-.3zm-5.9 31.1s-.1 0-.1.1v-1c-.2.4-.3.9-.4 1.2 0-.7.1-1.4.1-2.1.1-.1.3-.2.7-.1-.3.3.4 1.5-.3 1.9zm.7-9.4c.3-.3.8-.5.6-1-.1 0-.3.1-.4.1 0-.2.1-.5.1-.7.1 0 .2-.1.5-.3 0 1.6-.6 3.2-1.3 4.7.2-.9.3-1.8.5-2.8zm3.2-23.2c.2-.2.4-.3.6-.3l-.6.3c-.9.7-1.5 2-1.8.9l1.8-.9zm-17 8c-.3.1-.5.2-.8.2 0-.2-.1-.4-.1-.7.3.3.6.5.9.5zm-4.4.3c.3-.1.4-.2.5.3.2.2.4-.2.6 0-.4.6-.6-.2-1.1-.3-.1 0-.2 0-.3.1.1-.1.2-.1.3-.1zm-2.2-2.6c.1-.1.3-.1.5-.1l-.5.1c-.4.2-.5.6-.8.2l.8-.2zm-4.4 1.3c.7.2 2-.1 2.4.3-.7-.1-1 .2-1.2.5-.2.2-.3.4-.9 0 .4 0 .6 0 .9-.1-.4-.3-1.6-.5-1.2-.7zm-5.8 3.7l1.1.2-.1.1 1.4-.1c0 .3-.6.4-1.5.4s-1.9-.1-2.4 0c.6-.2 4.1 0 1.5-.6zm-1.6 4.9c-2.3-.4-1.4-.8-1.1-1.1v-.1.1c0 .5 2.2.6 1.1 1.1zm3.9.7l-.6-.2c-1.3-.1.1.5-.5.6-.9-.3-1.6-1.2-.9-.9.8.3 1 .2 1.2.1.2-.1.4-.3.9-.1l-.6-.3c1.9.4-.5.4.5.8zm9.3 4.4c.2 0 .2-.3.1-.6.2.2.5.4.7.6-.1.2-.3-.1-.8 0zm6 8.7c-.2.1-.6-.2-.7-.5.7 0 .6.2.7.5zm-.1 1.6c-.8-.1 0-.8-.3-1.3.9.2 0 .9.3 1.3zm8.1 3.9l-.1-.4c0-.1.1-.2.1-.2.1.2.2.3.4.5 0 .1-.2.2-.4.1zm5.4-6.4l-.2-.3c-.3.5-.7.8-1 .9v-.5h.1c.1-.8.5-2 1.4-2.4.5.6-.9 1.2-.6 1.4.3-.2.4-.8.9-.7.4.9-.5 1.1-.6 1.6zm.1-3.7l.2-.6.6.4-.8.2zm1.4-7.2l-.1-.6.3.2-.2.4zm.2-2.7c.2-.6.4-1.2.6-1.7.1-.1.2-.1.3-.2.6.8-.2 1.3-.9 1.9zm2.3-3.4c-.4.4-.5.7.7.7-.2.2-.6.5-.9.7-.3.1-.6.2-.7 0 .4-.7.8-2.4.5-2.9-.1 0-.2-.1-.2-.2.1 0 .1.1.2.2.1 0 .4 0 .5-.1.1-.1.2-.2.4-.3 0 .1-.2.2-.4.3-.3.3-.4.8-.2 1 .4-.1.5-.6.8-.8.4.4-.3 1-.7 1.4z" fill="url(#SVGID_65_)"/><linearGradient id="SVGID_66_" gradientUnits="userSpaceOnUse" x1="325.225" y1="152.305" x2="325.28" y2="152.305"><stop offset="0" stop-color="#96a5ed"/><stop offset="1" stop-color="#9675ed"/></linearGradient><path d="M325.3 152.2c0 .1 0 .1-.1.1 0 0 .1 0 .1-.1z" fill="url(#SVGID_66_)"/><linearGradient id="SVGID_67_" gradientUnits="userSpaceOnUse" x1="332.24" y1="133.466" x2="332.546" y2="133.466"><stop offset="0" stop-color="#96a5ed"/><stop offset="1" stop-color="#9675ed"/></linearGradient><path d="M332.2 133.7l.3-.4h-.1c0 .1-.1.2-.2.4z" fill="url(#SVGID_67_)"/><path class="st3" d="M298.8 485.5c.2.6.3 1.2.2-.9l-.2.9zM298.4 304.3c.1.9.2 1.3.3 1.3 0-1-.1-1.5-.3-1.3z"/><path class="st1" d="M364.1 321.4l53.6-11.9v21.6L364 343.3z"/></svg>