<svg xmlns="http://www.w3.org/2000/svg" xmlns:xlink="http://www.w3.org/1999/xlink" viewBox="0 0 509.11 511.38"><defs><linearGradient id="A" x1="508.99" x2="510.55" y1="256.41" y2="256.41" gradientUnits="userSpaceOnUse"><stop stop-color="#4ad0ff" offset="0"/><stop stop-color="#4aabff" offset="1"/></linearGradient><linearGradient id="B" x1="499.68" x2="502.01" y1="214.84" y2="214.84" xlink:href="#A" /><linearGradient id="C" x1="494.39" x2="501.35" y1="193.35" y2="193.35" xlink:href="#A" /><linearGradient id="D" x1="491.81" x2="494.05" y1="164.12" y2="164.12" xlink:href="#A" /><linearGradient id="E" x1="493.94" x2="494.57" y1="165.83" y2="165.83" xlink:href="#A" /><linearGradient id="F" x1="486.29" x2="489.34" y1="150.09" y2="150.09" xlink:href="#A" /><linearGradient id="G" x1="482.95" x2="484.4" y1="146.76" y2="146.76" xlink:href="#A" /><linearGradient id="H" x1="484.28" x2="487.35" y1="150.27" y2="150.27" xlink:href="#A" /><linearGradient id="I" x1="487.45" x2="490.91" y1="159.54" y2="159.54" xlink:href="#A" /><linearGradient id="J" x1="491.72" x2="493.82" y1="184.34" y2="184.34" xlink:href="#A" /><linearGradient id="K" x1="471.84" x2="474.25" y1="123.61" y2="123.61" xlink:href="#A" /><linearGradient id="L" x1="468.1" x2="471.84" y1="121.48" y2="121.48" xlink:href="#A" /><linearGradient id="M" x1="479.44" x2="485.72" y1="148.96" y2="148.96" xlink:href="#A" /><linearGradient id="N" x1="458.18" x2="462.97" y1="103.01" y2="103.01" xlink:href="#A" /><linearGradient id="O" x1="444.21" x2="452.23" y1="87.57" y2="87.57" xlink:href="#A" /><linearGradient id="P" x1="439.97" x2="444.21" y1="81.72" y2="81.72" xlink:href="#A" /><linearGradient id="Q" x1="461.54" x2="462.98" y1="108.98" y2="108.98" xlink:href="#A" /><linearGradient id="R" x1="459.01" x2="461.72" y1="107.45" y2="107.45" xlink:href="#A" /><linearGradient id="S" x1="462.98" x2="463.29" y1="111.41" y2="111.41" xlink:href="#A" /><linearGradient id="T" x1="469.73" x2="474.51" y1="130.24" y2="130.24" xlink:href="#A" /><linearGradient id="U" x1="463.47" x2="467.74" y1="117.4" y2="117.4" xlink:href="#A" /><linearGradient id="V" x1="459.99" x2="462.02" y1="113.47" y2="113.47" xlink:href="#A" /><linearGradient id="W" x1="439.64" x2="447.27" y1="86.84" y2="86.84" xlink:href="#A" /><linearGradient id="X" x1="453.37" x2="453.79" y1="98.49" y2="98.49" xlink:href="#A" /><linearGradient id="Y" x1="416.91" x2="417.37" y1="61.61" y2="61.61" xlink:href="#A" /><linearGradient id="Z" x1="445.96" x2="450.38" y1="92.96" y2="92.96" xlink:href="#A" /><linearGradient id="a" x1="433.37" x2="435.99" y1="76.26" y2="76.26" xlink:href="#A" /><linearGradient id="b" x1="453.11" x2="453.42" y1="97.3" y2="97.3" xlink:href="#A" /><linearGradient id="c" x1="450.38" x2="453.37" y1="96.73" y2="96.73" xlink:href="#A" /><linearGradient id="d" x1="417.37" x2="427.35" y1="66.3" y2="66.3" xlink:href="#A" /><linearGradient id="e" x1="427.35" x2="439.64" y1="77.08" y2="77.08" xlink:href="#A" /><linearGradient id="f" x1="464.35" x2="464.86" y1="126.82" y2="126.82" xlink:href="#A" /><linearGradient id="g" x1="462.57" x2="467.36" y1="122.89" y2="122.89" xlink:href="#A" /><linearGradient id="h" x1="462.71" x2="462.82" y1="116.66" y2="116.66" xlink:href="#A" /><linearGradient id="i" x1="443.28" x2="449.84" y1="96.71" y2="96.71" xlink:href="#A" /><linearGradient id="j" x1="412.8" x2="418.42" y1="59.02" y2="59.02" xlink:href="#A" /><linearGradient id="k" x1="404.62" x2="407.75" y1="51.51" y2="51.51" xlink:href="#A" /><linearGradient id="l" x1="110.95" x2="118.91" y1="41.88" y2="41.88" xlink:href="#A" /><linearGradient id="m" x1="281.19" x2="289.85" y1="4" y2="4" xlink:href="#A" /><linearGradient id="n" x1="30.14" x2="32.08" y1="381.35" y2="381.35" xlink:href="#A" /><linearGradient id="o" x1="270.99" x2="281.19" y1="2.3" y2="2.3" xlink:href="#A" /><linearGradient id="p" x1="504.57" x2="505.07" y1="293.83" y2="293.83" xlink:href="#A" /><linearGradient id="q" x1="364.06" x2="365.25" y1="26.33" y2="26.33" xlink:href="#A" /><linearGradient id="r" x1="371.68" x2="372.92" y1="36.78" y2="36.78" xlink:href="#A" /><linearGradient id="s" x1="364.51" x2="367.34" y1="27.48" y2="27.48" xlink:href="#A" /><linearGradient id="t" x1="367.16" x2="369.33" y1="28.19" y2="28.19" xlink:href="#A" /><linearGradient id="u" x1="360.67" x2="364.51" y1="25.58" y2="25.58" xlink:href="#A" /><linearGradient id="v" x1="1.45" x2="506.26" y1="256" y2="256" xlink:href="#A" /><linearGradient id="w" x1="383.32" x2="387.88" y1="37.58" y2="37.58" xlink:href="#A" /><linearGradient id="x" x1="387.88" x2="388.47" y1="38.49" y2="38.49" xlink:href="#A" /><linearGradient id="y" x1="390.14" x2="396.42" y1="48.28" y2="48.28" xlink:href="#A" /><linearGradient id="z" x1="397.19" x2="400.36" y1="52.27" y2="52.27" xlink:href="#A" /><linearGradient id="AA" x1="352.3" x2="358.54" y1="22.77" y2="22.77" xlink:href="#A" /><linearGradient id="AB" x1="364.48" x2="371.57" y1="36.46" y2="36.46" xlink:href="#A" /><linearGradient id="AC" x1="371.57" x2="376.07" y1="39.37" y2="39.37" xlink:href="#A" /><linearGradient id="AD" x1="294.31" x2="301.47" y1="12.85" y2="12.85" xlink:href="#A" /><linearGradient id="AE" x1="508.4" x2="509.58" y1="269.62" y2="269.62" xlink:href="#A" /><linearGradient id="AF" x1="506.61" x2="508.71" y1="259.81" y2="259.81" xlink:href="#A" /></defs><path transform="translate(-1.45 -.31)" d="M509 255.73c-.06 2.37 1.26 1.52 1.5 1.88-.35-4-1.8-1.77-1.5-1.88z" fill="url(#A)"/><path d="M501.35 216.95l.66.58-2.33-5.38z" fill="url(#B)"/><g transform="translate(-1.45 -.31)"><path d="M496.2 190.58a42.37 42.37 0 0 1 3 10.47l-.27 1.15 2.45 2.43-1.73-6s-1.23-4.16-2-6.14a74 74 0 0 1-3.09-10.45c-.56 1.96.37 5.1 1.64 8.54z" fill="url(#C)"/><path d="M494 165.6l-1.33-3.5c-.38 1.46-2.27-3.67 1.42 4.37-.1-.45-.1-.6-.1-.86z" fill="url(#D)"/><path d="M494 165.6c1.5 3.6-.23-2.63 0 0z" fill="url(#E)"/><path d="M489.34 153.63c0-1.2-1.74-5.4-.7-4-2.57-4.62-2.6-3.4-2.14-.3z" fill="url(#F)"/><path d="M483 145.65l1.45 2.22c-.04-.5-.24-1.2-1.45-2.22z" fill="url(#G)"/><path d="M485.7 150.1c-.8-.13.24.6 1.66 2.57l-3-4.8c.02.83-.62 1.2 1.34 2.23z" fill="url(#H)"/><path d="M489.17 159.35c0 .7-.33.44-1.72-1.72 2 4.4 3.15 6.17 3.4 5.68a5.06 5.06 0 0 0-.39-2.34 31.54 31.54 0 0 0-2.14-5.28 22.77 22.77 0 0 1 .84 3.66z" fill="url(#I)"/><path d="M493.82 187.66a20.49 20.49 0 0 1-1.07-4c-.34-1.53-.74-2.8-1-2.6l.48 3.74z" fill="url(#J)"/><path d="M472.34 120.75c-.58 0-.17 2.14-.5 2.78.86.94 1.63 1.94 2.4 2.94-.62-1.88-2.4-5.1-1.9-5.72z" fill="url(#K)"/><path d="m471.84 123.53-3.74-4.28c2.62 4.26 3.45 4.83 3.74 4.28z" fill="url(#L)"/><path d="M481.7 147.8l1.3 1.9 2.68 3.8c-2-3.1-4-6.17-6.28-9.1l.82 1.56z" fill="url(#M)"/><path d="M463 104.8l-2.38-1.8-2.44-1.74 2 1.63 2.82 1.9z" fill="url(#N)"/><path d="M451.08 91.75c2.27 1.2-.93-3.5 1.15-2a46.43 46.43 0 0 0-8-6.62 33.69 33.69 0 0 1 6.85 8.62z" fill="url(#O)"/><path d="M440 80.25c1.26 1 2.7 1.92 4.24 2.93a28.75 28.75 0 0 0-4.24-2.93z" fill="url(#P)"/><path d="M461.7 109.37l1.27 1.8c0-.52.13-1.64-1.44-4.4z" fill="url(#Q)"/><path d="M461.72 109.46v-.1l-2.7-3.93z" fill="url(#R)"/><path d="M463.3 111.64l-.3-.46c.02.25.02.38.3.46z" fill="url(#S)"/><path d="M470.4 130.88c2 1.55.67-2.06 4.12 1.64-2.3-2.52-6.38-7.92-4.12-1.64z" fill="url(#T)"/><path d="M467.74 119.65l-4.27-4.8 3 5.13c.2-.3.07-1.5 1.27-.32z" fill="url(#U)"/></g><path d="M460 112.42l2.03 2.1-1.18-1.86z" fill="url(#V)"/><g transform="translate(-1.45 -.31)"><path d="M446.2 90.73c.63.07 2.18.7-.25-2a26.35 26.35 0 0 1-3.08-2.7q-1.55-1.47-3.23-3.15l3.3 4 3.27 3.85z" fill="url(#W)"/><path d="M453.8 98.66l-.42-.4c.13.34.28.6.42.4z" fill="url(#X)"/><path d="M416.9 61.35l.22.52a1 1 0 0 1 .24-.1z" fill="url(#Y)"/><path d="M446.38 91.33a13.13 13.13 0 0 0 4 3.87l-4.18-4.47c-.28-.03-.4.02.18.6z" fill="url(#Z)"/><path d="M433.37 74.42L436 78.1c-.56-1.28-2-3.6-2.62-3.68z" fill="url(#a)"/><path d="M453.13 97.34l.3.26c-.3-.84-.34-.67-.3-.26z" fill="url(#b)"/><path d="M453.37 98.26a4.65 4.65 0 0 1-.24-.92 23.28 23.28 0 0 0-2.75-2.14l3 3.06z" fill="url(#c)"/><path d="M425.5 69.33l1.86 1.55a63.16 63.16 0 0 1-5.09-6.88c-3.47-2.18-4.4-2.37-4.9-2.22 2.95 2.66 6 5.23 8.85 8z" fill="url(#d)"/><path d="M435.15 78.43c-2.24-.46-6.9-3.92-5.36-.45 2.6 2.36 3.55 3.14 4.44 3.5a10.33 10.33 0 0 1 3.19 1.8c-8.1-8 2.82 1.84-2.32-4.67l4.54 4.22q-2-2.42-3.65-4.73l.12.25c.22.48.26.67-.06.2a.86.86 0 0 1-.18-.16 1.3 1.3 0 0 1-.73 0c-2.1-2.6-.1-.63.73 0h.24l-4.35-3.78-4.4-3.7c1.65 1.8 3.9 3.78 7.8 7.5z" fill="url(#e)"/><path d="M464.78 127.26c-.08-.36 0-.4.08-.47-.53-.52-.78-.7-.08.47z" fill="url(#f)"/><path d="M466.6 126.4l-.6-.58a43.37 43.37 0 0 1-3.25-8.92 16.2 16.2 0 0 0 .25 6 8.88 8.88 0 0 1 2.75 3.17c.9 2.15-.57.34-.9.68 1.2 1.16 3.8 4.24 1.73-.35z" fill="url(#g)"/><path d="M462.75 116.9c0-.15 0-.3.07-.46-.13-.1-.14.07-.07.46z" fill="url(#h)"/><path d="M445.5 97.66l.4-.65c3.2 4.3 3.1 2.9 3.95 3-2.06-2.37-4.34-4.56-6.56-6.8z" fill="url(#i)"/><path d="M418.42 59.82c-1.82-.72-3.76-1.27-5.62-1.9l3.72 2.18z" fill="url(#j)"/><path d="M407.75 51.8l-3.13-1.32 2 2z" fill="url(#k)"/><path d="M111.14 43.2l1.83.48a27.29 27.29 0 0 1 5.94-3.57c-4.07 1.2-8.98 2.18-7.77 3.1z" fill="url(#l)"/><path d="M289.85 4.8a70.19 70.19 0 0 0-8.66-1.94c4.16 1.33 7.38 2.95 8.66 1.94z" fill="url(#m)"/><path d="M30.14 380.57c1.08 1.37 1.7 1.86 1.94 1.67-1.08-1.4-1.82-2.15-1.94-1.67z" fill="url(#n)"/><path d="M281.2 2.87A21 21 0 0 0 271 2c.6.2 1.22.3 1.84.47a51.22 51.22 0 0 1 8.35.4z" fill="url(#o)"/><path d="M504.57 296.2a27.47 27.47 0 0 0 .5-4.77l-.5 4.77z" fill="url(#p)"/><path d="M364.06 26.1c2.43 1.06.46 0 0 0z" fill="url(#q)"/><path d="M371.68 36.88a1.72 1.72 0 0 1 1.24-.12c-.56-.1-1.03-.13-1.24.12z" fill="url(#r)"/><path d="M367.34 28.44a32.89 32.89 0 0 0-2.83-1.91l2.83 1.9z" fill="url(#s)"/><path d="M367.16 27.6l2 1.18c.4-.06.2-.32-2-1.18z" fill="url(#t)"/><path d="M364.06 26.1l-3.4-1.46 3.84 1.9c-.43-.3-.6-.46-.45-.44z" fill="url(#u)"/><path d="M505.84 272.86a35.83 35.83 0 0 0 .09-5.22c-.1-1.5-.32-2.6-.82-3l.24 4.64c-1.12-3.13-2.46-1-4 1.67l-.46.78c.26-4.68.4-9.4.4-14.13a247.1 247.1 0 0 0-77.79-180.25l.12.08.33-.67c-2.17-2-4-3.2-3.06-1.84l-5.7-5.08c4.17 2 4.13-3.14 1.94-8-.5.34-.75.6-5.84-2.4 1.3 1.7 8.85 9.54 4.4 7.2-3.08-2.3-4.26-3.3-4.93-4.18a25.72 25.72 0 0 0-2.12-3c.76 1.6-1.52.54-4-.54-1.86-.86-3.9-1.6-4.77-1.27q-4.64-3.4-9.43-6.6L390.2 49l-2.55-.1 2.68 2.1a247.8 247.8 0 0 0-29.74-16.91c.33-.06.37-.25-.06-.67l-4-1.54c-3-2.9 8.16 1.58 3.5-1.24a85.48 85.48 0 0 1 9 2.79c1.6.6 3.25 1.26 4.92 2.07a48.31 48.31 0 0 1 5 3.09l.34 2.47c.14-.58-4-3.7-6.32-4.3 1.7.45 4.08 2.6 6.6 4.57a29.47 29.47 0 0 0 3.79 2.6 6.69 6.69 0 0 0 3.55 1.15c-1.37-1.4-2.7-2.87-4.16-4.18 2.8 1 5.9 2.23 9.15 3.6a40.52 40.52 0 0 1 4.81 2.38 35.35 35.35 0 0 1 4.45 3.18c-1.6-3.5-1.47-.8-4.5-5.67 2.26 4.77-15.83-10.25-11.24-3.83a19.23 19.23 0 0 0-5.58-5.33 52.51 52.51 0 0 1-7-5.58c-.1.68 1.65 2.24-3.72-.87a7.85 7.85 0 0 1-1.47-.11c-.15-.1-.2-.14-.35-.23l.27.22c-.28 0-.3 0 .1.08a9.59 9.59 0 0 1 2.36 2.31c-1.72 0-4.7-1.22-7.73-2.35a78.13 78.13 0 0 0-7.74-2.58c-3.18-1.78 1.68-.06.15-1.5-1.64-.34-3.3-.64-5-.86.12-1.5-8.14-5.78.2-3.4l-7.23-2.92a45 45 0 0 0-7-3.26 33.46 33.46 0 0 0-6.87-2c-3.46-1.3-9.37-1-6-1.22l-6-1.2-6-.94v-.38c-5.8-1.56-12.02-1.9-18.34-2.76a120.91 120.91 0 0 1-19.64-3.18c-2 0-4.1.06-6.5 0a78.94 78.94 0 0 1-8.51-.31l-1.3-1.26c-2.6.08-6.53-.08-10.08-.2s-6.74-.16-7.82.63a16.11 16.11 0 0 0-6.59-1c-1.4 0-2.93 0-4.52.15s-3.26.4-5 .64c-3.37.55-6.85 1-10 1.72s-6.08 1.25-8.38 1.5v1.66l-2.33.4-2.3.56-4.64 1.28L190 9.72c-1.67.57-3.4 1.25-5.24 1.93l.85 1.25c-3 1.5-7.28 2.3-11.9 3.56l-7.3 1.86c-2.5.68-5 1.68-7.4 2.68.47-.77 3-1.63 4.93-2a37.75 37.75 0 0 0-9.44 2.61 89.57 89.57 0 0 0-8.75 4.69c-2.87 1.6-5.54 3.5-8.27 5a49.54 49.54 0 0 1-8.23 3.78 18.3 18.3 0 0 1-6 3.46 3.64 3.64 0 0 0 .58-.42c-.26.13-.64.34-1 .57a39.17 39.17 0 0 0-3.8 1.43c1.2-.35 2.3-.74 3.26-1.1A75.4 75.4 0 0 0 115 44.2l-2-.53-.62.45c-3 1.28-1.78 2 .3 2a22.07 22.07 0 0 0-3 3.22c-1.77-.27-3.4 1.16-5.14 2.62a19.58 19.58 0 0 1-2.73 2 5.82 5.82 0 0 1-3 1c-.48 1.2-3.57 3.94-6.5 6.77-2.38 2.53-4.62 5.12-5.08 6.82a27.6 27.6 0 0 0-7.54 7.14l-2.48-.34-1.95 3.68-1.8 3.78c-4.16 2.63-6.08 3.63-3.85-.9-1.58 2.5-2.74 4.2-3.65 5.5l-2.13 3.14a52.94 52.94 0 0 0-4.61 7.8l-.68-1.18c-2.15 2.8-4.26 8.23-6.4 9.25-1.66 1.2-3.87 3.82-6.53 7.24-.66.86-1.37 1.76-2 2.73l-2.06 3.08-4.6 6.9c-5.82 9.68-11.8 21-16.8 29.88 2.54-1 1.14.92-.5 3.42s-3.45 5.6-2.24 6.5c-1.26.77-2.77 3.24-2.27-.1q-.56 1.9-1.2 3.48l-1.07 3.1c-.7 1.93-1.43 3.65-2.06 5.28A22.14 22.14 0 0 0 9 188c-1.17.9-.63-2.5-1.43-1.62 0 .86-.16 3.4-1 4.3s-.3-1.67-.2-3.37a36.19 36.19 0 0 0-1.2 6.26 11.05 11.05 0 0 0 .41 3.83 5.45 5.45 0 0 0 2.95 3.29 22.86 22.86 0 0 0-2.2 6.13 14.93 14.93 0 0 0 .44 5.52c-1.15 1.66-2.56 4.57-1.7-1.92l-1.1 5L3.2 219l-.57 3.88c-.68 5.17-1.08 10 0 10.25-.6 1.1-.54 5.1-.37 6.07l-.48 5c-.13 1.37-.13 2.46-.2 3.57-.1 2.2-.15 4.42-.15 8.46l.4-2.23c2.3 3.2.54 6.68 1 13.18l-.26-.18a44.8 44.8 0 0 0-.26 7.54 19.69 19.69 0 0 0 .39 3.11 17.06 17.06 0 0 1 .34 3.06v7.46l1.43-1c1.73.5 1.65 3.73 1.43 7.94-.06 4.18-.13 9.35 1.26 13.42l.3-3.2c.9 2.2.57 5.55 0 9s-1.33 7.1-.8 9.42c0 1.07-.93-1.45-1.47-2.8 1.47 12.54 2.37 1 5.33 9.8-.54 2-3.33-1.3-1.65 4.73.1 1.6 2.36 5.67 4.76 10.33 1.3 2.3 2.6 4.75 3.68 7.17a36.39 36.39 0 0 1 1.38 3.58 21.7 21.7 0 0 1 1 3.35c0-2 0-4 2.34-.4a36.58 36.58 0 0 1 2 5.26 70.28 70.28 0 0 0 1 3l1.12 3.1c1.57 4.08 3.24 8.08 6 10 .2.83.18 1.2 0 1.35.77 1 1.72 2.35 2.76 3.84s2.15 3.12 3.37 4.6c2.38 3 4.7 5.75 6.1 6.6-.52 1.73.6 4 2.32 6.65a57 57 0 0 0 6.62 8.09 184.15 184.15 0 0 1 6.48 7c1.64 1.88 2.38 3.44 1.43 4.22 1.73 1.9 3.4 3.86 5.2 5.7l5.4 5.5-.64.05a41.65 41.65 0 0 0 4.45 4.53 42.83 42.83 0 0 0 3.56 2.8 27.81 27.81 0 0 0 5.43 2.94c1.5 1.73-.07 1-.38 1.06 5.1 5.06 7.93 7.88 11 9.9a64.26 64.26 0 0 0 11.65 6.18l.1 2a18.17 18.17 0 0 1 4 2.78c1.8 1.48 4.15 3.23 6.76 5.24l4.16 3.06c1.46 1.06 3 1.93 4.63 2.87s3.22 1.85 4.85 2.7a41.93 41.93 0 0 0 5 2.11c-.2.1-.6.24-1.72-.08 7.47 2.9 15.57 8 23.07 11.6 1.88.9 3.7 1.75 5.42 2.48.86.37 1.7.7 2.52 1s1.63.5 2.4.7c3.08.77 5.67.92 7.5 0 3.42.75 7 1.1 10.4 1.62-12.8-4.1 2.6-1.86-2.42-4.3a28.14 28.14 0 0 1 7.4 2.92c1.74.94 2.05 1.68-1.1 1l-.9-.56c-3.13 2.5 15.95 5 15.2 6.74a343.78 343.78 0 0 0 39 5.31l9.67.55c3.22.1 6.43.06 9.62.08h4.78l4.76-.26c3.15-.23 6.3-.3 9.42-.7-1-.66-2.07-1.28-3.1-2 2.9-.23 5.75-.6 8.63-.9 2.33.25 3.3 1.43-2.9 2.12 1.7.45 4.28-.16 6.4-.94a10.06 10.06 0 0 0 3.86-2.13c12.14-1.2-4.24 3.53-.57 2.93l5-1.06-1.18-.07c1.95-.84 3-1.52 4.4-2.14a19.45 19.45 0 0 1 2.67-.91c1.1-.35 2.47-.7 4.3-1.1 4.7-.6 2.7.86 4.53.53 0 .16.66.1 2.8-.58 3.57-.86 7.1-1.86 10.68-2.8l-4.75-.57a58.37 58.37 0 0 1 5.94-2.27c1.23-.53 1.25-.76-1.47-1.08 4 .46 13.83-2.4 22.94-6.18 2.32-.85 4.5-1.93 6.62-2.9l5.85-2.68a66.15 66.15 0 0 1 7.26-3.31c1.36-1.08 2.75-2.07 4.2-3s2.84-2 4.35-2.92c3-1.9 6.3-3.65 9.8-5.9-1.94.8-4.05-.33 2-3.93 0 1.25.8 1.54 2 1.24a17.48 17.48 0 0 0 4.8-2.28c1.86-1.12 3.9-2.43 5.9-3.52a28.8 28.8 0 0 1 2.92-1.42 11.28 11.28 0 0 1 2.7-.97c-2.67.8 1.3-2.47 4.86-5.58a27.26 27.26 0 0 0 4.14-4.12c.7-1 .45-1.37-1.55-.6 4.73-3.63 1.3 1 5.4-1.22 1.2-1.34 2.54-2.6 3.83-4s2.66-2.7 4.07-4l4.37-4 4.42-4.25c1.5-1.45 3.07-2.86 4.55-4.38l4.43-4.68a98.24 98.24 0 0 0 8.38-10.16c-.28-.56-2.78 1.23-1.1-2.25 2.7-1.82 5.18-3.86 7.78-5.84.9-1.5.7-2.63.93-3.88a5.28 5.28 0 0 1 .87-2 12.43 12.43 0 0 1 2.54-2.74c-.88.5-2.2 1.23-1.1-.83 10.57-13.68 18.28-29.8 24.42-46.35s10.84-33.63 16.2-50.63c-1.92 4.53-1.46 1.37-.87-2.22-.66 2.3-1.36-.27-2.2.08l3.9-14.3c-.95-1.5-.7-5.4-.42-9.2zm-97.35-209a22 22 0 0 1 3.2 2.36 22.26 22.26 0 0 1 2.37 2.64c-2.33-2-4.7-4-7.1-5.85a15.3 15.3 0 0 1 1.54.88zm-3.24-2.22l-.26-.2zM336.8 16.3h-.22c-3.88-1.94-2.5-1.23.22 0zm-44.16-6.24c2.5 0 5.3 0 8.3.25 4.73.46 5.6 1.27 5.56 1.7s-1.06.76-.22.76a54.4 54.4 0 0 0 9.89 1.76 45.76 45.76 0 0 0 6.12.25 26.66 26.66 0 0 1 5.55.38 32.08 32.08 0 0 1 7.91 3c5 3.5-.88 3.3-.06 4.9a44.26 44.26 0 0 1-8.75-3.24 50.71 50.71 0 0 0-7-2.76l5.88 2.52a32.28 32.28 0 0 1-10-2.31 14 14 0 0 0 2.09 1 246.52 246.52 0 0 0-34.78-6.71 23 23 0 0 1 2.88-.74 42.3 42.3 0 0 1 6.64-.77zm-49.34-1.4c-.25.45.54 1 1.2 1.32q-3.66.13-7.3.37a23.34 23.34 0 0 1 6.09-1.69zM192.6 13c.48 0 4-.25 7.83-.38 1 0 1.92-.08 2.86-.08l2.72.1a30 30 0 0 1 3.9.37 2 2 0 0 1 1 .51q-4.5.78-8.9 1.72l-.68-2.33-.55 2.6-8.75 2c-.5-1.82-.38-3.56.58-4.5zm-44.13 15.16l2.35.1c2.38-1.52 4.76-3.1 7.25-4.43l-7.65 8.37q-6.28 2.88-12.37 6.1c2.6-3.55 6-7.54 10.42-10.14zM87.15 68.68a1.81 1.81 0 0 0-.08.78c-.3-.2-1.07.27.08-.78zm-12.06 17q-2.18 2.25-4.3 4.56 1-3.24 2.23-6.45c.15.83 1.04 1.34 2.06 1.85zM8.64 208.3c.1-1.74.4-3.44.58-5.17.6-1.15 1.06 0 1.52 1.85 0-.72 0-1.4-.06-1.95.6-1.28 1.06-1.78 1.44-1.76l-1.08 5-.3-1.24v2.46l-.46 2.35c-.86 1.5-1.6 2.78-2 3.7zm305.7 295.92h-1.77c3.68-1.3 2.72-.68 1.77 0z" fill="url(#v)"/><path d="M387.5 39.1c.07-.3-.35-1.06.37-.78l-4.56-2.3a15.6 15.6 0 0 1 4.19 3.07z" fill="url(#w)"/><path d="M387.88 38.33l.6.3a3.87 3.87 0 0 0-.59-.31z" fill="url(#x)"/><path d="M395.22 48.4a38.89 38.89 0 0 0-5.05-2.57c-.17.67.55 1.38 1.74 2.17l2.1 1.25 2.42 1.5-.57-.4c1-.4.54-1.1-.63-1.93z" fill="url(#y)"/><path d="M400.18 53.3c.8-.32-1.12-1-3-2.08l3 2.08z" fill="url(#z)"/><path d="M355.7 23.48c1.6 1.08 1.76-1 2.53-.1 1.3-.3-1.8-1.17-4-1.5-1.1-.18-2-.16-1.95.06s.97.66 3.42 1.55z" fill="url(#AA)"/><path d="M364.48 34.73l5.34 3.27c.05-.28.82-.06 1.75.28-3.4-1.83-7-4.04-7.1-3.55z" fill="url(#AB)"/><path d="M376.07 40.5a40.92 40.92 0 0 0-4.5-2.24 28.85 28.85 0 0 0 4.5 2.24z" fill="url(#AC)"/><path d="M298 13.5c1.67-.1 4.2.14 3.27-.56l-6.8-.75c-.76.42 1 1.08 3.52 1.3z" fill="url(#AD)"/><path d="M508.7 272.27c.4-1.76.6-3.53.9-5.3l-1.18 3.4.3 1.9z" fill="url(#AE)"/><path d="M508.7 260.8l-1.8-3.2c.07 1.2.2 3.5-.3 4.4z" fill="url(#AF)"/></g><path d="M335.63 190.46a75.44 75.44 0 0 0-55.49 24.43 192.4 192.4 0 0 0-28.31 34.8 191.51 191.51 0 0 0-27.18-33.63 8.28 8.28 0 0 0-.69-.9c-21-23.145-54.12-30.903-83.217-19.49s-48.1 39.618-47.775 70.87 19.95 59.044 49.28 69.83 62.28 2.322 82.78-21.268a198.46 198.46 0 0 0 24.07-30.64l2.73-4.4c.82 1.38 1.72 2.83 2.72 4.4a198.52 198.52 0 0 0 24.08 30.64 7.75 7.75 0 0 0 1 .85c23.072 25.74 60.715 32.448 91.26 16.26s46.128-51.102 37.783-84.647-38.474-57.087-73.04-57.075zM214.2 304.7l-.13.15-.14.15c-16.24 18.915-42.45 25.88-65.937 17.52s-39.404-30.316-40.042-55.238 14.133-47.665 37.162-57.216 49.56-3.937 66.747 14.122a7.45 7.45 0 0 0 1.1 1.36 174.58 174.58 0 0 1 28.69 36.23l1.64 2.86c-1.9 3.5-3.84 7-6.83 11.73a183.48 183.48 0 0 1-22.26 28.33zm121.43 21.27a60.22 60.22 0 0 1-45.69-21 7.21 7.21 0 0 0-1.33-1.21 183 183 0 0 1-21.41-27.42c-3-4.7-4.94-8.22-6.84-11.73l1.64-2.86a175 175 0 0 1 28.7-36.23l.17-.18a1.85 1.85 0 0 0 .14-.14c18.57-20.462 48.676-25.67 73.04-12.634s36.737 40.972 30.02 67.774-30.807 45.6-58.438 45.6z" fill="#fff"/></svg>