
<svg version="1.1" id="Layer_1" xmlns="http://www.w3.org/2000/svg" x="0" y="0" viewBox="0 0 246 261.3" xml:space="preserve"><path d="M114.7 80.2l-37.1-9.7c-4.6-1.2-8.3-4.3-10.2-8.7-1.8-4.1-1.7-8.7.3-12.7.2-.3.3-.6.5-.9 2.5-4.1 6.7-6.8 11.4-7.3 4.3-.5 8.6 1.1 11.9 4.2L119 71.9l-1.4 1.4-27.5-26.6c-2.9-2.8-6.6-4.1-10.3-3.7-4.2.5-7.8 2.8-9.9 6.4-.2.3-.3.5-.4.8-1.7 3.4-1.8 7.4-.2 10.9 1.7 3.8 4.9 6.5 8.9 7.5l37.1 9.7-.6 1.9zM131.4 79.2l-.5-1.9 37.1-9.7c4-1 7.2-3.8 8.9-7.5 1.6-3.6 1.5-7.5-.2-10.9-.1-.3-.3-.5-.4-.8-2.2-3.6-5.8-5.9-9.9-6.4-3.7-.4-7.4.9-10.3 3.7l-27.5 26.6-1.4-1.4 27.5-26.6c3.3-3.2 7.6-4.7 11.9-4.2 4.8.5 8.9 3.2 11.4 7.3.2.3.4.6.5.9 2 3.9 2.1 8.5.3 12.7-1.9 4.3-5.7 7.5-10.2 8.7l-37.2 9.5z"/><ellipse opacity=".05" cx="124.1" cy="246.8" rx="112.3" ry="9"/><path fill="#FFF" d="M43.6 103.6h158.1v119.5H43.6z"/><path d="M202.7 224.1H42.6V102.6h160.1v121.5zm-158.1-2h156.1V104.6H44.6v117.5z"/><path fill="#FFF" d="M40 78.6h165.8V105H40z"/><path d="M206.7 106H39V77.6h167.8V106zM41 104h163.8V79.6H41V104z"/><path fill="#F15A53" d="M109.4 79.3h26.1v145h-26.1z"/><path fill="#FEC770" d="M109.8 61.8h25.7V79h-25.7z"/><path d="M136.5 80h-27.7V60.8h27.7V80zm-25.7-2h23.7V62.8h-23.7V78zM216.5 224.1h-186c-.6 0-1-.4-1-1s.4-1 1-1h186c.6 0 1 .4 1 1s-.5 1-1 1zM24.5 224.1h-10c-.6 0-1-.4-1-1s.4-1 1-1h10c.6 0 1 .4 1 1s-.5 1-1 1zM232.5 224.1h-10c-.6 0-1-.4-1-1s.4-1 1-1h10c.6 0 1 .4 1 1s-.5 1-1 1zM116.5 140.8c-.6 0-1-.4-1-1v-36c0-.6.4-1 1-1s1 .4 1 1v36c0 .6-.5 1-1 1zM125.5 125.5c-.6 0-1-.4-1-1v-20.7c0-.6.4-1 1-1s1 .4 1 1v20.7c0 .5-.5 1-1 1zM125.5 221.8c-.6 0-1-.4-1-1v-30.3c0-.6.4-1 1-1s1 .4 1 1v30.3c0 .6-.5 1-1 1zM116.5 221.8c-.6 0-1-.4-1-1v-17.4c0-.6.4-1 1-1s1 .4 1 1v17.4c0 .6-.5 1-1 1z"/><path fill="#EDF7F0" d="M73.3 177.5l-5.5-1.5-5.3 1.6 1.5-5.4-1.7-5.4 5.5 1.5 5.3-1.6-1.5 5.4z"/><path opacity=".46" fill="#EDF7F0" d="M184.3 197.5l-5.5-1.5-5.3 1.6 1.5-5.4-1.7-5.4 5.5 1.5 5.3-1.6-1.5 5.4z"/><path fill="#EDF7F0" d="M173.3 126.5l-2.7-.8-2.7.8.7-2.7-.8-2.7 2.7.8 2.7-.8-.8 2.7z"/><path opacity=".5" fill="#EDF7F0" d="M67.3 91.5l-2.7-.8-2.7.8.7-2.7-.8-2.7 2.7.8 2.7-.8-.8 2.7z"/><path d="M135.5 22.9l-2.8-6.5-6.5-2.8 6.5-2.8 2.8-6.5 2.8 6.5 6.5 2.8-6.5 2.8-2.8 6.5zm-6.8-9.3l4.7 2.1 2.1 4.7 2.1-4.7 4.7-2.1-4.7-2.1-2.1-4.7-2.1 4.7-4.7 2.1zM11.8 87l-2.6-5.9-5.9-2.6L9.2 76l2.6-5.9 2.6 5.9 5.9 2.6-5.9 2.6-2.6 5.8zm-5.9-8.4l4.1 1.8 1.8 4.1 1.8-4.1 4.1-1.8-4.1-1.8-1.8-4.1-1.8 4.1-4.1 1.8zM235.4 69.7c-3.6 0-6.5-2.9-6.5-6.5s2.9-6.5 6.5-6.5 6.5 2.9 6.5 6.5-2.9 6.5-6.5 6.5zm0-11.9c-3 0-5.5 2.4-5.5 5.5 0 3 2.4 5.5 5.5 5.5s5.5-2.4 5.5-5.5-2.4-5.5-5.5-5.5zM232.5 124.6c-1.9 0-3.5-1.6-3.5-3.5s1.6-3.5 3.5-3.5 3.5 1.6 3.5 3.5-1.6 3.5-3.5 3.5zm0-6c-1.4 0-2.5 1.1-2.5 2.5s1.1 2.5 2.5 2.5 2.5-1.1 2.5-2.5c-.1-1.4-1.2-2.5-2.5-2.5zM19.5 155.3c-1.9 0-3.5-1.6-3.5-3.5s1.6-3.5 3.5-3.5 3.5 1.6 3.5 3.5c-.1 1.9-1.6 3.5-3.5 3.5zm0-6c-1.4 0-2.5 1.1-2.5 2.5s1.1 2.5 2.5 2.5 2.5-1.1 2.5-2.5c-.1-1.3-1.2-2.5-2.5-2.5zM48 35.5c-2.7 0-4.9-2.2-4.9-4.9s2.2-4.9 4.9-4.9 4.9 2.2 4.9 4.9-2.2 4.9-4.9 4.9zm0-8.9c-2.2 0-3.9 1.8-3.9 3.9s1.8 3.9 3.9 3.9 3.9-1.8 3.9-3.9-1.7-3.9-3.9-3.9z"/></svg>