<svg version="1.1" id="Layer_1" xmlns="http://www.w3.org/2000/svg" x="0" y="0" viewBox="0 0 512 512" xml:space="preserve"><style>.st1{fill:#bcbcce}.st3{fill:#fff}</style><path fill="#d7d7e2" d="M370.4 243.6h49.8v49.8h-49.8z"/><path class="st1" d="M323.7 285.8h184.8v146.4H323.7z"/><path d="M506.7 425.1l.4.3c-.2-.2-.3-.3-.4-.3z" fill="#eaae57"/><path class="st3" d="M504.1 436.1c-1.5 0-2.8-1-3.2-2.4-4.8-16.2-15.8-28.3-28.9-31.5l-25.5-6.2c-2.5-.4-5-.7-7.6-.8-2.6-.1-5.3.1-7.9.4h-.2c-1.9 5.6-7.1 9.5-13.2 9.5h-.4c-6.2 0-11.4-4-13.3-9.6h-.9c-3-.1-5.9 0-8.8.2-6.9.5-13.8 1.8-20.5 3.8-.1 0-.1 0-.2.1l-10.7 2.6c-12.9 3.2-24 15.1-28.8 31.1-.5 1.8-2.4 2.8-4.2 2.3-1.8-.5-2.8-2.4-2.3-4.2 5.6-18.6 18.1-31.9 33.6-35.7l10.7-2.6c7.2-2.2 14.5-3.5 21.9-4.1 3.1-.2 6.2-.3 9.3-.2h3.6c1.7 0 3.2 1.3 3.4 3.1.3 3.7 3.4 6.6 7.2 6.6h.4c3.6 0 6.6-2.6 7.1-6.1.2-1.4 1.2-2.5 2.6-2.8l2.4-.5c.1 0 .2 0 .3-.1 3-.4 6.1-.5 9.1-.5 2.9.1 5.8.4 8.7.9h.2l25.6 6.2c15.4 3.7 28.4 17.6 33.8 36.1.5 1.8-.5 3.7-2.3 4.2-.4.1-.7.2-1 .2z"/><path class="st3" d="M384 396.8c-.4 0-.9-.1-1.3-.3-1.7-.7-2.5-2.7-1.8-4.4.9-2.1 1.6-4.3 2.1-6.6 1.5-6.2 1-10.3.1-18.3-.5-4.2-1.1-9.5-1.6-16.5-.7-10.2 0-18.3 2.1-25.3.8-2.6 2.6-6.7 5.1-9.9 1.2-1.5 3.3-1.7 4.7-.5 1.5 1.2 1.7 3.3.5 4.7-1.8 2.3-3.3 5.5-3.9 7.6-1.8 6.2-2.4 13.5-1.8 22.9.5 6.8 1.1 12 1.5 16.1 1 8.3 1.5 13.3-.2 20.6-.6 2.6-1.4 5.1-2.4 7.6-.5 1.5-1.8 2.3-3.1 2.3zM449.6 396.8c-1.3 0-2.5-.8-3.1-2-1.1-2.5-2-5-2.6-7.6-1.7-6.7-1.2-11.2-.3-19.3.5-4.4 1.1-9.8 1.6-17.5.6-9.4.1-16.7-1.8-22.9-.6-2.1-2.1-5.3-3.9-7.6-1.2-1.5-.9-3.6.5-4.7 1.5-1.2 3.6-.9 4.7.5 2.6 3.2 4.4 7.3 5.1 9.9 2.1 7 2.7 15.1 2.1 25.3-.5 7.8-1.1 13.4-1.6 17.8-.9 8.1-1.3 11.4.1 16.9.6 2.2 1.3 4.4 2.2 6.6.7 1.7 0 3.7-1.7 4.4-.4.1-.9.2-1.3.2z"/><path class="st3" d="M442.1 321.1c-1.2 0-2.4-.7-3-1.8-1.5-3-3.6-5.5-6-7.4-8.7-6.9-23.3-7-32.4-.1-2.6 2-4.8 4.5-6.5 7.6-.9 1.6-3 2.2-4.6 1.3-1.6-.9-2.2-3-1.3-4.6 2.1-3.9 4.9-7.1 8.3-9.7 11.6-8.8 29.5-8.7 40.7.2 3.2 2.5 5.8 5.8 7.8 9.6.9 1.7.2 3.7-1.4 4.5-.5.2-1 .4-1.6.4zM404 349.5c-4 0-7.3-1.3-9.1-2.3-1.7-.9-2.3-2.9-1.4-4.5.9-1.7 2.9-2.3 4.5-1.4 1.6.8 4.8 2.1 8.4 1.3.9-.2 1.7-.5 2.5-1 .7-.3 1.4-.5 2.1-.4 1.6.3 3.1.5 4.2.6 3.5.5 4.1.5 4.7.4.8-.1 1.6-.5 2.4-1 1.1-.7 2.6-.7 3.7 0 .8.6 2.6 1.5 4.8 1.4 1.9 0 3.4-.8 4.3-1.4 1.6-1 3.7-.6 4.7 1s.6 3.7-1 4.7c-1.6 1.1-4.3 2.4-7.8 2.4-2.9.1-5.2-.7-6.9-1.5-1 .4-2 .7-3 .9-1.7.3-3 .2-6.9-.4-.9-.1-2-.3-3.2-.5-1 .4-2 .8-3.1 1-1.4.6-2.7.7-3.9.7z"/><path class="st3" d="M416.7 381.3c-1.4 0-2.8-.2-4.1-.7l-9.8-3.4c-5.8-2-9.7-7.5-9.7-13.6v-7.1c-2.8-1.3-4.8-4.2-4.8-7.4 0-4.5 3.6-8.1 8.1-8.2h.1c1.8 0 3.3 1.5 3.4 3.3 0 1.9-1.5 3.4-3.3 3.4-.8 0-1.4.7-1.4 1.5s.7 1.5 1.5 1.5c1.8 0 3.3 1.5 3.3 3.4v9.7c0 3.3 2.1 6.2 5.2 7.3l9.8 3.4c1.2.4 2.6.4 3.8 0l9.8-3.4c3.1-1.1 5.2-4 5.2-7.3V354c0-.9.4-1.8 1-2.4.6-.6 1.5-1 2.4-1 .5 0 .9-.3 1-.4.2-.2.4-.5.4-1 0-.8-.7-1.5-1.5-1.5-1.9 0-3.4-1.5-3.4-3.4s1.5-3.4 3.4-3.4c4.5 0 8.2 3.7 8.2 8.2 0 2.2-.9 4.3-2.4 5.8-.7.7-1.5 1.3-2.4 1.7v7c0 6.2-3.9 11.6-9.7 13.7l-9.8 3.4c-1.5.4-2.9.6-4.3.6z"/><path class="st3" d="M406.4 395.6c-1.9 0-3.4-1.5-3.4-3.4v-17.3c0-1.9 1.5-3.4 3.4-3.4s3.4 1.5 3.4 3.4v17.3c0 1.9-1.5 3.4-3.4 3.4zM428.1 396.2c-1.9 0-3.4-1.5-3.4-3.4v-17.9c0-1.9 1.5-3.4 3.4-3.4s3.4 1.5 3.4 3.4v17.9c0 1.9-1.5 3.4-3.4 3.4zM417.4 436.1c-1.9 0-3.4-1.5-3.4-3.4v-30.9c0-1.9 1.5-3.4 3.4-3.4s3.4 1.5 3.4 3.4v30.9c0 1.9-1.5 3.4-3.4 3.4z"/><linearGradient id="SVGID_1_" gradientUnits="userSpaceOnUse" x1="379.656" y1="431.521" x2="380.085" y2="431.521"><stop offset="0" stop-color="#f7686a"/><stop offset="1" stop-color="#ff7d4a"/></linearGradient><path d="M379.7 432.3c.8 1.2.3-.4.2-1.9l-.2 1.9z" fill="url(#SVGID_1_)"/><linearGradient id="SVGID_2_" gradientUnits="userSpaceOnUse" x1="379.81" y1="429.706" x2="379.942" y2="429.706"><stop offset="0" stop-color="#f7686a"/><stop offset="1" stop-color="#ff7d4a"/></linearGradient><path d="M379.8 430.4l.1-1.3c-.1.3-.1.8-.1 1.3z" fill="url(#SVGID_2_)"/><linearGradient id="SVGID_3_" gradientUnits="userSpaceOnUse" x1="380.373" y1="421.989" x2="381.405" y2="421.989"><stop offset="0" stop-color="#f7686a"/><stop offset="1" stop-color="#ff7d4a"/></linearGradient><path d="M380.4 418c.6 2.9-.2 6.2.7 8 .6-2.9.3-7.3-.7-8z" fill="url(#SVGID_3_)"/><linearGradient id="SVGID_4_" gradientUnits="userSpaceOnUse" x1="379.455" y1="421.364" x2="380.275" y2="421.364"><stop offset="0" stop-color="#f7686a"/><stop offset="1" stop-color="#ff7d4a"/></linearGradient><path fill="url(#SVGID_4_)" d="M379.7 422.3l.6.3-.8-2.5z"/><linearGradient id="SVGID_5_" gradientUnits="userSpaceOnUse" x1="379.45" y1="412.615" x2="381.837" y2="412.615"><stop offset="0" stop-color="#f7686a"/><stop offset="1" stop-color="#ff7d4a"/></linearGradient><path d="M380.8 408.3l.1 2.9c-.7 2.7-1-1.8-1.4 0 0 3.6 1.5 1.2 1.3 5.7.7-.4 0-7.1 1.1-6.4.2-3.8-.8-.2-1.1-2.2z" fill="url(#SVGID_5_)"/><linearGradient id="SVGID_6_" gradientUnits="userSpaceOnUse" x1="175.104" y1="292.861" x2="175.439" y2="292.861"><stop offset="0" stop-color="#f7686a"/><stop offset="1" stop-color="#ff7d4a"/></linearGradient><path d="M175.4 292.8c-.1-.1-.2-.2-.3-.2v.1l.3.5v-.4z" fill="url(#SVGID_6_)"/><linearGradient id="SVGID_7_" gradientUnits="userSpaceOnUse" x1="381.725" y1="363.596" x2="381.985" y2="363.596"><stop offset="0" stop-color="#f7686a"/><stop offset="1" stop-color="#ff7d4a"/></linearGradient><path d="M381.9 364.6c.1-.8 0-1.5-.1-2.1-.1.6-.1 1.2.1 2.1z" fill="url(#SVGID_7_)"/><linearGradient id="SVGID_8_" gradientUnits="userSpaceOnUse" x1="381.829" y1="347.818" x2="381.92" y2="347.818"><stop offset="0" stop-color="#f7686a"/><stop offset="1" stop-color="#ff7d4a"/></linearGradient><path d="M381.8 347.8c.2 0 .1-.1 0 0z" fill="url(#SVGID_8_)"/><linearGradient id="SVGID_9_" gradientUnits="userSpaceOnUse" x1="381.926" y1="337.099" x2="382.025" y2="337.099"><stop offset="0" stop-color="#f7686a"/><stop offset="1" stop-color="#ff7d4a"/></linearGradient><path d="M381.9 337v.2c.1-.1.2-.2 0-.2z" fill="url(#SVGID_9_)"/><linearGradient id="SVGID_10_" gradientUnits="userSpaceOnUse" x1="381.054" y1="358.965" x2="382.81" y2="358.965"><stop offset="0" stop-color="#f7686a"/><stop offset="1" stop-color="#ff7d4a"/></linearGradient><path d="M382.1 358.9l-.2.4c.3-1.1-.2-2.7-.3-3.9-.1.1-.3.3-.4.5 0 .6-.1 1.5-.2 2.7-.3 1.5.4 2.5.7 4 .6-1.4 1.9-1.9.4-3.7z" fill="url(#SVGID_10_)"/><linearGradient id="SVGID_11_" gradientUnits="userSpaceOnUse" x1="259.472" y1="438.595" x2="263.99" y2="438.595"><stop offset="0" stop-color="#f7686a"/><stop offset="1" stop-color="#ff7d4a"/></linearGradient><path d="M262.7 438.7c-1.1.1-1.8-.3-2.8-.4-2.3 1 4.8 0 1.4.9 1 0 1.9-.1 2.6-.3l-1.5-.9c-1.9.4 1.5.3.3.7z" fill="url(#SVGID_11_)"/><linearGradient id="SVGID_12_" gradientUnits="userSpaceOnUse" x1="172.82" y1="307.846" x2="175.183" y2="307.846"><stop offset="0" stop-color="#f7686a"/><stop offset="1" stop-color="#ff7d4a"/></linearGradient><path d="M173.5 306.5l.1-.5c-.4.3-.6 0-.8 1.8.6 1.5 1.6-.9 2.3 1.8-.1-.5 0-1.3 0-2-.5 1.2-1.1.1-1.6-1.1z" fill="url(#SVGID_12_)"/><linearGradient id="SVGID_13_" gradientUnits="userSpaceOnUse" x1="175.183" y1="306.88" x2="175.564" y2="306.88"><stop offset="0" stop-color="#f7686a"/><stop offset="1" stop-color="#ff7d4a"/></linearGradient><path d="M175.2 307.7c0-.1 0-.1 0 0 .1-.2.2-.3.3-.5 0-.4 0-.8.1-1.1-.2.3-.3.9-.4 1.6z" fill="url(#SVGID_13_)"/><linearGradient id="SVGID_14_" gradientUnits="userSpaceOnUse" x1="224.972" y1="438.255" x2="226.2" y2="438.255"><stop offset="0" stop-color="#f7686a"/><stop offset="1" stop-color="#ff7d4a"/></linearGradient><path d="M226.2 438.3c-.5 0-.9-.1-1.2-.1.6.2.9.2 1.2.1z" fill="url(#SVGID_14_)"/><linearGradient id="SVGID_15_" gradientUnits="userSpaceOnUse" x1="288.705" y1="224.868" x2="290.18" y2="224.868"><stop offset="0" stop-color="#f7686a"/><stop offset="1" stop-color="#ff7d4a"/></linearGradient><path d="M288.7 225c.5-.1 1.1-.2 1.5-.3-.8.1-1.2.2-1.5.3z" fill="url(#SVGID_15_)"/><linearGradient id="SVGID_16_" gradientUnits="userSpaceOnUse" x1="174.427" y1="279.411" x2="174.572" y2="279.411"><stop offset="0" stop-color="#f7686a"/><stop offset="1" stop-color="#ff7d4a"/></linearGradient><path d="M174.4 280.5c.1-.4.1-.8.1-1.3v-.8l-.1 2.1z" fill="url(#SVGID_16_)"/><linearGradient id="SVGID_17_" gradientUnits="userSpaceOnUse" x1="263.99" y1="438.941" x2="264.123" y2="438.941"><stop offset="0" stop-color="#f7686a"/><stop offset="1" stop-color="#ff7d4a"/></linearGradient><path d="M264.1 439s0-.1 0 0c0-.1-.1-.1-.1-.1l.1.1z" fill="url(#SVGID_17_)"/><linearGradient id="SVGID_18_" gradientUnits="userSpaceOnUse" x1="175.41" y1="294.169" x2="175.697" y2="294.169"><stop offset="0" stop-color="#f7686a"/><stop offset="1" stop-color="#ff7d4a"/></linearGradient><path d="M175.6 297.4l.1-6.6-.3 1.9c.6 1-.4 3.8.2 4.7z" fill="url(#SVGID_18_)"/><linearGradient id="SVGID_19_" gradientUnits="userSpaceOnUse" x1="170.251" y1="331.24" x2="384.29" y2="331.24"><stop offset="0" stop-color="#f7686a"/><stop offset="1" stop-color="#ff7d4a"/></linearGradient><path d="M380.5 350.7c.3-2.2 1-2.9 1.3-3-.1-1.3-.1-2.4 0-3.6.2.3.4.7.4 1.5.7-1.6.5-2.1.1-2.7-.3-.9-.3-2.2-.3-3.6l.5 1.2c-.1-.8-.3-1.8-.5-1.9 0-.6 0-1.1-.1-1.6-.2.4-1 1.3-1.4 3.2.5-5 .2-8.9 1.3-13.2.4.2.9 1.9.9 1.4.2-2.1-.5-4.5-1.1-4.3 0-.5-.1-.9-.1-1.2.3-.4.7-.9.7-1.9.1-.2.2-.6.3-1.4-1.1-.7-.5-4.8-1-5.7-.1 1-.1 2.2-.1 3.4-.7-1.7-1.5-3.3-.9-4.6.7 3.2 1.1-3.4 1.4 1.4 1.3-3.4-1-1.8-.5-5.4l.5-2.3c.8.4.4 3.8.7 3.2l-.1-1.6c.6 1.6.2 7.7 1.1 11.4l.4-7.5c-.9-9.4.1-21.2-1.6-29.2v.3c-.1-.1-.2-.2-.5-.3l.2-.4-.6-1.6c.7-1.8.9-5.2 1.4-8.1-.5 1.8-.5 1.8-1.1 2-.8-.4-1.1-.6-.8-3.3.5 0 .5 1.6 1-.4-.3 1-.7.1-.7-1.1.4-1.5.4-4 1-4.1.1.7 0 1.3-.1 1.7.1.7.5-2.8.9-.8l-.2-2.7c.5-1.6.7 1.1 1 .4-.4-4.5-1.6-6.9-2-11 .3.2 1.5.2 1.2.2.4-3.2-1.3-6.8-1.4-10.4.4.5.2 1.9.4 3 .1-2.9.2-5.7.3-8.5.1-4 .2-8 .3-11.8-3.4-.1-6.8-.2-10.4-.4-1 0-1.5-.1-2.1-.1-.6-.1-1.2-.1-1.7-.2-1.2-.1-2.3-.2-3.5-.4l-2.7 1.3-2.7-.8c-10.8-.8-19.2 0-29.5.4-3.2.1-1.9-.9-3.4-1.2-7-.1-8.8 1.3-15.5 1.6.9-.4 2.5-1.5-.4-1.5-.5.4-.9.9-2.7.7l.9-.4c-1.7-.6-3.3 0-6.7-.3-6.1 0-11.9.9-16.9 2.3-5.4-.1.6-1.4-.5-1.6 3.8.5 2.6-.2 3.5-.7-2 .4-4.4.6-5.5-.3-2.8.1-4.1 0-6.8.6 1.4-.3 2.6.2 1.3.6-2.3-.3-8.1 0-7.8-1.1-13.3.2-28.2 0-42.4 0-2.4.6 1.8.2.5.6-3.5.8-2.8-.4-5.5.2l1.2-.6c-4.2-.1-8.6 1-12.6 1.6.7-.7-3.3-.6 0-1-2 .1-4.4-3-5.9-2.4l2.2 2.9c-.1.3-2.9.1-2.6.3-1.7-.6-3.8-1.3-5-1.2-.6-.7 2.4-.6 4-.6.2-1.2-5.5-.8-3.1-1.9-3.5.2.5.6-1.6 1.1l-3.1-.3 2.4.4c-2.6.4-3.4 1.3-6.8.6l-3.5 1.2c-.2-.5-.8-.5-1.7-.5-.4 0-.9.1-1.3.1h-2l.9-.3.5-.2.2-.1.1-.1h-2.6c-.8 0-1.5 0-2.1-.1-1.3-.1-2.4-.2-3.9-.4 1-.4 2-.4 2.9-.3.9.1 1.5.1 1.9-.3l-5.2-.3c.2.3-.4.5-.6.7-.2.2.1.4 1.8.6-1.6.4-2.6.8-4.1 1.2.4 2.8.7 5.8.6 11-.1.3-.1.5-.2.6-.1.2-.1.2-.1.3-.1.1-.2.1-.2.1-.1-.1-.1-.1-.2-.5-.1-.3-.1-.7-.2-1-.2-1.5-.4-3.6-.9-2.8V237.8c0 .3.1.6.1.9.2 1.1.5 2 .8 2.8.6 1.6 1.3 2.9 1.3 4.8-.4 4.8.5 4.5.5 9.4-.6-1.5-.7 3.4-1.3 4.3l-.7-1.9c.2 1.3 0 2.5-.3 2.5.7.7.7 6.5 1 9.6l.7-.6c.2 2.6.7 6.2.5 9 .2 4.1.9 3.2 1.7 6.4-.7 1.8-1.5 1.6-2.3 1 .4-1.1.2-3 .4-4.8-.6-5.2-2.2-9.3-1.8-14.5-1.8-2.3.2 3.5-.4 6-.1-.1-.1-.3-.2-.5 0 .2 0 .4-.1.6-.2-1.9-.5-4.9-1.4-5.4.2 3.1 1.8 2.3 1 6.1.5 2.9-.9 5.2-1 6.9.7 1.9 2.1 2 1.8 6.7l-1-2.1c0 5.3 1.5 2.5 1.4 7.4.1-1.7 1 1.7 1-1.6.5 1.6.6 5.2.3 7.9.2.7.3.1.7.3.7-3-.7-4.7.3-7.1l-1.1-2.1c.4-2.8 1.3-3 1.7-1.3 0-.8-.2-1.5 0-2 1.6-.5-.6 3.3.8 4.3l-.1-1.9c.4-.3.6.2.7 1.2v6.6c-.4 2.6-.6 4.8-1.3 5l-.3-3.8c-.6 2 .4 4.9.3 7.1-.1.1-.2.4-.2.6.1-.1.1-.2.2-.2 0 .5-.1.9-.3 1.2 0 1.9.4 4.8.2 6.6l.7-.2-.4-.2c0-1.8.4-4.2 1-2.9.5 4-.8 4.8-1.4 5.8-1-.9 0-3.9-.3-6-1 1.2-.1 4.1-.8 8.2-1.1-1.7 0-4.8-1-5.7-.2 3.3.6 4.2.3 7.7-.5-.5-.6-3.9-1.3-3.7l-.3 2.3c-.1-5.5-1.4 1-1.7-3.4-.5 2 .9 2.9.2 5.8.5-.8 1.4-3.1 1.8-.4l-.3 3.1c-.5 1.3-1.2-3.3-1.7-1.2l.4 3.3c.3-.1.5-1.7 1-.7-.4 1.9 1.3 3.1 1.8 5.4 0 1.8-.1 3.2-.5 3.8 1 4.5 1 10.2 1.9 14.3-.7-2.8-1.2.1-1.7 1.8-.1-3.3-1.2-3.3-1.9-3.1.1 2 1.2 3.3 1.6 2.3-.4 3.3.7 2.3 0 5.2-.4 1.9-1-.9-1.4-.3 0 3.6 1.3 1 1 4.9-.1-.2-.2-.6-.4-.3-.2 2.1.3 4.3.8 4.8-1.4 2.2.1 6.3-1.2 5.8.4 5.1.7-.8 1.2.2.6 2.1.1 5.9-.1 7.1 0-1.2-.4-2.4-.2-3.6l-.9 1.1c-.7 6.3 2.1 4 1.3 10.1-.5-3.1-.7-1-1.4-2.6.2.9 0 5.7.7 2.8-.1 2.3-.2 3.9-.4 5.4.4 2 .6 4.2 1.2 5.4-.1 3.2-.8 5.6-1.2 7.1.7 6.7-.5 12.9.2 20l.1-.5c0 1.4 0 1.8.1 2.2.1.2.3-.4.4-.6.2-.3.3-.6.5-.4.1.1.1.3.1.6 0 .4.1 1.2 0 2.2-1.1-1-.8 5.5-1.4 9 0 .4 0 .9-.1 1.2 2.7.1 5.3.1 7.9.1 1.3 0 2.5-.1 3.7-.1h1.4l1.1-.1c2.9-.2 5.7-.3 8.8.1-.1.2-.5.5-1.7.6 4.9.4 8.9.1 13.4.2l-.2.1c7.1.9 13.6-.2 21-.5-.6.1-.8.6-1.2.7 3.7.3 9.7.4 12.3-.6 4.4 1.1 2.9-.3 8.6.8.3.2-.6.2-.9.2 2.8.4 4.8.3 7.6.4 6.2-.7 7.8-2.2 15-1.8.4 1.6-4.4.4-4.6 1.6 1.4-.3 2.7-.6 4.7-.2-1.2.6-.3.4-1.1 1 1.5.4 6.1-1.6 6.1-1.5.1-.3-.4-.5-1.9-.4 1.7-1 7.1-.1 10.6-.5-1.1 0-4.7-.3-3.4-1.1 4.7.3 6.3-1.2 9.6-1.8 4.3.7-3.2 1.3-2.4 2.4.7.4 2.5 1.3.6 1.7 3.9.2 6.7-.7 10.2-.9l-.1.3c4.9-.1 10-1.5 14.1-.9l-2.2-.4c.8-.2 3.2-.1 4.6-.7-.1.4 2.2.8 2 1.2 2.6-1.4 10.8-.9 13.2-2.4 1.3.4.3 1.1-.1 1.5-3.1-.1-4.1-.5-5.7.2 2.5 0 4.4.4 4 .8 2.6-1 8.6-1.4 9.9-2.4 1.9.5 3.6.8 3 1.6 7.8-.5-3.9-2.6 5-2.6 4 .8-3.9 1.1 1.6 1.4l-1 .1c4 2.2 2.8-1.6 7.4-1.5.6 1.2-3.2.9 0 1.7 4.2-.3 6-2.1 10.1-1.7l-.7.5c2.7-.1 7.8.1 10.5.1.1.2-.3.2-.8.3 4.9.5 2-.6 6.1.2l1.1-.6c-2-.4-5.9-1-8.5-.3 1.8-.5-1.1-1.1-2.3-1.7h10.8v-9.7l.1 1.5.2-.4-.3-2.3v-17.1c.5.9 1.2 1.4 1.1 3.6.2-1.8.8-1.4 1.2-.4.1-2 .4-6.1-.2-5.3l.4 1.7c-.4-.2-.5-1.2-.7-1.8 0-2.7.7-1.2 1-1.8.2-4.5-1.5-.4-1.4-4.4l.3-.5c-.3-1.6-.4-3.9-.9-5v-7.2c1.7.3-.3 7 .8 9.3.4-2.1 1 1.2 1.5 2.1l-.9-6.8c.3-.5 1.3-2.5.6-3.7v.5c-.2-2.7-1.1-2-.8-4.3.2-.4.5.4.7.5.2-2.1-.5-1.8-.7-3.2.2-2.1.9 1.1 1.1-.7-.8-2.5.2-3.9.1-6.1-1 .8-1.5-6.2-2.3-5.1v-3c.5.9 1 1.8 1.5 1.1v4.1c1.5-.7-1-8.6.7-11.3.1-2.2-.1-1.7.6-5.8l-1.7.8zm1.4-8.4l.2.5c0-.1-.1-.3-.2-.5 0 .1 0 .1 0 0zm-2.6 56.8l.1-2c.3 3 1.3 5.2.8 7.5-.3 1.2-.7.2-1-.9v-4.6h.1zm-.2-25.7v-3.6c.6 1.4.4 2.4 0 3.6zm0-31V339c.2.3.5.7.7 1.3-.1 1.5-.4 2-.7 2.1z" fill="url(#SVGID_19_)"/><linearGradient id="SVGID_20_" gradientUnits="userSpaceOnUse" x1="315.366" y1="437.248" x2="315.661" y2="437.248"><stop offset="0" stop-color="#f7686a"/><stop offset="1" stop-color="#ff7d4a"/></linearGradient><path d="M315.7 437.2c-.1.1-.2.1-.3.2.1-.1.2-.2.3-.2z" fill="url(#SVGID_20_)"/><linearGradient id="SVGID_21_" gradientUnits="userSpaceOnUse" x1="172.091" y1="261.149" x2="172.276" y2="261.149"><stop offset="0" stop-color="#f7686a"/><stop offset="1" stop-color="#ff7d4a"/></linearGradient><path d="M172.1 261.1c.1.1.1.1.2.1-.1-.1-.1-.1-.2-.1z" fill="url(#SVGID_21_)"/><linearGradient id="SVGID_22_" gradientUnits="userSpaceOnUse" x1="171.942" y1="272.344" x2="171.976" y2="272.344"><stop offset="0" stop-color="#f7686a"/><stop offset="1" stop-color="#ff7d4a"/></linearGradient><path d="M172 272.8v-1 1z" fill="url(#SVGID_22_)"/><linearGradient id="SVGID_23_" gradientUnits="userSpaceOnUse" x1="382.103" y1="399.322" x2="382.828" y2="399.322"><stop offset="0" stop-color="#f7686a"/><stop offset="1" stop-color="#ff7d4a"/></linearGradient><path d="M382.1 400.5c.2-.4.7-1.3.7-1.8l-.4-.5-.3 2.3z" fill="url(#SVGID_23_)"/><linearGradient id="SVGID_24_" gradientUnits="userSpaceOnUse" x1="383.833" y1="359.986" x2="384.507" y2="359.986"><stop offset="0" stop-color="#f7686a"/><stop offset="1" stop-color="#ff7d4a"/></linearGradient><path d="M384.2 358.2l-.4 3.4c.4 1.1 1.1-2.9.4-3.4z" fill="url(#SVGID_24_)"/><linearGradient id="SVGID_25_" gradientUnits="userSpaceOnUse" x1="383.85" y1="347.05" x2="384.311" y2="347.05"><stop offset="0" stop-color="#f7686a"/><stop offset="1" stop-color="#ff7d4a"/></linearGradient><path d="M384.3 349.1c-.9-1.1.4-3.4-.4-4.1.2.9-.5 3.9.4 4.1z" fill="url(#SVGID_25_)"/><linearGradient id="SVGID_26_" gradientUnits="userSpaceOnUse" x1="381.698" y1="333.81" x2="383.867" y2="333.81"><stop offset="0" stop-color="#f7686a"/><stop offset="1" stop-color="#ff7d4a"/></linearGradient><path d="M381.8 330.9c.6.2.6 1.6.4 3.2-.2-.5-.5-.9-.6-1.6.5 2.7.4 2.9.7 5 .4-2.1.7-5.4 1.5-5-.5-1.6-1.4-3.5-2-1.6z" fill="url(#SVGID_26_)"/><linearGradient id="SVGID_27_" gradientUnits="userSpaceOnUse" x1="383.19" y1="325.198" x2="384.4" y2="325.198"><stop offset="0" stop-color="#f7686a"/><stop offset="1" stop-color="#ff7d4a"/></linearGradient><path d="M383.5 321.1l-.3 1.1c.6 2.5.3 5.7 1.2 7.1 0-3-.4-6.8-.9-8.2z" fill="url(#SVGID_27_)"/><linearGradient id="SVGID_28_" gradientUnits="userSpaceOnUse" x1="382.759" y1="267.619" x2="383.596" y2="267.619"><stop offset="0" stop-color="#f7686a"/><stop offset="1" stop-color="#ff7d4a"/></linearGradient><path d="M382.9 268.3c.4.5.9-3.2.5-1.1-.4-.5-.9 2.3-.5 1.1z" fill="url(#SVGID_28_)"/><linearGradient id="SVGID_29_" gradientUnits="userSpaceOnUse" x1="189.577" y1="224.097" x2="192.096" y2="224.097"><stop offset="0" stop-color="#f7686a"/><stop offset="1" stop-color="#ff7d4a"/></linearGradient><path d="M192.1 223.9c-1.8-.2-2.9-.1-2.4.6 2-.1.9-.5 2.4-.6z" fill="url(#SVGID_29_)"/><linearGradient id="SVGID_30_" gradientUnits="userSpaceOnUse" x1="185.915" y1="224.169" x2="187.357" y2="224.169"><stop offset="0" stop-color="#f7686a"/><stop offset="1" stop-color="#ff7d4a"/></linearGradient><path fill="url(#SVGID_30_)" d="M187.1 224.3l-1.2-.5 1.5.8z"/><linearGradient id="SVGID_31_" gradientUnits="userSpaceOnUse" x1="170.266" y1="227.403" x2="170.541" y2="227.403"><stop offset="0" stop-color="#f7686a"/><stop offset="1" stop-color="#ff7d4a"/></linearGradient><path d="M170.5 228c-.1-.2-.2-.9-.3-1.6.2 1.4.2 2.6.3 1.6z" fill="url(#SVGID_31_)"/><linearGradient id="SVGID_32_" gradientUnits="userSpaceOnUse" x1="170.225" y1="226.038" x2="170.266" y2="226.038"><stop offset="0" stop-color="#f7686a"/><stop offset="1" stop-color="#ff7d4a"/></linearGradient><path d="M170.2 225.7v.7c.1-.2 0-.5 0-.7z" fill="url(#SVGID_32_)"/><linearGradient id="SVGID_33_" gradientUnits="userSpaceOnUse" x1="170.089" y1="224.676" x2="170.427" y2="224.676"><stop offset="0" stop-color="#f7686a"/><stop offset="1" stop-color="#ff7d4a"/></linearGradient><path d="M170.4 224.3l-.3-.6c0 .4.1 1.2.1 2 0-.7 0-1.4.2-1.4z" fill="url(#SVGID_33_)"/><linearGradient id="SVGID_34_" gradientUnits="userSpaceOnUse" x1="169.87" y1="232.423" x2="171.392" y2="232.423"><stop offset="0" stop-color="#f7686a"/><stop offset="1" stop-color="#ff7d4a"/></linearGradient><path d="M171.4 231.1c-.2-2.3-.4-1.2-.6 0-.2 1.2-.5 2.6-1-.1l.6 4.1c.3-1.4.7-2.8 1-4z" fill="url(#SVGID_34_)"/><linearGradient id="SVGID_35_" gradientUnits="userSpaceOnUse" x1="170.652" y1="251.075" x2="173.175" y2="251.075"><stop offset="0" stop-color="#f7686a"/><stop offset="1" stop-color="#ff7d4a"/></linearGradient><path d="M170.7 244.7c-.3 2.3 1.2 5.6.1 6.9.6 6.5 1.9-1.5 2.3 5.9.6-7-2.2-3.6-1.6-9.8-.7 3-.5-2-.8-3z" fill="url(#SVGID_35_)"/><linearGradient id="SVGID_36_" gradientUnits="userSpaceOnUse" x1="172.127" y1="245.278" x2="172.848" y2="245.278"><stop offset="0" stop-color="#f7686a"/><stop offset="1" stop-color="#ff7d4a"/></linearGradient><path d="M172.6 243.6c-.6-.4-.6 2.5-.2 3.4 0-.8.8-2.3.2-3.4z" fill="url(#SVGID_36_)"/><linearGradient id="SVGID_37_" gradientUnits="userSpaceOnUse" x1="170.768" y1="258.583" x2="171.208" y2="258.583"><stop offset="0" stop-color="#f7686a"/><stop offset="1" stop-color="#ff7d4a"/></linearGradient><path fill="url(#SVGID_37_)" d="M171.2 257.3l-.4 2 .3.5z"/><linearGradient id="SVGID_38_" gradientUnits="userSpaceOnUse" x1="170.318" y1="264.117" x2="170.979" y2="264.117"><stop offset="0" stop-color="#f7686a"/><stop offset="1" stop-color="#ff7d4a"/></linearGradient><path d="M171 264.8l-.7-1.9c.3.7.2 3.5.7 1.9z" fill="url(#SVGID_38_)"/><linearGradient id="SVGID_39_" gradientUnits="userSpaceOnUse" x1="170.131" y1="276.089" x2="171.174" y2="276.089"><stop offset="0" stop-color="#f7686a"/><stop offset="1" stop-color="#ff7d4a"/></linearGradient><path d="M171.1 274.9l-.1.9c-.2-.2-.8 1.8-.9-.5-.2 1.8 1.4 3.5 1-.4z" fill="url(#SVGID_39_)"/><linearGradient id="SVGID_40_" gradientUnits="userSpaceOnUse" x1="172.079" y1="298.721" x2="172.561" y2="298.721"><stop offset="0" stop-color="#f7686a"/><stop offset="1" stop-color="#ff7d4a"/></linearGradient><path d="M172.6 299.5c0-1.2-.2-2.7-.5-2.5l.3 3.4.2-.9z" fill="url(#SVGID_40_)"/><linearGradient id="SVGID_41_" gradientUnits="userSpaceOnUse" x1="176.255" y1="296.243" x2="176.682" y2="296.243"><stop offset="0" stop-color="#f7686a"/><stop offset="1" stop-color="#ff7d4a"/></linearGradient><path d="M176.3 299c.9-1.1-.1-3.2.2-5.5-.2 2.6-.3 2.3-.2 5.5z" fill="url(#SVGID_41_)"/><linearGradient id="SVGID_42_" gradientUnits="userSpaceOnUse" x1="170.82" y1="301.792" x2="171.235" y2="301.792"><stop offset="0" stop-color="#f7686a"/><stop offset="1" stop-color="#ff7d4a"/></linearGradient><path d="M171.2 303.4c-.4-.9-.1-2.4-.1-3.2-.5.4-.3 2.8.1 3.2z" fill="url(#SVGID_42_)"/><linearGradient id="SVGID_43_" gradientUnits="userSpaceOnUse" x1="170.486" y1="310.054" x2="172.867" y2="310.054"><stop offset="0" stop-color="#f7686a"/><stop offset="1" stop-color="#ff7d4a"/></linearGradient><path d="M171.6 308.9c-.4 1.1-.5-.2-.8.6-.4 2.4-.4 4.9.1 6.3.4-.6 1.5-1.5 1.9-.5-.3-3.8-2.1-5.8-.7-7.7l-1.6-3.2c-.2 3 1.2 2.3 1.1 4.5z" fill="url(#SVGID_43_)"/><linearGradient id="SVGID_44_" gradientUnits="userSpaceOnUse" x1="174.093" y1="303.255" x2="175.367" y2="303.255"><stop offset="0" stop-color="#f7686a"/><stop offset="1" stop-color="#ff7d4a"/></linearGradient><path d="M174.9 305.4c1.2-.5-.2-3.1-.2-4.3l-.5 2.1c.4-.4.5 1.1.7 2.2z" fill="url(#SVGID_44_)"/><linearGradient id="SVGID_45_" gradientUnits="userSpaceOnUse" x1="172.268" y1="332.266" x2="172.609" y2="332.266"><stop offset="0" stop-color="#f7686a"/><stop offset="1" stop-color="#ff7d4a"/></linearGradient><path fill="url(#SVGID_45_)" d="M172.3 330.1l.2 4.3.1-1.4z"/><linearGradient id="SVGID_46_" gradientUnits="userSpaceOnUse" x1="171.546" y1="334.601" x2="172.175" y2="334.601"><stop offset="0" stop-color="#f7686a"/><stop offset="1" stop-color="#ff7d4a"/></linearGradient><path fill="url(#SVGID_46_)" d="M171.9 332.9l-.4.1.7 3.3z"/><linearGradient id="SVGID_47_" gradientUnits="userSpaceOnUse" x1="171.24" y1="335.901" x2="171.539" y2="335.901"><stop offset="0" stop-color="#f7686a"/><stop offset="1" stop-color="#ff7d4a"/></linearGradient><path fill="url(#SVGID_47_)" d="M171.5 336.9l-.3-2.5.3 3z"/><linearGradient id="SVGID_48_" gradientUnits="userSpaceOnUse" x1="171.255" y1="344.557" x2="171.848" y2="344.557"><stop offset="0" stop-color="#f7686a"/><stop offset="1" stop-color="#ff7d4a"/></linearGradient><path d="M171.5 342.6c.2 1 .1 3.2-.3 3.9l.5-.8c-.1-1.1.5-3.3-.2-3.1z" fill="url(#SVGID_48_)"/><linearGradient id="SVGID_49_" gradientUnits="userSpaceOnUse" x1="360.317" y1="434.188" x2="360.359" y2="434.188"><stop offset="0" stop-color="#f7686a"/><stop offset="1" stop-color="#ff7d4a"/></linearGradient><path d="M360.3 434.2z" fill="url(#SVGID_49_)"/><linearGradient id="SVGID_50_" gradientUnits="userSpaceOnUse" x1="360.227" y1="434.614" x2="361.875" y2="434.614"><stop offset="0" stop-color="#f7686a"/><stop offset="1" stop-color="#ff7d4a"/></linearGradient><path d="M360.3 434.2c-.3.3.2.6.7.8 2.2-.3-.5-.7-.7-.8z" fill="url(#SVGID_50_)"/><path class="st3" d="M296.7 290.9c-.5 0-1.1-.1-1.6-.4l-17.1-9-17.1 9c-1 .6-2.3.5-3.3-.1s-1.6-1.7-1.6-2.9v-70.8c0-1.9 1.5-3.4 3.4-3.4s3.4 1.5 3.4 3.4v65.2l13.7-7.2c1-.5 2.2-.5 3.1 0l13.7 7.2v-65.2c0-1.9 1.5-3.4 3.4-3.4s3.4 1.5 3.4 3.4v70.8c0 1.2-.6 2.3-1.6 2.9-.5.3-1.1.5-1.8.5z"/><path class="st1" d="M170.8 220.3l1.3-.9c-1.3.9-1.5.5-3.3 2.1l2-1.2zM172 219.4c.2-.1.4-.3.7-.5l-.7.5zM170.6 218.7l.1.5c.7-.6 1.4-1.2 2-1.8-.7.5-1.4.9-2.1 1.3zM10.2 111.6v-.6c-.7 1.1-.4 1 0 .6zM52.9 90.2l-.7.6c.2 0 .4 0 .5-.1.3-.1.3-.3.2-.5zM3.5 129c.3-.6.6-1.4.9-2.1-.2-.3-.7.4-.9 2.1zM67.6 86.8c-.6 0-1.4.1-2.4.4.8-.2 1.6-.3 2.4-.4z"/><path class="st1" d="M183.2 198.5c-.1-1.3 0-2.6 0-3.9 0-.6 0-1.3.1-1.9 0-.6 0-1.3-.1-1.9 0-1.3-.1-2.5-.3-3.7-.1-1.3-.4-2.3-.6-3.3.5 1.1.9 1.2 1 .7-3.2-8.9-4.9-18-8.1-28.3l.2-3.4h-.8c-1.7-5 .8-1.4-.2-4.6.3 1.2.1 1.1 0 1.4-.7-6.1-1.5-3.1-2.2-6.5-.4 1.8 1.4 6.5-.1 5.3-.7-6.1-3.6-15.2-2-16.5-3.6-10.8-6-24.6-8.3-33.9-.7-1.3 0 .9-.4.5-.1-1.1-.4-2.5-.9-3.9-.6-1.4-1.3-2.9-2.2-4.2-.8-1.3-1.7-2.4-2.3-3.2-.3-.4-.5-.7-.6-1-.1-.2-.2-.4-.1-.5-1.5-1.4-2.6-1.6-3.2-1.8-1.5-2.2-3.8-4.4-6.7-6.3l1.9 1.6h-.3c-.9-.7-1.8-1.5-2.8-2.1h.1c-3.7-2.2-8.1-3.6-12.6-4.2-4.5-.6-9-.4-12.9.1 3.9-.3.4.9.8 1.2-.9-.1-1.9-.1-3.2.1-1.4.1-3 .4-4.7.8-3.3.7-7 1.7-10.3 2.6.1.3-.3.7.5.7l-4 .4.6.2c-6.8 2.1-14.7 2.4-19.1 4.3 2.9-.6 2.9-.3 3.4.2-4.9 1.3-9.6 2.4-15.4 3.5.3 0 .6.1.6.2-1.5.5-3.4.6-5 .9v.8c-3 .4-6.7 1.8-10.4 2.1-1.2 1.2-8.7 1.5-12.6 2.9-1.6.2 3.6 0-.8 1.1-1-1.4-5.6 1.4-6.4-.2l-1.9.8-2.1 1-1.3-.5c-1.5 1.6-2.9 1.9-4.6 2.5-1.7.5-3.7 1.2-5.8 3.2.4-.1.9-.4.7-.1-.8.5-2 1.5-2.8 2-.7.6-1 .6.1-.7-.6.5-1.5 1.4-2.4 2.4-.9 1-1.9 2.2-2.6 3.2-1.4 2.1-2 3.4-.3 1.6-.3 0 .2-.9 1-1.9.9-1 1.9-2.1 2.7-2.7.3.6-2.8 4.1-2.6 5.5-.1.1-.6.5-.9.8 0 .3 0 .5.1.8-1.7 2.3-3 4.9-3.8 7.4-.2.6-.4 1.3-.6 1.9-.2.6-.3 1.2-.5 1.8-.4 1.2-.6 2.3-1 3.3.2.3.2 1.3.2 3.3l-1 .1v1.6l.2 1.6c.1 1 .2 2.1.4 3.1.2-1 .6-2.1 1-3.1l.3 2.4c.1.8.3 1.5.3 2.2.1.7.2 1.3.3 2 .1.6.1 1.2.2 1.8.2 2.4.3 4.6.8 6.9 1.9.8 1.8 9.1 4.2 12.7l-.5-3.7c1.7 7.7 3 8.7 4.3 16-2.1-5.9-1.8-6.1-5.4-14.6 3 8.7 3.1 15.6 6.2 23.5.2-.6-.1-2.7.8-.9-.4 1.8 2 7.6.8 6.7 1 2.4 2 2.7 2.5 4.2l1.1 8.8.1-.3c3 6.9 4.4 13.7 5.6 20.6.3 1.7.6 3.4 1 5.2.3 1 .5 2 .8 3.1.3 1 .7 2 1.1 3 1.6 3.9 4.2 7.7 7.5 10.7l.1-.6 1.4 1.8c.3.4.7.8 1.1 1.3-1.5-1.7 2 .9 2.5.7 2.9 2.5 6.1 4.5 9.7 6.1.4-.4 0-1.4-2.6-2.3 2.1.6 4.1 1.4 6.1 2.1l3 .9c1 .2 2 .4 2.9.5l-1.2-.6c.6.1 1.2.3 1.9.3l1.9.2v-.6c1.6.1 3.2-.1 4.8-.3.8-.1 1.6-.3 2.4-.5.7-.2 1.6-.3 2.2-.5 2.5-.6 4.5-1.1 5.6-.8l-.9-.8 5.6-.6-3.3.1c6-1.8 15.5-3.4 16.8-3.8l-.6-.2c.9-.4 1.8-.4 2.9-.6l-.9-.3c9.2-2.2 11.4-4.1 21.8-6.2 2.8-.9-1.6.2-1.7-.1 1.4-.8 5.1-1.4 5.9-1.3-1-.6-5.3.7-2.2-.8 2.4-.2-1.8-.4 2.3-1.3l1.9.7c2.2-.8.2-1 3.9-1.8 4.2-.6-4.7 2.6 2 1 3.3-.9 6.3-4.4 12.9-5.5 5.4-2-3.4-1 4.4-2.7l-2.6.3 5.6-1.5c.3 0 .5-.1.7-.1-.1 0-.3 0-.4.1l5.9-1.6c.4-.1.9-.2 1.3-.4 1.1-.1 2.6-.6 4.2-1.4.6-.2 1.2-.7 1.8-1 .6-.4 1.2-.7 1.7-1.1l1.2-.9c.7-.5 1.4-1.1 2.1-1.6l.1-.1c1.9-1.6 3.5-3.4 5-5.4.1.2.1.3.2.5.2-.4.4-.9.7-1.5.3-.6.7-1.2 1.1-1.9.3-.7.7-1.3 1-1.8.3-.5.6-.9.8-1 .2.2.1.6 0 1.2-.2.5-.5 1.2-.9 1.9-.3.7-.8 1.4-1.3 2-.3.5-.6.9-.9 1.3.6-.8 1.1-1.5 1.6-2.2.5-.8 1-1.5 1.4-2.1.4-.6.8-1.2 1.1-1.7.3-.5.6-1.1.9-1.5.5-1 1-2 1.4-3.3.3-1.3.7-2.9.6-5l-.7.8zm-178.4-68c0-.9 0-1.8.1-2.6 0-.5 0-1.1.2-1.7l-.2 1.7c.1 1.3.5 2.3-.1 2.6zm173.5 41.7c1.3 2.3.7 6.2 1.3 6.8 0-1.4-.7-3.9-.1-4.1 1.5 3.1 1 5.2 1.5 7.5l-.6-1.2c.4 2.7.3 4.1.2 5l-.6-2.3.1.1c-1-3.8-2.1-9.5-1.8-11.8zm-1.9-8.8l-.4 1.8-.7-3.1 1.1 1.3zm.4 8.2l-3.3-12.8c-.1-1.6-.1-3.2-.9-5.3 0 .4-.1.7-.2 1.1l-.9-3.3c0-.2 0-.9-.1-2.2 2.2 7.2 3.9 14.9 5.4 22.5zm-15.7-60c0-.4 0-.9-.1-1.3 1.5 2 1.9 5.8 2.2 9.6l-2.1-8.3zm5.5 18.5l.4 1.8-1-2.5.6.7zm-8.9-34.2c-.1-.5-.2-1-.2-1.2.2.4.2.9.2 1.2.3 1.4 1 3.4 1.4 4.2.3-.6-.5-2.7-.5-3.6.4.7.8 1.8 1 2.8.2 1.1.3 2.2.4 3.1.2 1.9.5 3.1 1.5 1.8 0 1.4.5 5.9-.3 4.5-.4-1.8-1.1-4.3-1.8-6.6-.4-1.2-.7-2.3-1.1-3.4-.4-1-.8-1.9-1.1-2.5-.2-.1-.4-.3-.7-.9.2.1.4.5.7.9.2.2.4.1.5-.3zm-7.2-10.2c.9.8 2 2.1 2.4 2.6.1.3.2.7.4 1-1.1-1.5-2.3-2.9-3.6-4.2.2.2.5.4.8.6zM127 72.6c.3.1.3.1.2.2l1.6.3c-4.1.4-2 0-1.6-.3-.6-.1-1.3-.2-2-.3 1 0 1.5.1 1.8.1zm-8.2 2.6c.1-.2.4-.4 1-.6.6-.2 1.3-.4 2.1-.5.8-.2 1.6-.2 2.3-.3h1.7c-1.1.2-3.2.3-4.8.8-1.5.4-2.6.7-2.3.6zm-3 2.3c2.5-.4 1.3.3 1.7.4h-.1c-1.1.1-1.9 0-1.6-.4zm-11.5 3.1v-.1.1zm-10.5 2.6c3-.3 2.2-.8 3.7-1.3l-.8 1.1c-4.2.6-4.6.2-8 0 4-1.6 5.4-.5 5.1.2zm-3.7-1.5c.4-.2.9-.4 1.6-.6l-1.6.6c-1.9 1-2 2.2-5.1 1.8l5.1-1.8zM20 107c-.9.8-1.8 1.7-2.6 2.6-.1-.3-.3-.4-.3-.9 1-.5 1.9-1.1 2.9-1.7zM7.9 142.4c-.2-1.1-.2-1.6-.5-2.3-.2.6-.2 2.9-.8 1.4.1-.6-.1-1.7-.2-2.9s-.1-2.3.2-2.4c0 .9.2 1.7.4 2.5.2.6.5 1.2.7 1.7.5.9.8 1.6.2 2zm.9-17.2c.1-.7.2-1.2.4-1.6.3-1.7.4-2.2.9-1.8.5-.7.5-2.1 1.1-2.8-.5 3.2-1.4 2.8-2 4.6-.1.5-.2 1-.4 1.6zm.6 9.2c.3-.3.4-.8.4-1.5v-1.1c.1.9.1 1.7.3 2.6-.2.4-.4.4-.7 0zm6 31.6l.3-.9.3.7-.4-3.2c1.8 3.8 1.2 7.1 1.5 9.2-.5-1.8-.5-7.1-1.7-5.8zm5 8.8l.2 1-.1.2c0-.5 0-.8-.1-1.2zm2.8 27.6c-1.5-2.1-1-3.9-1-5.4v-.6.6c.2 2.6 1.6 3.2 1 5.4zm2.9 4.6l-.5-1.5c-.9-1 .2 2.5-.2 2.9-.7-1.7-1.3-6-.8-4.5 1.3 3.7.5-2.1 1.5.3l-.6-2c1.4 3.2-.2 2.6.6 4.8zM43 240.7c-.5-.3-1.2-.9-2.1-1.4.5.3.4-.1-.1-.8-.1-.2-.2-.4-.4-.6 1 1.1 2 2.1 3.1 3 0 .1-.2 0-.5-.2zm45.6 5.4c-.4.4-2.4 1-4 1.2 2.1-1.1 2.4-1 4-1.2zm-.3.7c3.6-1.6 3.3-.1 5.6-.6-2.9 1.3-2.7 0-5.6.6zm43.2-15l-1.6.2c-.3 0-.4-.1-.5-.1l2.6-.7c.4.1.3.3-.5.6zm46.8-23.4c.4-.7.7-1.4 1-2.2.2-.1.3-.3.5-.6-.4.9-.9 1.9-1.5 2.8zm4-10.4c0 1-.2 2-.5 2.9-.1.4-.2.8-.4 1.2-.2.3-.3.6-.5.8.2-.8.4-1.6.5-2.4.1-.8.3-1.6.3-2.4-.4 2.1-1 4.1-1.6 5.8 1-3.2 1.5-6.5 1.5-10 .2-.4.4-.9.7-.9-.1 1 .2 3 0 5z"/><path class="st1" d="M176.5 213c-.1.1-.2.2-.3.4.2-.2.2-.3.3-.4zM39.8 246.2c.1.1.2.3.4.5-.2-.2-.3-.4-.4-.5zM144.5 76.9h-.2c.4.2.7.4 1 .6-.2-.2-.5-.4-.8-.6z"/><path class="st3" d="M77.4 196.9c-.6 0-1.2-.1-1.7-.5-1.6-.9-2.1-3-1.2-4.6l36.6-62.6c.9-1.6 3-2.1 4.6-1.2 1.6.9 2.1 3 1.2 4.6l-36.6 62.6c-.6 1.1-1.8 1.7-2.9 1.7z"/><circle class="st3" cx="80.2" cy="140.5" r="7.4"/><circle class="st3" cx="111.1" cy="183.8" r="7.4"/><path class="st3" d="M182.6 145.6c15.9-2.3 32.4-1.7 47.5 3.7 15.1 5.4 28.7 15.9 36.1 30.2"/><linearGradient id="SVGID_51_" gradientUnits="userSpaceOnUse" x1="432.796" y1="1377.295" x2="504.4" y2="1377.295" gradientTransform="rotate(-16.685 -3797.304 1601.346)"><stop offset="0" stop-color="#f7686a"/><stop offset="1" stop-color="#ff7d4a"/></linearGradient><path d="M265.2 180c-6.8-13.2-19.8-24-35.4-29.6-13.8-5-29.6-6.2-47-3.6l-.3-2.2c17.7-2.6 33.9-1.3 48.1 3.8 16.2 5.8 29.6 17 36.7 30.7l-2.1.9z" fill="url(#SVGID_51_)"/><linearGradient id="SVGID_52_" gradientUnits="userSpaceOnUse" x1="260.834" y1="177.298" x2="260.958" y2="177.298"><stop offset="0" stop-color="#f7686a"/><stop offset="1" stop-color="#ff7d4a"/></linearGradient><path d="M261 177.4v-.3c-.2.1-.2.2 0 .3z" fill="url(#SVGID_52_)"/><linearGradient id="SVGID_53_" gradientUnits="userSpaceOnUse" x1="269.117" y1="175.289" x2="269.235" y2="175.289"><stop offset="0" stop-color="#f7686a"/><stop offset="1" stop-color="#ff7d4a"/></linearGradient><path d="M269.1 175.4h.1c0-.1 0-.2-.1-.4v.4z" fill="url(#SVGID_53_)"/><linearGradient id="SVGID_54_" gradientUnits="userSpaceOnUse" x1="257.027" y1="177.516" x2="257.878" y2="177.516"><stop offset="0" stop-color="#f7686a"/><stop offset="1" stop-color="#ff7d4a"/></linearGradient><path d="M257 177.3c.3.2.6.3.9.4 0-.2-.3-.4-.9-.4z" fill="url(#SVGID_54_)"/><linearGradient id="SVGID_55_" gradientUnits="userSpaceOnUse" x1="271.638" y1="174.475" x2="272.356" y2="174.475"><stop offset="0" stop-color="#f7686a"/><stop offset="1" stop-color="#ff7d4a"/></linearGradient><path d="M271.6 174.5c.3 0 .5 0 .7-.1-.1 0-.4 0-.7.1z" fill="url(#SVGID_55_)"/><linearGradient id="SVGID_56_" gradientUnits="userSpaceOnUse" x1="278.669" y1="192.35" x2="278.717" y2="192.35"><stop offset="0" stop-color="#f7686a"/><stop offset="1" stop-color="#ff7d4a"/></linearGradient><path d="M278.7 192.3v0z" fill="url(#SVGID_56_)"/><linearGradient id="SVGID_57_" gradientUnits="userSpaceOnUse" x1="238.457" y1="188.604" x2="288.613" y2="188.604"><stop offset="0" stop-color="#f7686a"/><stop offset="1" stop-color="#ff7d4a"/></linearGradient><path d="M284.1 176.8l.9-1.1h.1c1.2-1.9 2-3.6 3.6-5.9-.1-.1 0-.4-.3-.5.2.4-1.3 1.2-1.7 1.6.8-1.3-1.8-.6-3.8.2-.3.3-.6.6-.6.8l-.6-.3-.1.3c-1.1.4-1.9.4-2.8.4-.9 0-1.8.1-2.6.6.8-.1.7.2.7.6-1.4.4-2.6.7-4.4.9.1 0 .2.1.2.2-.2.1-.5.1-.7.1h-.7l.1.6c-.6-.1-1.2.4-2 .2-.1.7-1.7-.1-2.4.4-.3 0 .8.4 0 .7-.5-1.2-1 .3-1.5-1l-.6.7-.3-.6c-.2 1.4-1.1-.3-1.8.4.1.1.2.1.2.2-.3 0-1 .1-.6-.4-.5.1-2.2.3-1.2.8-.2-.4.6-.2.9-.2.1.6-.6.6-.6 1.2 0-.1-.2-.1-.3-.2v.4c-.5-.2-1-.1-1.4 0-.2 0-.4.1-.6 0-.2 0-.7 0-1-.1 0 .2-.2.4-.8.5l-.4-.6-1.8.6c.5.2 1 .4 1.4.7-.8.4-1.7.4-2.7.4-1 0-2.1 0-3 .1.4.5-.4.6-1.5.8-1 .2-2.3.4-2.2.9l1.7-.2c-1.4.3-1.9.6-2.4.9-.5.3-1 .5-2.5.7.6-.4 1-.6 1.4-.8.4-.2.8-.6 1.6-1.3-1.2.6-2.8.9-4.4 1.3-.8.2-1.6.3-2.3.6-.7.2-1.3.4-1.6.7.9 0 1.9-.1 2 .2-.5 0-.9 0-1.2.1.5.4 2 1.1.5.8 1.5.6 3.1.8 3.9 1.1.2.5.6 1 1.1 1.6l.2-.1c2 .7 3.3 1.3 4.4 2 .6.3 1 .7 1.4 1 .4.4.9.7 1.3 1.1.8.8 1.6 1.7 2.6 2.5l.7.7.3.3c.2.2.5.4.8.5l.2-.3.2.8c-.2-.6.5-.2.7-.5.3.6.5 1.1.7 1.7.2-.2.7-.9.3-1 .7.1.7 1.2 1.1 1.6l.1-.4.2.6.3-.4c.5.8 1.7 1.2 1.4 2l.5-.6.3 1.1v-.8c.9.7 1.6 2.3 1.8 2.5l.1-.3c.2 0 .2.3.2.5l.2-.4c1 1.3 2.1 1 2.9 2.8.4.3-.1-.3.1-.5.4 0 .6.7.5 1 .4-.5-.2-1 .6-.9 0 .5.3-.6.7.1l-.5.8c.4.2.6-.3.9.2.2.8-1.3-.1-.7.9.4.4 2.4-.1 2.7 1.1 1 .6.8-1.2 1.4.1v-.6l.6.9v0c.1.1.2.3.3.4v.6c.1 0 .2-.1.3-.1l.1.1v-.2c.2-.3.2-.7.1-1.1.4.1.7.1.7-.6l.2.4c0-.1.1-.1.1-.1l.4.5c-.1-.4-.5-1.3.2-1.3l.7.7c.3-.5.6-.3.9-.5-.3-1-.6-1.9-.9-2.9-.2.3-.1.7-.4.7-.6-.5.1-.8-.7-1.2l-.1.5c.1-.1.1-.2.2-.1.3.1.2.3 0 .5-.2 0-.4-.1-.5-.3.4-.7.9-.9.6-2l-.3.2c-.5-.9.5-1.8.6-2.5.1.2.4.3.5.2-.4-1.8.3-3.4.3-5.3l.9-.4-.6-.2c0-.9.7-.2.9-.5 0 .1-.1 0-.2.1.9-.9-.4-.7-.1-1.3-.7.1-.5 1.1-1.2.7.9-.9 1-2.7 2.3-2.5 0-1 .4-2.1.9-3.1.1-.2.3-.5.4-.7.1-.2.2-.4.5-.9.4-.8.7-1.5 1.1-2.2-.1-.4-.3.2-.4.1.6-.5.9-1.4 1.1-2.1.2-.7.2-1.2.7-1.4 0-.4-.6-.3-.8-.4.8-.8 1.4-1.7 2.1-2.7l-.6.8h-.4zm3.1-5.5l.8-1c-.3.6-.5.8-.8 1l-.7.8c0-.5.3-.5.7-.8zm-2.1.7c.3-.3.7-.5 1-.6.1 0 .2.1.1.3-.1.2-.3.4-.4.5 0-.1.1-.2.1-.2-.1 0-.1 0-.2-.1h-.2c-.3.1-.5.2-.4.1zm-2.6 2c.1.2-.5.6-.7.8.1-.2.3-.4.7-.8zm-2.5 6.4c-.1.1-.3.2-.4.3.1-.3.3-.7.4-1 .3 0 .1.5 0 .7zm-29.8 3.7h.5c-.1 0-.1 0-.2.1l-.3-.1zm7.6-2.7c.3.3.5.3.8.3-.2 0-.3.1-.5.1-.1 0-.2-.1-.3-.4zm21.3-6.7l-.8.9c-.5-.2-.3-.7-.5-1.4 1.3-.7.8.5.3 1.1.2.2.5-.4 1-.6zm1.2-.2c0 .1-.1.1-.2.2l.2-.2zm-5.1 27.4s-.1 0-.1.1v-.9c-.2.4-.2.8-.3 1.1 0-.6.1-1.2.1-1.9.1-.1.3-.1.6-.1-.4.3.2 1.3-.3 1.7zm.5-8.3c.3-.2.7-.5.5-.9-.1 0-.2.1-.3.1 0-.2.1-.4.1-.6.1 0 .2-.1.4-.3 0 1.4-.6 2.8-1.1 4.1.2-.8.3-1.6.4-2.4zm2.9-20.4c.2-.1.4-.2.5-.3l-.5.3c-.8.6-1.4 1.7-1.6.8l1.6-.8zm-15 7.1c-.2.1-.5.1-.7.2 0-.2-.1-.4-.1-.6.3.2.6.3.8.4zm-3.8.2c.3-.1.4-.2.5.3.2.1.4-.2.6 0-.6.5-.7-.2-1.1-.3-.1 0-.2 0-.3.1.1-.1.2-.1.3-.1zm-2-2.3c.1-.1.3-.1.5-.1l-.5.1c-.3.2-.4.5-.7.2l.7-.2zm-3.8 1.1c.6.2 1.8-.1 2.1.3-.6-.1-.9.2-1 .4-.2.2-.3.3-.8 0 .4 0 .6 0 .7-.1-.4-.2-1.4-.4-1-.6zm-5.1 3.3l.9.2-.1.1 1.2-.1c0 .3-.5.3-1.3.3s-1.7-.1-2.1 0c.6-.2 3.6 0 1.4-.5zm-1.4 4.3c-2-.4-1.2-.7-1-.9v-.1.1c0 .3 1.9.5 1 .9zm3.4.6l-.5-.2c-1.1-.1.1.4-.4.6-.8-.3-1.4-1-.8-.8.7.3.9.2 1.1.1.2-.1.3-.3.8-.1l-.6-.3c1.6.4-.5.4.4.7zm8.2 3.9c.2 0 .2-.3.1-.5.2.2.4.3.6.5-.2.1-.3-.1-.7 0zm5.2 7.6c-.2.1-.5-.2-.6-.5.6.1.5.2.6.5zm-.1 1.4c-.7-.1 0-.7-.2-1.1.8.1 0 .7.2 1.1zm7.2 3.4l-.1-.3c0-.1.1-.1.1-.2.1.1.2.3.3.4 0 .1-.1.2-.3.1zm4.7-5.5l-.2-.3c-.3.5-.6.7-.9.8v-.4h.1c.1-.7.5-1.8 1.2-2.1.4.5-.8 1-.5 1.2.3-.2.3-.7.8-.6.4.7-.4.9-.5 1.4zm.1-3.4l.1-.6.5.4-.6.2zm1.2-6.2l-.1-.5.2.2-.1.3zm.2-2.4c.2-.5.3-1 .5-1.5.1 0 .2-.1.3-.2.5.7-.2 1.2-.8 1.7zm2-3c-.3.4-.4.6.6.6-.2.1-.5.4-.8.6-.3.1-.5.2-.6 0 .3-.6.7-2.1.5-2.5-.1 0-.2-.1-.2-.2.1 0 .1.1.2.2.1 0 .3 0 .5-.1.1-.1.2-.2.4-.3 0 .1-.2.2-.4.3-.3.3-.3.7-.2.9.3-.1.5-.5.7-.7.3.3-.3.9-.7 1.2z" fill="url(#SVGID_57_)"/><linearGradient id="SVGID_58_" gradientUnits="userSpaceOnUse" x1="284.831" y1="175.802" x2="285.1" y2="175.802"><stop offset="0" stop-color="#f7686a"/><stop offset="1" stop-color="#ff7d4a"/></linearGradient><path d="M284.8 176l.3-.3h-.1c0 .1-.1.2-.2.3z" fill="url(#SVGID_58_)"/></svg>